<svg xmlns="http://www.w3.org/2000/svg" width="40" height="31.9" viewBox="0 0 40 31.9">
  <defs>
    <style>
      .cls-1 {
        fill: #6c757d;
      }
    </style>
  </defs>
  <path id="how_to_reg_FILL0_wght400_GRAD0_opsz48" class="cls-1" d="M4,40V35.3a5.988,5.988,0,0,1,.85-3.125A5.4,5.4,0,0,1,7.4,30,37.376,37.376,0,0,1,14,27.7a26.327,26.327,0,0,1,6-.7,28.78,28.78,0,0,1,3.075.175A22.344,22.344,0,0,1,26.4,27.8l-2.45,2.45q-1-.1-1.975-.175T20,30a24.485,24.485,0,0,0-5.275.525A34.7,34.7,0,0,0,8.6,32.7a2.5,2.5,0,0,0-1.225,1.15A3.236,3.236,0,0,0,7,35.3V37H22.95l3,3Zm27.25.8L24.2,33.75l2.1-2.1,4.95,4.95L41.9,25.95l2.1,2.1ZM20,23.9a7.193,7.193,0,0,1-7.5-7.5A7.193,7.193,0,0,1,20,8.9a7.193,7.193,0,0,1,7.5,7.5A7.193,7.193,0,0,1,20,23.9ZM22.95,37ZM20,20.9a4.361,4.361,0,0,0,4.5-4.5A4.361,4.361,0,0,0,20,11.9a4.361,4.361,0,0,0-4.5,4.5A4.361,4.361,0,0,0,20,20.9Zm0-4.5Z" transform="translate(-4 -8.9)"/>
</svg>
