<svg xmlns="http://www.w3.org/2000/svg" width="40" height="40" viewBox="0 0 40 40">
  <defs>
    <style>
      .cls-1 {
        fill: #6c757d;
      }
    </style>
  </defs>
  <path id="info_FILL0_wght400_GRAD0_opsz48" class="cls-1" d="M22.65,34h3V22h-3ZM24,18.3a1.643,1.643,0,0,0,1.175-.45,1.515,1.515,0,0,0,.475-1.15,1.681,1.681,0,0,0-.475-1.2,1.631,1.631,0,0,0-2.35,0,1.681,1.681,0,0,0-.475,1.2,1.515,1.515,0,0,0,.475,1.15A1.643,1.643,0,0,0,24,18.3ZM24,44a20.285,20.285,0,0,1-7.9-1.525A19.357,19.357,0,0,1,5.525,31.9,20.285,20.285,0,0,1,4,24a20.156,20.156,0,0,1,1.525-7.85A19.52,19.52,0,0,1,9.75,9.8,19.939,19.939,0,0,1,24,4,19.84,19.84,0,0,1,44,24a19.939,19.939,0,0,1-5.8,14.25,19.52,19.52,0,0,1-6.35,4.225A20.156,20.156,0,0,1,24,44Zm0-20Zm0,17a16.366,16.366,0,0,0,12-5,16.366,16.366,0,0,0,5-12,16.366,16.366,0,0,0-5-12A16.366,16.366,0,0,0,24,7a16.366,16.366,0,0,0-12,5A16.366,16.366,0,0,0,7,24a16.366,16.366,0,0,0,5,12A16.366,16.366,0,0,0,24,41Z" transform="translate(-4 -4)"/>
</svg>
