<svg xmlns="http://www.w3.org/2000/svg" width="25" height="25" viewBox="0 0 25 25">
  <defs>
    <style>
      .cls-1 {
        fill: #6c757d;
      }
    </style>
  </defs>
  <path id="add_circle" class="cls-1" d="M15.656,22.75h1.875V17.563H22.75V15.688H17.531V10.25H15.656v5.438H10.25v1.875h5.406ZM16.5,29a12.678,12.678,0,0,1-4.937-.953,12.1,12.1,0,0,1-6.609-6.609A12.678,12.678,0,0,1,4,16.5a12.6,12.6,0,0,1,.953-4.906A12.2,12.2,0,0,1,7.594,7.625,12.462,12.462,0,0,1,16.5,4,12.4,12.4,0,0,1,29,16.5a12.462,12.462,0,0,1-3.625,8.906,12.2,12.2,0,0,1-3.969,2.641A12.6,12.6,0,0,1,16.5,29Zm0-12.5Zm0,10.625A10.229,10.229,0,0,0,24,24a10.229,10.229,0,0,0,3.125-7.5A10.229,10.229,0,0,0,24,9a10.229,10.229,0,0,0-7.5-3.125A10.229,10.229,0,0,0,9,9a10.229,10.229,0,0,0-3.125,7.5A10.229,10.229,0,0,0,9,24,10.229,10.229,0,0,0,16.5,27.125Z" transform="translate(-4 -4)"/>
</svg>
