<svg xmlns="http://www.w3.org/2000/svg" width="19.999" height="19.999" viewBox="0 0 19.999 19.999">
  <defs>
    <style>
      .cls-1 {
        fill: #6c757d;
      }
    </style>
  </defs>
  <path id="rz_link" class="cls-1" d="M134.605,124.607a10,10,0,1,0,10,10A10,10,0,0,0,134.605,124.607Zm0,14.8-1.262,1.263a3.394,3.394,0,0,1-4.8-4.8l1.262-1.262a3.393,3.393,0,0,1,3.2-.9l-3.315,3.311a1.766,1.766,0,0,0,2.5,2.5L135.5,136.2A3.391,3.391,0,0,1,134.606,139.405Zm1.718-7.758a.878.878,0,0,1,1.241,1.242l-4.677,4.678a.878.878,0,0,1-1.242-1.242Zm4.343,1.7-1.262,1.262a3.388,3.388,0,0,1-3.2.9l3.313-3.314a1.766,1.766,0,0,0-2.5-2.5l-3.312,3.313a3.387,3.387,0,0,1,.9-3.2l1.262-1.263a3.394,3.394,0,0,1,4.8,4.8Z" transform="translate(-124.606 -124.607)"/>
</svg>
