<svg xmlns="http://www.w3.org/2000/svg" width="25" height="25" viewBox="0 0 25 25">
  <defs>
    <style>
      .cls-1 {
        fill: #6c757d;
        opacity: 0.66;
      }
    </style>
  </defs>
  <path id="my_location" class="cls-1" d="M13.744,27.1V24.96a10.338,10.338,0,0,1-9.5-9.5H2.1V13.744H4.24a10.338,10.338,0,0,1,9.5-9.5V2.1h1.712V4.24a10.338,10.338,0,0,1,9.5,9.5H27.1v1.712H24.96a10.338,10.338,0,0,1-9.5,9.5V27.1Zm.856-3.824a8.351,8.351,0,0,0,6.122-2.554A8.351,8.351,0,0,0,23.276,14.6a8.351,8.351,0,0,0-2.554-6.122A8.351,8.351,0,0,0,14.6,5.924,8.351,8.351,0,0,0,8.478,8.478,8.351,8.351,0,0,0,5.924,14.6a8.351,8.351,0,0,0,2.554,6.122A8.351,8.351,0,0,0,14.6,23.276Zm0-4.395A4.239,4.239,0,0,1,10.319,14.6,4.239,4.239,0,0,1,14.6,10.319,4.239,4.239,0,0,1,18.881,14.6,4.239,4.239,0,0,1,14.6,18.881Zm0-1.712a2.583,2.583,0,0,0,1.826-4.395,2.583,2.583,0,0,0-3.653,3.653A2.482,2.482,0,0,0,14.6,17.168Zm0-2.568Z" transform="translate(-2.1 -2.1)"/>
</svg>
