<svg xmlns="http://www.w3.org/2000/svg" width="19.999" height="19.999" viewBox="0 0 19.999 19.999">
  <defs>
    <style>
      .cls-1 {
        fill: #6c757d;
      }
    </style>
  </defs>
  <path id="icons8-whatsapp-480" class="cls-1" d="M13,3A9.983,9.983,0,0,0,4.426,18.125L3.09,23l4.979-1.307A10,10,0,1,0,13,3ZM9.577,8.335c.162,0,.329,0,.474.007.178,0,.372.017.558.428.221.488.7,1.713.763,1.837a.447.447,0,0,1,.019.433,1.816,1.816,0,0,1-.244.415c-.124.143-.26.321-.373.43-.124.124-.252.26-.109.508a7.409,7.409,0,0,0,1.377,1.714,6.724,6.724,0,0,0,1.992,1.229c.248.124.392.1.535-.062s.619-.72.786-.968.328-.205.553-.124,1.446.681,1.694.806.411.186.474.286a2.045,2.045,0,0,1-.142,1.178,2.491,2.491,0,0,1-1.67,1.175c-.457.042-.884.206-2.973-.617a10.151,10.151,0,0,1-4.233-3.74A4.8,4.8,0,0,1,8.05,10.711a2.789,2.789,0,0,1,.864-2.067A.91.91,0,0,1,9.577,8.335Z" transform="translate(-3 -3)"/>
</svg>
