<svg xmlns="http://www.w3.org/2000/svg" width="141.732" height="141.73" viewBox="0 0 141.732 141.73">
  <defs>
    <style>
      .cls-1 {
        fill: currentColor;
      }
    </style>
  </defs>
  <g id="instagram" transform="translate(-70.709 -70.424)">
    <path id="Path_1132" data-name="Path 1132" class="cls-1" d="M141.576,70.423a70.866,70.866,0,1,0,70.865,70.866A70.866,70.866,0,0,0,141.576,70.423Zm44.35,89.263a32.713,32.713,0,0,1-2.074,10.831A22.805,22.805,0,0,1,170.8,183.565a32.747,32.747,0,0,1-10.83,2.074c-4.76.218-6.279.269-18.4.269s-13.637-.051-18.4-.269a32.786,32.786,0,0,1-10.832-2.074A22.815,22.815,0,0,1,99.3,170.517a32.739,32.739,0,0,1-2.074-10.831c-.217-4.76-.268-6.279-.268-18.4s.051-13.638.268-18.4A32.759,32.759,0,0,1,99.3,112.062a22.815,22.815,0,0,1,13.048-13.048,32.712,32.712,0,0,1,10.832-2.073c4.76-.218,6.279-.269,18.4-.269s13.637.051,18.4.269a32.724,32.724,0,0,1,10.83,2.073,22.805,22.805,0,0,1,13.049,13.048,32.682,32.682,0,0,1,2.074,10.831c.219,4.76.27,6.279.27,18.4S186.145,154.926,185.926,159.686Z"/>
    <g id="Group_2141" data-name="Group 2141">
      <circle id="Ellipse_131" data-name="Ellipse 131" class="cls-1" cx="14.873" cy="14.873" r="14.873" transform="translate(126.703 126.416)"/>
      <path id="Path_1133" data-name="Path 1133" class="cls-1" d="M177.9,123.259a24.693,24.693,0,0,0-1.537-8.286,14.786,14.786,0,0,0-8.469-8.468,24.718,24.718,0,0,0-8.285-1.537c-4.705-.213-6.117-.259-18.029-.259s-13.326.046-18.031.259a24.723,24.723,0,0,0-8.285,1.537,14.786,14.786,0,0,0-8.469,8.468,24.713,24.713,0,0,0-1.535,8.286c-.215,4.705-.26,6.116-.26,18.03s.045,13.324.26,18.03a24.71,24.71,0,0,0,1.535,8.284,14.777,14.777,0,0,0,8.469,8.469,24.684,24.684,0,0,0,8.285,1.536c4.705.215,6.115.26,18.031.26s13.324-.045,18.029-.26a24.667,24.667,0,0,0,8.285-1.536,14.777,14.777,0,0,0,8.469-8.469,24.7,24.7,0,0,0,1.537-8.284c.213-4.706.258-6.116.258-18.03S178.109,127.964,177.9,123.259ZM141.576,164.2a22.912,22.912,0,1,1,22.912-22.912A22.912,22.912,0,0,1,141.576,164.2Zm23.817-41.376a5.354,5.354,0,1,1,5.355-5.354A5.355,5.355,0,0,1,165.393,122.825Z"/>
    </g>
  </g>
</svg>
