<svg xmlns="http://www.w3.org/2000/svg" width="40" height="40" viewBox="0 0 40 40">
  <defs>
    <style>
      .cls-1 {
        fill: currentColor;
      }
    </style>
  </defs>
  <path id="circle_notifications_FILL0_wght400_GRAD0_opsz48_1_" data-name="circle_notifications_FILL0_wght400_GRAD0_opsz48 (1)" class="cls-1" d="M24,37.2a2.656,2.656,0,0,0,1.975-.85,2.778,2.778,0,0,0,.825-2H21.15A2.9,2.9,0,0,0,24,37.2Zm-9.7-5.85H33.65v-3h-2V22.6a10.2,10.2,0,0,0-1.575-5.55A6.491,6.491,0,0,0,25.65,14V12.5A1.623,1.623,0,0,0,24,10.85a1.681,1.681,0,0,0-1.2.475,1.556,1.556,0,0,0-.5,1.175V14a6.576,6.576,0,0,0-4.425,2.95A9.541,9.541,0,0,0,16.3,22.3v6.05h-2ZM24,44a20.285,20.285,0,0,1-7.9-1.525A19.357,19.357,0,0,1,5.525,31.9,20.285,20.285,0,0,1,4,24a20.156,20.156,0,0,1,1.525-7.85A19.52,19.52,0,0,1,9.75,9.8,19.939,19.939,0,0,1,24,4,19.84,19.84,0,0,1,44,24a19.939,19.939,0,0,1-5.8,14.25,19.52,19.52,0,0,1-6.35,4.225A20.156,20.156,0,0,1,24,44Zm0-3A16.657,16.657,0,0,0,41,24,16.657,16.657,0,0,0,24,7,16.657,16.657,0,0,0,7,24,16.657,16.657,0,0,0,24,41ZM19.3,28.35V22a4.916,4.916,0,0,1,1.325-3.475A4.406,4.406,0,0,1,24,17.1a4.328,4.328,0,0,1,3.35,1.425A4.969,4.969,0,0,1,28.65,22v6.35ZM24,24Z" transform="translate(-4 -4)"/>
</svg>
