<svg xmlns="http://www.w3.org/2000/svg" width="36.602" height="36.551" viewBox="0 0 36.602 36.551">
  <defs>
    <style>
      .cls-1 {
        fill: currentColor;
      }
    </style>
  </defs>
  <path id="search_FILL0_wght500_GRAD0_opsz48" class="cls-1" d="M39.8,42.3,26.55,29.1a10.564,10.564,0,0,1-3.45,1.95,12.773,12.773,0,0,1-4.25.7,12.732,12.732,0,0,1-9.325-3.8A12.49,12.49,0,0,1,5.7,18.75a12.49,12.49,0,0,1,3.825-9.2,12.614,12.614,0,0,1,9.225-3.8,12.531,12.531,0,0,1,9.2,3.8,12.531,12.531,0,0,1,3.8,9.2,12.472,12.472,0,0,1-.7,4.15A13.315,13.315,0,0,1,29,26.65L42.3,39.8Zm-21-13.95a9.077,9.077,0,0,0,6.725-2.825A9.325,9.325,0,0,0,28.3,18.75a9.325,9.325,0,0,0-2.775-6.775A9.077,9.077,0,0,0,18.8,9.15a9.275,9.275,0,0,0-6.85,2.825,9.282,9.282,0,0,0-2.8,6.775,9.282,9.282,0,0,0,2.8,6.775A9.275,9.275,0,0,0,18.8,28.35Z" transform="translate(-5.699 -5.75)"/>
</svg>
