<svg xmlns="http://www.w3.org/2000/svg" width="141.732" height="141.73" viewBox="0 0 141.732 141.73">
  <defs>
    <style>
      .cls-1 {
        fill: currentColor;
      }
    </style>
  </defs>
  <path id="tiktok" class="cls-1" d="M141.344,70.423a70.866,70.866,0,1,0,70.867,70.866A70.865,70.865,0,0,0,141.344,70.423Zm38.947,62.754a34.769,34.769,0,0,1-7.813-.94,37.468,37.468,0,0,1-12.281-5.293c-.2-.129-.406-.406-.615-.312-.268.122-.127.467-.127.71-.006,10.164.037,20.328-.02,30.493a29.074,29.074,0,0,1-25.711,28.891,28.781,28.781,0,0,1-16.547-2.925,15.208,15.208,0,0,1-2.412-1.475c-.236-.211-.475-.423-.713-.634h0a6.865,6.865,0,0,1-1.5-1.033,28.754,28.754,0,0,1-10.986-20.131,29.062,29.062,0,0,1-.059-4.493,28.858,28.858,0,0,1,19.006-25.217,28.714,28.714,0,0,1,7.68-1.629,29.634,29.634,0,0,1,5.705.129c.256.03.408.082.4.387-.02,1.055-.018,2.109-.025,3.164.02.019.156,8.021.156,11.687,0,.129-.006.258-.012.388-.018.366-.205.489-.551.392a13.849,13.849,0,0,0-3.066-.472,11.7,11.7,0,0,0-4.691.7c-5.037,1.858-8.094,5.465-8.732,10.779-.629,5.237,1.438,9.426,5.795,12.442.365.252.74.488,1.08.773.082.075.164.149.246.226a17.858,17.858,0,0,0,3.1,1.02,13.153,13.153,0,0,0,15.917-13.094q-.009-30.615,0-61.23c0-.951-.133-.832.814-.832q7.061-.006,14.119,0c.109,0,.223,0,.334,0,.48.008.49.008.486.5a31.184,31.184,0,0,0,.49,3.853c2.035,10.32,14.061,16.63,17.77,17.189a19.526,19.526,0,0,0,3.084.269c.432,0,.443.011.443.423,0,.96.188,10.826.182,14.438C181.236,133.134,181.125,133.175,180.291,133.177Z" transform="translate(-70.479 -70.424)"/>
</svg>
