<svg xmlns="http://www.w3.org/2000/svg" width="141.734" height="141.73" viewBox="0 0 141.734 141.73">
  <defs>
    <style>
      .cls-1 {
        fill: currentColor;
      }
    </style>
  </defs>
  <g id="youtube" transform="translate(-70.357 -70.424)">
    <path id="Path_1134" data-name="Path 1134" class="cls-1" d="M141.224,70.423a70.866,70.866,0,1,0,70.867,70.866A70.866,70.866,0,0,0,141.224,70.423Zm45.269,93.608a11.828,11.828,0,0,1-8.354,8.354c-7.369,1.975-36.916,1.975-36.916,1.975s-29.547,0-36.916-1.975a11.832,11.832,0,0,1-8.354-8.354c-1.975-7.368-1.975-22.742-1.975-22.742s0-15.375,1.975-22.742a11.828,11.828,0,0,1,8.354-8.354c7.369-1.975,36.916-1.975,36.916-1.975s29.547,0,36.916,1.975a11.828,11.828,0,0,1,8.354,8.354c1.975,7.367,1.975,22.742,1.975,22.742S188.468,156.663,186.493,164.031Z"/>
    <path id="Path_1135" data-name="Path 1135" class="cls-1" d="M131.774,155.463l24.547-14.174-24.547-14.173Z"/>
  </g>
</svg>
