<svg id="albania-32909" xmlns="http://www.w3.org/2000/svg" width="40" height="30" viewBox="0 0 40 30">
  <defs>
    <style>
      .cls-1 {
        fill: #e41e20;
      }
    </style>
  </defs>
  <path id="Path_2097" data-name="Path 2097" class="cls-1" d="M0,0H40V30H0Z"/>
  <path id="a" d="M188.645,93.309c-.306,0-.815.09-.8.307-.854-.135-.943.19-.892.479a.429.429,0,0,1,.256-.189.554.554,0,0,1,.355.085,1.394,1.394,0,0,1,.315.249,1.885,1.885,0,0,1-.77-.015,1.138,1.138,0,0,1-.376-.142,2.3,2.3,0,0,1-.28-.265c-.18-.169-.371-.122-.311.142a.833.833,0,0,0,.658.4,3.569,3.569,0,0,0,.583.067,5.056,5.056,0,0,1,.644,0,.967.967,0,0,1-.378.171,2.156,2.156,0,0,1-.68-.147c.023.142.217.274.6.343a6.7,6.7,0,0,1,1.493.394,2.4,2.4,0,0,1,.717.557,1.263,1.263,0,0,1,.345.651c.064.537-.14.84-.518.933a.823.823,0,0,1-.648-.174.894.894,0,0,1-.209-.72c.033-.141.208-.507.059-.582a18.725,18.725,0,0,0-2.118-.911c-.164-.057-.3.148-.353.229a3.32,3.32,0,0,1-2.358-1.43c-.282-.462-.748,0-.67.437a1.819,1.819,0,0,0,1.013,1.089,3.818,3.818,0,0,0,1.743.486c.338.059.335.462-.071.537a2.682,2.682,0,0,1-2.023-.544c-.453-.381-.708.073-.577.33.222.793,1.45,1.015,2.693.758.481-.073.193.4.057.406a1.852,1.852,0,0,1-2.267,0c-.375-.264-.628-.042-.489.339.363.995,1.753.786,2.707.3.246-.126.468.167.169.39-1.186.764-1.779.772-2.315.479-.67-.243-.729.441-.331.666a3.074,3.074,0,0,0,2.393-.416c.354-.242.37.137.146.287-.98.78-1.366.985-2.388.858-.506-.036-.5.539-.1.764.544.307,1.606-.2,2.431-.833.347-.171.4.109.232.441a3.5,3.5,0,0,1-1.432,1.091,1.938,1.938,0,0,1-1.2.036c-.378-.12-.426.242-.217.572.126.2.648.262,1.212.078a3.669,3.669,0,0,0,1.584-1.121c.361-.292.316.1.152.376-.832,1.211-1.592,1.66-2.594,1.584-.444-.07-.545.249-.262.543a1.362,1.362,0,0,0,1.663-.007c.483-.429,1.408-1.354,1.893-1.849.342-.251.451,0,.351.506a1.326,1.326,0,0,1-.942.824c-.425.223-.106.531.213.537a1.448,1.448,0,0,0,.8-.468,2.552,2.552,0,0,0,.577-1.2.274.274,0,0,1,.52.145,1.3,1.3,0,0,1-.621.92c-.309.267.215.357.392.247a2.213,2.213,0,0,0,.869-1.1c.123-.27.481-.139.315.3a2.474,2.474,0,0,1-2.187,1.679c-.115.019-.186.082-.146.205.153.146.306.279.459.425-.7.189-1.277.3-1.982.485-.346-.209-.625-.386-.971-.6-.091-.2-.134-.5-.644-.285a.582.582,0,0,0-.7.054.627.627,0,0,1,.506.194c.142.344.469.377.8.279.218.169.334.3.552.468-.406-.013-.69-.019-1.1-.031-.387-.383-.7-.362-.973-.062a.466.466,0,0,0-.445.27c.227-.086.37-.112.469-.018a.724.724,0,0,0,.885,0c.4.022.755.041,1.152.065-.146.114-.346.175-.492.29-.6-.157-.908.054-1.013.5a.952.952,0,0,0-.083.561.705.705,0,0,1,.321-.425c.532.124.732-.075.76-.368.256-.193.643-.235.9-.43.3.088.444.143.745.23.107.3.349.418.743.341.468.014.386.191.424.332.124-.2.121-.4-.167-.581a.425.425,0,0,0-.642-.23c-.287-.075-.362-.183-.648-.258.723-.212,1.236-.26,1.958-.472.181.157.324.27.506.41.1.053.188.066.244,0a12.681,12.681,0,0,1,1.076-1.533,1.444,1.444,0,0,1,.589-.441.363.363,0,0,1,.339.078.584.584,0,0,1,.128.5,1.564,1.564,0,0,1-.24.67,2.517,2.517,0,0,1-.37.5,3.007,3.007,0,0,1-.829.633,1.172,1.172,0,0,1-.918.125c-.418.043-.529.231-.187.49a1.382,1.382,0,0,0,.841.132,1.822,1.822,0,0,0,.6-.4.2.2,0,1,1,.288.27,1.7,1.7,0,0,1-1.251.7c-.5.062-.408.322-.075.448a1.374,1.374,0,0,0,1.414-.479c.212-.214.362-.222.325.109-.21.6-.5.83-.967.86-.381-.033-.385.238-.106.421.634.4,1.093-.284,1.308-.7.153-.375.387-.2.412.113,0,.413-.2.751-.743,1.174.416.61.9,1.23,1.316,1.842l1.261-12.938-1.261-2.044c-.131-.112-.575-.594-.691-.661-.042-.042-.068-.071-.006-.093a2.549,2.549,0,0,1,.3-.06,2.028,2.028,0,0,0-1-.461,2.425,2.425,0,0,1,.607-.036,1.972,1.972,0,0,0-.883-.617,6.515,6.515,0,0,0,.6-.4,6.1,6.1,0,0,1-1.28-.227,2.634,2.634,0,0,0-.786-.207Zm.045.506c.25,0,.4.079.4.174s-.154.176-.4.176-.406-.086-.406-.183S188.441,93.816,188.69,93.816Z" transform="translate(-171.543 -87.182)"/>
  <path id="Path_2098" data-name="Path 2098" d="M5.865,17.745c-.306,0-.815-.09-.8-.307-.854.135-.943-.19-.892-.479a.429.429,0,0,0,.256.189.554.554,0,0,0,.355-.085,1.394,1.394,0,0,0,.315-.249,1.885,1.885,0,0,0-.77.015,1.137,1.137,0,0,0-.376.142,2.3,2.3,0,0,0-.28.265c-.18.169-.371.122-.311-.142a.833.833,0,0,1,.658-.4,3.57,3.57,0,0,1,.583-.067,5.057,5.057,0,0,0,.644,0,.967.967,0,0,0-.378-.171,2.157,2.157,0,0,0-.68.147c.023-.142.217-.274.6-.343a6.7,6.7,0,0,0,1.493-.394,2.4,2.4,0,0,0,.717-.557,1.263,1.263,0,0,0,.345-.651c.064-.537-.14-.84-.518-.933a.823.823,0,0,0-.648.174.893.893,0,0,0-.209.72c.033.141.208.507.059.582a18.723,18.723,0,0,1-2.118.911c-.164.057-.3-.148-.353-.229a3.32,3.32,0,0,0-2.358,1.43c-.282.462-.748,0-.67-.437a1.819,1.819,0,0,1,1.013-1.089,3.818,3.818,0,0,1,1.743-.486c.338-.059.335-.462-.071-.537a2.682,2.682,0,0,0-2.023.544c-.453.381-.708-.073-.577-.33.222-.793,1.45-1.015,2.693-.759.481.073.193-.4.057-.406a1.852,1.852,0,0,0-2.267,0c-.375.264-.628.042-.489-.339.363-.995,1.753-.786,2.707-.3.246.126.468-.167.169-.39-1.186-.764-1.78-.772-2.315-.479-.67.243-.729-.441-.331-.666a3.074,3.074,0,0,1,2.393.416c.354.242.37-.137.146-.287C2.393,11,2.006,10.8.985,10.924c-.506.036-.5-.539-.1-.764.544-.307,1.606.2,2.431.833.347.171.4-.109.232-.441A3.5,3.5,0,0,0,2.116,9.461a1.938,1.938,0,0,0-1.2-.036C.534,9.545.486,9.183.7,8.853c.126-.2.648-.262,1.212-.078A3.669,3.669,0,0,1,3.491,9.9c.361.292.317-.1.152-.376C2.811,8.31,2.05,7.861,1.048,7.937.6,8.007.5,7.688.786,7.395A1.362,1.362,0,0,1,2.449,7.4c.483.429,1.408,1.354,1.893,1.849.342.251.451,0,.351-.506a1.326,1.326,0,0,0-.942-.824c-.425-.223-.106-.531.213-.537a1.448,1.448,0,0,1,.8.468,2.552,2.552,0,0,1,.577,1.2.274.274,0,0,0,.52-.145,1.3,1.3,0,0,0-.621-.92c-.309-.267.215-.357.392-.247a2.213,2.213,0,0,1,.869,1.1c.123.27.481.139.315-.3A2.474,2.474,0,0,0,4.633,6.861c-.115-.019-.186-.082-.146-.205.153-.146.306-.279.459-.425-.7-.189-1.277-.3-1.982-.485-.346.209-.625.386-.971.6-.091.2-.134.5-.644.285a.582.582,0,0,1-.7-.054.627.627,0,0,0,.506-.194c.142-.344.469-.377.8-.279.218-.169.334-.3.552-.468-.406.013-.69.019-1.1.031-.387.383-.7.362-.973.062A.466.466,0,0,1,0,5.453c.227.086.37.112.469.018a.724.724,0,0,1,.885,0c.4-.022.755-.041,1.152-.065-.146-.114-.346-.175-.492-.29-.6.157-.908-.054-1.013-.5a.952.952,0,0,1-.083-.561.705.705,0,0,0,.321.425c.532-.124.732.075.76.368.256.193.643.235.9.43.3-.088.444-.143.745-.23.107-.3.349-.418.743-.341.468-.014.386-.191.424-.332.124.2.121.4-.167.581A.425.425,0,0,1,4,5.183c-.287.075-.362.183-.648.258.723.212,1.236.26,1.958.472.181-.157.324-.27.506-.41.1-.053.188-.066.244,0A12.682,12.682,0,0,0,7.135,7.035a1.444,1.444,0,0,0,.589.441A.363.363,0,0,0,8.063,7.4a.584.584,0,0,0,.128-.5,1.564,1.564,0,0,0-.24-.67,2.517,2.517,0,0,0-.37-.5A3.007,3.007,0,0,0,6.751,5.1a1.172,1.172,0,0,0-.918-.125c-.418-.043-.529-.231-.187-.49a1.383,1.383,0,0,1,.841-.132,1.822,1.822,0,0,1,.6.4.2.2,0,1,0,.288-.27,1.7,1.7,0,0,0-1.251-.7c-.5-.062-.408-.322-.075-.448a1.374,1.374,0,0,1,1.414.479c.212.214.362.222.325-.109-.21-.6-.5-.83-.967-.86-.381.033-.385-.238-.106-.421.634-.4,1.093.284,1.308.7.153.375.387.2.412-.113,0-.413-.2-.751-.743-1.174.416-.61.9-1.23,1.316-1.842l1.261,12.938L9.011,14.982c-.131.112-.575.594-.691.661-.042.042-.068.071-.006.093a2.55,2.55,0,0,0,.3.06,2.028,2.028,0,0,1-1,.461,2.425,2.425,0,0,0,.607.036,1.972,1.972,0,0,1-.883.617,6.508,6.508,0,0,1,.6.4,6.1,6.1,0,0,0-1.28.227,2.634,2.634,0,0,1-.786.207Zm.045-.506c.25,0,.4-.079.4-.174s-.154-.176-.4-.176-.406.086-.406.183S5.661,17.239,5.91,17.239Z" transform="translate(28.763 23.873) rotate(180)"/>
</svg>
