<svg xmlns="http://www.w3.org/2000/svg" width="40" height="30" viewBox="0 0 40 30">
  <defs>
    <style>
      .cls-1 {
        fill: #3f9c35;
      }

      .cls-2 {
        fill: #ed2939;
      }

      .cls-3 {
        fill: #00b9e4;
      }

      .cls-4 {
        fill: #fff;
      }
    </style>
  </defs>
  <g id="azerbaijan-32926" transform="translate(-0.1)">
    <path id="Path_3477" data-name="Path 3477" class="cls-1" d="M.1,0h40V30H.1Z"/>
    <path id="Path_3478" data-name="Path 3478" class="cls-2" d="M.1,0h40V20H.1Z"/>
    <path id="Path_3479" data-name="Path 3479" class="cls-3" d="M.1,0h40V10H.1Z"/>
    <circle id="Ellipse_230" data-name="Ellipse 230" class="cls-4" cx="4.5" cy="4.5" r="4.5" transform="translate(14.594 10.5)"/>
    <circle id="Ellipse_231" data-name="Ellipse 231" class="cls-2" cx="3.75" cy="3.75" r="3.75" transform="translate(16.344 11.25)"/>
    <path id="Path_3480" data-name="Path 3480" class="cls-4" d="M346.5,200l.478,1.345,1.289-.613-.613,1.289L349,202.5l-1.345.478.613,1.289-1.289-.613L346.5,205l-.478-1.345-1.289.613.613-1.289L344,202.5l1.345-.478-.613-1.289,1.289.613Z" transform="translate(-322.406 -187.5)"/>
  </g>
</svg>
