<svg xmlns="http://www.w3.org/2000/svg" xmlns:xlink="http://www.w3.org/1999/xlink" width="40" height="30" viewBox="0 0 40 30">
  <defs>
    <style>
      .cls-1 {
        fill: rgba(0,0,0,0.67);
      }

      .cls-2 {
        clip-path: url(#clip-path);
      }

      .cls-3 {
        fill: #009;
      }

      .cls-3, .cls-4, .cls-5 {
        fill-rule: evenodd;
      }

      .cls-4 {
        fill: #fc0;
      }

      .cls-5 {
        fill: #fff;
      }
    </style>
    <clipPath id="clip-path">
      <path id="Path_2991" data-name="Path 2991" class="cls-1" d="M-80,0h40V30H-80Z" transform="translate(80)"/>
    </clipPath>
  </defs>
  <g id="bosnia-32932" class="cls-2">
    <path id="Path_2988" data-name="Path 2988" class="cls-3" d="M-80,0h40V30H-80Z" transform="translate(80)"/>
    <path id="Path_2989" data-name="Path 2989" class="cls-4" d="M-80,0l40,30V0Z" transform="translate(80)"/>
    <path id="Path_2990" data-name="Path 2990" class="cls-5" d="M-76.256,4.4l-1.43-1.039L-79.115,4.4l.546-1.68L-80,1.681h1.767L-77.686,0l.546,1.68h1.767L-76.8,2.719m3.567,3.842L-74.665,7.6l.546-1.68-1.43-1.039h1.767l.546-1.68.546,1.68h1.767l-1.43,1.039.546,1.68m1.591,3.2.546-1.68L-71.1,8.08h1.767l.546-1.68.546,1.68h1.767L-67.9,9.119l.546,1.68-1.43-1.039m3.567,2.558-1.43-1.039h1.767l.546-1.68.546,1.68h1.767l-1.43,1.039.546,1.68-1.429-1.039L-65.765,14m3.567.481h1.767l.546-1.68.546,1.68h1.767L-59,15.519l.546,1.68-1.43-1.039-1.43,1.039.546-1.68m4.788,2.161.546-1.68.546,1.68h1.767l-1.43,1.039.546,1.68-1.43-1.039-1.43,1.039.546-1.68-1.43-1.039m6.763,1.52.546,1.68h1.767l-1.43,1.039.546,1.68-1.43-1.039-1.43,1.039.546-1.68-1.43-1.039h1.767m5,1.519.546,1.68h1.767l-1.43,1.039.546,1.68-1.43-1.039-1.43,1.039.546-1.68-1.43-1.039h1.767m5.542,3.2h1.767L-41.2,28.32l.546,1.68-1.43-1.039L-43.515,30l.546-1.68-1.43-1.039h1.767l.546-1.68" transform="translate(79.999)"/>
  </g>
</svg>
