<svg id="croatia-32995" xmlns="http://www.w3.org/2000/svg" width="40" height="30" viewBox="0 0 40 30">
  <defs>
    <style>
      .cls-1 {
        fill: #171796;
      }

      .cls-2, .cls-5 {
        fill: #fff;
      }

      .cls-3 {
        fill: red;
      }

      .cls-4 {
        fill: #0093dd;
      }

      .cls-5 {
        stroke: #000;
        stroke-width: 0.28px;
      }

      .cls-6, .cls-7 {
        fill: #f7db17;
      }

      .cls-7, .cls-8 {
        fill-rule: evenodd;
      }
    </style>
  </defs>
  <path id="Path_2762" data-name="Path 2762" class="cls-1" d="M0,0H40V30H0Z"/>
  <path id="Path_2763" data-name="Path 2763" class="cls-2" d="M0,0H40V21.013H0Z"/>
  <path id="Path_2764" data-name="Path 2764" class="cls-3" d="M0,0H40V10.506H0Z"/>
  <path id="Path_2765" data-name="Path 2765" class="cls-3" d="M232.847,173.372a6.145,6.145,0,0,0,6.127-6.127v-7.281H226.72v7.281a6.145,6.145,0,0,0,6.127,6.127Z" transform="translate(-212.845 -150.341)"/>
  <path id="Path_2766" data-name="Path 2766" class="cls-2" d="M234.51,174.952a6.028,6.028,0,0,0,6.01-6.01V161.76H228.5v7.181a6.028,6.028,0,0,0,6.01,6.01Z" transform="translate(-214.508 -152.018)"/>
  <g id="Group_2801" data-name="Group 2801" transform="translate(14.216 9.971)">
    <path id="Path_2767" data-name="Path 2767" class="cls-3" d="M234.223,165.2H231.91v2.541h2.313Zm0,5.082h2.313v-2.541h-2.313Zm-2.313,1.859a5.779,5.779,0,0,0,.041.682h2.272v-2.541H231.91Zm6.939-1.859h-2.313v2.541h2.313Zm0,5.082h2.313v-2.541h-2.313Zm2.313,1.39a5.857,5.857,0,0,0,1.321-1.39h-1.321v1.39Zm-6.939-1.39h2.313v-2.541h-2.313Zm-1.323,0a5.855,5.855,0,0,0,1.323,1.392v-1.392Zm5.2,2.541a5.774,5.774,0,0,0,.754-.1v-2.438h-2.313V177.8a5.716,5.716,0,0,0,.751.1,6.707,6.707,0,0,0,.808,0Z" transform="translate(-231.91 -165.2)"/>
    <path id="Path_2768" data-name="Path 2768" class="cls-3" d="M309.256,172.824a5.792,5.792,0,0,0,.041-.685v-1.856h-2.311v2.541h2.27Zm-4.583-2.541h2.313v-2.541h-2.313Zm0-5.082H302.36v2.541h2.313Zm4.624,2.541V165.2h-2.311v2.541Z" transform="translate(-297.734 -165.2)"/>
  </g>
  <path id="Path_2769" data-name="Path 2769" class="cls-2" d="M221.437,72.583l1.434-3.251-1.093-1.764-1.81.67L218.7,66.785l-1.675.96-1.493-1.223-1.493,1.223-1.675-.96-1.271,1.453-1.81-.67-1.093,1.765,1.432,3.252a14.365,14.365,0,0,1,11.818,0Z" transform="translate(-195.529 -62.154)"/>
  <path id="Path_2770" data-name="Path 2770" class="cls-4" d="M213.132,85.427l0,0-1.8-.665-1,1.622.385.875.975,2.213a14.424,14.424,0,0,1,2.271-.785l-.828-3.263Z" transform="translate(-197.247 -79.514)"/>
  <path id="Path_2771" data-name="Path 2771" class="cls-5" d="M228.128,119.266a.87.87,0,0,1,.1.407.877.877,0,0,1-1.739.168.882.882,0,0,0,1.638-.575Z" transform="translate(-212.365 -111.828)"/>
  <path id="Path_2772" data-name="Path 2772" d="M224.865,100.054l.061-.315-.241-.211-.011-.01.014,0,.3-.1.062-.315,0-.014.011.01.242.211.3-.1.014,0,0,.014-.061.315.242.211.011.01-.014,0-.3.1-.062.315,0,.014-.011-.01-.242-.21-.3.1-.014,0Z" transform="translate(-210.651 -92.899)"/>
  <path id="Path_2773" data-name="Path 2773" class="cls-6" d="M225.848,100.19l.226.2.283-.1Zm0-.01.51.1-.226-.2Zm-.547-.107.51.1-.226-.2Zm.508.11-.51-.1.226.2Zm.029-.019.341-.392-.284.1Zm-.367.421.341-.392-.284.1Zm.349-.385-.341.392.284-.1Zm.367-.421-.341.392.284-.1Zm-.369.386-.168-.491-.058.294Zm.181.528-.169-.491-.058.295Zm-.159-.495.168.491.058-.294Zm-.181-.528.168.492.058-.295Z" transform="translate(-211.237 -93.451)"/>
  <path id="Path_2774" data-name="Path 2774" class="cls-1" d="M255.93,73.9l0,0-1.661-.952-1.258,1.438.828,3.263a14.432,14.432,0,0,1,2.372-.4l-.278-3.355Z" transform="translate(-237.261 -68.432)"/>
  <path id="Path_2775" data-name="Path 2775" class="cls-3" d="M253.642,90.4a15.249,15.249,0,0,1,2.508-.419l-.07-.848a16.122,16.122,0,0,0-2.647.442l.209.825Zm-.416-1.64a16.939,16.939,0,0,1,2.784-.465l-.069-.832a17.776,17.776,0,0,0-2.921.488Z" transform="translate(-237.271 -82.027)"/>
  <g id="Group_2807" data-name="Group 2807" transform="translate(18.527 4.53)">
    <path id="Path_2776" data-name="Path 2776" class="cls-4" d="M460.534,70.2l0,0-1.481-1.213-1.478,1.21.278,3.355c.4-.033.8-.05,1.2-.05s.808.018,1.205.051l.279-3.355Z" transform="translate(-457.571 -68.988)"/>
    <g id="a" transform="translate(0.944 2.72)">
      <path id="Path_2777" data-name="Path 2777" d="M472.481,110.4s-.007,0-.011.007l-.085.112c-.03.01-.038.028-.026.054-.041,0-.045.03-.047.067q-.058-.088-.127-.048c0-.036-.029-.053-.068-.061a.129.129,0,0,1-.068-.023l-.026-.016c-.02-.014-.035,0-.027.012l.125.2a.029.029,0,0,0,.014.032l.022.062,0,.018a.272.272,0,0,0-.1-.021.074.074,0,0,1-.056-.021c-.008-.01-.014,0-.014.013a.324.324,0,0,0,.093.232l-.108,0c-.012,0-.015.006-.011.016a.206.206,0,0,0,.128.119.1.1,0,0,0-.056.081.077.077,0,0,1-.033.071c-.009,0-.013.01,0,.017a.162.162,0,0,0,.139.017.218.218,0,0,0-.031.132.164.164,0,0,0,.1-.008.153.153,0,0,0-.008.048.125.125,0,0,1-.016.053c0,.005-.01.013,0,.016a.231.231,0,0,0,.142-.007.377.377,0,0,0,.012.113c0,.009.011.016.019,0a.281.281,0,0,1,.082-.08.058.058,0,0,0,.024.033.059.059,0,0,1,.024.053.015.015,0,0,0,.005.014c.023,0,.08-.059.092-.093a.21.21,0,0,1,.068.072c.009.012.015,0,.02,0a.438.438,0,0,0,.01-.113.23.23,0,0,0,.142.007c.011,0,.006-.011,0-.016a.148.148,0,0,1-.018-.057.14.14,0,0,0-.007-.045.162.162,0,0,0,.1.008.217.217,0,0,0-.033-.132.167.167,0,0,0,.141-.017c.009-.006.005-.012,0-.017a.077.077,0,0,1-.033-.071.1.1,0,0,0-.056-.081.206.206,0,0,0,.128-.119c0-.01,0-.015-.011-.016l-.111,0a.327.327,0,0,0,.094-.233c0-.017-.006-.023-.014-.013a.07.07,0,0,1-.054.023.267.267,0,0,0-.1.02l-.005-.018c.007-.021.017-.04.024-.061a.029.029,0,0,0,.014-.032c.042-.068.08-.135.122-.2.008-.012-.007-.025-.027-.012l-.026.016a.131.131,0,0,1-.068.023c-.039.008-.065.026-.067.062q-.068-.041-.127.048c0-.037-.006-.071-.047-.067.012-.026,0-.045-.028-.055-.029-.039-.071-.073-.1-.112,0-.005-.008-.007-.011-.007Z" transform="translate(-471.95 -110.404)"/>
      <g id="Group_2802" data-name="Group 2802" transform="translate(0.021 0.02)">
        <path id="Path_2778" data-name="Path 2778" class="cls-6" d="M474.87,113.691c-.008,0-.019,0-.025.015s-.005.026,0,.031.013,0,.019-.009l0-.006h0c.006-.012.008-.025,0-.029Zm-.779,0c.008,0,.019,0,.025.015s.006.026,0,.03-.016,0-.022-.016-.009-.025,0-.029Zm.706.141a.009.009,0,1,0,0,.018.009.009,0,1,0,0-.018Zm-.628,0a.009.009,0,1,0,.009.009A.009.009,0,0,0,474.169,113.832Zm.668-.047a2.927,2.927,0,0,0-.352-.021c-.117,0-.235.006-.353.018,0,0,0,.014,0,.013.118-.011.235-.018.351-.018a2.913,2.913,0,0,1,.347.02c.006,0,.008-.012,0-.013Z" transform="translate(-473.966 -113.494)"/>
        <path id="Path_2779" data-name="Path 2779" class="cls-6" d="M472.433,110.983c.12-.012.238-.018.356-.018a2.932,2.932,0,0,1,.352.021l.017-.029a.018.018,0,0,1-.014,0c-.012-.006-.014-.025-.006-.043s.026-.027.037-.021a.021.021,0,0,1,.011.018l.069-.115a.2.2,0,0,1-.09.039c-.044.006-.064.022-.057.048s-.009.021-.031.008c-.049-.027-.084.011-.1.055s-.025.028-.026,0c0-.011,0-.02,0-.031,0-.035-.014-.045-.034-.035s-.027,0-.021-.009a.052.052,0,0,0,.01-.034c0-.01-.01-.014-.024-.015-.028-.038-.073-.075-.1-.113l-.087.113c-.013,0-.022,0-.024.015s.008.024.012.034,0,.021-.021.009-.029,0-.032.034c0,.011,0,.022,0,.033,0,.03-.015.031-.026,0s-.055-.082-.1-.055c-.023.012-.032.016-.028-.008s-.017-.041-.06-.048a.2.2,0,0,1-.09-.039l.065.106a.018.018,0,0,1,.008-.009c.012-.006.029,0,.037.021s.006.037-.006.043l-.005,0,.016.025Zm.683.142,0,0a.073.073,0,0,0-.021.019.276.276,0,0,1-.033.029s0,0-.007,0,0-.005,0-.007a.284.284,0,0,0,.032-.028l.012-.014-.044,0a.151.151,0,0,0-.035.015.062.062,0,0,0-.021.019s0,0-.007,0,0,0,0-.007a.07.07,0,0,1,.025-.023l.016-.008-.05,0-.01.007-.009.01s0,0-.007,0,0,0,0-.007l.01-.012h0l-.038,0h0l-.009.009-.006.01s0,0-.006,0,0,0,0-.006a.066.066,0,0,1,.007-.013l0-.005-.054,0,0,0-.01.008-.007.01s0,0-.007,0,0,0,0-.007a.053.053,0,0,1,.009-.012l0,0h-.113l0,0a.061.061,0,0,1,.009.012s0,0,0,.007-.005,0-.007,0l-.008-.01-.01-.008,0,0-.054,0,0,.005a.055.055,0,0,1,.007.013s0,0,0,.006-.005,0-.006,0a.04.04,0,0,0-.006-.01l-.009-.009,0,0-.038,0,0,0,.01.012s0,0,0,.007-.005,0-.007,0l-.009-.01-.01-.008h0l-.051,0,.019.009a.068.068,0,0,1,.025.023s0,0,0,.007-.005,0-.007,0a.06.06,0,0,0-.021-.019.158.158,0,0,0-.038-.016h0l-.042,0,.013.016a.279.279,0,0,0,.032.028s0,0,0,.007-.005,0-.007,0a.276.276,0,0,1-.033-.029c-.006-.006-.015-.017-.021-.022a.249.249,0,0,0-.09-.023.2.2,0,0,1-.071-.012.158.158,0,0,0,.02.036.063.063,0,0,0,.033.023.006.006,0,0,1,0,0,.125.125,0,0,0,.026.06.1.1,0,0,0,.029.023.154.154,0,0,1-.027-.039.124.124,0,0,1-.012-.065s0,0,.005,0,0,0,0,.005a.114.114,0,0,0,.011.06.167.167,0,0,0,.045.054s0,.01,0,.009a.123.123,0,0,1-.06-.036.132.132,0,0,1-.028-.062.073.073,0,0,1-.035-.026.151.151,0,0,1-.018-.032.3.3,0,0,0,.071.177.117.117,0,0,0,.04.034c.014.005.015.016,0,.016h-.016a.248.248,0,0,1,.036.016.058.058,0,0,1,.035.042s0,0,0,.005-.005,0-.005,0-.013-.025-.03-.035a.309.309,0,0,0-.063-.025h-.071l.02.013a.212.212,0,0,0,.053.019.132.132,0,0,1,.036.014.1.1,0,0,1,.028.023s0,0,0,.007-.005,0-.007,0a.088.088,0,0,0-.025-.021.122.122,0,0,0-.034-.013.22.22,0,0,1-.056-.02.2.2,0,0,1-.029-.019.187.187,0,0,0,.13.107l.009,0h0l.041.009.041.006s.005,0,0,.005,0,0-.005,0l-.041-.006-.027-.005-.017,0a.077.077,0,0,0-.068.077.011.011,0,0,1,0,0,.269.269,0,0,1,.042-.033.073.073,0,0,1,.057-.011s0,0,0,.006,0,0-.006,0a.065.065,0,0,0-.049.01.3.3,0,0,0-.049.039.088.088,0,0,1-.032.059c.01.005.016.01.025.007a.434.434,0,0,1,.041-.017.16.16,0,0,1,.044-.009s0,0,.005,0,0,0,0,.005a.147.147,0,0,0-.041.008l-.035.014a.19.19,0,0,0,.1-.012.077.077,0,0,1,.021-.006.254.254,0,0,1,.027-.012.116.116,0,0,1,.028-.009s0,0,.005,0,0,.005,0,.005a.061.061,0,0,0-.035.012s-.01.009-.02.015l-.014.01a.116.116,0,0,0-.029.045.19.19,0,0,0-.011.035.232.232,0,0,1,.031-.047.162.162,0,0,1,.054-.041s0,0,.007,0,0,.005,0,.007a.149.149,0,0,0-.05.039.231.231,0,0,0-.034.054.071.071,0,0,0-.007.013.356.356,0,0,1,.05-.048.087.087,0,0,1,.065-.021s0,0,0,.006,0,0-.006,0a.078.078,0,0,0-.057.019.428.428,0,0,0-.057.056.186.186,0,0,0,.084-.013c.014,0,.028-.021.037-.024l.009-.01.016-.016s0,0,.007,0,0,.005,0,.007l-.015.015-.014.018s0,0,0,0a.125.125,0,0,0-.027.037.453.453,0,0,1-.019.09.1.1,0,0,0,.027-.021.107.107,0,0,0,.02-.036.117.117,0,0,1,.026-.042.112.112,0,0,1,.041-.027s0,0,.006,0,0,.005,0,.006a.1.1,0,0,0-.037.024.1.1,0,0,0-.024.038.115.115,0,0,1-.022.039.1.1,0,0,1-.024.02h.019a.1.1,0,0,0,.043-.019.08.08,0,0,0,.024-.032s0,0,.007,0,0,0,0,.007a.09.09,0,0,1-.027.036.08.08,0,0,1-.031.014.225.225,0,0,0,.073-.016c.01,0,.014-.026.02-.032a.151.151,0,0,1,.016-.025.068.068,0,0,1,.026-.02s0,0,.006,0,0,.005,0,.006a.058.058,0,0,0-.022.017.136.136,0,0,0-.015.023.44.44,0,0,1-.008.047.318.318,0,0,0,.008.1.332.332,0,0,1,.025-.03.01.01,0,0,1,0,0,.511.511,0,0,0,.006-.052.28.28,0,0,0,0-.051s0,0,0-.005.005,0,.005,0a.283.283,0,0,1,0,.053c0,.014,0,.028,0,.042a.035.035,0,0,0,.012-.016.115.115,0,0,0,.01-.037.1.1,0,0,0,0-.036s0,0,0-.006.005,0,.006,0a.11.11,0,0,1,0,.039.137.137,0,0,1-.008.031l.028-.019c0-.012,0-.024,0-.035a.187.187,0,0,1,0-.03s0-.006.007-.005.006,0,.005.007a.188.188,0,0,0,0,.028c0,.012,0,.025,0,.038a.047.047,0,0,0,.019.036.066.066,0,0,1,.029.043.279.279,0,0,0,0-.062.148.148,0,0,0-.018-.057s0,0,0-.007.005,0,.007,0a.16.16,0,0,1,.019.061.3.3,0,0,1,0,.076.107.107,0,0,0,.055-.092.056.056,0,0,0,0-.012s0,0,0-.007.005,0,.007,0a.071.071,0,0,1,.006.017s0,.008,0,.012.007-.007.008-.006l.012.008a.133.133,0,0,1-.007-.028.113.113,0,0,1,0-.039s0,0,.006,0,0,0,0,.006a.1.1,0,0,0,0,.036.126.126,0,0,0,.01.037,0,0,0,0,1,0,0l.011.01c0-.013,0-.026,0-.04a.279.279,0,0,1,0-.053s0,0,.005,0,0,0,0,.005a.275.275,0,0,0,0,.051.483.483,0,0,0,.006.052h0c.008.009.015.019.024.031a.321.321,0,0,0,.01-.1c0-.012-.011-.035-.01-.047a.143.143,0,0,0-.016-.023.057.057,0,0,0-.022-.017s0,0,0-.006,0,0,.006,0a.069.069,0,0,1,.026.02.149.149,0,0,1,.016.024c.009,0,.012.028.022.033a.225.225,0,0,0,.071.016.081.081,0,0,1-.03-.014.09.09,0,0,1-.027-.036s0,0,0-.007.005,0,.007,0a.079.079,0,0,0,.024.032.137.137,0,0,0,.062.02.1.1,0,0,1-.024-.02.119.119,0,0,1-.022-.039.107.107,0,0,0-.024-.038.1.1,0,0,0-.037-.024s0,0,0-.006,0,0,.006,0a.11.11,0,0,1,.041.027.116.116,0,0,1,.026.042.109.109,0,0,0,.02.036.09.09,0,0,0,.028.021.432.432,0,0,1-.019-.09c-.005-.02-.036-.043-.03-.05s.021.014.039.02a.184.184,0,0,0,.084.013.419.419,0,0,0-.057-.056.072.072,0,0,0-.055-.019s0,0-.006,0,0-.005,0-.006a.081.081,0,0,1,.062.021.335.335,0,0,1,.048.046.067.067,0,0,0,0-.012.24.24,0,0,0-.034-.054.156.156,0,0,0-.05-.039s0,0,0-.007,0,0,.007,0a.165.165,0,0,1,.054.041.238.238,0,0,1,.032.048.177.177,0,0,0-.011-.035.116.116,0,0,0-.029-.045c-.01-.009-.033-.022-.032-.028l-.01,0a.112.112,0,0,0-.026-.008s-.005,0,0-.005,0,0,.005,0a.117.117,0,0,1,.028.009l.015.009a.154.154,0,0,1,.032.012.189.189,0,0,0,.1.012l-.035-.014a.146.146,0,0,0-.041-.008s-.005,0,0-.005,0,0,.005,0a.155.155,0,0,1,.044.009.432.432,0,0,1,.041.017c.009,0,.016,0,.025-.007a.088.088,0,0,1-.032-.059h0a.3.3,0,0,0-.049-.039.064.064,0,0,0-.049-.01s0,0-.006,0,0-.005,0-.006a.074.074,0,0,1,.057.011.26.26,0,0,1,.043.033v0a.077.077,0,0,0-.068-.077c-.012,0-.029,0-.029,0s.015-.007.036-.013a.187.187,0,0,0,.13-.107.211.211,0,0,1-.029.019.215.215,0,0,1-.056.02.121.121,0,0,0-.034.013.094.094,0,0,0-.025.021s0,0-.007,0,0,0,0-.007a.1.1,0,0,1,.028-.023.134.134,0,0,1,.036-.014.212.212,0,0,0,.053-.019l.02-.013h-.071a.33.33,0,0,0-.063.025c-.017.01-.029.021-.03.035s0,0-.005,0,0,0,0-.005a.059.059,0,0,1,.035-.042.25.25,0,0,1,.036-.016h-.016c-.018,0-.017-.01,0-.016a.116.116,0,0,0,.039-.034.327.327,0,0,0,.071-.176.15.15,0,0,1-.018.031.074.074,0,0,1-.035.026.132.132,0,0,1-.028.062.117.117,0,0,1-.057.036.005.005,0,0,1,0-.009.16.16,0,0,0,.043-.054.116.116,0,0,0,.011-.06s0,0,0-.005.005,0,.005,0a.125.125,0,0,1-.012.065.154.154,0,0,1-.027.039.1.1,0,0,0,.029-.023.126.126,0,0,0,.026-.06.007.007,0,0,1,0,0,.065.065,0,0,0,.033-.023.155.155,0,0,0,.02-.035.2.2,0,0,1-.071.012.246.246,0,0,0-.086.024Z" transform="translate(-472.27 -110.705)"/>
        <path id="Path_2780" data-name="Path 2780" class="cls-6" d="M475.908,116.425a2.5,2.5,0,0,0-.318-.018,3.078,3.078,0,0,0-.32.017s0,.005,0,.007.006.005.019,0c.1-.009.2-.014.3-.014a2.694,2.694,0,0,1,.317.016c.005,0,.012-.013,0-.013Z" transform="translate(-475.07 -116.033)"/>
        <path id="Path_2781" data-name="Path 2781" class="cls-7" d="M475.008,115.274a3.065,3.065,0,0,1,.317-.017,2.464,2.464,0,0,1,.315.02l0-.02-.009,0a.019.019,0,1,1,.018-.027l.009-.026a2.924,2.924,0,0,0-.338-.019c-.113,0-.227.006-.341.017l.009.026a.019.019,0,1,1,.016.03H475l.005.015h0Zm.477-.065a.019.019,0,1,0,.019.019A.019.019,0,0,0,475.485,115.209Zm0,.01a.009.009,0,1,0,.009.009A.009.009,0,0,0,475.485,115.219Zm-.168-.014a.019.019,0,1,0,.019.019A.019.019,0,0,0,475.317,115.2Zm0,.01a.009.009,0,0,0-.009.009.009.009,0,0,0,.018,0A.009.009,0,0,0,475.317,115.215Zm-.166-.006a.019.019,0,1,0,.019.019A.019.019,0,0,0,475.151,115.208Zm0,.01a.009.009,0,1,0,0,.018.009.009,0,0,0,0-.018Z" transform="translate(-474.805 -114.892)"/>
      </g>
      <path id="Path_2782" data-name="Path 2782" d="M476.613,112.046a.05.05,0,0,0-.016-.027.054.054,0,0,0-.029-.014.006.006,0,0,1,0-.011.049.049,0,0,0,.024-.021.1.1,0,0,0,.015-.04c0-.005.01-.005.011,0a.069.069,0,0,0,.015.032.074.074,0,0,0,.03.021.006.006,0,0,1,0,.011.034.034,0,0,0-.022.014.091.091,0,0,0-.016.034.006.006,0,0,1-.011,0Zm.005-.018a.087.087,0,0,1,.013-.023.05.05,0,0,1,.015-.013.088.088,0,0,1-.022-.019.083.083,0,0,1-.011-.018.1.1,0,0,1-.012.025.07.07,0,0,1-.017.018.067.067,0,0,1,.021.013A.063.063,0,0,1,476.618,112.028Zm.124.8-.08.032s-.005,0-.007,0,0-.006,0-.007l.08-.032s.005,0,.007,0S476.745,112.823,476.742,112.824Zm.009-.051-.094.051s-.005,0-.008,0,0-.007,0-.008l.094-.051s.005,0,.008,0S476.754,112.772,476.752,112.773Zm-.284-.01.094.051s.005,0,0,.008-.005,0-.008,0l-.094-.051s-.005,0,0-.008S476.465,112.762,476.467,112.763Zm.008.05.08.032s.005,0,0,.007,0,0-.008,0l-.08-.032s-.005,0,0-.007,0,0,.008,0Zm.035.068a.145.145,0,0,0,.056,0,.037.037,0,0,0,.03-.023v-.077a.18.18,0,0,1-.047-.006.045.045,0,0,1-.031-.028.089.089,0,0,1,0-.051s0-.006.007,0,.005,0,0,.007a.079.079,0,0,0,0,.044.033.033,0,0,0,.024.021.184.184,0,0,0,.048.006.169.169,0,0,0,.047-.006.06.06,0,0,0,.03-.019.036.036,0,0,0,.009-.027.018.018,0,0,0-.008-.012.038.038,0,0,0-.02-.006.1.1,0,0,0-.022,0l-.012,0s-.006,0-.007,0,0-.006,0-.007l.011,0a.11.11,0,0,1,.025,0,.049.049,0,0,1,.026.008.029.029,0,0,1,.012.02.047.047,0,0,1-.011.036.07.07,0,0,1-.036.023.184.184,0,0,1-.043.007v.075a0,0,0,0,1,0,0,.037.037,0,0,0,.029.022.141.141,0,0,0,.056,0s.006,0,.007,0,0,.006,0,.007a.155.155,0,0,1-.06,0,.038.038,0,0,0-.067,0,.15.15,0,0,1-.06,0s-.006,0,0-.007,0,0,.007,0Zm.055.033h.063s.006,0,.006.006,0,.006-.006.006h-.063s-.006,0-.006-.006S476.563,112.914,476.566,112.914Zm.092-.48a.422.422,0,0,1,.066-.046.111.111,0,0,1,.056-.016s.006,0,.006.006,0,.006-.006.006a.1.1,0,0,0-.05.015.39.39,0,0,0-.064.045s0,0-.008,0,0-.006,0-.008Zm-.094.009a.315.315,0,0,0-.069-.049.114.114,0,0,0-.057-.016s-.006,0-.006-.005,0-.006.005-.006a.126.126,0,0,1,.063.017.333.333,0,0,1,.072.051s0,0,0,.008-.006,0-.008,0Zm-.033.156a.146.146,0,0,1,.021-.034.206.206,0,0,1,.027-.026s0,0,.008,0,0,.006,0,.008a.192.192,0,0,0-.025.025.135.135,0,0,0-.02.031s0,.005-.008,0S476.529,112.6,476.531,112.6Zm.058-.27a.115.115,0,0,1,.018.035.14.14,0,0,1,.006.043.18.18,0,0,1,0,.039.085.085,0,0,1-.015.038.044.044,0,0,1-.026.018.048.048,0,0,1-.026,0,.069.069,0,0,1,0,.048.006.006,0,0,1-.008,0l-.02-.01-.02-.008h0a.229.229,0,0,1-.037-.017.086.086,0,0,1-.023-.019h0a.061.061,0,0,1-.014-.026.13.13,0,0,1,0-.027l-.03-.018a.159.159,0,0,1-.025-.02s0,0,0-.008.006,0,.008,0a.149.149,0,0,0,.023.019l.032.019a.179.179,0,0,1,.058.017.312.312,0,0,1,.049.03l0,0,0,0a.037.037,0,0,0,.024,0,.032.032,0,0,0,.019-.013.076.076,0,0,0,.013-.033.169.169,0,0,0,0-.036h0a.132.132,0,0,0-.005-.04.106.106,0,0,0-.016-.031s0,0,0-.008.006,0,.008,0Zm-.058.163a.288.288,0,0,0-.048-.03.176.176,0,0,0-.049-.015.118.118,0,0,0,0,.021.049.049,0,0,0,.011.021h0a.078.078,0,0,0,.02.017.229.229,0,0,0,.035.016h0l.021.008.014.007a.086.086,0,0,0-.006-.042v0Zm.121-.156a.1.1,0,0,0-.016.031.127.127,0,0,0-.005.04h0a.173.173,0,0,0,0,.036.078.078,0,0,0,.013.033.033.033,0,0,0,.019.013.037.037,0,0,0,.024,0l0,0,0,0a.293.293,0,0,1,.049-.03.183.183,0,0,1,.058-.017l.032-.019a.146.146,0,0,0,.023-.019s0,0,.008,0,0,.006,0,.008a.161.161,0,0,1-.025.02l-.03.018a.129.129,0,0,1,0,.027.061.061,0,0,1-.014.026h0a.086.086,0,0,1-.023.019.236.236,0,0,1-.037.017h0l-.02.008-.02.01a.006.006,0,0,1-.008,0,.069.069,0,0,1,0-.048.046.046,0,0,1-.026,0,.043.043,0,0,1-.026-.018.086.086,0,0,1-.015-.038.184.184,0,0,1,0-.039.141.141,0,0,1,.006-.043.112.112,0,0,1,.018-.035s0,0,.008,0,0,.006,0,.008Zm.146.111a.175.175,0,0,0-.049.015.288.288,0,0,0-.048.03v0a.085.085,0,0,0-.006.042l.014-.007.021-.008h0a.227.227,0,0,0,.035-.016.075.075,0,0,0,.02-.017h0a.051.051,0,0,0,.011-.021.112.112,0,0,0,0-.021Z" transform="translate(-476.073 -111.83)"/>
      <path id="Path_2783" data-name="Path 2783" class="cls-8" d="M477.962,119.927a.034.034,0,1,0,.034.034A.034.034,0,0,0,477.962,119.927Zm0,.011a.023.023,0,1,0,.023.023A.023.023,0,0,0,477.962,119.937Zm0,.009a.014.014,0,1,0,.014.014A.014.014,0,0,0,477.962,119.947Zm-.264-.019a.034.034,0,1,1-.034.034A.034.034,0,0,1,477.7,119.928Zm0,.011a.023.023,0,1,1-.023.023A.023.023,0,0,1,477.7,119.938Zm0,.009a.014.014,0,1,1-.014.014A.014.014,0,0,1,477.7,119.948Z" transform="translate(-477.289 -119.301)"/>
    </g>
    <g id="Group_2804" data-name="Group 2804" transform="translate(0.268 1.229) rotate(-2.173)">
      <path id="Path_2784" data-name="Path 2784" d="M.531,0S.524,0,.52.007L.435.119C.4.129.4.147.409.173.369.169.364.2.362.241Q.3.152.235.193C.234.157.206.14.167.132A.129.129,0,0,1,.1.109L.073.093C.053.079.038.092.046.1l.125.2A.029.029,0,0,0,.185.339L.206.4.2.418A.272.272,0,0,0,.1.4.074.074,0,0,1,.042.376C.033.366.028.372.028.389A.324.324,0,0,0,.121.621l-.108,0C0,.625,0,.63,0,.64A.206.206,0,0,0,.129.76.1.1,0,0,0,.074.841.077.077,0,0,1,.041.911c-.009,0-.013.01,0,.016A.162.162,0,0,0,.176.945a.217.217,0,0,0-.031.132.164.164,0,0,0,.1-.008.152.152,0,0,0-.008.048.125.125,0,0,1-.016.053c0,.005-.01.013,0,.016A.23.23,0,0,0,.36,1.18a.377.377,0,0,0,.012.113c0,.009.011.016.019,0a.282.282,0,0,1,.082-.08A.058.058,0,0,0,.5,1.25.059.059,0,0,1,.521,1.3a.015.015,0,0,0,.005.014c.023,0,.08-.059.092-.093A.209.209,0,0,1,.687,1.3c.009.012.015,0,.02,0a.439.439,0,0,0,.01-.113.23.23,0,0,0,.142.007c.011,0,.006-.011,0-.016a.147.147,0,0,1-.018-.057.14.14,0,0,0-.007-.045.162.162,0,0,0,.1.008A.217.217,0,0,0,.9.945.167.167,0,0,0,1.04.928c.009-.006.005-.012,0-.016A.077.077,0,0,1,1,.84.1.1,0,0,0,.947.759.206.206,0,0,0,1.075.64c0-.01,0-.015-.011-.016L.953.62A.327.327,0,0,0,1.047.387c0-.017-.006-.023-.014-.013A.07.07,0,0,1,.979.4a.267.267,0,0,0-.1.02L.872.4C.879.379.888.359.9.338A.029.029,0,0,0,.909.307C.951.239.989.172,1.031.1,1.039.092,1.024.079,1,.092L.978.109A.131.131,0,0,1,.91.132C.871.14.845.158.843.193Q.775.152.716.241C.715.2.71.17.669.174.681.148.672.129.642.119.613.08.57.046.541.007.537,0,.533,0,.531,0Z" transform="translate(0 0)"/>
      <g id="Group_2803" data-name="Group 2803" transform="translate(0.021 0.02)">
        <path id="Path_2785" data-name="Path 2785" class="cls-6" d="M.784,0C.776,0,.765,0,.759.016S.754.042.762.046.775.046.78.038l0-.006h0C.791.019.792.005.784,0ZM0,0C.013,0,.024,0,.03.016s.006.026,0,.03S.012.042.006.03,0,.005,0,0ZM.711.142A.009.009,0,0,0,.7.151.009.009,0,0,0,.711.16.009.009,0,0,0,.72.151.009.009,0,0,0,.711.142Zm-.627,0a.009.009,0,1,0,0,.018.009.009,0,1,0,0-.018ZM.752.095A2.929,2.929,0,0,0,.4.074C.283.074.165.08.047.092c0,0,0,.014,0,.013C.167.094.284.088.4.088a2.91,2.91,0,0,1,.347.02C.753.108.756.1.752.095Z" transform="translate(0.119 0.196)"/>
        <path id="Path_2786" data-name="Path 2786" class="cls-6" d="M.163.278C.283.266.4.259.519.26A2.932,2.932,0,0,1,.871.28L.889.252a.018.018,0,0,1-.014,0C.863.245.86.226.869.208S.895.181.906.187A.021.021,0,0,1,.917.2L.986.089A.2.2,0,0,1,.9.129C.852.135.832.15.839.176S.83.2.807.185C.759.158.723.2.706.24S.681.268.68.238c0-.011,0-.02,0-.031C.675.172.665.162.645.172S.618.176.624.163A.051.051,0,0,0,.634.128C.633.118.624.114.611.113.582.075.538.038.51,0L.423.113C.41.114.4.118.4.128S.407.153.412.162.415.183.39.171.362.171.358.205c0,.011,0,.022,0,.033,0,.03-.015.031-.026,0S.275.158.226.185C.2.2.195.2.2.176S.181.135.138.129A.2.2,0,0,1,.047.089L.112.2A.018.018,0,0,1,.121.187C.132.181.149.19.158.208S.164.245.152.251l0,0L.163.278ZM.846.419l0,0A.074.074,0,0,0,.822.44.275.275,0,0,1,.789.47s0,0-.007,0,0-.005,0-.007A.283.283,0,0,0,.815.434L.827.419l-.044,0A.15.15,0,0,0,.748.429.062.062,0,0,0,.727.449s0,0-.007,0,0,0,0-.007A.07.07,0,0,1,.743.421L.759.412l-.05,0L.7.416.691.426s0,0-.007,0,0,0,0-.007L.693.409h0l-.038,0h0L.647.415.641.426s0,0-.006,0,0,0,0-.006A.067.067,0,0,1,.639.41L.643.4.59.4l0,0L.577.412.57.422s0,0-.007,0,0,0,0-.007A.052.052,0,0,1,.57.405l0,0H.461l0,0A.063.063,0,0,1,.473.417s0,0,0,.007-.005,0-.007,0L.457.412.447.4l0,0L.391.4.4.41A.055.055,0,0,1,.4.422s0,0,0,.006-.005,0-.006,0A.041.041,0,0,0,.388.415L.379.406l0,0L.34.407l0,0L.352.42s0,0,0,.007-.005,0-.007,0L.335.416.325.408h0l-.051,0L.292.421A.069.069,0,0,1,.316.444s0,0,0,.007-.005,0-.007,0A.061.061,0,0,0,.286.429.159.159,0,0,0,.248.413h0l-.042,0L.219.434A.283.283,0,0,0,.251.462s0,0,0,.007,0,0-.007,0A.276.276,0,0,1,.212.44C.207.435.2.423.191.419A.249.249,0,0,0,.1.4.2.2,0,0,1,.031.383.156.156,0,0,0,.05.419.063.063,0,0,0,.083.442a.006.006,0,0,1,0,0,.125.125,0,0,0,.026.06A.1.1,0,0,0,.142.529.155.155,0,0,1,.115.49.125.125,0,0,1,.1.425s0,0,.005,0,0,0,0,.005a.115.115,0,0,0,.011.06A.167.167,0,0,0,.169.54s0,.01,0,.009A.123.123,0,0,1,.105.512.132.132,0,0,1,.077.451.072.072,0,0,1,.043.425.152.152,0,0,1,.024.393.3.3,0,0,0,.1.57.117.117,0,0,0,.135.6C.149.609.15.619.132.619H.115A.252.252,0,0,1,.152.636.058.058,0,0,1,.187.678s0,0,0,.005-.005,0-.005,0S.164.654.147.644A.308.308,0,0,0,.084.62H.013l.02.013A.212.212,0,0,0,.087.652.132.132,0,0,1,.123.666.1.1,0,0,1,.15.69s0,0,0,.007S.144.7.143.7A.089.089,0,0,0,.118.675.122.122,0,0,0,.084.662.219.219,0,0,1,.029.642.194.194,0,0,1,0,.623.187.187,0,0,0,.13.73l.009,0h0L.182.742.223.747s0,0,0,.005,0,0-.005,0L.181.751.154.746l-.017,0A.077.077,0,0,0,.07.825a.013.013,0,0,1,0,0A.265.265,0,0,1,.112.794.073.073,0,0,1,.169.784s0,0,0,.006,0,0-.006,0A.065.065,0,0,0,.117.8.3.3,0,0,0,.068.842.088.088,0,0,1,.036.9c.009.005.016.01.025.007A.438.438,0,0,1,.1.891.161.161,0,0,1,.146.882s0,0,.005,0,0,0,0,.005A.147.147,0,0,0,.105.9L.07.915A.19.19,0,0,0,.174.9.077.077,0,0,1,.195.9.251.251,0,0,1,.222.884.116.116,0,0,1,.25.875s0,0,.005,0,0,.005,0,.005A.061.061,0,0,0,.217.9S.206.906.2.912L.183.922A.115.115,0,0,0,.154.967.189.189,0,0,0,.144,1,.232.232,0,0,1,.175.955.162.162,0,0,1,.229.914s0,0,.007,0,0,.005,0,.007a.149.149,0,0,0-.05.039.231.231,0,0,0-.034.054.071.071,0,0,0-.007.013A.356.356,0,0,1,.192.981.087.087,0,0,1,.257.96s0,0,0,.006,0,0-.006,0A.078.078,0,0,0,.2.989a.428.428,0,0,0-.057.056.186.186,0,0,0,.084-.013c.014,0,.028-.021.037-.024L.271,1,.287.982s0,0,.007,0,0,.005,0,.007L.279,1l-.014.018s0,0,0,0a.125.125,0,0,0-.027.037.451.451,0,0,1-.019.09A.1.1,0,0,0,.242,1.13a.107.107,0,0,0,.02-.036.117.117,0,0,1,.026-.042.112.112,0,0,1,.041-.027s0,0,.006,0,0,.005,0,.006A.1.1,0,0,0,.3,1.059.106.106,0,0,0,.271,1.1a.116.116,0,0,1-.022.039.1.1,0,0,1-.024.02H.244a.1.1,0,0,0,.043-.019A.08.08,0,0,0,.311,1.1s0,0,.007,0,0,0,0,.007a.09.09,0,0,1-.027.036.08.08,0,0,1-.031.014.225.225,0,0,0,.073-.016c.01,0,.014-.026.02-.032a.15.15,0,0,1,.016-.025A.068.068,0,0,1,.4,1.067s0,0,.006,0,0,.005,0,.006a.058.058,0,0,0-.022.017.139.139,0,0,0-.015.023.446.446,0,0,1-.008.047.318.318,0,0,0,.008.1.331.331,0,0,1,.025-.03.012.012,0,0,1,0,0A.494.494,0,0,0,.4,1.175a.28.28,0,0,0,0-.051s0,0,0-.005.005,0,.005,0a.286.286,0,0,1,0,.053c0,.014,0,.028,0,.042A.035.035,0,0,0,.413,1.2a.116.116,0,0,0,.01-.037.1.1,0,0,0,0-.036s0,0,0-.006.005,0,.006,0a.11.11,0,0,1,0,.039A.136.136,0,0,1,.425,1.2l.028-.019c0-.012,0-.024,0-.035a.187.187,0,0,1,0-.03s0-.006.007-.005.006,0,.005.007a.194.194,0,0,0,0,.028c0,.012,0,.025,0,.038a.047.047,0,0,0,.019.036.066.066,0,0,1,.029.043.279.279,0,0,0,0-.062A.148.148,0,0,0,.5,1.139s0,0,0-.007.005,0,.007,0A.16.16,0,0,1,.525,1.2a.294.294,0,0,1,0,.076.107.107,0,0,0,.055-.092.055.055,0,0,0,0-.012s0,0,0-.007.005,0,.007,0a.069.069,0,0,1,.006.017s0,.008,0,.012S.6,1.185.6,1.186l.012.008A.132.132,0,0,1,.6,1.167a.113.113,0,0,1,0-.039s0,0,.006,0,0,0,0,.006a.1.1,0,0,0,0,.036.126.126,0,0,0,.01.037,0,0,0,0,1,0,0l.011.01c0-.013,0-.026,0-.04a.274.274,0,0,1,0-.053s0,0,.005,0,0,0,0,.005a.28.28,0,0,0,0,.051.5.5,0,0,0,.006.052h0c.008.009.015.019.024.031a.32.32,0,0,0,.01-.1c0-.012-.011-.035-.01-.047a.143.143,0,0,0-.016-.023.056.056,0,0,0-.022-.017s0,0,0-.006,0,0,.006,0a.069.069,0,0,1,.026.02.15.15,0,0,1,.016.024c.009,0,.012.028.022.033a.225.225,0,0,0,.07.016.081.081,0,0,1-.03-.014.09.09,0,0,1-.027-.036s0,0,0-.007.005,0,.007,0a.079.079,0,0,0,.024.032.137.137,0,0,0,.062.02.1.1,0,0,1-.024-.02A.118.118,0,0,1,.763,1.1.107.107,0,0,0,.739,1.06.1.1,0,0,0,.7,1.035s0,0,0-.006,0,0,.006,0a.11.11,0,0,1,.041.027.116.116,0,0,1,.026.042.109.109,0,0,0,.02.036.09.09,0,0,0,.028.021A.434.434,0,0,1,.8,1.062c-.005-.02-.036-.043-.03-.05s.021.014.039.02a.184.184,0,0,0,.084.013A.419.419,0,0,0,.836.989.072.072,0,0,0,.782.97s0,0-.006,0,0-.005,0-.006A.081.081,0,0,1,.842.981a.334.334,0,0,1,.048.046.064.064,0,0,0,0-.012A.24.24,0,0,0,.852.961.156.156,0,0,0,.8.923s0,0,0-.007,0,0,.007,0A.165.165,0,0,1,.859.955.238.238,0,0,1,.891,1,.176.176,0,0,0,.88.967.115.115,0,0,0,.851.923C.841.914.819.9.819.895l-.01,0A.112.112,0,0,0,.783.883s0,0,0-.005,0,0,.005,0A.117.117,0,0,1,.813.882L.828.891A.155.155,0,0,1,.86.9a.189.189,0,0,0,.1.012L.929.9A.146.146,0,0,0,.888.893s0,0,0-.005,0,0,.005,0A.155.155,0,0,1,.933.892.437.437,0,0,1,.973.908C.982.913.989.907,1,.9A.088.088,0,0,1,.967.843h0A.3.3,0,0,0,.917.8.065.065,0,0,0,.868.793s0,0-.006,0,0-.005,0-.006A.074.074,0,0,1,.922.795.259.259,0,0,1,.965.828v0A.077.077,0,0,0,.9.748c-.012,0-.029,0-.029,0S.883.736.9.73a.187.187,0,0,0,.13-.107.212.212,0,0,1-.029.019A.216.216,0,0,1,.95.662.121.121,0,0,0,.916.675.094.094,0,0,0,.891.7s0,0-.007,0,0,0,0-.007A.1.1,0,0,1,.911.666.134.134,0,0,1,.947.652.212.212,0,0,0,1,.633L1.021.62H.95A.328.328,0,0,0,.887.644C.87.654.858.666.857.679s0,0-.005,0,0,0,0-.005A.059.059,0,0,1,.882.636.252.252,0,0,1,.919.62H.9C.884.619.885.609.9.6A.115.115,0,0,0,.938.57.326.326,0,0,0,1.009.394.149.149,0,0,1,.991.425.075.075,0,0,1,.957.451.132.132,0,0,1,.929.512.117.117,0,0,1,.872.548a.005.005,0,0,1,0-.009A.16.16,0,0,0,.91.486.116.116,0,0,0,.921.426s0,0,0-.005.005,0,.005,0A.125.125,0,0,1,.919.49.155.155,0,0,1,.892.529.1.1,0,0,0,.921.506.126.126,0,0,0,.948.446a.007.007,0,0,1,0,0A.065.065,0,0,0,.984.419.155.155,0,0,0,1,.384.2.2,0,0,1,.932.4.246.246,0,0,0,.846.42Z" transform="translate(0 0)"/>
        <path id="Path_2787" data-name="Path 2787" class="cls-6" d="M.64.018A2.5,2.5,0,0,0,.323,0,3.079,3.079,0,0,0,0,.017S0,.023,0,.025s.006.005.019,0c.1-.009.2-.014.3-.014A2.694,2.694,0,0,1,.637.03C.642.032.649.017.64.018Z" transform="translate(0.197 0.374)"/>
        <path id="Path_2788" data-name="Path 2788" class="cls-7" d="M.024.087A3.066,3.066,0,0,1,.341.07a2.464,2.464,0,0,1,.315.02l0-.02-.009,0A.019.019,0,1,1,.67.045L.679.019A2.925,2.925,0,0,0,.341,0C.228,0,.114.006,0,.017L.009.042a.019.019,0,1,1,.016.03H.019L.024.086h0ZM.5.022A.019.019,0,1,0,.521.041.019.019,0,0,0,.5.022Zm0,.01A.009.009,0,1,0,.5.05.009.009,0,0,0,.511.041.009.009,0,0,0,.5.032ZM.333.018A.019.019,0,1,0,.352.037.019.019,0,0,0,.333.018Zm0,.01A.009.009,0,0,0,.324.037a.009.009,0,1,0,.018,0A.009.009,0,0,0,.333.028ZM.167.022A.019.019,0,1,0,.187.041.019.019,0,0,0,.167.022Zm0,.01a.009.009,0,1,0,0,.018.009.009,0,1,0,0-.018Z" transform="translate(0.178 0.294)"/>
      </g>
      <path id="Path_2789" data-name="Path 2789" d="M.25.116A.05.05,0,0,0,.234.089.054.054,0,0,0,.2.075.006.006,0,0,1,.2.065.049.049,0,0,0,.228.044.1.1,0,0,0,.243,0C.244,0,.253,0,.254,0A.069.069,0,0,0,.269.036.074.074,0,0,0,.3.058.006.006,0,0,1,.3.068.035.035,0,0,0,.276.082.091.091,0,0,0,.26.116a.006.006,0,0,1-.011,0ZM.255.1A.088.088,0,0,1,.267.075.05.05,0,0,1,.283.062.089.089,0,0,1,.26.043.085.085,0,0,1,.249.025.1.1,0,0,1,.237.05.069.069,0,0,1,.221.068.067.067,0,0,1,.242.081.062.062,0,0,1,.255.1Zm.124.8L.3.926s-.005,0-.007,0,0-.006,0-.007L.375.883s.005,0,.007,0S.382.893.379.894ZM.388.843.294.894S.289.9.286.892s0-.007,0-.008L.383.833s.005,0,.008,0S.391.842.388.843ZM.1.833.2.884S.2.887.2.892.2.9.192.894L.1.843S.093.84.1.835.1.832.1.833Zm.008.05.08.032S.2.917.2.923s0,0-.008,0L.108.894S.1.892.1.886s0,0,.007,0ZM.147.951A.145.145,0,0,0,.2.955.037.037,0,0,0,.232.933V.856A.181.181,0,0,1,.185.85.045.045,0,0,1,.154.822a.09.09,0,0,1,0-.051s0-.006.007,0,0,0,0,.007a.079.079,0,0,0,0,.044A.033.033,0,0,0,.188.838.184.184,0,0,0,.236.844.169.169,0,0,0,.283.838.06.06,0,0,0,.313.819.036.036,0,0,0,.322.792.018.018,0,0,0,.314.779.038.038,0,0,0,.295.773a.1.1,0,0,0-.022,0L.26.778s-.006,0-.007,0,0-.006,0-.007l.011,0A.11.11,0,0,1,.3.762.049.049,0,0,1,.321.77.029.029,0,0,1,.334.79.047.047,0,0,1,.322.826.071.071,0,0,1,.287.849.184.184,0,0,1,.244.856V.931a0,0,0,0,1,0,0A.037.037,0,0,0,.274.955a.142.142,0,0,0,.056,0s.006,0,.007,0,0,.006,0,.007a.155.155,0,0,1-.06,0A.049.049,0,0,1,.238.946.049.049,0,0,1,.2.967a.15.15,0,0,1-.06,0S.138.96.14.955s0,0,.007,0ZM.2.983H.265s.006,0,.006.006,0,.006-.006.006H.2S.2,1,.2.989.2.983.2.983ZM.295.5A.42.42,0,0,1,.36.457.111.111,0,0,1,.416.441s.006,0,.006.006,0,.006-.006.006a.1.1,0,0,0-.05.015A.393.393,0,0,0,.3.513s0,0-.008,0,0-.006,0-.008ZM.2.512A.314.314,0,0,0,.131.463.114.114,0,0,0,.075.448S.069.449.068.443s0-.006.005-.006A.126.126,0,0,1,.137.453.331.331,0,0,1,.208.5s0,0,0,.008S.2.514.2.512ZM.167.669A.147.147,0,0,1,.188.634.207.207,0,0,1,.216.608s0,0,.008,0,0,.006,0,.008A.193.193,0,0,0,.2.642.134.134,0,0,0,.178.673s0,.005-.008,0S.166.671.167.669ZM.225.4A.114.114,0,0,1,.243.433.139.139,0,0,1,.249.477a.181.181,0,0,1,0,.039A.086.086,0,0,1,.233.554.044.044,0,0,1,.207.571a.048.048,0,0,1-.026,0,.069.069,0,0,1,0,.048.006.006,0,0,1-.008,0L.155.611.135.6h0A.227.227,0,0,1,.1.586.086.086,0,0,1,.075.567h0A.061.061,0,0,1,.061.54a.128.128,0,0,1,0-.027L.027.5A.159.159,0,0,1,0,.475s0,0,0-.008.006,0,.008,0A.147.147,0,0,0,.034.486L.066.5A.179.179,0,0,1,.123.522a.309.309,0,0,1,.049.03l0,0,0,0A.037.037,0,0,0,.2.56.032.032,0,0,0,.223.547.076.076,0,0,0,.237.514a.168.168,0,0,0,0-.036h0A.132.132,0,0,0,.232.437.1.1,0,0,0,.216.405s0,0,0-.008S.224.4.225.4ZM.167.562A.289.289,0,0,0,.118.532.175.175,0,0,0,.069.517a.11.11,0,0,0,0,.021A.048.048,0,0,0,.083.559h0A.079.079,0,0,0,.1.576.226.226,0,0,0,.139.593h0L.159.6.174.608A.085.085,0,0,0,.168.566v0ZM.287.406A.1.1,0,0,0,.272.437a.128.128,0,0,0-.005.04h0a.168.168,0,0,0,0,.036A.077.077,0,0,0,.28.547.033.033,0,0,0,.3.56a.037.037,0,0,0,.024,0l0,0,0,0A.292.292,0,0,1,.38.522.183.183,0,0,1,.438.5L.469.486A.146.146,0,0,0,.493.467s0,0,.008,0S.5.473.5.475A.159.159,0,0,1,.476.5L.446.514a.127.127,0,0,1,0,.027A.062.062,0,0,1,.429.567h0A.086.086,0,0,1,.405.586.236.236,0,0,1,.368.6h0L.349.612l-.02.01a.006.006,0,0,1-.008,0,.069.069,0,0,1,0-.048A.046.046,0,0,1,.3.572.044.044,0,0,1,.27.554.086.086,0,0,1,.255.516a.181.181,0,0,1,0-.039A.139.139,0,0,1,.26.434.113.113,0,0,1,.278.4s0,0,.008,0,0,.006,0,.008ZM.434.517A.174.174,0,0,0,.385.532a.289.289,0,0,0-.048.03v0A.085.085,0,0,0,.329.608L.344.6.365.592h0A.226.226,0,0,0,.4.576.076.076,0,0,0,.42.559h0A.052.052,0,0,0,.431.538a.11.11,0,0,0,0-.021Z" transform="translate(0.29 0.1)"/>
      <path id="Path_2790" data-name="Path 2790" class="cls-8" d="M.3,0A.034.034,0,1,0,.331.034.034.034,0,0,0,.3,0ZM.3.011A.023.023,0,1,0,.321.034.023.023,0,0,0,.3.011ZM.3.02A.014.014,0,1,0,.311.034.014.014,0,0,0,.3.02ZM.034,0A.034.034,0,1,1,0,.034.034.034,0,0,1,.034,0Zm0,.011A.023.023,0,1,1,.011.034.023.023,0,0,1,.034.012Zm0,.009A.014.014,0,1,1,.02.034.014.014,0,0,1,.034.021Z" transform="translate(0.375 0.625)"/>
    </g>
    <g id="Group_2806" data-name="Group 2806" transform="translate(1.623 1.188) rotate(2.18)">
      <path id="Path_2791" data-name="Path 2791" d="M.531,0S.524,0,.52.007L.435.119C.4.129.4.147.409.173.369.169.364.2.362.241Q.3.152.235.193C.234.157.206.14.167.132A.129.129,0,0,1,.1.109L.073.093C.053.079.038.092.046.1l.125.2A.029.029,0,0,0,.185.339L.206.4.2.418A.272.272,0,0,0,.1.4.074.074,0,0,1,.042.376C.033.366.028.372.028.389A.324.324,0,0,0,.121.621l-.108,0C0,.625,0,.63,0,.64A.206.206,0,0,0,.129.76.1.1,0,0,0,.074.841.077.077,0,0,1,.041.911c-.009,0-.013.01,0,.016A.162.162,0,0,0,.176.945a.217.217,0,0,0-.031.132.164.164,0,0,0,.1-.008.152.152,0,0,0-.008.048.125.125,0,0,1-.016.053c0,.005-.01.013,0,.016A.23.23,0,0,0,.36,1.18a.377.377,0,0,0,.012.113c0,.009.011.016.019,0a.282.282,0,0,1,.082-.08A.058.058,0,0,0,.5,1.25.059.059,0,0,1,.521,1.3a.015.015,0,0,0,.005.014c.023,0,.08-.059.092-.093A.209.209,0,0,1,.687,1.3c.009.012.015,0,.02,0a.439.439,0,0,0,.01-.113.23.23,0,0,0,.142.007c.011,0,.006-.011,0-.016a.147.147,0,0,1-.018-.057.14.14,0,0,0-.007-.045.162.162,0,0,0,.1.008A.217.217,0,0,0,.9.945.167.167,0,0,0,1.04.928c.009-.006.005-.012,0-.016A.077.077,0,0,1,1,.84.1.1,0,0,0,.947.759.206.206,0,0,0,1.075.64c0-.01,0-.015-.011-.016L.953.62A.327.327,0,0,0,1.047.387c0-.017-.006-.023-.014-.013A.07.07,0,0,1,.979.4a.267.267,0,0,0-.1.02L.872.4C.879.379.888.359.9.338A.029.029,0,0,0,.909.307C.951.239.989.172,1.031.1,1.039.092,1.024.079,1,.092L.978.109A.131.131,0,0,1,.91.132C.871.14.845.158.843.193Q.775.152.716.241C.715.2.71.17.669.174.681.148.672.129.642.119.613.08.57.046.541.007.537,0,.533,0,.531,0Z" transform="translate(0 0)"/>
      <g id="Group_2805" data-name="Group 2805" transform="translate(0.021 0.02)">
        <path id="Path_2792" data-name="Path 2792" class="cls-6" d="M.784,0C.776,0,.765,0,.759.016S.754.042.762.046.775.046.78.038l0-.006h0C.791.019.792.005.784,0ZM0,0C.013,0,.024,0,.03.016s.006.026,0,.03S.012.042.006.03,0,.005,0,0ZM.711.142A.009.009,0,0,0,.7.151.009.009,0,0,0,.711.16.009.009,0,0,0,.72.151.009.009,0,0,0,.711.142Zm-.627,0a.009.009,0,0,0,0,.018.009.009,0,1,0,0-.018ZM.752.095A2.929,2.929,0,0,0,.4.074C.283.074.165.08.047.092c0,0,0,.014,0,.013C.167.094.284.088.4.088a2.911,2.911,0,0,1,.347.02C.753.108.756.1.752.095Z" transform="translate(0.119 0.196)"/>
        <path id="Path_2793" data-name="Path 2793" class="cls-6" d="M.163.278C.283.266.4.259.519.26A2.932,2.932,0,0,1,.871.28L.889.252a.018.018,0,0,1-.014,0C.863.245.86.226.869.208S.895.181.906.187A.021.021,0,0,1,.917.2L.986.089A.2.2,0,0,1,.9.129C.852.135.832.15.839.176S.83.2.807.185C.759.158.723.2.706.24S.681.268.68.238c0-.011,0-.02,0-.031C.675.172.665.162.645.172S.618.176.624.163A.051.051,0,0,0,.634.128C.633.118.624.114.611.113.582.075.538.038.51,0L.423.113C.41.114.4.118.4.128S.407.153.412.162.415.183.39.171.362.171.358.205c0,.011,0,.022,0,.033,0,.03-.015.031-.026,0S.275.158.226.185C.2.2.195.2.2.176S.181.135.138.129A.2.2,0,0,1,.047.089L.112.2A.018.018,0,0,1,.121.187C.132.181.149.19.158.208S.164.245.152.251l0,0L.163.278ZM.846.419l0,0A.074.074,0,0,0,.822.44.275.275,0,0,1,.789.47s0,0-.007,0,0-.005,0-.007A.283.283,0,0,0,.815.434L.827.419l-.044,0A.15.15,0,0,0,.748.429.062.062,0,0,0,.727.449s0,0-.007,0,0,0,0-.007A.07.07,0,0,1,.743.421L.759.412l-.05,0L.7.416.691.426s0,0-.007,0,0,0,0-.007L.693.409h0l-.038,0h0L.647.415.641.426s0,0-.006,0,0,0,0-.006A.067.067,0,0,1,.639.41L.643.4.59.4l0,0L.577.412.57.422s0,0-.007,0,0,0,0-.007A.052.052,0,0,1,.57.405l0,0H.461l0,0A.063.063,0,0,1,.473.417s0,0,0,.007-.005,0-.007,0L.457.412.447.4l0,0L.391.4.4.41A.056.056,0,0,1,.4.422s0,0,0,.006-.005,0-.006,0A.041.041,0,0,0,.388.415L.379.406l0,0L.34.407l0,0,.01.012s0,0,0,.007-.005,0-.007,0L.335.416.325.408h0l-.051,0L.292.421A.069.069,0,0,1,.316.444s0,0,0,.007-.005,0-.007,0A.061.061,0,0,0,.286.429.159.159,0,0,0,.248.413h0l-.042,0L.219.434A.283.283,0,0,0,.251.462s0,0,0,.007,0,0-.007,0A.276.276,0,0,1,.212.44C.207.435.2.423.191.419A.249.249,0,0,0,.1.4.2.2,0,0,1,.031.383.156.156,0,0,0,.05.419.063.063,0,0,0,.083.442a.006.006,0,0,1,0,0,.125.125,0,0,0,.026.06A.1.1,0,0,0,.142.529.155.155,0,0,1,.115.49.124.124,0,0,1,.1.425s0,0,.005,0,0,0,0,.005a.115.115,0,0,0,.011.06A.167.167,0,0,0,.169.54s0,.01,0,.009A.123.123,0,0,1,.105.512.132.132,0,0,1,.077.451.072.072,0,0,1,.043.425.152.152,0,0,1,.024.393.3.3,0,0,0,.1.57.117.117,0,0,0,.135.6C.149.609.15.619.132.619H.115A.252.252,0,0,1,.152.636.058.058,0,0,1,.187.678s0,0,0,.005-.005,0-.005,0S.164.654.147.644A.309.309,0,0,0,.084.62H.013l.02.013A.212.212,0,0,0,.087.652.132.132,0,0,1,.123.666.1.1,0,0,1,.15.69s0,0,0,.007S.144.7.143.7A.089.089,0,0,0,.118.675.122.122,0,0,0,.084.662.219.219,0,0,1,.029.642.194.194,0,0,1,0,.623.187.187,0,0,0,.13.73l.009,0h0L.182.742.223.747s0,0,0,.005,0,0-.005,0L.181.751.154.746l-.017,0A.077.077,0,0,0,.07.825a.013.013,0,0,1,0,0A.265.265,0,0,1,.112.794.073.073,0,0,1,.169.784s0,0,0,.006,0,0-.006,0A.065.065,0,0,0,.117.8.3.3,0,0,0,.068.842.088.088,0,0,1,.036.9c.009.005.016.01.025.007A.437.437,0,0,1,.1.891.161.161,0,0,1,.146.882s0,0,.005,0,0,0,0,.005A.147.147,0,0,0,.105.9L.07.915A.19.19,0,0,0,.174.9.077.077,0,0,1,.195.9.251.251,0,0,1,.222.884.116.116,0,0,1,.25.875s0,0,.005,0,0,.005,0,.005A.061.061,0,0,0,.217.9S.206.906.2.912L.183.922A.115.115,0,0,0,.154.967.189.189,0,0,0,.144,1,.232.232,0,0,1,.175.955.162.162,0,0,1,.229.914s0,0,.007,0,0,.005,0,.007a.149.149,0,0,0-.05.039.231.231,0,0,0-.034.054.071.071,0,0,0-.007.013A.356.356,0,0,1,.192.981.087.087,0,0,1,.257.96s0,0,0,.006,0,0-.006,0A.078.078,0,0,0,.2.989a.428.428,0,0,0-.057.056.186.186,0,0,0,.084-.013c.014,0,.028-.021.037-.024L.271,1,.287.982s0,0,.007,0,0,.005,0,.007L.279,1l-.014.018s0,0,0,0a.125.125,0,0,0-.027.037.451.451,0,0,1-.019.09A.1.1,0,0,0,.242,1.13a.107.107,0,0,0,.02-.036.117.117,0,0,1,.026-.042.112.112,0,0,1,.041-.027s0,0,.006,0,0,.005,0,.006A.1.1,0,0,0,.3,1.06.106.106,0,0,0,.271,1.1a.116.116,0,0,1-.022.039.1.1,0,0,1-.024.02H.244a.1.1,0,0,0,.043-.019A.08.08,0,0,0,.311,1.1s0,0,.007,0,0,0,0,.007a.09.09,0,0,1-.027.036.08.08,0,0,1-.031.014.225.225,0,0,0,.073-.016c.01,0,.014-.026.02-.032a.15.15,0,0,1,.016-.025A.068.068,0,0,1,.4,1.067s0,0,.006,0,0,.005,0,.006a.058.058,0,0,0-.022.017.139.139,0,0,0-.015.023.445.445,0,0,1-.008.047.318.318,0,0,0,.008.1.331.331,0,0,1,.025-.03.012.012,0,0,1,0,0A.494.494,0,0,0,.4,1.175a.28.28,0,0,0,0-.051s0,0,0-.005.005,0,.005,0a.285.285,0,0,1,0,.053c0,.014,0,.028,0,.042A.035.035,0,0,0,.413,1.2a.116.116,0,0,0,.01-.037.1.1,0,0,0,0-.036s0,0,0-.006.005,0,.006,0a.11.11,0,0,1,0,.039A.136.136,0,0,1,.425,1.2l.028-.019c0-.012,0-.024,0-.035a.188.188,0,0,1,0-.03s0-.006.007-.005.006,0,.005.007a.194.194,0,0,0,0,.028c0,.012,0,.025,0,.038a.047.047,0,0,0,.019.036.066.066,0,0,1,.029.043.279.279,0,0,0,0-.062A.148.148,0,0,0,.5,1.139s0,0,0-.007.005,0,.007,0A.16.16,0,0,1,.525,1.2a.294.294,0,0,1,0,.076.107.107,0,0,0,.055-.092.055.055,0,0,0,0-.012s0,0,0-.007.005,0,.007,0a.069.069,0,0,1,.006.017s0,.008,0,.012S.6,1.185.6,1.186l.012.008A.132.132,0,0,1,.6,1.167a.113.113,0,0,1,0-.039s0,0,.006,0,0,0,0,.006a.1.1,0,0,0,0,.036.126.126,0,0,0,.01.037,0,0,0,0,1,0,0l.011.01c0-.013,0-.026,0-.04a.274.274,0,0,1,0-.053s0,0,.005,0,0,0,0,.005a.28.28,0,0,0,0,.051.5.5,0,0,0,.006.052h0c.008.009.015.019.024.031a.32.32,0,0,0,.01-.1c0-.012-.011-.035-.01-.047a.143.143,0,0,0-.016-.023.056.056,0,0,0-.022-.017s0,0,0-.006,0,0,.006,0a.069.069,0,0,1,.026.02.15.15,0,0,1,.016.024c.009,0,.012.028.022.033a.225.225,0,0,0,.07.016.081.081,0,0,1-.03-.014.09.09,0,0,1-.027-.036s0,0,0-.007.005,0,.007,0a.079.079,0,0,0,.024.032.137.137,0,0,0,.062.02.1.1,0,0,1-.024-.02A.118.118,0,0,1,.763,1.1.107.107,0,0,0,.739,1.06.1.1,0,0,0,.7,1.035s0,0,0-.006,0,0,.006,0a.11.11,0,0,1,.041.027.116.116,0,0,1,.026.042.109.109,0,0,0,.02.036.09.09,0,0,0,.028.021A.434.434,0,0,1,.8,1.062c-.005-.02-.036-.043-.03-.05s.021.014.039.02a.184.184,0,0,0,.084.013A.419.419,0,0,0,.836.989.072.072,0,0,0,.782.97s0,0-.006,0,0-.005,0-.006A.081.081,0,0,1,.842.981a.334.334,0,0,1,.048.046.064.064,0,0,0,0-.012A.24.24,0,0,0,.852.961.156.156,0,0,0,.8.923s0,0,0-.007,0,0,.007,0A.165.165,0,0,1,.859.955.238.238,0,0,1,.891,1,.176.176,0,0,0,.88.967.115.115,0,0,0,.851.923C.841.914.819.9.819.895l-.01,0A.112.112,0,0,0,.783.883s0,0,0-.005,0,0,.005,0A.117.117,0,0,1,.813.882L.828.891A.155.155,0,0,1,.86.9a.189.189,0,0,0,.1.012L.929.9A.146.146,0,0,0,.888.893s0,0,0-.005,0,0,.005,0A.155.155,0,0,1,.933.892.437.437,0,0,1,.973.908C.982.913.989.907,1,.9A.088.088,0,0,1,.967.843h0A.3.3,0,0,0,.917.8.065.065,0,0,0,.868.793s0,0-.006,0,0-.005,0-.006A.074.074,0,0,1,.922.795.259.259,0,0,1,.965.828v0A.077.077,0,0,0,.9.748c-.012,0-.029,0-.029,0S.883.736.9.73a.187.187,0,0,0,.13-.107.212.212,0,0,1-.029.019A.216.216,0,0,1,.95.662.121.121,0,0,0,.916.675.094.094,0,0,0,.891.7s0,0-.007,0,0,0,0-.007A.1.1,0,0,1,.911.666.134.134,0,0,1,.947.652.212.212,0,0,0,1,.633L1.021.62H.95A.328.328,0,0,0,.887.644C.87.654.858.666.857.679s0,0-.005,0,0,0,0-.005A.059.059,0,0,1,.882.636.252.252,0,0,1,.919.62H.9C.884.619.885.609.9.6A.115.115,0,0,0,.938.57.326.326,0,0,0,1.009.394.149.149,0,0,1,.991.425.075.075,0,0,1,.957.451.132.132,0,0,1,.929.512.117.117,0,0,1,.872.548a.005.005,0,0,1,0-.009A.16.16,0,0,0,.91.486.116.116,0,0,0,.921.426s0,0,0-.005.005,0,.005,0A.125.125,0,0,1,.919.49.155.155,0,0,1,.892.529.1.1,0,0,0,.921.506.126.126,0,0,0,.948.446a.007.007,0,0,1,0,0A.065.065,0,0,0,.984.419.155.155,0,0,0,1,.384.2.2,0,0,1,.932.4.246.246,0,0,0,.846.42Z" transform="translate(0 0)"/>
        <path id="Path_2794" data-name="Path 2794" class="cls-6" d="M.64.018A2.5,2.5,0,0,0,.323,0,3.079,3.079,0,0,0,0,.017S0,.023,0,.025s.006.005.019,0c.1-.009.2-.014.3-.014A2.694,2.694,0,0,1,.637.03C.642.032.649.017.64.018Z" transform="translate(0.197 0.374)"/>
        <path id="Path_2795" data-name="Path 2795" class="cls-7" d="M.024.087A3.066,3.066,0,0,1,.341.07a2.464,2.464,0,0,1,.315.02l0-.02-.009,0A.019.019,0,1,1,.67.045L.679.019A2.925,2.925,0,0,0,.341,0C.228,0,.114.006,0,.017L.009.042a.019.019,0,1,1,.016.03H.019L.024.086h0ZM.5.022A.019.019,0,1,0,.521.041.019.019,0,0,0,.5.022Zm0,.01A.009.009,0,1,0,.5.05.009.009,0,0,0,.511.041.009.009,0,0,0,.5.032ZM.333.018A.019.019,0,1,0,.352.037.019.019,0,0,0,.333.018Zm0,.01A.009.009,0,0,0,.324.037a.009.009,0,1,0,.018,0A.009.009,0,0,0,.333.028ZM.167.022A.019.019,0,1,0,.187.041.019.019,0,0,0,.167.022Zm0,.01a.009.009,0,0,0,0,.018.009.009,0,1,0,0-.018Z" transform="translate(0.178 0.294)"/>
      </g>
      <path id="Path_2796" data-name="Path 2796" d="M.25.116A.05.05,0,0,0,.234.089.054.054,0,0,0,.2.075.006.006,0,0,1,.2.065.049.049,0,0,0,.228.044.1.1,0,0,0,.243,0C.244,0,.253,0,.254,0A.069.069,0,0,0,.269.036.074.074,0,0,0,.3.058.006.006,0,0,1,.3.068.035.035,0,0,0,.276.082.091.091,0,0,0,.26.116a.006.006,0,0,1-.011,0ZM.255.1A.088.088,0,0,1,.267.075.05.05,0,0,1,.283.062.089.089,0,0,1,.26.043.085.085,0,0,1,.249.025.1.1,0,0,1,.237.05.069.069,0,0,1,.221.068.067.067,0,0,1,.242.081.062.062,0,0,1,.255.1Zm.124.8L.3.926s-.005,0-.007,0,0-.006,0-.007L.375.883s.005,0,.007,0S.382.893.379.894ZM.388.843.294.894S.289.9.286.892s0-.007,0-.008L.383.833s.005,0,.008,0S.391.842.388.843ZM.1.833.2.884S.2.887.2.892.2.9.192.894L.1.843S.093.84.1.835.1.832.1.833Zm.008.05.08.032S.2.917.2.923s0,0-.008,0L.108.894S.1.892.1.886s0,0,.007,0ZM.147.951A.145.145,0,0,0,.2.955.037.037,0,0,0,.232.933V.856A.181.181,0,0,1,.185.85.045.045,0,0,1,.154.822a.09.09,0,0,1,0-.051s0-.006.007,0,0,0,0,.007a.079.079,0,0,0,0,.044A.033.033,0,0,0,.188.838.184.184,0,0,0,.236.844.169.169,0,0,0,.283.838.06.06,0,0,0,.313.819.036.036,0,0,0,.322.792.018.018,0,0,0,.314.779.038.038,0,0,0,.295.773a.1.1,0,0,0-.022,0L.26.778s-.006,0-.007,0,0-.006,0-.007l.011,0A.11.11,0,0,1,.3.762.049.049,0,0,1,.321.77.029.029,0,0,1,.334.79.047.047,0,0,1,.322.826.071.071,0,0,1,.287.849.184.184,0,0,1,.244.856V.931a0,0,0,0,1,0,0A.037.037,0,0,0,.274.955a.142.142,0,0,0,.056,0s.006,0,.007,0,0,.006,0,.007a.155.155,0,0,1-.06,0A.049.049,0,0,1,.238.946.049.049,0,0,1,.2.967a.15.15,0,0,1-.06,0S.138.96.14.955s0,0,.007,0ZM.2.983H.265s.006,0,.006.006,0,.006-.006.006H.2S.2,1,.2.989.2.983.2.983ZM.295.5A.42.42,0,0,1,.36.457.111.111,0,0,1,.416.441s.006,0,.006.006,0,.006-.006.006a.1.1,0,0,0-.05.015A.393.393,0,0,0,.3.513s0,0-.008,0,0-.006,0-.008ZM.2.512A.314.314,0,0,0,.131.463.114.114,0,0,0,.075.448S.069.449.068.443s0-.006.005-.006A.126.126,0,0,1,.137.453.331.331,0,0,1,.208.5s0,0,0,.008S.2.514.2.512ZM.167.669A.147.147,0,0,1,.188.634.207.207,0,0,1,.216.608s0,0,.008,0,0,.006,0,.008A.193.193,0,0,0,.2.642.134.134,0,0,0,.178.673s0,.005-.008,0S.166.671.167.669ZM.225.4A.114.114,0,0,1,.243.433.139.139,0,0,1,.249.477a.181.181,0,0,1,0,.039A.086.086,0,0,1,.233.554.044.044,0,0,1,.207.571a.048.048,0,0,1-.026,0,.069.069,0,0,1,0,.048.006.006,0,0,1-.008,0L.155.611.135.6h0A.227.227,0,0,1,.1.586.086.086,0,0,1,.075.567h0A.061.061,0,0,1,.061.54a.128.128,0,0,1,0-.027L.027.5A.159.159,0,0,1,0,.475s0,0,0-.008.006,0,.008,0A.147.147,0,0,0,.034.486L.066.5A.179.179,0,0,1,.123.522a.309.309,0,0,1,.049.03l0,0,0,0A.037.037,0,0,0,.2.56.032.032,0,0,0,.223.547.076.076,0,0,0,.237.514a.168.168,0,0,0,0-.036h0A.132.132,0,0,0,.232.437.1.1,0,0,0,.216.405s0,0,0-.008S.224.4.225.4ZM.167.562A.289.289,0,0,0,.118.532.175.175,0,0,0,.069.517a.11.11,0,0,0,0,.021A.048.048,0,0,0,.083.559h0A.079.079,0,0,0,.1.576.226.226,0,0,0,.139.593h0L.159.6.174.608A.085.085,0,0,0,.168.566v0ZM.287.406A.1.1,0,0,0,.272.437a.128.128,0,0,0-.005.04h0a.168.168,0,0,0,0,.036A.077.077,0,0,0,.28.547.033.033,0,0,0,.3.56a.037.037,0,0,0,.024,0l0,0,0,0A.292.292,0,0,1,.38.522.183.183,0,0,1,.438.5L.469.486A.146.146,0,0,0,.493.467s0,0,.008,0S.5.473.5.475A.159.159,0,0,1,.476.5L.446.514a.127.127,0,0,1,0,.027A.062.062,0,0,1,.429.567h0A.086.086,0,0,1,.405.586.236.236,0,0,1,.368.6h0L.349.612l-.02.01a.006.006,0,0,1-.008,0,.069.069,0,0,1,0-.048A.046.046,0,0,1,.3.572.044.044,0,0,1,.27.554.086.086,0,0,1,.255.516a.181.181,0,0,1,0-.039A.139.139,0,0,1,.26.434.113.113,0,0,1,.278.4s0,0,.008,0,0,.006,0,.008ZM.434.517A.174.174,0,0,0,.385.532a.289.289,0,0,0-.048.03v0A.085.085,0,0,0,.329.608L.344.6.365.592h0A.226.226,0,0,0,.4.576.076.076,0,0,0,.42.559h0A.051.051,0,0,0,.431.538a.11.11,0,0,0,0-.021Z" transform="translate(0.29 0.1)"/>
      <path id="Path_2797" data-name="Path 2797" class="cls-8" d="M.3,0A.034.034,0,1,0,.331.034.034.034,0,0,0,.3,0ZM.3.011A.023.023,0,1,0,.321.034.023.023,0,0,0,.3.011ZM.3.02A.014.014,0,1,0,.311.034.014.014,0,0,0,.3.02ZM.034,0A.034.034,0,1,1,0,.034.034.034,0,0,1,.034,0Zm0,.011A.023.023,0,1,1,.011.034.023.023,0,0,1,.034.012Zm0,.009A.014.014,0,1,1,.02.034.014.014,0,0,1,.034.021Z" transform="translate(0.375 0.625)"/>
    </g>
  </g>
  <path id="Path_2798" data-name="Path 2798" class="cls-1" d="M341.633,74.4h0l-1.261-1.441-1.657.95-.28,3.355a14.426,14.426,0,0,1,2.372.4l.829-3.263Z" transform="translate(-317.367 -68.443)"/>
  <path id="Path_2799" data-name="Path 2799" d="M346.6,96.208a.211.211,0,0,1,.169.017.116.116,0,0,1,.054.039.779.779,0,0,1,.078-.054.436.436,0,0,1,.118-.067.492.492,0,0,1,.178-.054.825.825,0,0,1,.189-.008.341.341,0,0,1,.152.046l.131.065a1.441,1.441,0,0,0,.139.069.594.594,0,0,0,.2.034.339.339,0,0,0,.1-.008c.027-.007.044.01.014.028-.218.134-.389.015-.534-.039a1.059,1.059,0,0,1,.14.112.752.752,0,0,0,.227.157.549.549,0,0,0,.232.055.589.589,0,0,0,.1-.007c.018,0,.026,0,.027.008a.031.031,0,0,1-.013.027.315.315,0,0,1-.168.051.657.657,0,0,1-.342-.089,1.721,1.721,0,0,1-.217-.157.494.494,0,0,0-.2-.094.391.391,0,0,0-.192.006.074.074,0,0,1,.041.022.313.313,0,0,0,.125.032c.029,0,.02.024-.025.048a.116.116,0,0,1-.108.049c-.064.042-.087.017-.108-.011a.2.2,0,0,1-.015.052.039.039,0,0,1,0,.028.064.064,0,0,1,.012.048.04.04,0,0,0,.014.026.066.066,0,0,1,.024.043.042.042,0,0,0,.016.029.248.248,0,0,1,.039.036.1.1,0,0,1,.063.082.069.069,0,0,1,.047.056.079.079,0,0,1,.041.03,1.7,1.7,0,0,1,.173.006.21.21,0,0,1,.13.079.2.2,0,0,0,.077,0,.27.27,0,0,1,.086-.023.48.48,0,0,1,.151,0,.153.153,0,0,1,.08.05.1.1,0,0,0,.117.013.178.178,0,0,1,.156,0,.153.153,0,0,1,.071-.011.084.084,0,0,1,.064-.028c.036,0,.063,0,.056.051a.039.039,0,0,1-.019.029.079.079,0,0,1-.089.043.082.082,0,0,1-.031.055c.018.057,0,.08-.042.079a.04.04,0,0,1-.045.023.091.091,0,0,1-.057.034.092.092,0,0,0,.019.038c.029.044-.014.061-.054.062a.186.186,0,0,1,.008.086c.04.024.046.05.009.076a.068.068,0,0,1-.034.108.09.09,0,0,1-.021.068c-.012.01-.03.012-.018.032s.016.077-.014.079c-.007,0-.012,0-.013.011s0,.007-.009.011a.631.631,0,0,0-.1.068s-.009.005-.014,0a.631.631,0,0,1-.113.152.1.1,0,0,1-.064.076.027.027,0,0,1-.021.021c.02.022.027.043.008.064a.194.194,0,0,1-.085.059c-.066.017-.107.014-.134-.012s-.014-.039,0-.046c-.041,0-.049-.018-.048-.047s.007-.012.021-.012a.194.194,0,0,0,.063-.018.121.121,0,0,1,.032-.035.107.107,0,0,1,.076-.087.233.233,0,0,0,.092-.083l.055-.094a.081.081,0,0,1-.017-.05.1.1,0,0,1-.037-.034c-.029,0-.041-.015-.045-.033a.072.072,0,0,1-.022,0,.077.077,0,0,1-.046.016.452.452,0,0,1-.072.06.053.053,0,0,1-.046.036c-.059.007-.094.08-.126.11a.086.086,0,0,0-.027.047c0,.039-.009.069-.031.069s-.022,0-.023,0a.078.078,0,0,0-.025,0,.044.044,0,0,1,0,.059.072.072,0,0,1-.056.026.235.235,0,0,1-.107-.014.044.044,0,0,1-.033-.048c-.022-.01-.026-.02-.024-.031a.022.022,0,0,1,.03-.016.158.158,0,0,1,.039-.013.343.343,0,0,1,.12-.092.2.2,0,0,1,.045-.04.158.158,0,0,1,.059-.093.131.131,0,0,1,.014-.04.062.062,0,0,1,0-.019,1.059,1.059,0,0,1-.014-.107c-.071.042-.092.028-.1-.006-.026.022-.05.032-.067,0a.114.114,0,0,1-.075.006.172.172,0,0,1-.052.013.2.2,0,0,1-.032.045.183.183,0,0,1-.032.1.609.609,0,0,1-.046.1.065.065,0,0,1-.007.033c.005.039-.008.058-.029.068a.158.158,0,0,1-.027.047l0,.016a.058.058,0,0,1-.013.069c-.019.012-.039.024-.059.034a.079.079,0,0,1-.065,0c-.035-.012-.032-.025-.028-.036a.042.042,0,0,1-.034,0l-.022-.016c-.008-.014-.01-.026.008-.035a.158.158,0,0,0,.056-.036.043.043,0,0,1,.025-.027c.011-.025.024-.043.042-.047a1,1,0,0,1,.045-.1.036.036,0,0,0,.008-.029.022.022,0,0,1,.007-.022s.011-.007,0-.011a.089.089,0,0,1,.011-.076.152.152,0,0,0,.02-.127.191.191,0,0,1,0-.057.029.029,0,0,1-.018,0c-.015-.009-.027,0-.039.016s-.016.039-.025.039a.134.134,0,0,1-.062.107.189.189,0,0,0-.007.074c0,.027,0,.045-.012.048a.046.046,0,0,0-.034.033.069.069,0,0,0,0,.022.042.042,0,0,1-.005.062.137.137,0,0,1-.146.019c-.039-.015-.049-.032-.045-.048-.055,0-.044-.047,0-.06a.227.227,0,0,0,.122-.091c0-.054.015-.09.044-.1a.253.253,0,0,1,.027-.09.13.13,0,0,0,.018-.087c-.031-.019-.032-.039,0-.059.009-.005.008-.011,0-.017s-.016-.02-.015-.037a.013.013,0,0,0-.013-.013c-.041-.006-.031-.023-.013-.041s.012-.021,0-.026a.048.048,0,0,1-.012-.031c-.025-.019-.015-.039,0-.058a.071.071,0,0,1-.023-.051c-.047,0-.065-.026-.039-.061a.222.222,0,0,1,.041-.042.068.068,0,0,0,.016-.053c-.013-.034.03-.06.067-.087a.058.058,0,0,1-.008-.027c-.021-.02-.016-.039.007-.056a.07.07,0,0,1-.009-.027c-.052.01-.052-.021-.027-.071-.03-.017-.022-.048.033-.095a.064.064,0,0,1,.006-.025.126.126,0,0,0-.066.02.062.062,0,0,1-.062,0,.1.1,0,0,0-.027-.027.041.041,0,0,1-.014-.041c-.061,0-.073-.042-.036-.068a.113.113,0,0,0,.041-.052.271.271,0,0,1,.086-.1.12.12,0,0,1,.007-.036.1.1,0,0,0-.049-.019.077.077,0,0,0-.038-.042c-.011-.007-.015-.013-.008-.029-.032-.029-.024-.047-.016-.063Z" transform="translate(-324.922 -90.099)"/>
  <g id="Group_2808" data-name="Group 2808" transform="translate(21.62 6.058)">
    <path id="Path_2800" data-name="Path 2800" class="cls-6" d="M356.663,119.723h-.012a.559.559,0,0,1-.052.046c-.015-.017-.038,0-.016.012l-.011.008a.038.038,0,0,1-.035.03l-.01,0a.191.191,0,0,1,0-.024.228.228,0,0,1,0-.028s0,0,0,0,0,0,0,0a.257.257,0,0,0,0,.028.18.18,0,0,0,0,.026c-.053.017-.084.073-.121.112a.1.1,0,0,0-.029.052c0,.01,0,.058-.015.059h-.016c-.006-.009-.014-.009-.023,0a.379.379,0,0,0-.066,0c-.014.015.024.009.043.021a.026.026,0,0,1,.009.031c-.018.043-.12.029-.154.011a.027.027,0,0,1-.016-.031l.021,0a.1.1,0,0,0,.036-.012s.007,0,0-.01-.007,0-.011,0a.082.082,0,0,1-.03.01.167.167,0,0,1-.032,0h0c-.006,0-.01-.007-.008-.011s.012,0,.014,0a.193.193,0,0,1,.046-.015.349.349,0,0,1,.121-.094.225.225,0,0,1,.05-.044.15.15,0,0,1,.058-.094.149.149,0,0,1,.017-.046.1.1,0,0,1,0-.026.076.076,0,0,1-.01-.067.1.1,0,0,1,0-.047.023.023,0,0,0,0-.009.4.4,0,0,1,.056-.038.2.2,0,0,0,0,.053h0a.084.084,0,0,0-.013.017.035.035,0,0,0,0,.018s0,0,0,0,0,0,0,0a.029.029,0,0,1,0-.015.077.077,0,0,1,.012-.016v0a.084.084,0,0,0,.048-.022.4.4,0,0,0,.043-.043c0,.023,0,.047,0,.07a.155.155,0,0,0-.035.046s0,0,0,0,0,0,0,0a.149.149,0,0,1,.032-.043h0s0,0,0,0h0a.208.208,0,0,1,.06-.035.183.183,0,0,0,0,.06.1.1,0,0,0,.034.058h0Z" transform="translate(-355.498 -118.104)"/>
    <path id="Path_2801" data-name="Path 2801" class="cls-6" d="M346.929,98.324s.009-.011.011-.011h0a.382.382,0,0,1,.023-.038.263.263,0,0,1,.033-.039s0,0,0,0,0,0,0,0a.257.257,0,0,0-.032.038.379.379,0,0,0-.022.037.013.013,0,0,1,0,.011.081.081,0,0,0,.015.046l0,0a.09.09,0,0,1,.016-.025.108.108,0,0,1,.03-.023.116.116,0,0,0,.02-.021.1.1,0,0,0,.012-.021s0,0,0,0,0,0,0,0a.11.11,0,0,1-.013.023.136.136,0,0,1-.022.022h0a.1.1,0,0,0-.028.022.081.081,0,0,0-.014.021.015.015,0,0,1,0,.02c-.014.02-.031.032,0,.05a.042.042,0,0,0,.012.034.039.039,0,0,1-.009.045c-.014.014,0,.01.011.012h0a.166.166,0,0,1,.018-.028l.021-.024a.131.131,0,0,0,.025-.033.085.085,0,0,0,.01-.033s0,0,0,0,0,0,0,0a.094.094,0,0,1-.011.036.14.14,0,0,1-.026.034l-.021.023a.17.17,0,0,0-.018.027c.018.01.012.03.015.047l.009,0h0l.01-.016.016-.026s0,0,0,0,0,0,0,0l-.016.026-.01.016h0a.023.023,0,0,1,0,.037c-.026.02-.019.026.006.041a.153.153,0,0,1,0,.061v0c0,.006,0,.013,0,.019l0,.019s0,0,0,0,0,0,0,0v-.02a.044.044,0,0,1,0,0l0,.009a.332.332,0,0,0-.039.112c-.042.01-.036.051-.038.088a.256.256,0,0,1-.124.1c-.01,0-.034.009-.037.022s.016.014.027.009c.029-.028.044-.012.01.016a.014.014,0,0,0,.005.017.143.143,0,0,0,.14.014c.025-.016.039-.033.016-.057a.075.075,0,0,1,.051-.077.051.051,0,0,0,0-.03.228.228,0,0,1,.009-.085.013.013,0,0,1,.01-.008c.014,0,.04-.042.048-.081,0-.008,0-.017,0-.025s.007-.016.014-.008a.076.076,0,0,0,.01-.023c.014-.02.034-.037.058-.025a.2.2,0,0,1-.012-.055.177.177,0,0,1,.008-.068s0-.006.007-.006l.02-.048.021-.049s0,0,0,0,0,0,0,0l-.021.049-.02.048s0,.005,0,.008a.165.165,0,0,0-.007.062.179.179,0,0,0,.016.063.009.009,0,0,1,0,.005c.011.007.011.008.01.023a.166.166,0,0,0,0,.037.168.168,0,0,1-.023.144.071.071,0,0,0-.009.055c.013.013,0,.026-.007.035a.031.031,0,0,0,0,.01.055.055,0,0,1-.011.036,1.1,1.1,0,0,0-.047.1c-.026.007-.032.023-.042.047-.015,0-.017.009-.024.023a.177.177,0,0,1-.057.039c-.019.009,0,.017.013.026s.028-.011.038-.025.022-.011.014,0a.128.128,0,0,0-.014.044c0,.011.039.02.046.02a.169.169,0,0,0,.079-.037.044.044,0,0,0,.007-.053h0a.129.129,0,0,1-.031,0,.225.225,0,0,1-.037-.012s0,0,0,0,0,0,0,0a.207.207,0,0,0,.036.012.123.123,0,0,0,.031,0l0-.016a.177.177,0,0,0,.03-.053c.029-.014.029-.028.025-.058a.057.057,0,0,0,.007-.034.652.652,0,0,0,.047-.1.132.132,0,0,0,.031-.095c0-.014.007-.022.017-.022a.258.258,0,0,0,.02-.033h0a0,0,0,0,1,0,0,.119.119,0,0,1,.007-.022.052.052,0,0,1,.009-.015.06.06,0,0,0,0-.03.073.073,0,0,0-.01-.029.033.033,0,0,1-.008-.012.014.014,0,0,1,0-.014s0,0,0,0,0,0,0,0a.007.007,0,0,0,0,.008.03.03,0,0,0,.006.01h0a.08.08,0,0,1,.011.032.066.066,0,0,1-.005.034h0a.047.047,0,0,0-.009.013.109.109,0,0,0-.006.02h0a.1.1,0,0,0,.046-.013h0a.094.094,0,0,0,.023-.028.129.129,0,0,0,.013-.038s0,0,0,0,0,0,0,0a.132.132,0,0,1-.014.04.1.1,0,0,1-.018.024.114.114,0,0,0,.07-.007.286.286,0,0,1,0-.079.1.1,0,0,1,.02-.048s0,0,0,0,0,0,0,0a.1.1,0,0,0-.019.045.274.274,0,0,0,0,.075h0c.01.017.015.029.036.016a.118.118,0,0,0,.021-.016s0,0,0-.006c.02-.021.039-.04.059-.057a.409.409,0,0,1,.059-.044s0,0,0,0,0,0,0,0a.422.422,0,0,0-.058.043c-.017.015-.033.031-.05.048a.077.077,0,0,1,0,.016c0,.023.006.037.039.024a.171.171,0,0,0,.037-.018.088.088,0,0,1,.02-.01l.032-.023.031-.019a.2.2,0,0,1,.009-.036.272.272,0,0,1,.048-.084h0a.162.162,0,0,0,.044-.034.148.148,0,0,0,.027-.043s0,0,0,0,0,0,0,0a.159.159,0,0,1-.028.045.166.166,0,0,1-.045.035.266.266,0,0,0-.047.081.182.182,0,0,0-.008.031l0,0s0,0,0,0h0a.184.184,0,0,0,0,.053.078.078,0,0,0,.044-.02.438.438,0,0,0,.048-.048h0a.111.111,0,0,1,.015-.033.062.062,0,0,1,.026-.021s0,0,0,0,0,0,0,0a.057.057,0,0,0-.023.019.111.111,0,0,0-.015.032c0,.024,0,.048,0,.073l0,0a.222.222,0,0,1,.061-.032,0,0,0,0,1,0,0,.2.2,0,0,0,0,.063.09.09,0,0,0,.029.052.182.182,0,0,1,.032-.041l.02-.018.015-.014.015-.014s0,0,0,0,0,0,0,0l-.015.014-.015.014h0l-.018.017c0,.006,0,.013,0,.019v.01a.112.112,0,0,0,.038,0c0,.029.007.033.032.034a.21.21,0,0,1,0-.03.134.134,0,0,1,.007-.032s0,0,0,0,0,0,0,0a.123.123,0,0,0-.007.031.2.2,0,0,0,0,.029h0a.075.075,0,0,0,.043.04.114.114,0,0,0,.013-.028.089.089,0,0,0,0-.031s0,0,0,0,0,0,0,0a.1.1,0,0,1,0,.034.12.12,0,0,1-.016.033l0,0a.081.081,0,0,0,.007.03l.01-.02a.113.113,0,0,1,.018-.024s0,0,0,0,0,0,0,0a.117.117,0,0,0-.017.023.267.267,0,0,0-.012.024l.009.013c-.04.068-.082.163-.161.194a.093.093,0,0,0-.066.08.141.141,0,0,0-.036.04.216.216,0,0,1-.079.021c0,.019.006.027.025.027.035-.018.043-.021.046-.019s-.005.029-.034.05c0,0,0,0,0,.009.025.039.09.025.124.016a.162.162,0,0,0,.082-.061c0-.012-.006-.026-.017-.038-.05.008-.04-.04,0-.02.014,0,.016,0,.02-.021a.084.084,0,0,0,.063-.072.713.713,0,0,0,.1-.134.048.048,0,0,0,.01-.034.071.071,0,0,0,.013-.028.108.108,0,0,0,0-.03s0,0,0,0,0,0,0,0a.113.113,0,0,1,0,.032q0,.012-.008.024c0,.006,0,.011.009.009a.963.963,0,0,1,.1-.068.026.026,0,0,1,.027-.023.009.009,0,0,0,.01-.007c.008-.021,0-.035-.012-.053s.007-.032.024-.045.016-.047.017-.067h0l0-.01a.179.179,0,0,0-.006-.021s0,0,0,0,0,0,0,0a.2.2,0,0,1,.006.022l0,.008a.074.074,0,0,0,.041-.037.077.077,0,0,0-.016-.058l-.039.017s0,0,0,0,0,0,0,0l.045-.02a.084.084,0,0,0,.021-.017c.012-.017-.02-.033-.031-.04h0l-.048-.045s0,0,0,0,0,0,0,0l.045.041a.181.181,0,0,0-.005-.075l-.008-.024a.073.073,0,0,1-.032-.026.068.068,0,0,1-.01-.033s0,0,0,0,0,0,0,0a.06.06,0,0,0,.009.029.067.067,0,0,0,.027.023.08.08,0,0,0,.058,0c.023-.013-.007-.039-.014-.055a.142.142,0,0,1-.008-.034h.006l-.009-.01a.04.04,0,0,0-.012-.007s0,0,0,0,0,0,0,0a.046.046,0,0,1,.014.009.083.083,0,0,1,.012.014h.007a.082.082,0,0,0,.049-.033.232.232,0,0,0-.025-.025l-.028-.024s0,0,0,0,0,0,0,0l.028.024a.261.261,0,0,1,.026.027s0,0,0,0c.021,0,.024,0,.035-.021a.1.1,0,0,0-.012-.027.165.165,0,0,0-.021-.025s0,0,0,0,0,0,0,0a.183.183,0,0,1,.021.026.1.1,0,0,1,.013.028.052.052,0,0,0,.028,0c.018-.011,0-.049,0-.064h0l-.007,0-.013-.008s0,0,0,0,0,0,0,0l.013.008.009.006,0,0a.069.069,0,0,0,.022-.039c.006-.023.007-.012.034-.016a.063.063,0,0,0,.06-.04.022.022,0,0,0,.015-.019c0-.019,0-.029-.021-.031a.08.08,0,0,0-.071.024l.008.013s0,0,0,0,0,0,0,0l-.008-.012a.162.162,0,0,0-.077.012l-.008,0a.118.118,0,0,1,.013.022.073.073,0,0,1,.007.028s0,0,0,0,0,0,0,0a.068.068,0,0,0-.007-.026.12.12,0,0,0-.02-.029h0a.172.172,0,0,0-.063-.012l.01.01.013.013s0,0,0,0,0,0,0,0l-.013-.013-.013-.013h0a.179.179,0,0,0-.056.014.191.191,0,0,1-.038.012.121.121,0,0,1,.023.031.149.149,0,0,1,.015.039s0,0,0,0,0,0,0,0a.138.138,0,0,0-.014-.038.123.123,0,0,0-.023-.03s0,0,0,0a.117.117,0,0,1-.035,0l.014.023s0,0,0,0,0,0,0,0l-.013-.027a.1.1,0,0,1-.031-.012.309.309,0,0,1,.008.04.559.559,0,0,1,0,.059s0,0,0,0,0,0,0,0a.527.527,0,0,0,0-.058.308.308,0,0,0-.01-.047l-.014-.013a.138.138,0,0,0-.037-.029.063.063,0,0,1-.014.048s0,0,0,0,0,0,0,0a.056.056,0,0,0,.011-.047.205.205,0,0,0-.069-.017.35.35,0,0,1,.036.057.056.056,0,0,1,.018.028.171.171,0,0,1,0,.033s0,0,0,0,0,0,0,0a.137.137,0,0,0,0-.032.047.047,0,0,0-.016-.025h0a.355.355,0,0,0-.018-.031.3.3,0,0,0-.022-.03h-.025l0,.006a.038.038,0,0,1,.006.016s0,0,0,0,0,0,0,0a.032.032,0,0,0,0-.013l-.007-.009-.05,0a.335.335,0,0,1,.041.068.316.316,0,0,1,.024.08s0,0,0,0,0,0,0,0a.314.314,0,0,0-.024-.079.334.334,0,0,0-.043-.07h0a.223.223,0,0,0-.039.008l.015.011a.113.113,0,0,1,.015.014s0,0,0,0,0,0,0,0l-.014-.014-.02-.013-.02.007-.011,0a.3.3,0,0,1,.033.027.258.258,0,0,1,.035.042s0,0,0,0,0,0,0,0a.25.25,0,0,0-.034-.041.3.3,0,0,0-.037-.03.168.168,0,0,1-.042,0,.377.377,0,0,1,.022.052.248.248,0,0,1,.012.058s0,0,0,0,0,0,0,0a.226.226,0,0,0-.012-.056.406.406,0,0,0-.023-.055l-.026,0q.007.024.013.049c0,.02.008.04.011.06,0,0,0,0,0,0s0,0,0,0q0-.03-.01-.059t-.014-.053a.256.256,0,0,0-.085-.066.112.112,0,0,1,.025.074s0,0,0,0,0,0,0,0a.108.108,0,0,0-.008-.044.11.11,0,0,0-.023-.034l-.023,0-.066,0c.017.015.03.029.029.046,0,0,0,0,0,0s0,0,0,0-.014-.03-.033-.046h-.039a.158.158,0,0,1,.018.022.089.089,0,0,1,.014.03h0a.092.092,0,0,0,.012.04.065.065,0,0,0,.03.026s0,0,0,0,0,0,0,0a.072.072,0,0,1-.033-.028.1.1,0,0,1-.013-.043.082.082,0,0,0-.013-.027.179.179,0,0,0-.023-.026h-.044a.31.31,0,0,1,.013.053.5.5,0,0,1,.005.067s0,0,0,0,0,0,0,0a.472.472,0,0,0-.005-.067.3.3,0,0,0-.014-.054h0a.066.066,0,0,0-.032-.029.04.04,0,0,1-.007.019s0,0,0,0,0,0,0,0a.032.032,0,0,0,.006-.018l-.007,0c-.007-.029-.014-.041-.037-.051a.158.158,0,0,1,0,.025.088.088,0,0,1-.012.032s0,0,0,0,0,0,0,0a.082.082,0,0,0,.011-.029.168.168,0,0,0,0-.027h0c-.006-.041-.014-.064-.056-.08a.114.114,0,0,1,0,.016.09.09,0,0,1-.006.028s0,0,0,0,0,0,0,0a.084.084,0,0,0,.005-.026.125.125,0,0,0,0-.024c-.009-.01-.022-.02-.033-.031a.152.152,0,0,1-.006.045.2.2,0,0,1-.025.055s0,0,0,0,0,0,0,0a.2.2,0,0,0,.025-.053.144.144,0,0,0,.005-.051.069.069,0,0,1-.012-.017v0l0,.011s0,0,0,0,0,0,0,0l0-.011,0-.009s0,0,0-.006a.049.049,0,0,0-.018-.032h0a.1.1,0,0,1-.016.031s0,0,0,0,0,0,0,0a.1.1,0,0,0,.011-.018.082.082,0,0,0,.005-.015.064.064,0,0,1-.01-.016.053.053,0,0,1-.007.011.078.078,0,0,1-.013.013s0,0,0,0,0,0,0,0l.011-.012a.042.042,0,0,0,.006-.012c0-.006,0,0,0-.012a.058.058,0,0,0-.014-.047h0a.058.058,0,0,0-.021.006.18.18,0,0,0-.03.017s0,0,0,0,0,0,0,0a.207.207,0,0,1,.031-.018.059.059,0,0,1,.026-.006.024.024,0,0,0,0-.015.267.267,0,0,1-.075.018.108.108,0,0,1-.05-.008s0,0,0,0,0,0,0,0a.1.1,0,0,0,.047.007.268.268,0,0,0,.074-.018h0a.222.222,0,0,0,.013-.037.112.112,0,0,1-.033,0h0s0,0,0,0,0,0,0,0h0a.1.1,0,0,0,.034,0l0-.012c0-.014.018-.017.029,0a.113.113,0,0,0,.027.025.053.053,0,0,0,.055-.011l-.014,0s0,0,0,0,0,0,0,0l.018.006,0,0a.1.1,0,0,0,.088-.03.456.456,0,0,1-.059,0,.146.146,0,0,1-.045-.012s0,0,0,0,0,0,0,0a.133.133,0,0,0,.043.011.463.463,0,0,0,.064,0h0l.007-.008a.076.076,0,0,0,.029-.018.352.352,0,0,1-.128-.035.089.089,0,0,0-.045-.023.148.148,0,0,0-.088.018L347.3,97.5c-.01,0-.02-.007-.03-.008s-.028,0-.042,0,0,0,0,0,0,0,0,0,.028,0,.042,0,.026.007.039.009a.3.3,0,0,1,.112-.024.373.373,0,0,1,.114-.014h0s0-.007,0-.009a.053.053,0,0,0,.019-.058.116.116,0,0,0-.052-.051c-.028,0-.054,0-.084,0a.26.26,0,0,0-.054.012.088.088,0,0,1,.038.026.133.133,0,0,1,.027.063s0,.006-.005.007-.007,0-.007-.005a.122.122,0,0,0-.025-.057.1.1,0,0,0-.049-.028.572.572,0,0,0-.084.013.132.132,0,0,0-.048.022.085.085,0,0,1,.056.005.08.08,0,0,1,.039.048s0,.006,0,.008-.007,0-.008,0a.066.066,0,0,0-.032-.041.129.129,0,0,0-.106.016.279.279,0,0,0-.041.039s-.005.006-.011,0,0-.008,0-.011a.286.286,0,0,1,.043-.041.121.121,0,0,1,.044-.022.128.128,0,0,1,.065-.035.565.565,0,0,1,.086-.013.068.068,0,0,0-.033-.034.093.093,0,0,0-.048-.005.4.4,0,0,0-.1.054h.008a.086.086,0,0,1,.025,0s.006,0,0,.008-.023,0-.03,0a.089.089,0,0,0-.026,0h0a.769.769,0,0,0-.1.074l-.005,0a.093.093,0,0,0-.059.011c-.01.008-.011.02-.009.037a.253.253,0,0,0-.013.051.28.28,0,0,0-.086.1.094.094,0,0,1-.018.032.036.036,0,0,1,.016.006l0,0a.136.136,0,0,1,0-.021.092.092,0,0,1,.01-.026s0,0,0,0,0,0,0,0a.08.08,0,0,0-.009.024.167.167,0,0,0,0,.033s-.006,0-.007,0a.019.019,0,0,0-.007-.013.034.034,0,0,0-.018-.006.2.2,0,0,1-.023.021.033.033,0,0,0-.014.02c0,.015.017.017.035.019.04,0,.008.025.03.045a.111.111,0,0,1,.028.026.041.041,0,0,0,.035,0c0-.027,0-.041.011-.041h0a.05.05,0,0,1,.012-.025s0,0,0,0,0,0,0,0a.046.046,0,0,0-.011.025.081.081,0,0,1,0,.026.158.158,0,0,1,.066-.015c.043-.05.061-.038.024,0l-.006.012a.092.092,0,0,0-.012.04c-.011.01-.065.054-.045.071.014,0,.023,0,.018.009s-.027.044-.02.06.011.005.02,0l0,0a.411.411,0,0,0,.043-.04.25.25,0,0,0,.037-.052s0-.005.007,0q.006-.024.015-.046c.006-.016.012-.032.019-.048a0,0,0,0,1,.006,0,.073.073,0,0,0,.017.019.026.026,0,0,0,.015.005.028.028,0,0,0,.015-.005.077.077,0,0,0,.017-.018s0,0,0,0,0,0,0,0a.078.078,0,0,1-.019.019.032.032,0,0,1-.019.006.033.033,0,0,1-.019-.007.074.074,0,0,1-.016-.016c-.006.014-.012.028-.017.043s-.011.032-.015.047,0,.006,0,.009a.272.272,0,0,1-.04.055.362.362,0,0,1-.037.035.117.117,0,0,0,.01.034.722.722,0,0,0,.065-.062.39.39,0,0,0,.049-.066s0,0,0,0,0,0,0,0a.407.407,0,0,1-.023.035s0,0,0,0a.038.038,0,0,0,0,.021.257.257,0,0,0,0,.044s0,0,0,0,0,0,0,0a.28.28,0,0,1,0-.046s0-.007,0-.01l-.016.018a.758.758,0,0,1-.067.063l0,0c-.021.015-.038.02-.014.041l.023-.017.025-.018s0,0,0,0,0,0,0,0l-.025.018-.024.017a.041.041,0,0,0,.006.024h.005l.052-.038s0,0,0,0,0,0,0,0l-.051.037-.006.008c-.017.012-.077.049-.071.075h0a.219.219,0,0,0,.042-.016.156.156,0,0,0,.041-.03s0,0,0,0,0,0,0,0a.167.167,0,0,1-.043.032h0v.007s0,0,0,.007,0,0,0,0,0,0,0,0,0,0,0-.007a.019.019,0,0,0,0,0,.236.236,0,0,1-.037.013.09.09,0,0,1-.02.066c-.007.006-.067.054-.042.069a.064.064,0,0,0,.022.006Z" transform="translate(-346.781 -97.296)"/>
    <path id="Path_2802" data-name="Path 2802" class="cls-6" d="M347.925,98.26a.147.147,0,0,0-.044-.02.1.1,0,0,0-.033-.037c-.012-.007-.012-.007-.007-.015s.019,0,.019-.009l.018,0a.026.026,0,0,1,.013.009s0,0,0,0,0,0,0,0a.036.036,0,0,0-.017-.011.067.067,0,0,0-.024,0h0a.049.049,0,0,0-.022,0,.03.03,0,0,1-.013-.03h0l.019.007a.038.038,0,0,1,.013.009s0,0,0,0,0,0,0,0a.049.049,0,0,0-.015-.011l-.015-.005a.189.189,0,0,1,.143.018.1.1,0,0,1,.049.039l-.013.011a.1.1,0,0,0-.066.014.052.052,0,0,0-.015.043Z" transform="translate(-347.749 -98.074)"/>
  </g>
  <path id="Path_2803" data-name="Path 2803" d="M363.492,112.275a.077.077,0,0,1-.029.012h0a.171.171,0,0,1,.023-.033l0,0v.027Zm.129.276a.151.151,0,0,1-.025.028.262.262,0,0,1-.031.024s0,0,0,0,0,0,0,0a.288.288,0,0,0,.03-.023.142.142,0,0,0,.024-.027s0,0,0,0,0,0,0,0Zm.085-.1-.013.02s0,0,0,0,0,0,0,0l.013-.02s0,0,0,0,0,0,0,0Zm-.046-.007a.073.073,0,0,1-.012.028.07.07,0,0,1-.029.022s0,0,0,0,0,0,0,0a.065.065,0,0,0,.026-.02.064.064,0,0,0,.011-.025s0,0,0,0,0,0,0,0Zm.083-.1-.009.012a.078.078,0,0,0-.007.014s0,0,0,0,0,0,0,0a.074.074,0,0,1,.017-.028s0,0,0,0,0,0,0,0Zm.068.007c0,.01-.006.019-.009.029a.2.2,0,0,1-.014.03s0,0,0,0,0,0,0,0a.205.205,0,0,0,.013-.028c0-.01.006-.019.009-.029s0,0,0,0,0,0,0,0Zm-.031-.4a.168.168,0,0,1,.027.1q0-.018.008-.035h0a.1.1,0,0,0,.017-.037.092.092,0,0,0,0-.037s0,0,0,0,0,0,0,0a.1.1,0,0,1,0,.04.11.11,0,0,1-.018.039c-.006.022-.01.043-.014.065v0s-.007,0-.007,0,0,0,0-.007a.193.193,0,0,0-.025-.12s0,0,0,0,0,0,0,0Zm-.052.067v.008s0,.005,0,.008,0,0,0,0,0,0,0,0,0-.005,0-.008,0-.005,0-.008,0,0,0,0S363.729,112.014,363.728,112.016Zm-.014.091a.4.4,0,0,1,.012.053.359.359,0,0,1,0,.037l0-.007a.078.078,0,0,1,.022-.018s0,0,0,0,0,0,0,0a.069.069,0,0,0-.02.017.046.046,0,0,0-.01.021s-.007,0-.007,0a.333.333,0,0,0,0-.055.385.385,0,0,0-.012-.052s0,0,0,0,0,0,0,0Zm.072.032a.234.234,0,0,1,0,.078s0,0,0,0,0,0,0,0a.228.228,0,0,0,0-.037.235.235,0,0,0-.005-.039s0,0,0,0,0,0,0,0Zm.062-.012a.165.165,0,0,1,0,.037.1.1,0,0,1-.008.035.078.078,0,0,0,0,.038.168.168,0,0,0,.013.039s0,0,0,0,0,0,0,0a.169.169,0,0,1-.014-.041.085.085,0,0,1,0-.042h0a.089.089,0,0,0,.007-.033.147.147,0,0,0,0-.036s0,0,0,0,0,0,0,0Zm.03-.1,0,.019,0,.019s0,0,0,0,0,0,0,0l0-.019,0-.019s0,0,0,0,0,0,0,0Zm-.031-.171.006.018s0,0,0,0,0,0,0,0l-.005-.018s0,0,0,0,0,0,0,0Zm.016-.13c0,.008,0,.016,0,.051a.051.051,0,0,0-.015.025.092.092,0,0,0,0,.038s0,0,0,0,0,0,0,0a.094.094,0,0,1,0-.041.057.057,0,0,1,.017-.028v-.022c0-.008,0-.016,0-.024s0,0,0,0,0,0,0,0Zm-.129-.045a.172.172,0,0,1,.049.045.1.1,0,0,1,.018.06,0,0,0,0,1,0,0h0l-.034-.014a.241.241,0,0,1,0,.116.105.105,0,0,1-.062.065h0a0,0,0,0,1,0,0,.248.248,0,0,0,.011-.055.228.228,0,0,0,0-.055s0,0,0,0,0,0,0,0a.239.239,0,0,1,0,.057.257.257,0,0,1-.009.05.1.1,0,0,0,.051-.058.243.243,0,0,0,0-.119,0,0,0,0,1,0,0l.035.015a.09.09,0,0,0-.017-.051.166.166,0,0,0-.047-.043s0,0,0,0,0,0,0,0Zm.337-.066,0,.007,0,.007s0,0,0,0,0,0,0,0l0-.007,0-.007s0,0,0,0,0,0,0,0Zm-.079,0a.048.048,0,0,1,.016.01.054.054,0,0,1,.01.015s0,0,0,0,0,0,0,0a.052.052,0,0,0-.009-.013.039.039,0,0,0-.014-.009s0,0,0,0,0,0,0,0Zm-.118.034a.073.073,0,0,1,.017.033.119.119,0,0,1,0,.041s0,0,0,0,0,0,0,0a.114.114,0,0,0,0-.038.068.068,0,0,0-.016-.03s0,0,0,0,0,0,0,0Zm-.4.038v.027s0,0,0,0,0,0,0,0v-.027s0,0,0,0,0,0,0,0Zm.074-.039.006.019,0,.006s0,0,0,0,0,0,0,0l0-.006-.006-.019s0,0,0,0,0,0,0,0Zm.151.1a.031.031,0,0,1,0,.008.076.076,0,0,1,0,.008s0,0,0,0,0,0,0,0a.057.057,0,0,0,0-.007.035.035,0,0,0,0-.007s0,0,0,0,0,0,0,0Zm.052-.115a.022.022,0,0,1,.006.01.015.015,0,0,1,0,.011s0,0,0,0,0,0,0,0a.009.009,0,0,0,0-.007.016.016,0,0,0,0-.007s0,0,0,0,0,0,0,0Zm-.361.018a.062.062,0,0,0,.017.044.062.062,0,0,1,.014.027.14.14,0,0,1,0,.026s0,0,0,0,0,0,0,0a.137.137,0,0,0,0-.025.056.056,0,0,0-.013-.024.07.07,0,0,1-.014-.023.073.073,0,0,1,0-.026s0,0,0,0,0,0,0,0Zm.146.1a.123.123,0,0,1,.014.045.156.156,0,0,1,0,.046.076.076,0,0,0,.011.053.153.153,0,0,0,.042.044.186.186,0,0,1-.008-.059.111.111,0,0,1,.023-.064.093.093,0,0,0,.014-.027.138.138,0,0,0,.006-.028s0,0,0,0,0,0,0,0a.154.154,0,0,1-.006.029.1.1,0,0,1-.015.029.1.1,0,0,0-.022.061.193.193,0,0,0,.011.066,0,0,0,0,1-.005,0,.172.172,0,0,1-.052-.052.082.082,0,0,1-.012-.057.154.154,0,0,0,0-.044.119.119,0,0,0-.014-.042s0,0,0,0,0,0,0,0Zm-.059.09a.108.108,0,0,1-.013.049.224.224,0,0,1-.025.038l.016-.007a.145.145,0,0,0,.046-.033.216.216,0,0,0,.019-.023s0,0,0,0,0,0,0,0a.243.243,0,0,1-.02.024l-.018.016,0,.022s0,0,0,0,0,0,0,0l0-.012,0-.007a.146.146,0,0,1-.024.014l-.028.011a0,0,0,0,1,0-.005.239.239,0,0,0,.032-.046.1.1,0,0,0,.012-.045s0,0,0,0,0,0,0,0Zm-.071-.006v.015s0,0,0,0,0,0,0,0v-.015s0,0,0,0,0,0,0,0Z" transform="translate(-340.694 -104.644)"/>
  <path id="Path_2804" data-name="Path 2804" d="M350.754,101.583a.115.115,0,0,1,.008.064.122.122,0,0,1-.027.056h0a.124.124,0,0,0-.031.041.171.171,0,0,0-.012.034l.012-.014a.073.073,0,0,1,.033-.02.3.3,0,0,0,.04-.026.272.272,0,0,0,.035-.033s0,0,0,0,0,0,0,0a.265.265,0,0,1-.036.034.318.318,0,0,1-.042.027h0a.067.067,0,0,0-.031.018.15.15,0,0,0-.021.029,0,0,0,0,1-.006,0,.212.212,0,0,1,.016-.054.128.128,0,0,1,.033-.043.116.116,0,0,0,.026-.053.11.11,0,0,0-.008-.06s0,0,0,0,0,0,0,0Zm.145.233c0,.006,0,.012.011.024l.006.008a.089.089,0,0,1,.017.054.281.281,0,0,1-.007.058,0,0,0,0,1-.007,0,.117.117,0,0,0-.025-.056.225.225,0,0,0-.052-.045s0,0,0,0,0,0,0,0a.233.233,0,0,1,.053.047.129.129,0,0,1,.023.043.222.222,0,0,0,0-.04.084.084,0,0,0-.016-.05l-.006-.008c-.011-.014-.016-.021-.013-.03s0,0,0,0,0,0,0,0Zm.062,0,.008.008.008.008s0,0,0,0,0,0,0,0l-.008-.008-.008-.008s0,0,0,0,0,0,0,0Zm.076.024-.014.046-.014.046s0,0,0,0,0,0,0,0l.014-.046.014-.046s0,0,0,0,0,0,0,0Zm.043.255a.016.016,0,0,0,0,.011s0,0,0,0,0,0,0,0a.022.022,0,0,1,0-.016s0,0,0,0,0,0,0,0Zm-.045-.075-.006.024-.006.024s0,0,0,0,0,0,0,0l.006-.024.006-.024s0,0,0,0S351.036,102.014,351.035,102.016Zm-.065,0,.006.006s0,0,0,0,0,0,0,0l-.006-.006s0,0,0,0,0,0,0,0Zm-.077-.037,0,.013,0,.014s0,0,0,0,0,0,0,0l0-.014,0-.014s0,0,0,0,0,0,0,0Zm-.109.116a.045.045,0,0,0-.009.015.083.083,0,0,0,0,.017s0,0,0,0,0,0,0,0a.1.1,0,0,1,0-.018.05.05,0,0,1,.01-.017s0,0,0,0,0,0,0,0Zm-.313.307a.043.043,0,0,1-.007.011l-.011.01s0,0,0,0,0,0,0,0a.054.054,0,0,0,.015-.018s0,0,0,0,0,0,0,0Zm.049-.026a.023.023,0,0,1-.007.009l-.011.006s0,0,0,0,0,0,0,0l.009,0,0-.006s0,0,0,0,0,0,0,0Zm.065-.04,0,.006-.007.006s0,0,0,0,0,0,0,0a.025.025,0,0,0,.009-.009s0,0,0,0,0,0,0,0Zm.1-.255a.109.109,0,0,0-.006.027.091.091,0,0,0,0,.027s0,0,0,0,0,0,0,0a.091.091,0,0,1,0-.029.128.128,0,0,1,.006-.029s0,0,0,0,0,0,0,0Zm.066-.677a.057.057,0,0,1-.006.023.092.092,0,0,1-.015.022s0,0,0,0,0,0,0,0a.094.094,0,0,0,.014-.02.051.051,0,0,0,.005-.02s0,0,0,0,0,0,0,0Zm-.068-.06a.1.1,0,0,1,.012.031.123.123,0,0,1,0,.031s0,0,0,0,0,0,0,0a.116.116,0,0,0,0-.029.1.1,0,0,0-.011-.029s0,0,0,0,0,0,0,0Zm-.09.112a.1.1,0,0,1-.027-.027.043.043,0,0,1-.006-.029s0,0,0,0,0,0,0,0a.036.036,0,0,0,.005.024.093.093,0,0,0,.025.025s0,0,0,0,0,0,0,0Zm.1.169v.015s0,0,0,0,0,0,0,0v-.015s0,0,0,0S350.691,101.623,350.691,101.625Zm-.127-.128a.135.135,0,0,1,.038.067.22.22,0,0,1,.006.05h0a.037.037,0,0,0,.021-.024.173.173,0,0,0,.008-.057v0a.123.123,0,0,0,.014-.035.227.227,0,0,0,.006-.036,0,0,0,0,1,.006,0,.292.292,0,0,1,.03.052.2.2,0,0,1,.015.059s0,0,0,0,0,0,0,0a.191.191,0,0,0-.015-.057.253.253,0,0,0-.024-.043.185.185,0,0,1,0,.027.127.127,0,0,1-.015.036.183.183,0,0,1-.009.058.043.043,0,0,1-.025.028h0c0,.009,0,.017,0,.026s0,0,0,0,0,0,0,0a.241.241,0,0,0,0-.079.13.13,0,0,0-.036-.064s0,0,0,0,0,0,0,0Zm.075.319,0,.027,0,.027s0,0,0,0,0,0,0,0l0-.027,0-.027s0,0,0,0,0,0,0,0Zm-.143.061,0,.02s0,0,0,0,0,0,0,0l0-.02s0,0,0,0,0,0,0,0Zm.124-.165a.149.149,0,0,1-.01.039.146.146,0,0,1-.023.037h0a.074.074,0,0,0-.02.042.118.118,0,0,0,0,.045s0,0,0,0,0,0,0,0a.124.124,0,0,1,0-.047.081.081,0,0,1,.022-.045.135.135,0,0,0,.032-.072s0,0,0,0,0,0,0,0Zm-.032-.048a.068.068,0,0,1-.005.039.145.145,0,0,1-.025.038h0a.12.12,0,0,0-.026.032.278.278,0,0,0-.016.035s0,0,0,0,0,0,0,0a.265.265,0,0,1,.017-.036.13.13,0,0,1,.028-.033.13.13,0,0,0,.024-.036.06.06,0,0,0,0-.035s0,0,0,0,0,0,0,0Zm-.158.075a.112.112,0,0,1-.01.068.154.154,0,0,1-.044.052s0,0,0,0,0,0,0,0a.151.151,0,0,0,.042-.049.106.106,0,0,0,.009-.064s0,0,0,0,0,0,0,0Zm-.2.112.006.012.006.013s0,0,0,0,0,0,0,0l-.006-.013-.006-.012s0,0,0,0,0,0,0,0Zm-.08,0a.176.176,0,0,0,0,.045.121.121,0,0,0,.02.042h0a.116.116,0,0,1,.01.031.221.221,0,0,1,0,.023.134.134,0,0,0,.023-.032.094.094,0,0,0,.01-.04s0,0,0,0,0,0,0,0a.1.1,0,0,1-.01.042.143.143,0,0,1-.029.039,0,0,0,0,1-.006,0,.21.21,0,0,0,0-.03.113.113,0,0,0-.009-.029.128.128,0,0,1-.021-.044.178.178,0,0,1-.005-.047s0,0,0,0,0,0,0,0Zm.011.274a.174.174,0,0,1,.012-.05s0,0,0,0,0,0,0,0a.166.166,0,0,0-.011.048s0,0,0,0,0,0,0,0Zm-.009.076,0-.03s0,0,0,0,0,0,0,0l0,.03s0,0,0,0,0,0,0,0Zm-.052.128a.119.119,0,0,0,.014-.017l.013-.022s0,0,0,0,0,0,0,0l-.014.022a.129.129,0,0,1-.015.018s0,0,0,0,0,0,0,0Zm-.076-.429v.013s0,0,0,0,0,0,0,0V101.9s0,0,0,0,0,0,0,0Zm-.128.3s0-.006,0-.009v-.01s0,0,0,0,0,0,0,0v.009a.069.069,0,0,0,0,.009s0,0,0,0,0,0,0,0Zm.322-.525a.228.228,0,0,0-.011.066.05.05,0,0,0,.02.045.086.086,0,0,1,.03.042v0a.157.157,0,0,0,0-.024.1.1,0,0,0,0-.028s0,0,0,0,0,0,0,0a.118.118,0,0,1,0,.03.177.177,0,0,1-.007.034,0,0,0,0,1-.006,0l-.005-.011a.081.081,0,0,0-.028-.039.057.057,0,0,1-.023-.05.241.241,0,0,1,.011-.068s0,0,0,0,0,0,0,0Zm-.023-.086a.166.166,0,0,1,0,.05.262.262,0,0,1-.015.05.158.158,0,0,0-.011.066.168.168,0,0,0,.017.065s0,0,0,0,0,0,0,0a.167.167,0,0,1-.007-.136.25.25,0,0,0,.015-.049.148.148,0,0,0,0-.048s0,0,0,0,0,0,0,0Zm-.15.213a.052.052,0,0,0,0,.031.094.094,0,0,0,.013.032s0,0,0,0,0,0,0,0a.1.1,0,0,1-.014-.034.058.058,0,0,1,0-.035s0,0,0,0,0,0,0,0Zm-.065-.023a.079.079,0,0,1,0,.02.058.058,0,0,1,0,.018h0a.026.026,0,0,0,0,.017.056.056,0,0,0,.009.018s0,0,0,0,0,0,0,0a.056.056,0,0,1-.01-.021.032.032,0,0,1,0-.022.05.05,0,0,0,0-.015.07.07,0,0,0,0-.019s0,0,0,0,0,0,0,0Zm.381-.565a.152.152,0,0,0,.021.1s0,0,0,0,0,0,0,0a.169.169,0,0,1-.019-.047.151.151,0,0,1,0-.053s0,0,0,0,0,0,0,0Zm-.048.046a.258.258,0,0,1,.022.051.264.264,0,0,1,.011.061s0,0,0,0,0,0,0,0a.247.247,0,0,0-.032-.11s0,0,0,0,0,0,0,0Zm-.237.007a.168.168,0,0,0-.035.082.107.107,0,0,0,.013.059h0a.154.154,0,0,1,.009.054.171.171,0,0,1-.01.054s0,0,0,0,0,0,0,0a.165.165,0,0,0,.01-.052.147.147,0,0,0-.008-.051.111.111,0,0,1-.014-.063.176.176,0,0,1,.036-.085s0,0,0,0,0,0,0,0Zm.221-.094a.049.049,0,0,1,0,.03.069.069,0,0,1-.021.026.053.053,0,0,0-.02.032.117.117,0,0,0,0,.046s0,0,0,0,0,0,0,0a.121.121,0,0,1,0-.049.06.06,0,0,1,.022-.036.065.065,0,0,0,.02-.023.042.042,0,0,0,0-.026s0,0,0,0,0,0,0,0Zm-.234.02a.071.071,0,0,1,0,.043.1.1,0,0,1-.025.041h0a.08.08,0,0,0-.024.038.19.19,0,0,0-.008.048s0,0,0,0,0,0,0,0a.2.2,0,0,1,.008-.05.085.085,0,0,1,.026-.041.1.1,0,0,0,.024-.039.066.066,0,0,0,0-.039s0,0,0,0,0,0,0,0Zm.134.007a.051.051,0,0,0,0,.015.033.033,0,0,0,.006.014s0,0,0,0,0,0,0,0a.041.041,0,0,1-.007-.017.055.055,0,0,1,0-.017s0,0,0,0,0,0,0,0Zm-.006-.035a.056.056,0,0,0-.028.026.119.119,0,0,0-.012.048v0a.084.084,0,0,1,.014.031.168.168,0,0,1,0,.043s0,0,0,0,0,0,0,0a.16.16,0,0,0,0-.042.081.081,0,0,0-.012-.028.109.109,0,0,0-.039.078.172.172,0,0,0,.033.1s0,0,0,0,0,0,0,0a.18.18,0,0,1-.034-.1.116.116,0,0,1,.042-.084h0a.124.124,0,0,1,.013-.053.063.063,0,0,1,.032-.029s0,0,0,0,0,0,0,0Zm-.038-.049s0,0,0,.007a.068.068,0,0,1-.016.045.055.055,0,0,0-.014.021.11.11,0,0,0-.006.026s0,0,0,0,0,0,0,0a.112.112,0,0,1,.006-.027.06.06,0,0,1,.016-.024.063.063,0,0,0,.014-.041v-.007s0,0,0,0,0,0,0,0Zm.372.4a.137.137,0,0,1,.009.026.094.094,0,0,1,0,.028s0,0,0,0,0,0,0,0a.094.094,0,0,0,0-.026.125.125,0,0,0-.009-.025s0,0,0,0,0,0,0,0Zm0,.122a.111.111,0,0,1,0,.043.152.152,0,0,1-.016.044l-.016.037s0,0,0,0,0,0,0,0l.016-.037h0a.141.141,0,0,0,.015-.042.105.105,0,0,0,0-.04s0,0,0,0,0,0,0,0Zm-.077-.114a.183.183,0,0,1,.044.078.167.167,0,0,1,0,.087s0,0,0,0,0,0,0,0a.16.16,0,0,0,0-.083.179.179,0,0,0-.042-.076s0,0,0,0,0,0,0,0Zm-.007.137a.35.35,0,0,1-.057.087.166.166,0,0,0-.035.062s-.007,0-.007,0a.1.1,0,0,0,0-.031.123.123,0,0,0-.014-.031.088.088,0,0,1-.017-.055.1.1,0,0,1,.021-.055.167.167,0,0,0,.017-.038.155.155,0,0,0,.006-.039s0,0,0,0,0,0,0,0a.171.171,0,0,1-.024.08h0a.1.1,0,0,0-.02.051.082.082,0,0,0,.016.051h0a.134.134,0,0,1,.015.033.115.115,0,0,1,0,.015.172.172,0,0,1,.031-.048.327.327,0,0,0,.033-.043.343.343,0,0,0,.023-.043s0,0,0,0,0,0,0,0Zm-.2-.065a.187.187,0,0,0,0,.048.134.134,0,0,0,.017.041s0,0,0,0,0,0,0,0a.149.149,0,0,1-.018-.043.2.2,0,0,1,0-.049s0,0,0,0,0,0,0,0Zm-.116.062v.02s0,0,0,0,0,0,0,0v-.02s0,0,0,0,0,0,0,0Zm.038-.106a.1.1,0,0,1,0,.034.1.1,0,0,1-.018.031s0,0,0,0,0,0,0,0a.087.087,0,0,0,.016-.029.091.091,0,0,0,0-.032s0,0,0,0,0,0,0,0Zm-.1.205a.216.216,0,0,1-.018-.113.129.129,0,0,1,.037-.072.143.143,0,0,0,.03-.041.113.113,0,0,0,.008-.059s0,0,0,0,0,0,0,0a.122.122,0,0,1-.008.063.146.146,0,0,1-.031.043.123.123,0,0,0-.035.068.21.21,0,0,0,.018.11s0,0,0,0,0,0,0,0Zm-.06-.076a.048.048,0,0,0,0,.023.055.055,0,0,0,.008.023s0,0,0,0,0,0,0,0a.061.061,0,0,1-.009-.026.055.055,0,0,1,0-.026s0,0,0,0,0,0,0,0Zm.3-.21a.1.1,0,0,1,.007.112s0,0,0,0,0,0,0,0a.093.093,0,0,0-.007-.1s0,0,0,0,0,0,0,0Zm.092-.072a.158.158,0,0,1,0,.11s-.007,0-.007,0a.118.118,0,0,0-.011-.046.1.1,0,0,0-.028-.035s0,0,0,0,0,0,0,0a.105.105,0,0,1,.03.037.115.115,0,0,1,.009.029.161.161,0,0,0,0-.034.148.148,0,0,0-.011-.052s0,0,0,0,0,0,0,0Zm.055-.075a.1.1,0,0,1,.026.047.235.235,0,0,1,.006.068h0a.133.133,0,0,0,0,.032.063.063,0,0,0,.009.027s0,0,0,0,0,0,0,0a.069.069,0,0,1-.01-.03.148.148,0,0,1,0-.033h0a.231.231,0,0,0-.006-.066.1.1,0,0,0-.024-.044s0,0,0,0,0,0,0,0Zm-.145-.014a.074.074,0,0,0-.015.034.132.132,0,0,0,0,.042s0,0,0,0,0,0,0,0a.133.133,0,0,1,0-.044.08.08,0,0,1,.017-.037s0,0,0,0,0,0,0,0Zm-.285.192a.13.13,0,0,1-.023.07.163.163,0,0,1-.053.046s0,0,0,0,0,0,0,0a.156.156,0,0,0,.05-.044A.122.122,0,0,0,350,101.5s0,0,0,0,0,0,0,0Zm-.007-.1a.082.082,0,0,1,0,.031.141.141,0,0,1-.011.031s0,0,0,0,0,0,0,0a.13.13,0,0,0,.011-.029.077.077,0,0,0,0-.029s0,0,0,0,0,0,0,0Zm.193-.014v.01l0,.05v0s0,0,0,0h0s0,0,0,0v-.069s0,0,0,0,0,0,0,0h0a0,0,0,0,1,0,0Zm.047-.086a.076.076,0,0,0-.02.048.108.108,0,0,0,.012.047.127.127,0,0,1,.02.078.224.224,0,0,1-.021.077s0,0,0,0,0,0,0,0a.218.218,0,0,0,.021-.075.122.122,0,0,0-.019-.074h0a.115.115,0,0,1-.012-.05.084.084,0,0,1,.021-.053s0,0,0,0,0,0,0,0Zm-.3-.534a.135.135,0,0,1,.068-.03.136.136,0,0,1,.073.015h.052s0,0,0,0,0,0,0,0h-.05a.167.167,0,0,1-.072.042.07.07,0,0,1-.057-.012s0,0,0-.006,0,0,.006,0a.063.063,0,0,0,.051.011.153.153,0,0,0,.064-.036.122.122,0,0,0-.063-.012.126.126,0,0,0-.064.028s0,0-.006,0,0,0,0-.006Z" transform="translate(-328.054 -94.456)"/>
  <path id="Path_2805" data-name="Path 2805" d="M348.779,98.638a.017.017,0,1,1-.017.017A.017.017,0,0,1,348.779,98.638Zm.118.1a.146.146,0,0,0,.03-.02.136.136,0,0,0,.019-.021s0,0,0,0,0,0,0,0a.149.149,0,0,1-.02.023.14.14,0,0,1-.031.021s0,0,0,0,0,0,0,0Zm.243-.1a.034.034,0,0,1,.019,0,.051.051,0,0,1,.018.01s0,0,0,0,0,0,0,0a.044.044,0,0,0-.016-.009.03.03,0,0,0-.016,0s0,0,0,0,0,0,0,0Zm-.139.006a.056.056,0,0,1,.025-.028.076.076,0,0,1,.043-.007s0,0,0,0,0,0,0,0a.068.068,0,0,0-.039.006.048.048,0,0,0-.022.025s0,0,0,0,0,0,0,0Zm.016.023a.028.028,0,0,1,.008-.016.037.037,0,0,1,.018-.01s0,0,0,0,0,0,0,0a.029.029,0,0,0-.014.008.023.023,0,0,0-.006.012s0,0,0,0,0,0,0,0Zm-.231.077a.1.1,0,0,0-.01.019.054.054,0,0,0,0,.022s0,0,0,0,0,0,0,0a.062.062,0,0,1,0-.025.1.1,0,0,1,.01-.02s0,0,0,0,0,0,0,0Zm.066.03v.01s0,0,0,0,0,0,0,0v-.01s0,0,0,0,0,0,0,0Zm-.043-.074a.063.063,0,0,0,.02,0l.021,0s0,0,0,0,0,0,0,0l-.022,0a.065.065,0,0,1-.023,0s0,0,0,0,0,0,0,0Zm.043-.124a.021.021,0,0,0-.014,0,.025.025,0,0,0-.009.012s0,0,0,0,0,0,0,0a.032.032,0,0,1,.011-.016.028.028,0,0,1,.018-.006s0,0,0,0,0,0,0,0Zm-.069.007-.012.007a.017.017,0,0,0-.005.007s0,0,0,0,0,0,0,0a.025.025,0,0,1,.008-.01l.014-.008s0,0,0,0,0,0,0,0Zm-.042,0-.011.01a.044.044,0,0,0-.007.012s0,0,0,0,0,0,0,0a.05.05,0,0,1,.008-.014.06.06,0,0,1,.012-.011s0,0,0,0,0,0,0,0Zm-.055.044a.113.113,0,0,0-.025.026s0,0,0,0,0,0,0,0l.012-.015.014-.012s0,0,0,0S348.687,98.628,348.685,98.629Zm.005.06-.01.011-.01.011s0,0,0,0,0,0,0,0l.01-.011.01-.011s0,0,0,0,0,0,0,0Zm-.055.016v.021s0,0,0,0,0,0,0,0v-.021s0,0,0,0,0,0,0,0Zm.071.093c0,.012,0,.023,0,.035a.015.015,0,0,1,0,0s0,0,0,0,0,0,0,0v0l0-.035s0,0,0,0,0,0,0,0Zm-.041-.031c0,.007,0,.015,0,.023s0,0,0,0,0,0,0,0,0-.015,0-.023,0,0,0,0,0,0,0,0Zm-.039-.295a.048.048,0,0,1,.031.031s0,0,0,0,0,0,0,0a.043.043,0,0,0-.01-.017.046.046,0,0,0-.016-.01s0,0,0,0,0,0,0,0Zm.339.442a.111.111,0,0,1,.01.044.107.107,0,0,1-.009.044s0,0,0,0,0,0,0,0a.1.1,0,0,0,0-.083s0,0,0,0,0,0,0,0Zm-.11.128a.178.178,0,0,1,.02-.044.418.418,0,0,1,.026-.037.117.117,0,0,0,.023-.094s0,0,0,0,0,0,0,0a.125.125,0,0,1,0,.053.121.121,0,0,1-.022.047.408.408,0,0,0-.026.036.173.173,0,0,0-.019.043s0,0,0,0,0,0,0,0Zm-.142-.038a.047.047,0,0,1,.01-.016.058.058,0,0,1,.017-.012s0,0,0,0,0,0,0,0a.052.052,0,0,0-.015.011.037.037,0,0,0-.009.014s0,0,0,0S348.712,99.007,348.713,99.005Zm-.028-.01a.144.144,0,0,1,.017-.019.069.069,0,0,1,.021-.014s0,0,0,0,0,0,0,0a.064.064,0,0,0-.019.012.138.138,0,0,0-.016.018s0,0,0,0,0,0,0,0Zm.147-.146a.041.041,0,0,0,.017,0l.016,0s0,0,0,0,0,0,0,0a.052.052,0,0,1-.037,0s0,0,0,0,0,0,0,0Zm-.073-.009.005-.006h0s0,0,0,0,0,0,0,0h0l-.005.006s0,0,0,0,0,0,0,0Zm1.585.457.009.011a.069.069,0,0,1,.006.013s0,0,0,0,0,0,0,0a.049.049,0,0,0-.005-.011l-.008-.01s0,0,0,0,0,0,0,0Zm-1.76.826a.108.108,0,0,0,.024.017.062.062,0,0,0,.028.007s0,0,0,0,0,0,0,0a.071.071,0,0,1-.032-.008.111.111,0,0,1-.025-.018s0,0,0,0,0,0,0,0Z" transform="translate(-326.841 -92.335)"/>
  <g id="Group_2809" data-name="Group 2809" transform="translate(21.626 5.998)">
    <path id="Path_2806" data-name="Path 2806" class="cls-3" d="M357.771,96.554a.54.54,0,0,0,.109-.005.3.3,0,0,1-.125.049.05.05,0,0,0,.018-.022A.028.028,0,0,0,357.771,96.554Zm-.093-.01a.776.776,0,0,0,.078.009v0a.018.018,0,0,1,0,.017.045.045,0,0,1-.018.019s-.005,0,0,.009a.369.369,0,0,1-.08,0l0,0a.06.06,0,0,0,.017-.031.042.042,0,0,0,0-.024Zm-.689-.2a.864.864,0,0,1,.134-.006.065.065,0,0,1,.033.027.079.079,0,0,1,.007.052s0,.006.005.007.007,0,.007-.006a.093.093,0,0,0-.009-.06.069.069,0,0,0-.017-.019h.012a.335.335,0,0,1,.138.04h0a.036.036,0,0,1,.011.031.076.076,0,0,1-.019.036s0,0,0,.009.007,0,.009,0a.089.089,0,0,0,.022-.043.046.046,0,0,0,0-.023c.038.019.077.037.115.057h0v0a.032.032,0,0,1,0,.028.065.065,0,0,1-.031.021s-.006,0,0,.008.005,0,.008,0a.076.076,0,0,0,.037-.026.042.042,0,0,0,.007-.03c.025.014.05.028.076.04h0a.026.026,0,0,1,0,.025.054.054,0,0,1-.026.022s-.006,0,0,.009.006,0,.009,0a.065.065,0,0,0,.032-.028.036.036,0,0,0,0-.023l.027.011a.531.531,0,0,0,.087.023.031.031,0,0,1,.007.025.048.048,0,0,1-.014.024s0,0,0,.009l0,0a1.078,1.078,0,0,1-.274-.091l-.032-.012c-.033-.013-.067-.03-.1-.043l0,0-.007,0,0,0h0a.558.558,0,0,0-.093-.022.4.4,0,0,0-.107,0h-.006a.068.068,0,0,0-.009-.051.082.082,0,0,0-.031-.027Z" transform="translate(-356.319 -96.34)"/>
    <path id="Path_2807" data-name="Path 2807" class="cls-3" d="M354.564,96.527a.571.571,0,0,1,.136-.04.088.088,0,0,1,.043.031.058.058,0,0,1,.007.042.276.276,0,0,0-.121.015.08.08,0,0,0-.04-.042.081.081,0,0,0-.025-.007Zm.49.248-.037-.022a.454.454,0,0,0-.2-.056l0,0a.065.065,0,0,0,.022-.071.112.112,0,0,0-.043-.048.354.354,0,0,1,.069,0,.54.54,0,0,1,.119.033.084.084,0,0,1,.008.057.073.073,0,0,1-.038.043s-.006,0,0,.009.006,0,.009,0a.084.084,0,0,0,.044-.051.09.09,0,0,0,0-.053.261.261,0,0,1,.069.043l.067.048a.055.055,0,0,1-.021.052.1.1,0,0,1-.057.007s-.006,0-.007.006h0Z" transform="translate(-354.053 -96.477)"/>
    <path id="Path_2808" data-name="Path 2808" class="cls-3" d="M362.309,100.177c-.04-.032-.08-.065-.122-.093a.1.1,0,0,0,.06-.009.062.062,0,0,0,.027-.053.913.913,0,0,1,.073.063l.035.033h0a.067.067,0,0,1,0,.026.03.03,0,0,1-.007.017.036.036,0,0,1-.018.01.118.118,0,0,1-.044,0s-.006,0-.007,0Z" transform="translate(-361.176 -99.779)"/>
    <path id="Path_2809" data-name="Path 2809" class="cls-3" d="M364.345,101.813l-.04-.022a.9.9,0,0,1-.089-.061.13.13,0,0,0,.044,0,.049.049,0,0,0,.024-.014.043.043,0,0,0,.01-.025.062.062,0,0,0,0-.014.691.691,0,0,0,.089.065l.05.028a.012.012,0,0,0,0,0c0,.013-.005.021-.018.026a.229.229,0,0,1-.064.01s-.006,0-.006.005Z" transform="translate(-363.071 -101.324)"/>
    <path id="Path_2810" data-name="Path 2810" class="cls-3" d="M366.529,103.31a.78.78,0,0,1-.135-.051.217.217,0,0,0,.06-.01.035.035,0,0,0,.027-.034.71.71,0,0,0,.084.036.028.028,0,0,1,0,.028.071.071,0,0,1-.033.024s-.006,0,0,.008h0Z" transform="translate(-365.106 -102.763)"/>
    <path id="Path_2811" data-name="Path 2811" class="cls-3" d="M348.517,97.732s.029-.007.016,0a.4.4,0,0,1-.317.032.082.082,0,0,0,.038-.028.037.037,0,0,0,0-.029.581.581,0,0,0,.107.024.025.025,0,0,1-.006.017.081.081,0,0,1-.032.021s-.006,0,0,.008.005,0,.008,0a.094.094,0,0,0,.037-.025.036.036,0,0,0,.008-.023.589.589,0,0,0,.14,0Zm-.633,1.576a.145.145,0,0,0-.018.024.217.217,0,0,1-.079.021c0,.019.006.027.025.027.035-.018.043-.021.046-.019s-.005.029-.034.05c0,0,0,0,0,.009.025.039.09.025.124.016a.162.162,0,0,0,.082-.061c0-.011-.006-.026-.017-.038-.028,0-.037-.009-.033-.017a.256.256,0,0,0-.1-.011Zm-.995-.314a.217.217,0,0,1-.069.038c-.01,0-.034.009-.036.022s.016.014.027.009c.029-.028.044-.012.01.016a.014.014,0,0,0,.005.017.143.143,0,0,0,.14.014c.025-.016.039-.033.016-.057a.13.13,0,0,1,0-.016l-.042,0-.026-.015L346.889,99Zm.655.228h-.008c-.013.015.024.009.043.021a.026.026,0,0,1,.009.031c-.018.043-.12.029-.154.011a.027.027,0,0,1-.016-.031l.021,0a.1.1,0,0,0,.036-.012s.007,0,0-.01-.007,0-.01,0a.084.084,0,0,1-.03.01.168.168,0,0,1-.032,0h0c-.006,0-.01-.007-.008-.011s.012,0,.014,0a.193.193,0,0,1,.046-.015l.007-.007a.343.343,0,0,1,.08.014Zm-.47-.027c-.006,0-.008.009-.013.019a.177.177,0,0,1-.057.039c-.019.009,0,.017.013.026s.028-.01.037-.025.022-.011.015,0a.125.125,0,0,0-.014.044c0,.011.039.02.046.02a.169.169,0,0,0,.079-.037.044.044,0,0,0,.007-.053h0a.129.129,0,0,1-.031,0,.224.224,0,0,1-.037-.012s0,0,0,0,0,0,0,0l-.045-.01Zm.182-1.732h.021c.013,0,.026.007.039.009a.3.3,0,0,1,.112-.024.373.373,0,0,1,.113-.014h0s0-.007,0-.009a.053.053,0,0,0,.019-.058.116.116,0,0,0-.051-.051c-.028,0-.054,0-.084,0a.266.266,0,0,0-.054.012.089.089,0,0,1,.038.026.135.135,0,0,1,.027.063s0,.006-.005.007-.007,0-.007-.005a.121.121,0,0,0-.025-.057.1.1,0,0,0-.049-.028.574.574,0,0,0-.084.013.13.13,0,0,0-.049.021.085.085,0,0,1,.056.005.08.08,0,0,1,.039.048s0,.006,0,.008-.007,0-.008,0a.066.066,0,0,0-.032-.041.129.129,0,0,0-.106.016.278.278,0,0,0-.041.039.007.007,0,0,1,0,0,.487.487,0,0,1,.14.022Zm-.15-.029s0,0,0-.007a.285.285,0,0,1,.043-.041.123.123,0,0,1,.044-.022.129.129,0,0,1,.065-.035.588.588,0,0,1,.086-.013.069.069,0,0,0-.033-.034.1.1,0,0,0-.047-.005.4.4,0,0,0-.1.054h.008a.089.089,0,0,1,.025,0s.006,0,0,.008-.023,0-.03,0a.089.089,0,0,0-.026,0h0a.659.659,0,0,0-.083.063.128.128,0,0,1,.046.025Z" transform="translate(-346.784 -97.216)"/>
  </g>
  <g id="Group_2810" data-name="Group 2810" transform="translate(23.298 5.252)">
    <path id="Path_2812" data-name="Path 2812" class="cls-4" d="M376.817,89.491l1.362-3.087-1-1.622-1.792.663-.829,3.263a14.4,14.4,0,0,1,2.264.783Z" transform="translate(-374.553 -84.782)"/>
    <path id="Path_2813" data-name="Path 2813" class="cls-2" d="M378.01,113.013a16.529,16.529,0,0,1,2.6.9l-.526,1.192a15.232,15.232,0,0,0-2.4-.829Z" transform="translate(-377.483 -111.159)"/>
    <path id="Path_2814" data-name="Path 2814" class="cls-3" d="M381.01,118l.351-.8a16.322,16.322,0,0,0-2.565-.888l-.207.814a15.49,15.49,0,0,1,2.433.842l-.012.027Z" transform="translate(-378.325 -114.242)"/>
    <path id="Path_2815" data-name="Path 2815" d="M383.929,120.16a.1.1,0,0,1,.074-.007.18.18,0,0,1,.069-.009.129.129,0,0,1,.038-.013.011.011,0,0,0,0-.019.041.041,0,0,1-.01-.023.176.176,0,0,1-.071-.095c-.023-.006-.034-.014-.036-.023l-.033,0a.093.093,0,0,1-.085-.025.063.063,0,0,1-.038-.03l-.017-.022c-.014-.018-.01-.042.012-.041a.085.085,0,0,0,.044,0,.132.132,0,0,1,.059-.006c.022,0,.036-.015.057-.035,0-.009,0-.017,0-.025s0-.013.013-.012a.064.064,0,0,1,.057.033.108.108,0,0,1,.077.049c.044,0,.074.017.077.033s-.01.026-.03.04c0,0,0,.006,0,.009a.082.082,0,0,1,.024.031.244.244,0,0,1,.071.041.608.608,0,0,1,.313.13,1.221,1.221,0,0,1,.271.08l.055,0a.562.562,0,0,1,.447.1.549.549,0,0,1,.146.042.355.355,0,0,0,.1.023.521.521,0,0,1,.171.046.28.28,0,0,1,.161.079c.026.032.02.061-.013.073-.02.043-.061.045-.121.024-.042.008-.087-.026-.129-.057a.662.662,0,0,1-.163-.087.212.212,0,0,0-.082-.039.078.078,0,0,0-.052,0c-.006,0-.005.006,0,.011a.084.084,0,0,1,.028.053c0,.019,0,.042,0,.066a.074.074,0,0,0,.042.059.17.17,0,0,0,.068.026.019.019,0,0,1,.018.022.653.653,0,0,0,.029.111c0,.01.011.014.022.023.038.028.019.059-.016.065a.2.2,0,0,1-.089.052.033.033,0,0,1-.044-.014.032.032,0,0,1-.029-.016c-.031-.023,0-.062.069-.045a.013.013,0,0,1,.014-.011.1.1,0,0,1,0-.06.083.083,0,0,0-.022-.013.185.185,0,0,1-.071-.039.732.732,0,0,0-.153-.095.289.289,0,0,1-.118-.042h-.049a.031.031,0,0,0-.035.011c-.015.018-.032.015-.052.012s-.046,0-.069,0a.152.152,0,0,1-.035.007.1.1,0,0,0-.069.013.035.035,0,0,1-.043.008.064.064,0,0,1-.023-.016.061.061,0,0,1-.034-.014c-.03-.009-.039-.017-.038-.026-.04-.01-.021-.042,0-.043a.478.478,0,0,1,.089.009.084.084,0,0,0,.077-.016.173.173,0,0,1,.035-.032.253.253,0,0,1-.119-.03c-.076-.048-.137-.06-.186-.019a.039.039,0,0,1-.037,0,.07.07,0,0,0-.038,0,.143.143,0,0,1-.082-.007.269.269,0,0,1-.121,0q-.051.027-.075.006l-.042-.026c-.022,0-.031-.009-.032-.016-.028,0-.031-.013-.031-.024a.019.019,0,0,1,0-.032.073.073,0,0,1,.066,0,.17.17,0,0,1,.033.02.087.087,0,0,1,.041,0c.009-.014.033-.014.061-.013a.106.106,0,0,1,.05-.017l0-.01a.1.1,0,0,1-.055-.047.193.193,0,0,1-.1-.037.1.1,0,0,1-.064-.018.149.149,0,0,1-.049,0,.167.167,0,0,1-.092,0,.262.262,0,0,1-.054,0,.049.049,0,0,1-.064.015.1.1,0,0,0-.055-.033.035.035,0,0,1-.026-.022c-.021-.013-.017-.026,0-.036a.069.069,0,0,1,.064.006.117.117,0,0,0,.033.007Z" transform="translate(-383.204 -117.469)"/>
    <path id="Path_2816" data-name="Path 2816" class="cls-2" d="M396.951,128.916s-.006-.013-.022,0a.321.321,0,0,1-.144-.026.257.257,0,0,0-.134-.049.12.12,0,0,1,.052-.028.228.228,0,0,1,.095,0,.688.688,0,0,1,.128.031.116.116,0,0,1,.066.047l0,0a.222.222,0,0,1,.034.026.135.135,0,0,1,.019.021.165.165,0,0,1-.047,0,.189.189,0,0,1-.049-.017Z" transform="translate(-395.2 -125.913)"/>
    <path id="Path_2817" data-name="Path 2817" d="M400.209,93.116l0,.015.061.317-.244.213-.011.01.014,0,.306.106.062.317,0,.015.011-.01.244-.212.306.1.014,0,0-.015-.061-.318.244-.213.011-.01-.014,0-.306-.106-.062-.317,0-.015-.011.01-.245.212-.306-.105Z" transform="translate(-398.346 -92.464)"/>
    <path id="Path_2818" data-name="Path 2818" class="cls-6" d="M400.65,94.217l.228-.2.286.1Zm.552-.107.229-.2.286.1Zm.516-.09-.228.2-.286-.1Zm-.552.107-.229.2-.286-.1Zm-.334-.422.286.1.058.3Zm.369.424.286.1.057.3Zm.336.4-.286-.1-.058-.3Zm-.369-.425-.286-.1-.057-.3Zm.2-.5.058.3-.229.2Zm-.183.532.058.3-.228.2Zm-.18.492-.058-.3.228-.2Zm.183-.532-.058-.3.228-.2Z" transform="translate(-398.936 -93.024)"/>
  </g>
</svg>
