<svg xmlns="http://www.w3.org/2000/svg" xmlns:xlink="http://www.w3.org/1999/xlink" width="40" height="30" viewBox="0 0 40 30">
  <defs>
    <style>
      .cls-1 {
        fill: rgba(0,0,0,0.67);
      }

      .cls-2 {
        clip-path: url(#clip-path);
      }

      .cls-3 {
        fill: #199d00;
      }

      .cls-3, .cls-4, .cls-5, .cls-6, .cls-7, .cls-8 {
        fill-rule: evenodd;
      }

      .cls-4 {
        fill: #fff;
      }

      .cls-5 {
        fill: #1ba400;
      }

      .cls-6 {
        fill: #1b9d00;
      }

      .cls-7 {
        fill: #259f00;
      }

      .cls-8 {
        fill: #209000;
      }
    </style>
    <clipPath id="clip-path">
      <path id="Path_3009" data-name="Path 3009" class="cls-1" d="M-80,0h40V30H-80Z" transform="translate(80)"/>
    </clipPath>
  </defs>
  <g id="saudi-33076" class="cls-2">
    <path id="Path_2992" data-name="Path 2992" class="cls-3" d="M-120,0h45V30h-45Z" transform="translate(117.5)"/>
    <path id="Path_2993" data-name="Path 2993" class="cls-4" d="M60.971,119.587c-.052.7-.114,1.934.481,2.061.72.069.323-1.219.584-1.453.049-.115.14-.116.148.03v1.093a.524.524,0,0,0,.409.534c.189-.015.315-.008.389.175l.089,1.89s.438.125.459-1.063a11.106,11.106,0,0,1-.045-1.418c0-.133.174-.141.292-.076.188.133.272.3.565.231.445-.123.713-.339.719-.681a2.962,2.962,0,0,0-.2-.975c.02-.059-.086-.212-.066-.271.08.125.2.115.229,0a.974.974,0,0,0-.384-.592c-.157-.139-.388-.11-.472.179a1.578,1.578,0,0,0,.363,1.053,1.03,1.03,0,0,1,.092.525.282.282,0,0,1-.367-.071s-.354-.266-.354-.325a1.271,1.271,0,0,0-.031-.837,1.135,1.135,0,0,0-.235-.462c-.089-.094-.209-.094-.266,0a1.588,1.588,0,0,0,.03,1.116c.082.24.207.391.148.391-.049.136-.149.1-.222-.052a3.9,3.9,0,0,1-.125-1.024c-.031-.27-.066-.845-.243-.991-.108-.147-.269-.076-.325.059a4.828,4.828,0,0,0,.017.782,8.547,8.547,0,0,1,.219,1.256c.016.593-.343.257-.327-.037a2.675,2.675,0,0,0-.012-1.136c-.058-.152-.127-.19-.269-.165-.113-.007-.4.31-.485.836a4.755,4.755,0,0,0-.1.511c-.04.271-.219.463-.344-.038-.108-.364-.175-1.261-.356-1.051Z" transform="translate(-52.13 -111.084)"/>
    <path id="Path_2994" data-name="Path 2994" class="cls-4" d="M64.626,177.534c-.636.311-1.25.6-1.876.9a1.908,1.908,0,0,1,1.484-1.2c.386.011.289.149.391.3Z" transform="translate(-53.829 -166.155)"/>
    <path id="Path_2995" data-name="Path 2995" class="cls-4" d="M77.946,123.118c-.988,2.548,2.315,2.9,2.684.1.035-.115.174-.23.2-.042-.077,2.534-2.555,2.708-2.976,1.911a2.454,2.454,0,0,1-.146-.856c-.063-.5-.324-.306-.365.188a3.083,3.083,0,0,0-.031.616c.132,2,3.324,1.142,3.843-.512.275-.916-.045-1.591.1-1.587.317.341.759.045.856-.073a.143.143,0,0,1,.219-.021.514.514,0,0,0,.773-.219,6.951,6.951,0,0,0,.1-.95c-.2.063-.352.1-.366.188l-.042.271c-.017.087-.192.09-.2-.021-.077-.348-.393-.393-.585.146-.129.1-.362.125-.386-.031.031-.362-.115-.411-.407-.24-.094-.717-.188-1.4-.282-2.12.122,0,.233.087.345-.052a3.862,3.862,0,0,0-.522-1.211c-.07-.083-.129-.031-.219-.01a.357.357,0,0,0-.251.439c.181,1.1.3,1.939.48,3.039.028.129-.08.3-.219.282-.237-.16-.3-.484-.7-.47a.786.786,0,0,0-.668.627,1.526,1.526,0,0,0,0,.72.588.588,0,0,0,.668.167c.178-.073.324-.251.386-.209.042.052.01.637-.835,1.086-.512.23-.919.282-1.138-.136-.136-.261.01-1.253-.324-1.023Z" transform="translate(-67.476 -111.151)"/>
    <path id="Path_2996" data-name="Path 2996" class="cls-4" d="M64.843,117.233a9.687,9.687,0,0,0,1.138-1.149c-.049-.042-.092-.073-.141-.115a.081.081,0,0,1,0-.136.372.372,0,0,0,.037-.569.567.567,0,0,0-.507.005.425.425,0,0,0-.073.564c.125.059.251.186.167.256-.385.411-1.438,1.119-1.316,1.143A2.38,2.38,0,0,0,64.843,117.233Zm-5.676,3.807a1.86,1.86,0,0,0-.189,1.651.41.41,0,0,0,.4.133.733.733,0,0,0,.266-.709c-.074-.116-.132-.134-.206-.036-.156.316-.221.1-.234-.078a4.069,4.069,0,0,1,.044-.889C59.285,120.862,59.246,120.939,59.166,121.04Zm15.064-.9c-.341-.734-.813-1.459-.963-1.737s-1.283-1.923-1.45-2.108c-.368-.438.6.182-.122-.686-.275-.236-.291-.25-.518-.442-.115-.082-.4-.231-.445.016a1.421,1.421,0,0,0,.025.517,1.836,1.836,0,0,0,.291.441A32.877,32.877,0,0,1,74.2,121.21c.155-.074.121-.947.03-1.069Z" transform="translate(-50.18 -107.856)"/>
    <path id="Path_2997" data-name="Path 2997" class="cls-4" d="M280.692,125.057c-.067.075.165.4.468.4a1.778,1.778,0,0,0,1.362-1.09,1.939,1.939,0,0,0,.309-.836,18.268,18.268,0,0,0-.339-4.239.7.7,0,0,1,.014-.3c.033-.039.144,0,.2-.1.086-.088-.229-.819-.409-1.1-.064-.126-.086-.21-.192.015a1.583,1.583,0,0,0-.177.8c.241,1.669.315,3.129.473,4.8a.66.66,0,0,1-.118.489A4.7,4.7,0,0,1,280.692,125.057Zm6.826-.009c-.363.21-.363.451-.07.459a1.805,1.805,0,0,0,1.514-.722,2.4,2.4,0,0,0,.247-.934,18.111,18.111,0,0,0-.276-4.185,2.285,2.285,0,0,1-.049-.43c.033-.084.2.009.256-.087.086-.088-.426-.747-.606-1.028-.064-.126-.086-.209-.192.015a1.305,1.305,0,0,0-.106.8,37.786,37.786,0,0,1,.509,4.78,1.68,1.68,0,0,1-.1.427,3.409,3.409,0,0,1-.5.579c-.164.122-.515.239-.629.33Z" transform="translate(-258.138 -110.319)"/>
    <path id="Path_2998" data-name="Path 2998" class="cls-4" d="M274.634,124.269c0-.424.006-.79-.008-1.106a1.983,1.983,0,0,0-.179-.8,2.867,2.867,0,0,1-.088-.69c-.049-.256-.037-.64-.11-.944a3.258,3.258,0,0,1-.063-.535c.03-.085.144,0,.2-.1a3.4,3.4,0,0,0-.478-1.33c-.068-.123-.191-.081-.344.12-.141.132-.089.433-.035.72a24.117,24.117,0,0,1,.574,5.406C274.085,125.168,274.638,124.558,274.634,124.269Zm-2.679-2.347c-.228,0-.706-.444-.845-.7a.473.473,0,0,1,.028-.376c.084-.055.214-.117.311-.057,0,0,.1.141.081.159.125.06.177.025.19-.025.008-.089-.037-.142-.037-.239a.265.265,0,0,1,.47-.137,1,1,0,0,1,.127.47c0,.075-.124-.013-.193.005s-.086.1-.092.171c-.013.192-.035.5-.04.732Zm-4.209,2.817a17.313,17.313,0,0,0-.029-1.941c-.023-.8-.154-2.353-.217-2.612-.07-.488.2.054.163-.23a3.123,3.123,0,0,0-.676-1.265c-.1-.145-.1-.175-.257.036a1.477,1.477,0,0,0,.021.98,18.285,18.285,0,0,1,.425,2.853,23.044,23.044,0,0,1,.025,2.874c.172.007.448-.278.545-.694Z" transform="translate(-244.982 -111.164)"/>
    <path id="Path_2999" data-name="Path 2999" class="cls-4" d="M349.563,126.23c-.4-.675-1.009-1.405-1.171-1.677s-1.533-2.041-1.708-2.218c-.5-.527.23-.086-.1-.493a3.892,3.892,0,0,0-.592-.58c-.118-.076-.19-.223-.229.026a4.9,4.9,0,0,0-.017.656.884.884,0,0,0,.2.408,33.756,33.756,0,0,1,3.61,4.938C349.709,127.209,349.659,126.348,349.563,126.23Z" transform="translate(-319.135 -113.577)"/>
    <path id="Path_3000" data-name="Path 3000" class="cls-5" d="M113.786,181.57c-.029.051-.093.116-.072.185a.168.168,0,0,0,.156.077c.065,0,.156.015.176-.023a.194.194,0,0,0,.033-.192A.172.172,0,0,0,113.786,181.57Z" transform="translate(-101.603 -170.162)"/>
    <path id="Path_3001" data-name="Path 3001" class="cls-4" d="M122.21,127.691c.538.02.89.025,1.368.081,0,0,.413-.041.56-.063.623-.059.65.889.65.889-.007.556-.222.585-.5.644-.157.02-.239-.094-.321-.215a.812.812,0,0,1-.414.026c-.224-.014-.448-.013-.672-.027s-.365.025-.6,0c-.049.077-.113.184-.258.149-.121-.013-.265-.353-.222-.612.087-.185.063-.126.054-.207-2.2-.056-4.419-.154-6.575-.126-1.687.007-3.354.077-5.021.147a2.215,2.215,0,0,1-2.038-.84c.042,0,2.269.126,2.92.084,1.2-.014,2.3-.112,3.529-.147,2.416.042,4.811.042,7.226.21a.337.337,0,0,1,.116-.623c.03-.021.046.186.1.182.285-.021.16.364.1.444Zm-9.7-13.316c-.366,1.046.21,2.191.609,2.08.288.119.471-.429.589-1.029.081-.169.142-.186.183-.1-.011.8.057.975.263,1.218a.663.663,0,0,0,.866.015l.356-.356a.215.215,0,0,1,.3-.015c.109.1.094.27.327.389a.722.722,0,0,0,.713-.151c.131-.224.162-.3.223-.386.093-.124.253-.069.253-.03-.015.069-.108.139-.045.263.111.083.137.03.2.011.232-.111.407-.616.407-.616.01-.188-.1-.172-.163-.134-.089.055-.095.072-.184.126-.114.017-.334.092-.443-.076a6.7,6.7,0,0,1-.2-.69c0-.015-.148-.322-.01-.342.069.013.217.052.241-.072.073-.121-.156-.465-.312-.639a.338.338,0,0,0-.505-.015c-.127.117-.109.247-.134.371a.579.579,0,0,0,.119.505,1.543,1.543,0,0,1,.282,1.025.414.414,0,0,1-.371.186c-.1-.021-.257-.063-.342-.691-.064-.475.015-1.14-.187-1.452-.073-.188-.126-.37-.3-.048a.747.747,0,0,0-.1.713,1.073,1.073,0,0,1-.1,1.412.351.351,0,0,1-.452.062.484.484,0,0,1-.27-.381,5.2,5.2,0,0,0-.042-1.226.222.222,0,0,0-.371-.074,2.8,2.8,0,0,0-.673,1.381c-.1.336-.215.239-.292.1-.189-.177-.2-1.565-.431-1.337Z" transform="translate(-96.457 -106.449)"/>
    <path id="Path_3002" data-name="Path 3002" class="cls-4" d="M107.7,120.4c.166-.118.089-.2.337.049a4.221,4.221,0,0,1,.541,1.832c-.013.15.093.246.141.213.029-.353.888-.845,1.676-.917.12-.026.062-.257.081-.375a.718.718,0,1,1,1.411-.031c-.06.874-.971,1.023-1.483,1.092-.079.03-.111.066,0,.109l2.144.01.109.063c.013.051-.031.008-.116.148a1.735,1.735,0,0,0-.216.675,10.5,10.5,0,0,1-1.971.377c-.233.118-.349.275-.3.452.079.2.6.392.6.4.1.062.214.205-.028.5a2.36,2.36,0,0,1-2.137-1.119c-.085-.066-.176,0-.234.085a3.308,3.308,0,0,1-1.506,1.252,1.018,1.018,0,0,1-1.041-.336c-.134-.155-.129-.326-.179-.363-.224.1-2.155.92-1.911.538a13.431,13.431,0,0,1,2-1.369c.052-.166.146-.729.43-.912.016,0-.045.33-.039.469,0,.114-.008.159.017.129a5.184,5.184,0,0,0,.988-.926c.085-.12.025-.426.025-.435-.163-.421-.393-.457-.478-.667-.077-.278-.042-.6.117-.684a.318.318,0,0,1,.463.028,1.427,1.427,0,0,1,.378.7c-.03.091-.23-.06-.3-.015a.93.93,0,0,1,.225.454,1.392,1.392,0,0,1-.035.979,3.081,3.081,0,0,1-1.315,1.358.33.33,0,0,0,.144.316.662.662,0,0,0,.547,0,3.2,3.2,0,0,0,1.31-1.369,2.986,2.986,0,0,0-.143-1.3c-.17-.392-.37-.953-.37-.962-.007-.245.013-.33.121-.452Zm-5.614-2.263c.247.118.711.068.691-.33,0-.035-.009-.154-.012-.186-.05-.117-.188-.088-.219.033-.01.04.017.1-.018.124-.021.021-.1.009-.1-.1a.188.188,0,0,0-.041-.095.08.08,0,0,0-.054-.013c-.034,0-.034.01-.053.039a.338.338,0,0,0-.019.092c0,.039-.019.053-.048.059s-.025,0-.051-.013-.035-.023-.035-.052a.313.313,0,0,0-.016-.1.1.1,0,0,0-.06-.033c-.135,0-.144.154-.136.213C101.9,117.781,101.9,118.057,102.081,118.133Z" transform="translate(-90.54 -110.195)"/>
    <path id="Path_3003" data-name="Path 3003" class="cls-4" d="M217.835,122.227c.247.118.834.05.691-.33,0-.035-.009-.154-.012-.186-.05-.117-.188-.088-.219.033-.01.04.017.1-.018.124-.021.021-.1.009-.1-.1a.188.188,0,0,0-.041-.095.08.08,0,0,0-.054-.013c-.034,0-.034.01-.053.039a.339.339,0,0,0-.019.092c0,.039-.019.053-.048.059s-.025,0-.051-.013-.035-.023-.035-.052a.314.314,0,0,0-.016-.1.1.1,0,0,0-.06-.033c-.135,0-.144.154-.136.213C217.656,121.875,217.651,122.151,217.835,122.227Zm4.219-1.267c.247.118.711.068.691-.33,0-.035-.009-.154-.012-.187-.05-.117-.188-.088-.219.033-.01.04.017.1-.018.124-.021.021-.1.009-.1-.1a.188.188,0,0,0-.041-.095.08.08,0,0,0-.054-.013c-.034,0-.034.01-.053.039a.337.337,0,0,0-.019.092c0,.039-.019.053-.048.059s-.025,0-.051-.013-.035-.023-.035-.052a.314.314,0,0,0-.016-.1.1.1,0,0,0-.06-.033c-.135,0-.144.154-.136.213C221.875,120.608,221.869,120.884,222.053,120.96Zm2.185,3.183a1.5,1.5,0,0,0-.143,1.459,1.145,1.145,0,0,0,.532.606.374.374,0,0,0,.555-.06c.253-.262.256-.931.375-1.064a.223.223,0,0,1,.395-.094.965.965,0,0,0,.36.31.6.6,0,0,0,.8.056.92.92,0,0,0,.424-.517,16.071,16.071,0,0,0,.03-2.758c-.009-.071-.245-1.242-.245-1.256s-.031-.6-.057-.737c0-.057-.019-.073.041-.066a.343.343,0,0,0,.111.074c.063.012.12-.1.082-.2l-.589-1.086c-.047-.047-.108-.1-.183.013a.426.426,0,0,0-.145.322c.017.257.063.519.08.777l.236,1.321c.074.942.093,1.713.167,2.655-.01.4-.134.747-.251.8,0,0-.177.1-.3-.011a3.561,3.561,0,0,1-.432-.576.262.262,0,0,0-.419,0,5.792,5.792,0,0,0-.739,1.392c-.061.1-.232.179-.422-.007a1.96,1.96,0,0,1-.26-1.357Zm-2.074-5.494a.816.816,0,0,1,.326.759c-.044.271-.161.563-.246.525s.062-.269-.026-.515c-.049-.16-.351-.454-.319-.54C221.838,118.7,222.028,118.618,222.164,118.649Z" transform="translate(-199.059 -111.227)"/>
    <path id="Path_3004" data-name="Path 3004" class="cls-4" d="M162.624,125.121a6.638,6.638,0,0,0-.046-1.182c-.014-.316-.358-2.728-.427-2.967-.084-.452.334-.061.288-.324-.145-.332-.5-.814-.618-1.1-.068-.123-.039-.233-.192-.032a2.472,2.472,0,0,0-.136,1.125,23.182,23.182,0,0,1,.675,5.266c.172,0,.37-.393.455-.784Zm3.778-5c.2.1.32.661.3.822-.04.293-.147.609-.224.568s.017-.434-.023-.558c-.045-.174-.32-.491-.291-.585A.191.191,0,0,1,166.4,120.124Zm-14.981,3.98c.193.074.306.486.285.6-.038.215-.141.448-.214.417s.016-.319-.022-.41c-.016-.22-.284-.334-.278-.43-.05-.175.112-.207.23-.182Z" transform="translate(-136.733 -111.94)"/>
    <path id="Path_3005" data-name="Path 3005" class="cls-6" d="M212.373,203.018c.249.016.373.211.14.293s-.451.14-.452.473c.085.463-.117.3-.237.241a1.212,1.212,0,0,1-.6-.876.224.224,0,0,1,.248-.232,6.659,6.659,0,0,0,.9.1Z" transform="translate(-193.026 -190.235)"/>
    <path id="Path_3006" data-name="Path 3006" class="cls-4" d="M69,113.586c.284.086.3.5.28.626-.038.223-.139.464-.211.433s0-.331-.041-.425c-.042-.132-.283-.374-.255-.445C68.721,113.625,68.884,113.559,69,113.586Zm5.618,1.971a.51.51,0,0,0-.167.675.328.328,0,0,0,.354.114c.214.027.341-.4.341-.4s.007-.12-.247.107c-.107.02-.12-.02-.147-.08a.527.527,0,0,1,.033-.334C74.824,115.53,74.742,115.483,74.619,115.557Zm1.637-2.133a.794.794,0,0,0-.335.56c-.007.147-.034.147.062.24.07.1.14.091.28.018a.3.3,0,0,0,.135-.2c.033-.167-.177.079-.2-.107-.047-.173.088-.243.215-.41C76.415,113.412,76.412,113.331,76.256,113.424Zm1.319.234a3.45,3.45,0,0,0-.095.65c-.038.163.17.232.265.023a1.981,1.981,0,0,0,.151-.708C77.852,113.376,77.685,113.384,77.575,113.658Zm8.316,4.232c.028-.028,1.172-.841,1.172-.841.117-.041.091.419.038.416a4.547,4.547,0,0,1-1.21.841c-.057.041-.113-.315,0-.416Zm1.042-.007c.2.1.282.69.26.85.007.312-.194.562-.271.521s.007-.387-.033-.511c-.045-.174-.216-.5-.187-.594A.2.2,0,0,1,86.933,117.883Zm-6.8,2.539a1.5,1.5,0,0,1,.331-.284.217.217,0,0,1,.217.038c.019.113-.072.219-.043.37.025.061.043.129.155.1a.825.825,0,0,1,.531-.161c.139.008.145.244.057.246a3.979,3.979,0,0,0-.725.254.167.167,0,0,1-.211-.027.22.22,0,0,1-.02-.215c.008-.12-.04-.187-.141-.173-.076.041-.142.068-.18-.019C80.088,120.49,80.084,120.459,80.132,120.422Zm8,.318a.147.147,0,0,1,0,.222c-.08.073-.137.114-.217.187-.038.065-.062.163.054.194.214.06.708-.261.708-.267a.156.156,0,0,0,.047-.174c-.047-.053-.152-.022-.223-.03-.034,0-.144-.017-.092-.115a.669.669,0,0,0,.09-.173c.033-.073,0-.122-.116-.163a.948.948,0,0,0-.307,0c-.073.016-.1.048-.112.138C87.969,120.694,88.051,120.687,88.136,120.74Z" transform="translate(-59.466 -106.297)"/>
    <path id="Path_3007" data-name="Path 3007" class="cls-7" d="M170.194,126.406c-.031.054-.137.052-.237-.006s-.155-.148-.123-.2.137-.052.237.006S170.225,126.351,170.194,126.406Zm-5.219-3.14a.177.177,0,0,1-.173-.118c-.036-.08-.018-.156.042-.171a.177.177,0,0,1,.173.118C165.053,123.174,165.034,123.251,164.975,123.265Z" transform="translate(-149.484 -115.288)"/>
    <path id="Path_3008" data-name="Path 3008" class="cls-8" d="M331.98,351.534c.548.027,1.063.006,1.611.033.1.084.028.292-.038.277l-.459-.013c-.006-.174-.452-.146-.439.006a4.3,4.3,0,0,1-.7-.017c-.071-.089-.062-.248.023-.285Z" transform="translate(-306.166 -329.563)"/>
  </g>
</svg>
