<svg id="slovakia-33082" xmlns="http://www.w3.org/2000/svg" width="40" height="30" viewBox="0 0 40 30">
  <defs>
    <style>
      .cls-1 {
        fill: #ee1c25;
      }

      .cls-2 {
        fill: #0b4ea2;
      }

      .cls-3 {
        fill: #fff;
      }
    </style>
  </defs>
  <path id="Path_1498" data-name="Path 1498" class="cls-1" d="M0,0H40V30H0Z"/>
  <path id="Path_1499" data-name="Path 1499" class="cls-2" d="M0,0H40V21.013H0Z"/>
  <path id="Path_1500" data-name="Path 1500" class="cls-3" d="M0,0H40V10.506H0Z"/>
  <path id="Path_1501" data-name="Path 1501" class="cls-3" d="M135.3,124.859c-2.825-1.241-6.866-3.7-6.866-8.573a70.239,70.239,0,0,1,.255-7.086h13.222a70.224,70.224,0,0,1,.255,7.086C142.169,121.156,138.128,123.618,135.3,124.859Z" transform="translate(-120.606 -102.029)"/>
  <path id="Path_1502" data-name="Path 1502" class="cls-1" d="M143.369,135.76c-2.592-1.248-6.3-3.726-6.3-8.628S137.3,120,137.3,120h12.13s.234,2.229.234,7.131S145.962,134.511,143.369,135.76Z" transform="translate(-128.689 -112.88)"/>
  <path id="Path_1503" data-name="Path 1503" class="cls-3" d="M178.855,133.954a10.083,10.083,0,0,0,3.29-.369s-.032.436-.032.945.032.945.032.945a10.583,10.583,0,0,0-3.29-.372v2.707h-1.109V135.1a10.584,10.584,0,0,0-3.29.372s.032-.436.032-.945-.032-.945-.032-.945a10.083,10.083,0,0,0,3.29.369v-1.7a7.778,7.778,0,0,0-2.6.374s.032-.436.032-.945-.032-.945-.032-.945a7.779,7.779,0,0,0,2.6.374,15.121,15.121,0,0,0-.347-2.434s.646.05.9.05.9-.05.9-.05a15.125,15.125,0,0,0-.347,2.434,7.78,7.78,0,0,0,2.6-.374s-.032.436-.032.945.032.945.032.945a7.782,7.782,0,0,0-2.6-.374v1.7Z" transform="translate(-163.676 -120.802)"/>
  <path id="Path_1504" data-name="Path 1504" class="cls-2" d="M161.2,263.275c-1.305,0-2,1.811-2,1.811a1.6,1.6,0,0,0-1.453-.859,2.049,2.049,0,0,0-1.589,1.234,11.972,11.972,0,0,0,5.046,4.165,11.974,11.974,0,0,0,5.048-4.165,2.049,2.049,0,0,0-1.589-1.234,1.6,1.6,0,0,0-1.454.859S162.5,263.275,161.2,263.275Z" transform="translate(-146.547 -247.031)"/>
</svg>
