<svg xmlns="http://www.w3.org/2000/svg" xmlns:xlink="http://www.w3.org/1999/xlink" width="40.001" height="30.001" viewBox="0 0 40.001 30.001">
  <defs>
    <style>
      .cls-1 {
        fill: rgba(0,0,0,0.67);
      }

      .cls-2 {
        clip-path: url(#clip-path);
      }

      .cls-3 {
        fill: #006;
      }

      .cls-4 {
        fill: #fff;
      }

      .cls-5 {
        fill: #c00;
      }
    </style>
    <clipPath id="clip-path">
      <path id="Path_2262" data-name="Path 2262" class="cls-1" d="M-80.213,0h40V30h-40Z" transform="translate(80.213)"/>
    </clipPath>
  </defs>
  <g id="united-33115" class="cls-2">
    <g id="Group_2794" data-name="Group 2794" transform="translate(-10)">
      <path id="Path_2258" data-name="Path 2258" class="cls-3" d="M-240.64,0h60V30h-60Z" transform="translate(240.64)"/>
      <path id="Path_2259" data-name="Path 2259" class="cls-4" d="M-240.64,0V3.354L-187.346,30h6.708V26.647L-233.932,0Zm60,0V3.354L-233.932,30h-6.708V26.647L-187.346,0Z" transform="translate(240.64)"/>
      <path id="Path_2260" data-name="Path 2260" class="cls-4" d="M-215.639,0V30h10V0Zm-25,10V20h60V10Z" transform="translate(240.64)"/>
      <path id="Path_2261" data-name="Path 2261" class="cls-5" d="M-240.64,12v6h60V12Zm27-12V30h6V0Zm-27,30,20-10h4.472l-20,10Zm0-30,20,10h-4.472L-240.64,2.236Zm35.529,10,20-10h4.472l-20,10Zm24.473,20-20-10h4.472l15.529,7.764Z" transform="translate(240.64)"/>
    </g>
  </g>
</svg>
