<svg xmlns="http://www.w3.org/2000/svg" width="30" height="30" viewBox="0 0 30 30">
  <defs>
    <style>
      .cls-1 {
        fill: #6c757d;
        opacity: 0.75;
      }
    </style>
  </defs>
  <path id="Form_920" data-name="Form 920" class="cls-1" d="M696.285,6579c-4.358,0-7.286-3.054-7.286-7.6v-14.8c0-4.544,2.928-7.6,7.286-7.6h15.427c4.358,0,7.286,3.054,7.286,7.6v14.8c0,4.544-2.928,7.6-7.286,7.6Zm-4.979-22.4v14.8c0,3.214,1.955,5.291,4.979,5.291h15.427c3.025,0,4.979-2.077,4.979-5.291v-14.8c0-3.214-1.953-5.291-4.979-5.291H696.285C693.262,6551.306,691.307,6553.383,691.307,6556.6Zm11.54,11.618v-3.073H699.77a1.155,1.155,0,0,1,0-2.31h3.077v-3.071a1.154,1.154,0,1,1,2.308,0v3.071h3.075a1.155,1.155,0,0,1,0,2.31h-3.075v3.073a1.154,1.154,0,1,1-2.308,0Z" transform="translate(-688.999 -6548.998)"/>
</svg>
