<svg xmlns="http://www.w3.org/2000/svg" width="80" height="40" viewBox="0 0 80 40">
  <defs>
    <style>
      .cls-1 {
        fill: #fff;
        stroke: rgba(112,112,112,0.5);
      }

      .cls-2 {
        stroke: none;
      }

      .cls-3 {
        fill: none;
      }
    </style>
  </defs>
  <g id="Group_2709" data-name="Group 2709" transform="translate(-1386 -1441)">
    <g id="Rectangle_5739" data-name="Rectangle 5739" class="cls-1" transform="translate(1386 1441)">
      <rect class="cls-2" width="80" height="40" rx="10"/>
      <rect class="cls-3" x="0.5" y="0.5" width="79" height="39" rx="9.5"/>
    </g>
    <g id="Group_2698" data-name="Group 2698" transform="translate(22916.564 2569.72)">
      <g id="Group_2697" data-name="Group 2697" transform="translate(160 -93.775)">
        <path id="Path_1304" data-name="Path 1304" d="M42.1,32.35a4.622,4.622,0,0,0,1.063-3.295,4.583,4.583,0,0,0-3.038,1.572,4.327,4.327,0,0,0-1.089,3.167A3.824,3.824,0,0,0,42.1,32.35" transform="translate(-21711.283 -1057)"/>
        <path id="Path_1305" data-name="Path 1305" d="M34.869,38.976c-1.692-.1-3.131.96-3.939.96s-2.046-.91-3.385-.885A4.99,4.99,0,0,0,23.3,41.628c-1.818,3.134-.48,7.783,1.288,10.335.859,1.263,1.894,2.653,3.257,2.6,1.288-.051,1.793-.834,3.359-.834s2.02.834,3.384.809c1.414-.025,2.3-1.263,3.157-2.527a11.217,11.217,0,0,0,1.414-2.906,4.589,4.589,0,0,1-2.752-4.17,4.678,4.678,0,0,1,2.222-3.917,4.838,4.838,0,0,0-3.763-2.046" transform="translate(-21703 -1061.953)"/>
        <path id="Path_1306" data-name="Path 1306" d="M69.637,31.944a5.947,5.947,0,0,1,6.239,6.227,6.014,6.014,0,0,1-6.331,6.253H65.472V50.9H62.53V31.944Zm-4.164,10.01h3.376c2.562,0,4.02-1.379,4.02-3.77s-1.458-3.757-4.006-3.757H65.472Z" transform="translate(-21723.033 -1058.443)"/>
        <path id="Path_1307" data-name="Path 1307" d="M90.74,51.851c0-2.417,1.852-3.9,5.136-4.085l3.783-.223V46.479c0-1.537-1.038-2.456-2.771-2.456-1.642,0-2.667.788-2.916,2.023h-2.68c.158-2.5,2.285-4.335,5.7-4.335,3.35,0,5.491,1.773,5.491,4.545v9.524H99.764V53.507H99.7a4.938,4.938,0,0,1-4.361,2.509C92.632,56.016,90.74,54.334,90.74,51.851ZM99.659,50.6v-1.09l-3.4.21c-1.695.118-2.653.867-2.653,2.049,0,1.208,1,2,2.522,2A3.312,3.312,0,0,0,99.659,50.6Z" transform="translate(-21737.129 -1063.323)"/>
        <path id="Path_1308" data-name="Path 1308" d="M117.978,61.112v-2.3a5.252,5.252,0,0,0,.919.052,2.3,2.3,0,0,0,2.456-1.97c0-.026.25-.841.25-.854l-4.992-13.832h3.073l3.495,11.245h.052l3.495-11.245h2.995l-5.176,14.542c-1.182,3.35-2.548,4.427-5.412,4.427A10.962,10.962,0,0,1,117.978,61.112Z" transform="translate(-21750.055 -1063.572)"/>
      </g>
    </g>
  </g>
</svg>
