<svg xmlns="http://www.w3.org/2000/svg" width="500" height="687.5" viewBox="0 0 500 687.5">
  <defs>
    <style>
      .cls-1 {
        fill: #fff;
        opacity: 0.5;
      }
    </style>
  </defs>
  <path id="Icon_material-autorenew" data-name="Icon material-autorenew" class="cls-1" d="M256,157.75V251.5l125-125L256,1.5V95.25c-138.125,0-250,111.875-250,250A247.839,247.839,0,0,0,44.75,478.375L90.375,432.75A183.453,183.453,0,0,1,68.5,345.25C68.5,241.813,152.563,157.75,256,157.75Zm211.25,54.375L421.625,257.75a188.072,188.072,0,0,1,21.875,87.5c0,103.438-84.062,187.5-187.5,187.5V439L131,564,256,689V595.25c138.125,0,250-111.875,250-250a247.839,247.839,0,0,0-38.75-133.125Z" transform="translate(-6 -1.5)"/>
</svg>
