<svg xmlns="http://www.w3.org/2000/svg" width="14.188" height="13" viewBox="0 0 14.188 13">
  <defs>
    <style>
      .cls-1 {
        fill: #0067b8;
      }
    </style>
  </defs>
  <path id="favorite_FILL0_wght400_GRAD0_opsz48" class="cls-1" d="M7.094,13l.727-.656q.723-.661,1.373-1.279T10.424,9.87Q11,9.293,11.509,8.759t.941-1.026a8.823,8.823,0,0,0,.76-.988,6.631,6.631,0,0,0,.543-.994,5.323,5.323,0,0,0,.326-1,4.752,4.752,0,0,0,.109-1.008,4.245,4.245,0,0,0-.067-.765,3.618,3.618,0,0,0-.2-.7,3.463,3.463,0,0,0-.335-.635A3.875,3.875,0,0,0,12.547.6a3.459,3.459,0,0,0-.631-.335,3.579,3.579,0,0,0-.694-.2A4.164,4.164,0,0,0,10.464,0a3.762,3.762,0,0,0-.451.027,3.87,3.87,0,0,0-.449.081,4.146,4.146,0,0,0-.447.136,4.6,4.6,0,0,0-.444.19,3.441,3.441,0,0,0-.431.252,3.855,3.855,0,0,0-.407.322,4.53,4.53,0,0,0-.382.392,5.5,5.5,0,0,0-.358.462Q6.9,1.614,6.7,1.4t-.4-.392A4.573,4.573,0,0,0,5.894.687,3.721,3.721,0,0,0,5.48.435a3.969,3.969,0,0,0-.422-.19A3.744,3.744,0,0,0,4.624.109,3.688,3.688,0,0,0,4.18.027,3.8,3.8,0,0,0,3.724,0a4.164,4.164,0,0,0-.758.067,3.579,3.579,0,0,0-.694.2A3.459,3.459,0,0,0,1.641.6,3.875,3.875,0,0,0,.6,1.642a3.463,3.463,0,0,0-.335.635,3.618,3.618,0,0,0-.2.7A4.245,4.245,0,0,0,0,3.742,4.753,4.753,0,0,0,.109,4.75a5.323,5.323,0,0,0,.326,1,6.631,6.631,0,0,0,.543.994,8.823,8.823,0,0,0,.76.988q.435.492.941,1.026T3.764,9.87q.579.576,1.229,1.195t1.373,1.279Zm0-6.668Zm0,5.267q-.674-.621-1.284-1.2T4.655,9.28Q4.11,8.741,3.629,8.244t-.9-.954A8.792,8.792,0,0,1,2,6.383a6.177,6.177,0,0,1-.521-.893,4.555,4.555,0,0,1-.313-.88,3.725,3.725,0,0,1-.1-.867,3.21,3.21,0,0,1,.047-.559,2.652,2.652,0,0,1,.141-.507,2.446,2.446,0,0,1,.236-.455,2.566,2.566,0,0,1,.33-.4,2.593,2.593,0,0,1,.4-.33,2.441,2.441,0,0,1,.452-.236,2.612,2.612,0,0,1,.5-.141,3.127,3.127,0,0,1,.551-.047,2.763,2.763,0,0,1,.437.034,2.721,2.721,0,0,1,.423.1,2.89,2.89,0,0,1,.41.172,3.283,3.283,0,0,1,.4.241,3.372,3.372,0,0,1,.372.3,3.7,3.7,0,0,1,.337.365,4.268,4.268,0,0,1,.3.425,5.1,5.1,0,0,1,.266.484h.869A4.835,4.835,0,0,1,7.8,2.708a4.069,4.069,0,0,1,.3-.425,3.566,3.566,0,0,1,.336-.365,3.3,3.3,0,0,1,.375-.3,3.4,3.4,0,0,1,.4-.241,2.938,2.938,0,0,1,.41-.172,2.681,2.681,0,0,1,.849-.137,3.2,3.2,0,0,1,.559.047,2.628,2.628,0,0,1,.505.141,2.411,2.411,0,0,1,.452.236,2.522,2.522,0,0,1,.4.33,2.56,2.56,0,0,1,.326.4,2.457,2.457,0,0,1,.233.455,2.677,2.677,0,0,1,.14.507,3.247,3.247,0,0,1,.047.559,3.725,3.725,0,0,1-.1.867,4.555,4.555,0,0,1-.313.88,6.177,6.177,0,0,1-.521.893,8.792,8.792,0,0,1-.729.907q-.417.457-.9.954T9.533,9.28q-.545.539-1.155,1.118T7.094,11.6Z"/>
</svg>
