<svg xmlns="http://www.w3.org/2000/svg" width="13.385" height="13.288" viewBox="0 0 13.385 13.288">
  <defs>
    <style>
      .cls-1 {
        fill: #0067b8;
      }
    </style>
  </defs>
  <g id="time-left" transform="translate(0 -1.688)">
    <g id="Layer_2_16_" transform="translate(0 1.688)">
      <g id="Group_1470" data-name="Group 1470" transform="translate(0 0)">
        <path id="Path_1080" data-name="Path 1080" class="cls-1" d="M253.4,423.17c-.1.026-.21.049-.315.068a.506.506,0,0,0,.184,1c.125-.023.251-.051.375-.081a.506.506,0,0,0-.245-.982Z" transform="translate(-245.345 -410.959)"/>
        <path id="Path_1081" data-name="Path 1081" class="cls-1" d="M412.607,137.207a.506.506,0,0,0,.961-.318c-.04-.121-.084-.242-.132-.36a.506.506,0,1,0-.94.376C412.536,137,412.573,137.105,412.607,137.207Z" transform="translate(-400.502 -132.312)"/>
        <path id="Path_1082" data-name="Path 1082" class="cls-1" d="M321.394,394c-.089.059-.181.116-.274.169a.506.506,0,1,0,.506.877c.11-.064.22-.131.326-.2a.506.506,0,0,0-.558-.845Z" transform="translate(-311.57 -382.507)"/>
        <path id="Path_1083" data-name="Path 1083" class="cls-1" d="M428.646,207.8a.506.506,0,1,0-1.012.04c0,.107.005.215,0,.322a.506.506,0,1,0,1.012.022C428.652,208.054,428.651,207.925,428.646,207.8Z" transform="translate(-415.266 -201.352)"/>
        <path id="Path_1084" data-name="Path 1084" class="cls-1" d="M377.787,344.17a.506.506,0,0,0-.709.1c-.064.086-.132.17-.2.252a.506.506,0,0,0,.057.713c.012.01.024.02.037.029a.506.506,0,0,0,.676-.086c.083-.1.163-.2.24-.3A.506.506,0,0,0,377.787,344.17Z" transform="translate(-365.764 -334.15)"/>
        <path id="Path_1085" data-name="Path 1085" class="cls-1" d="M414.525,279.375a.506.506,0,0,0-.634.332c-.032.1-.067.2-.106.3a.506.506,0,0,0,.946.36c.045-.119.088-.241.126-.362A.506.506,0,0,0,414.525,279.375Z" transform="translate(-401.759 -271.305)"/>
        <path id="Path_1086" data-name="Path 1086" class="cls-1" d="M5.748,13.908a5.641,5.641,0,0,1-1.392-.439l-.015-.008c-.1-.049-.208-.1-.309-.155h0a5.8,5.8,0,0,1-.54-.335,5.592,5.592,0,0,1,.024-9.2l.019-.013A5.716,5.716,0,0,1,9.892,3.71l-.424.607c-.118.169-.045.292.161.274l1.842-.163a.3.3,0,0,0,.275-.393l-.495-1.767c-.055-.2-.2-.222-.315-.053l-.425.609A6.751,6.751,0,0,0,5.6,1.788q-.261.045-.514.109h0l-.02.005A6.7,6.7,0,0,0,1.35,4.368c-.008.009-.016.018-.023.028-.031.041-.061.083-.091.125-.049.069-.1.14-.143.21-.006.009-.01.017-.015.026A6.59,6.59,0,0,0,.007,8.671s0,.009,0,.014c.006.135.017.272.032.407,0,.009,0,.017,0,.026.015.135.034.271.058.407a6.622,6.622,0,0,0,1.889,3.6L2,13.132l0,0a6.826,6.826,0,0,0,.865.716,6.725,6.725,0,0,0,2.692,1.117.538.538,0,1,0,.192-1.059Z" transform="translate(0 -1.688)"/>
        <path id="Path_1087" data-name="Path 1087" class="cls-1" d="M206.4,83.2a.41.41,0,0,0-.41.41v4.08l3.732,1.929a.409.409,0,0,0,.376-.728l-3.289-1.7V83.608A.409.409,0,0,0,206.4,83.2Z" transform="translate(-199.876 -80.704)"/>
      </g>
    </g>
  </g>
</svg>
