<svg xmlns="http://www.w3.org/2000/svg" width="20" height="20" viewBox="0 0 20 20">
  <defs>
    <style>
      .cls-1 {
        fill: #f1f2f3;
      }
    </style>
  </defs>
  <path id="charger_FILL0_wght400_GRAD0_opsz48" class="cls-1" d="M13.55,21.45l4.25-9H14.55v-6l-4.25,9h3.25ZM14,24a10.143,10.143,0,0,1-3.95-.763A9.679,9.679,0,0,1,4.763,17.95,10.143,10.143,0,0,1,4,14a10.078,10.078,0,0,1,.763-3.925A9.76,9.76,0,0,1,6.875,6.9,9.97,9.97,0,0,1,14,4,9.92,9.92,0,0,1,24,14a9.97,9.97,0,0,1-2.9,7.125,9.76,9.76,0,0,1-3.175,2.112A10.078,10.078,0,0,1,14,24Zm0-10Zm0,8.5A8.328,8.328,0,0,0,22.5,14,8.328,8.328,0,0,0,14,5.5,8.328,8.328,0,0,0,5.5,14,8.328,8.328,0,0,0,14,22.5Z" transform="translate(-4 -4)"/>
</svg>
