<svg xmlns="http://www.w3.org/2000/svg" width="29.654" height="25" viewBox="0 0 29.654 25">
  <defs>
    <style>
      .cls-1 {
        fill: #6c757d;
      }
    </style>
  </defs>
  <path id="how_to_reg_FILL0_wght400_GRAD200_opsz40" class="cls-1" d="M2.5,30.484V26.217A4.686,4.686,0,0,1,3.152,23.8a4.313,4.313,0,0,1,1.886-1.71,24.627,24.627,0,0,1,5.007-1.781,20.388,20.388,0,0,1,4.443-.511,19.6,19.6,0,0,1,2.168.124A20.966,20.966,0,0,1,19,20.329l-2.539,2.539-.97-.07q-.476-.036-1.04-.036a17.191,17.191,0,0,0-3.632.388,23.79,23.79,0,0,0-4.478,1.587,1.277,1.277,0,0,0-.688.618,1.976,1.976,0,0,0-.194.863v1.3H16.04l3.138,2.962Zm20.1.141L17.2,25.23l2.08-2.081L22.6,26.464l7.44-7.44L32.154,21.1ZM14.453,17.473A5.7,5.7,0,0,1,10.222,15.8a5.79,5.79,0,0,1-1.657-4.249,5.728,5.728,0,0,1,5.888-5.924A5.817,5.817,0,0,1,18.72,7.3a5.725,5.725,0,0,1,1.693,4.249A5.725,5.725,0,0,1,18.72,15.8,5.817,5.817,0,0,1,14.453,17.473ZM16.04,27.522ZM14.489,14.511a2.892,2.892,0,0,0,2.962-2.962A2.87,2.87,0,0,0,16.6,9.433a2.914,2.914,0,0,0-2.151-.846,2.812,2.812,0,0,0-2.1.846,2.9,2.9,0,0,0-.828,2.116,2.9,2.9,0,0,0,.828,2.116A2.855,2.855,0,0,0,14.489,14.511Zm0-2.962Z" transform="translate(-2.5 -5.625)"/>
</svg>
