<svg xmlns="http://www.w3.org/2000/svg" viewBox="0 0 27.104 25">
  <defs>
    <style>
      .cls-1 {
        fill: #6c757d;
      }
    </style>
  </defs>
  <path id="Path_975" data-name="Path 975" class="cls-1" d="M20.155,11.284s1.1-.833.262-1.667-1.646.242-1.646.242l-8.388,8.389s-1.964,2.535-3.458,1,1-3.459,1-3.459l11-11s2.567-2.827,4.979-.416-.426,4.984-.426,4.984L11.121,21.72s-3.954,4.568-7.614.907.952-7.57.952-7.57l9.382-9.384s1.051-.877.264-1.667-1.666.264-1.666.264L1.673,15.034a6.366,6.366,0,0,0,.474,8.994,6.37,6.37,0,0,0,9,.476l14.8-14.8s2.961-3.265-.569-6.8-6.8-.571-6.8-.571L5.845,15.069s-3.261,2.652-.3,5.609,5.563-.348,5.563-.348Z" transform="translate(0 -1.178)"/>
</svg>
