<svg xmlns="http://www.w3.org/2000/svg" width="20.568" height="20.568" viewBox="0 0 20.568 20.568">
  <defs>
    <style>
      .cls-1 {
        fill: #fff;
      }
    </style>
  </defs>
  <g id="Uhr" transform="translate(-920.446 -921.629)">
    <path id="Subtraction_12" data-name="Subtraction 12" class="cls-1" d="M14231.466,23544.2a10.283,10.283,0,0,1-9.464-14.273,10.281,10.281,0,1,1,16.743,11.254A10.229,10.229,0,0,1,14231.466,23544.2Zm-4.354-12.941a.82.82,0,0,0-.627.248.874.874,0,0,0-.277.586,1.044,1.044,0,0,0,.277.627l3.64,3.639a1,1,0,0,1,.255.189.67.67,0,0,1,.157.025l.01,0a.646.646,0,0,0,.175.029h5.135a.847.847,0,0,0,.585-.248.744.744,0,0,0,.255-.621.777.777,0,0,0-.255-.625.737.737,0,0,0-.585-.248h-4.762l-3.392-3.357A.829.829,0,0,0,14227.111,23531.256Z" transform="translate(-13300.75 -22602)"/>
  </g>
</svg>
