<svg xmlns="http://www.w3.org/2000/svg" width="35.714" height="25" viewBox="0 0 35.714 25">
  <defs>
    <style>
      .cls-1 {
        fill: #fff;
        fill-rule: evenodd;
      }
    </style>
  </defs>
  <path id="view-comfortable" class="cls-1" d="M2,10.357A5.357,5.357,0,0,1,7.357,5h25a5.357,5.357,0,0,1,5.357,5.357V24.643A5.357,5.357,0,0,1,32.357,30h-25A5.357,5.357,0,0,1,2,24.643ZM7.357,8.571h25a1.786,1.786,0,0,1,1.786,1.786v5.357H5.571V10.357A1.786,1.786,0,0,1,7.357,8.571ZM5.571,19.286v5.357a1.786,1.786,0,0,0,1.786,1.786h5.357V19.286Zm10.714,7.143H32.357a1.786,1.786,0,0,0,1.786-1.786V19.286H16.286Z" transform="translate(-2 -5)"/>
</svg>
