<svg xmlns="http://www.w3.org/2000/svg" width="22.925" height="15.003" viewBox="0 0 22.925 15.003">
  <defs>
    <style>
      .cls-1 {
        fill: currentColor;
      }
    </style>
  </defs>
  <g id="Group_3076" data-name="Group 3076" transform="translate(-169.337 -150.27)">
    <g id="Group_3075" data-name="Group 3075" transform="translate(169.337 150.27)">
      <path id="Path_3571" data-name="Path 3571" class="cls-1" d="M178.638,155.027h-4.5a.176.176,0,0,1-.154-.262l1.512-2.709a1.763,1.763,0,0,1,1.54-.9h1.606v-.882h-1.606a2.645,2.645,0,0,0-2.31,1.356l-1.66,2.974-.468-.7a1.137,1.137,0,0,0-.946-.506h-1a1.294,1.294,0,0,0-1.311,1.22,1.259,1.259,0,0,0,1.258,1.3h2.064l-.625,1.244a2.645,2.645,0,0,0-.281,1.187v5.276a1.657,1.657,0,0,0,3.315,0v-.357h3.569Zm-2.688,5.688h-1.705a.529.529,0,0,1-.529-.529v-.353a.529.529,0,0,1,.529-.529h1.573a.529.529,0,0,1,.5.343l.132.353A.529.529,0,0,1,175.95,160.716Z" transform="translate(-169.337 -150.27)"/>
      <path id="Path_3572" data-name="Path 3572" class="cls-1" d="M266.673,153.392H265.62a1.136,1.136,0,0,0-.946.506l-.468.7-1.66-2.974a2.645,2.645,0,0,0-2.31-1.356h-1.6v.882h1.605a1.763,1.763,0,0,1,1.54.9l1.512,2.709a.176.176,0,0,1-.154.262h-4.5v8.232H262.2v.357a1.657,1.657,0,0,0,3.314,0V158.34a2.647,2.647,0,0,0-.281-1.187l-.625-1.244h2.011a1.294,1.294,0,0,0,1.311-1.22A1.259,1.259,0,0,0,266.673,153.392Zm-3.12,6.8a.529.529,0,0,1-.529.529h-1.705a.529.529,0,0,1-.5-.715l.132-.353a.529.529,0,0,1,.5-.343h1.573a.529.529,0,0,1,.529.529Z" transform="translate(-245.007 -150.27)"/>
    </g>
    <rect id="Rectangle_6861" data-name="Rectangle 6861" class="cls-1" width="1.297" height="15.003" transform="translate(180.154 150.27)"/>
  </g>
</svg>
