<svg xmlns="http://www.w3.org/2000/svg" width="18" height="18.001" viewBox="0 0 18 18.001">
  <defs>
    <style>
      .cls-1 {
        fill: currentColor;
      }
    </style>
  </defs>
  <path id="dashboard" class="cls-1" d="M1134.8,2256a.9.9,0,0,1-.9-.9v-6.3a.9.9,0,0,1,.9-.9h6.3a.9.9,0,0,1,.9.9v6.3a.9.9,0,0,1-.9.9Zm.9-1.8h4.5v-4.5h-4.5Zm-10.8,1.8a.9.9,0,0,1-.9-.9v-6.3a.9.9,0,0,1,.9-.9h6.3a.9.9,0,0,1,.9.9v6.3a.9.9,0,0,1-.9.9Zm.9-1.8h4.5v-4.5h-4.5Zm9-8.1a.9.9,0,0,1-.9-.9v-6.3a.9.9,0,0,1,.9-.9h6.3a.9.9,0,0,1,.9.9v6.3a.9.9,0,0,1-.9.9Zm.9-1.8h4.5v-4.5h-4.5Zm-10.8,1.8a.9.9,0,0,1-.9-.9v-6.3a.9.9,0,0,1,.9-.9h6.3a.9.9,0,0,1,.9.9v6.3a.9.9,0,0,1-.9.9Zm.9-1.8h4.5v-4.5h-4.5Z" transform="translate(-1124 -2237.999)"/>
</svg>
