<svg xmlns="http://www.w3.org/2000/svg" width="17.896" height="18.269" viewBox="0 0 17.896 18.269">
  <defs>
    <style>
      .cls-1 {
        fill: currentColor;
      }
    </style>
  </defs>
  <g id="Group_2669" data-name="Group 2669" transform="translate(0)">
    <path id="Path_1301" data-name="Path 1301" class="cls-1" d="M73.506,272.294H71.8a.276.276,0,0,0-.276.277V275H58.147v-2.427a.277.277,0,0,0-.276-.277H56.163a.277.277,0,0,0-.276.277v4.414a.276.276,0,0,0,.276.277H73.506a.276.276,0,0,0,.276-.277v-4.414A.277.277,0,0,0,73.506,272.294Z" transform="translate(-55.887 -258.993)"/>
    <path id="Rectangle_5714" data-name="Rectangle 5714" class="cls-1" d="M1.051,0h3.9A1.051,1.051,0,0,1,6,1.051v0A1.051,1.051,0,0,1,4.95,2.1H1.05A1.05,1.05,0,0,1,0,1.051v0A1.051,1.051,0,0,1,1.051,0Z" transform="translate(5.947 0)"/>
    <path id="Path_1302" data-name="Path 1302" class="cls-1" d="M66.63,241.49l3.1,3.635a.82.82,0,0,0,1.113,0l3.1-3.635,3.1-3.635c.247-.29-.062-.652-.556-.652H73.238v-3a.277.277,0,0,0-.276-.277H67.519a.276.276,0,0,0-.276.277v3H64.084c-.494,0-.8.362-.556.652Z" transform="translate(-61.339 -231.299)"/>
  </g>
</svg>
