<svg xmlns="http://www.w3.org/2000/svg" width="21.875" height="25" viewBox="0 0 21.875 25">
  <defs>
    <style>
      .cls-1 {
        fill: #fff;
      }
    </style>
  </defs>
  <path id="Icon_metro-file-picture" data-name="Icon metro-file-picture" class="cls-1" d="M23.249,23.8H7.624V20.678l4.688-7.812,6.421,7.812,4.517-3.125Zm0-10.156A2.344,2.344,0,1,1,20.9,11.3,2.344,2.344,0,0,1,23.249,13.647Zm2.095-6.126a22.138,22.138,0,0,0-2.128-2.434,22.143,22.143,0,0,0-2.434-2.128,3.894,3.894,0,0,0-2.22-1.03H6.452A1.955,1.955,0,0,0,4.5,3.881V24.975a1.955,1.955,0,0,0,1.953,1.953H24.421a1.955,1.955,0,0,0,1.953-1.953V9.741a3.894,3.894,0,0,0-1.03-2.22ZM22.11,6.191a21.31,21.31,0,0,1,1.772,1.987H20.124V4.42A21.289,21.289,0,0,1,22.11,6.191Zm2.7,18.784a.4.4,0,0,1-.391.391H6.452a.4.4,0,0,1-.391-.391V3.881a.4.4,0,0,1,.391-.391H18.561V8.959a.781.781,0,0,0,.781.781h5.469Z" transform="translate(-4.499 -1.928)"/>
</svg>
