<svg xmlns="http://www.w3.org/2000/svg" width="15" height="10.227" viewBox="0 0 15 10.227">
  <defs>
    <style>
      .cls-1 {
        fill: #0067b8;
      }
    </style>
  </defs>
  <path id="visibility_FILL0_wght400_GRAD0_opsz48" class="cls-1" d="M7.5,8.011a3.136,3.136,0,0,1-.582-.053A2.748,2.748,0,0,1,6.381,7.8a2.714,2.714,0,0,1-.491-.264,3.123,3.123,0,0,1-.814-.814,2.714,2.714,0,0,1-.264-.491A2.748,2.748,0,0,1,4.655,5.7a3.24,3.24,0,0,1,0-1.164A2.748,2.748,0,0,1,4.813,4,2.714,2.714,0,0,1,5.077,3.5a3.123,3.123,0,0,1,.814-.814,2.714,2.714,0,0,1,.491-.264,2.748,2.748,0,0,1,.536-.158,3.24,3.24,0,0,1,1.164,0,2.748,2.748,0,0,1,.536.158,2.714,2.714,0,0,1,.491.264,3.123,3.123,0,0,1,.814.814A2.714,2.714,0,0,1,10.187,4a2.748,2.748,0,0,1,.158.536,3.24,3.24,0,0,1,0,1.164,2.748,2.748,0,0,1-.158.536,2.714,2.714,0,0,1-.264.491,3.123,3.123,0,0,1-.814.814,2.714,2.714,0,0,1-.491.264,2.748,2.748,0,0,1-.536.158A3.136,3.136,0,0,1,7.5,8.011Zm0-.989a2.088,2.088,0,0,0,.385-.035,1.818,1.818,0,0,0,.354-.1,1.783,1.783,0,0,0,.323-.173A2.037,2.037,0,0,0,9.1,6.176a1.783,1.783,0,0,0,.173-.323,1.818,1.818,0,0,0,.1-.354,2.159,2.159,0,0,0,0-.77,1.818,1.818,0,0,0-.1-.354A1.783,1.783,0,0,0,9.1,4.051a2.037,2.037,0,0,0-.535-.535,1.783,1.783,0,0,0-.323-.173,1.818,1.818,0,0,0-.354-.1,2.159,2.159,0,0,0-.77,0,1.818,1.818,0,0,0-.354.1,1.783,1.783,0,0,0-.323.173,2.037,2.037,0,0,0-.535.535,1.783,1.783,0,0,0-.173.323,1.818,1.818,0,0,0-.1.354,2.159,2.159,0,0,0,0,.77,1.818,1.818,0,0,0,.1.354,1.783,1.783,0,0,0,.173.323,2.037,2.037,0,0,0,.535.535,1.783,1.783,0,0,0,.323.173,1.818,1.818,0,0,0,.354.1A2.088,2.088,0,0,0,7.5,7.023Zm0,3.2a8.216,8.216,0,0,0,1.214-.088,7.571,7.571,0,0,0,1.155-.265,7.5,7.5,0,0,0,1.1-.442A7.99,7.99,0,0,0,12,8.813a8.908,8.908,0,0,0,.942-.762,8.483,8.483,0,0,0,.814-.87,8.566,8.566,0,0,0,.686-.979A9.16,9.16,0,0,0,15,5.114a9.16,9.16,0,0,0-.558-1.088,8.493,8.493,0,0,0-1.5-1.849A8.908,8.908,0,0,0,12,1.415,7.99,7.99,0,0,0,10.964.8,7.5,7.5,0,0,0,8.714.088a8.385,8.385,0,0,0-2.429,0A7.5,7.5,0,0,0,4.036.8,7.99,7.99,0,0,0,3,1.415a8.908,8.908,0,0,0-.942.762,8.493,8.493,0,0,0-1.5,1.849A9.16,9.16,0,0,0,0,5.114,9.16,9.16,0,0,0,.558,6.2a8.566,8.566,0,0,0,.686.979,8.483,8.483,0,0,0,.814.87A8.908,8.908,0,0,0,3,8.813a7.99,7.99,0,0,0,1.036.619,7.5,7.5,0,0,0,1.1.442,7.571,7.571,0,0,0,1.155.265A8.216,8.216,0,0,0,7.5,10.227Zm0-5.114ZM7.5,9.2a7.229,7.229,0,0,1-1.01-.07,6.745,6.745,0,0,1-1.9-.558,7.2,7.2,0,0,1-.886-.488,7.559,7.559,0,0,1-.813-.6A7.141,7.141,0,0,1,1.577,6a7.617,7.617,0,0,1-.5-.883,7.617,7.617,0,0,1,.5-.883A7.141,7.141,0,0,1,2.894,2.744a7.558,7.558,0,0,1,.813-.6,7.2,7.2,0,0,1,.886-.488,6.745,6.745,0,0,1,1.9-.558,7.351,7.351,0,0,1,2.021,0,6.745,6.745,0,0,1,1.9.558,7.2,7.2,0,0,1,.886.488,7.644,7.644,0,0,1,.814.6,7.264,7.264,0,0,1,1.325,1.487,7.768,7.768,0,0,1,.511.883A7.768,7.768,0,0,1,13.432,6a7.31,7.31,0,0,1-.612.79,7.269,7.269,0,0,1-.713.7,7.644,7.644,0,0,1-.814.6,7.2,7.2,0,0,1-.886.488,6.745,6.745,0,0,1-1.9.558A7.229,7.229,0,0,1,7.5,9.2Z"/>
</svg>
