<svg xmlns="http://www.w3.org/2000/svg" width="32.742" height="30" viewBox="0 0 32.742 30">
  <defs>
    <style>
      .cls-1 {
        fill: currentColor;
      }
    </style>
  </defs>
  <path id="favorite_FILL0_wght400_GRAD0_opsz48" class="cls-1" d="M20.371,35.3l-1.678-1.514A145.213,145.213,0,0,1,8.011,23.144Q4,18.6,4,13.936A8.459,8.459,0,0,1,12.595,5.3a9.311,9.311,0,0,1,4.134,1A9.717,9.717,0,0,1,20.371,9.6,11.872,11.872,0,0,1,24.1,6.3a8.647,8.647,0,0,1,4.052-1,8.459,8.459,0,0,1,8.595,8.636q0,4.666-4.011,9.209A145.214,145.214,0,0,1,22.049,33.786Zm0-15.389Zm0,12.156q6.221-5.73,10.068-9.945t3.847-8.186a5.952,5.952,0,0,0-6.139-6.18A6.559,6.559,0,0,0,24.3,9.024a9.246,9.246,0,0,0-2.947,3.643H19.348a8.869,8.869,0,0,0-2.926-3.643,6.591,6.591,0,0,0-3.827-1.269A5.946,5.946,0,0,0,8.175,9.5a6.052,6.052,0,0,0-1.719,4.441q0,3.97,3.847,8.186T20.371,32.067Z" transform="translate(-4 -5.3)"/>
</svg>
