<svg xmlns="http://www.w3.org/2000/svg" width="17.426" height="19.537" viewBox="0 0 17.426 19.537">
  <defs>
    <style>
      .cls-1 {
        fill: currentColor;
      }
    </style>
  </defs>
  <path id="Op_component_1" data-name="Op component 1" class="cls-1" d="M1136.107,3526.281a.8.8,0,0,1,.129.01h.14a.782.782,0,0,1,.553.227l5.176,5.19a.723.723,0,0,1,.214.51v9.015a4.621,4.621,0,0,1-4.547,4.583h-8.306a4.6,4.6,0,0,1-4.573-4.389V3530.7a4.618,4.618,0,0,1,4.67-4.405h6.416A.8.8,0,0,1,1136.107,3526.281Zm-.767,1.486h-5.776a3.1,3.1,0,0,0-3.139,2.948v10.518a3.09,3.09,0,0,0,3.075,3.109h8.241a3.122,3.122,0,0,0,3.044-3.1v-8.09h-2.054a3.342,3.342,0,0,1-3.391-3.27Zm.576,10.914a.738.738,0,1,1,0,1.475H1130.4a.738.738,0,1,1,0-1.475Zm-2.09-3.69a.738.738,0,1,1,0,1.475h-3.43a.738.738,0,1,1,0-1.475Zm3.047-6.4v1.285a1.834,1.834,0,0,0,1.86,1.795h1.212Z" transform="translate(-1124.892 -3526.281)"/>
</svg>
