<svg xmlns="http://www.w3.org/2000/svg" width="30" height="30" viewBox="0 0 30 30">
  <defs>
    <style>
      .cls-1 {
        fill: #fff;
      }
    </style>
  </defs>
  <path id="charger_FILL0_wght400_GRAD0_opsz48" class="cls-1" d="M18.325,30.175l6.375-13.5H19.825v-9l-6.375,13.5h4.875ZM19,34a15.214,15.214,0,0,1-5.925-1.144,14.518,14.518,0,0,1-7.931-7.931A15.214,15.214,0,0,1,4,19a15.117,15.117,0,0,1,1.144-5.888A14.64,14.64,0,0,1,8.313,8.35,14.954,14.954,0,0,1,19,4,14.88,14.88,0,0,1,34,19a14.954,14.954,0,0,1-4.35,10.688,14.64,14.64,0,0,1-4.763,3.169A15.117,15.117,0,0,1,19,34Zm0-15Zm0,12.75A12.492,12.492,0,0,0,31.75,19,12.492,12.492,0,0,0,19,6.25,12.492,12.492,0,0,0,6.25,19,12.492,12.492,0,0,0,19,31.75Z" transform="translate(-4 -4)"/>
</svg>
