<svg xmlns="http://www.w3.org/2000/svg" width="100" height="100" viewBox="0 0 100 100">
  <defs>
    <style>
      .cls-1 {
        fill: #321a04;
      }

      .cls-2 {
        fill: #fbb900;
      }

      .cls-3 {
        fill: #fff;
      }
    </style>
  </defs>
  <g id="Group_2756" data-name="Group 2756" transform="translate(-1408 -620)">
    <g id="Group_2745" data-name="Group 2745" transform="translate(341.01 472.23)">
      <path id="Path_3" data-name="Path 3" class="cls-1" d="M1025.9,118.683h-7.913V110.77Z" transform="translate(49 37)"/>
      <path id="Path_4" data-name="Path 4" class="cls-1" d="M1223.963,316.743h-7.913V308.83Z" transform="translate(-56.973 -68.973)"/>
      <path id="Path_8" data-name="Path 8" class="cls-2" d="M1117.99,136.8V210.77l-100-100h73.973A26.029,26.029,0,0,1,1117.99,136.8Z" transform="translate(49 37)"/>
    </g>
    <path id="charger_FILL0_wght400_GRAD0_opsz48" class="cls-3" d="M24.533,41.518l9.138-19.35H26.683V9.267l-9.138,19.35h6.988ZM25.5,47a21.807,21.807,0,0,1-8.493-1.639A20.809,20.809,0,0,1,5.639,33.993,21.807,21.807,0,0,1,4,25.5a21.667,21.667,0,0,1,1.639-8.439,20.983,20.983,0,0,1,4.542-6.826A21.435,21.435,0,0,1,25.5,4,21.328,21.328,0,0,1,47,25.5a21.435,21.435,0,0,1-6.235,15.319,20.984,20.984,0,0,1-6.826,4.542A21.667,21.667,0,0,1,25.5,47Zm0-21.5Zm0,18.275A17.906,17.906,0,0,0,43.775,25.5,17.906,17.906,0,0,0,25.5,7.225,17.906,17.906,0,0,0,7.225,25.5,17.906,17.906,0,0,0,25.5,43.775Z" transform="translate(1453 624)"/>
  </g>
</svg>
