<svg xmlns="http://www.w3.org/2000/svg" width="15.5" height="15.5" viewBox="0 0 15.5 15.5">
  <defs>
    <style>
      .cls-1 {
        fill: #c6c6c6;
      }
    </style>
  </defs>
  <g id="Group_2755" data-name="Group 2755" transform="translate(-710.25 -845)">
    <path id="Exclusion_14" data-name="Exclusion 14" class="cls-1" d="M7.75,15.5a7.547,7.547,0,0,1-3.875-1.047,7.867,7.867,0,0,1-2.829-2.828A7.553,7.553,0,0,1,0,7.75,7.547,7.547,0,0,1,1.047,3.875,7.872,7.872,0,0,1,3.875,1.047,7.547,7.547,0,0,1,7.75,0a7.553,7.553,0,0,1,3.875,1.047,7.867,7.867,0,0,1,2.828,2.829A7.547,7.547,0,0,1,15.5,7.75a7.553,7.553,0,0,1-1.047,3.875,7.862,7.862,0,0,1-2.828,2.828A7.553,7.553,0,0,1,7.75,15.5Zm0-14a6.093,6.093,0,0,0-3.125.843A6.33,6.33,0,0,0,2.344,4.625a6.211,6.211,0,0,0,0,6.25,6.33,6.33,0,0,0,2.281,2.281,6.205,6.205,0,0,0,6.25,0,6.33,6.33,0,0,0,2.281-2.281,6.205,6.205,0,0,0,0-6.25,6.33,6.33,0,0,0-2.281-2.281A6.092,6.092,0,0,0,7.75,1.5Z" transform="translate(710.25 845)"/>
    <path id="Path" class="cls-1" d="M4.531,3.281,6.469,5.219a.457.457,0,0,1,.094.281.338.338,0,0,1-.094.25l-.719.719a.338.338,0,0,1-.25.094.457.457,0,0,1-.281-.094L3.281,4.531,1.344,6.469a.457.457,0,0,1-.281.094.338.338,0,0,1-.25-.094L.094,5.75A.338.338,0,0,1,0,5.5a.457.457,0,0,1,.094-.281L2.031,3.281.094,1.344A.457.457,0,0,1,0,1.062.338.338,0,0,1,.094.812L.812.094A.338.338,0,0,1,1.062,0a.457.457,0,0,1,.281.094L3.281,2.031,5.219.094A.457.457,0,0,1,5.5,0a.338.338,0,0,1,.25.094l.719.719a.338.338,0,0,1,.094.25.457.457,0,0,1-.094.281Z" transform="translate(714.719 849.469)"/>
  </g>
</svg>
