<svg xmlns="http://www.w3.org/2000/svg" width="20" height="20" viewBox="0 0 20 20">
  <g id="Group_2675" data-name="Group 2675" transform="translate(-730 -643)">
    <circle id="Ellipse_222" data-name="Ellipse 222" cx="10" cy="10" r="10" transform="translate(730 643)" fill="#29d62f"/>
    <g id="Group_2672" data-name="Group 2672" transform="translate(734 647)">
      <path id="Path_1303" data-name="Path 1303" d="M855.523,694.641a7.282,7.282,0,0,0-1.122.109,3.385,3.385,0,0,0-.979.265,4.436,4.436,0,0,0-.891.788,17.081,17.081,0,0,0-1.5,1.929c-.6.864-1.127,1.7-1.571,2.5-.4.71-.8,1.491-1.206,2.323a4.148,4.148,0,0,0-.889-.859,2,2,0,0,0-1.109-.4,1.973,1.973,0,0,0-1.148.459,1.352,1.352,0,0,0-.642,1.072,1.727,1.727,0,0,0,.563,1.059,13.24,13.24,0,0,1,1.323,1.669,6.8,6.8,0,0,0,.509.72,1.053,1.053,0,0,0,.428.282,2.718,2.718,0,0,0,.834.088,2.555,2.555,0,0,0,1.135-.177,1.294,1.294,0,0,0,.514-.506,12.085,12.085,0,0,0,.528-1.188,29.239,29.239,0,0,1,2.459-4.717,19.005,19.005,0,0,1,2.97-3.748,2.753,2.753,0,0,0,.447-.474.8.8,0,0,0,.121-.436.737.737,0,0,0-.215-.532A.752.752,0,0,0,855.523,694.641Z" transform="translate(-844.467 -694.641)" fill="#fff"/>
    </g>
  </g>
</svg>
