<svg xmlns="http://www.w3.org/2000/svg" width="15.5" height="15.5" viewBox="0 0 15.5 15.5">
  <defs>
    <style>
      .cls-1 {
        fill: #54c400;
      }
    </style>
  </defs>
  <g id="Group_2754" data-name="Group 2754" transform="translate(-710.25 -755)">
    <path id="Exclusion_11" data-name="Exclusion 11" class="cls-1" d="M7.75,15.5a7.547,7.547,0,0,1-3.875-1.047,7.867,7.867,0,0,1-2.829-2.828A7.553,7.553,0,0,1,0,7.75,7.547,7.547,0,0,1,1.047,3.875,7.872,7.872,0,0,1,3.875,1.047,7.547,7.547,0,0,1,7.75,0a7.553,7.553,0,0,1,3.875,1.047,7.867,7.867,0,0,1,2.828,2.829A7.547,7.547,0,0,1,15.5,7.75a7.553,7.553,0,0,1-1.047,3.875,7.862,7.862,0,0,1-2.828,2.828A7.553,7.553,0,0,1,7.75,15.5Zm0-14a6.093,6.093,0,0,0-3.125.843A6.33,6.33,0,0,0,2.344,4.625a6.211,6.211,0,0,0,0,6.25,6.33,6.33,0,0,0,2.281,2.281,6.205,6.205,0,0,0,6.25,0,6.33,6.33,0,0,0,2.281-2.281,6.205,6.205,0,0,0,0-6.25,6.33,6.33,0,0,0-2.281-2.281A6.092,6.092,0,0,0,7.75,1.5Z" transform="translate(710.25 755)"/>
    <path id="Path" class="cls-1" d="M8.875.812A.389.389,0,0,1,9,1.094a.3.3,0,0,1-.125.25L3.5,6.687a.389.389,0,0,1-.281.125.3.3,0,0,1-.25-.125L.125,3.844A.389.389,0,0,1,0,3.562a.3.3,0,0,1,.125-.25l.719-.719a.338.338,0,0,1,.25-.094.457.457,0,0,1,.281.094L3.219,4.5,7.656.094A.338.338,0,0,1,7.906,0a.389.389,0,0,1,.281.125Z" transform="translate(713.5 759.75)"/>
  </g>
</svg>
