<svg xmlns="http://www.w3.org/2000/svg" width="20" height="20" viewBox="0 0 20 20">
  <defs>
    <style>
      .cls-1 {
        fill: currentColor;
      }
    </style>
  </defs>
  <g id="home" transform="translate(-364 -438.492)">
    <path id="Form_31" data-name="Form 31" class="cls-1" d="M381.025,443.99c-.025,0-.049,0-.074,0h-.006a.761.761,0,0,0-.553.3l-6.836,6.4-2.3,2.154a.823.823,0,0,0-.056,1.13.749.749,0,0,0,1.087.059l.254-.237v7a14.328,14.328,0,0,0,.042,1.473,1.944,1.944,0,0,0,.473,1.189,1.8,1.8,0,0,0,1.143.494,12.778,12.778,0,0,0,1.418.044h.769a12.781,12.781,0,0,0,1.418-.044,1.8,1.8,0,0,0,1.143-.494,1.944,1.944,0,0,0,.473-1.189,14.335,14.335,0,0,0,.042-1.473v-1.6c0-.6,0-1.036.032-1.295a1.317,1.317,0,0,1,.041-.23,1.173,1.173,0,0,1,.221-.042c.249-.029.67-.033,1.245-.033s1,0,1.245.033a1.168,1.168,0,0,1,.221.042,1.3,1.3,0,0,1,.041.23c.028.259.032.7.032,1.295v1.6a14.3,14.3,0,0,0,.042,1.475,1.944,1.944,0,0,0,.475,1.188,1.8,1.8,0,0,0,1.143.492,12.769,12.769,0,0,0,1.417.044h.769a12.738,12.738,0,0,0,1.418-.044,1.8,1.8,0,0,0,1.143-.494,1.944,1.944,0,0,0,.473-1.189,14.346,14.346,0,0,0,.042-1.473v-7l.254.237a.749.749,0,0,0,1.087-.059.822.822,0,0,0-.056-1.13h0l-2.3-2.154-6.833-6.394v0a.76.76,0,0,0-.583-.3ZM381,445.875l3.131,2.928,3.286,3.074a1.628,1.628,0,0,1,.506,1.185v7.728c0,.6,0,1.036-.032,1.295a1.3,1.3,0,0,1-.04.23,1.17,1.17,0,0,1-.221.042c-.249.029-.67.033-1.245.033h-.769c-.575,0-1,0-1.245-.033a1.2,1.2,0,0,1-.221-.042,1.3,1.3,0,0,1-.041-.23c-.028-.259-.031-.7-.031-1.295v-1.6a14.361,14.361,0,0,0-.042-1.473,1.944,1.944,0,0,0-.473-1.189,1.8,1.8,0,0,0-1.143-.494,23.035,23.035,0,0,0-2.836,0,1.8,1.8,0,0,0-1.143.494,1.944,1.944,0,0,0-.473,1.189,14.351,14.351,0,0,0-.042,1.473v1.6c0,.6,0,1.036-.031,1.295a1.323,1.323,0,0,1-.04.23,1.172,1.172,0,0,1-.221.042c-.249.029-.67.033-1.245.033h-.769c-.575,0-1,0-1.245-.033a1.158,1.158,0,0,1-.221-.042,1.31,1.31,0,0,1-.041-.23c-.028-.259-.032-.7-.032-1.295v-7.728a1.627,1.627,0,0,1,.509-1.188l3.283-3.071L381,445.875Z" transform="translate(-7 -5.498)"/>
  </g>
</svg>
