<svg xmlns="http://www.w3.org/2000/svg" width="40" height="40" viewBox="0 0 40 40">
  <defs>
    <style>
      .cls-1 {
        fill: currentColor;
        stroke: #f1f2f3;
        stroke-linejoin: round;
        stroke-width: 2px;
      }

      .cls-2 {
        fill: #6c757d;
      }

      .cls-3 {
        stroke: none;
      }

      .cls-4 {
        fill: none;
      }
    </style>
  </defs>
  <g id="home" transform="translate(-354 -428.492)">
    <g id="form" class="cls-1" transform="translate(354 428.492)">
      <rect class="cls-3" width="40" height="40" rx="10"/>
      <rect class="cls-4" x="1" y="1" width="38" height="38" rx="9"/>
    </g>
    <path id="Form_31" data-name="Form 31" class="cls-2" d="M379.8,443.99c-.022,0-.043,0-.065,0h-.005a.675.675,0,0,0-.485.25l-6,5.4-2.021,1.818a.675.675,0,0,0,.9,1l.223-.2v5.908a11.638,11.638,0,0,0,.037,1.243,1.42,1.42,0,0,0,1.418,1.42,11.656,11.656,0,0,0,1.244.037h.675a11.658,11.658,0,0,0,1.244-.037,1.42,1.42,0,0,0,1.418-1.42,11.645,11.645,0,0,0,.037-1.243v-1.35c0-.5,0-.874.028-1.093a1.07,1.07,0,0,1,.036-.194,1.059,1.059,0,0,1,.194-.036c.219-.025.588-.028,1.093-.028s.874,0,1.093.028a.174.174,0,0,1,.229.229c.025.219.028.588.028,1.093v1.35a11.606,11.606,0,0,0,.037,1.244,1.42,1.42,0,0,0,1.419,1.418,11.649,11.649,0,0,0,1.243.037h.675a11.629,11.629,0,0,0,1.244-.037,1.42,1.42,0,0,0,1.418-1.42,11.646,11.646,0,0,0,.037-1.243v-5.908l.223.2a.675.675,0,1,0,.9-1h0l-2.021-1.818-5.995-5.4h0a.675.675,0,0,0-.511-.253Zm-.022,1.591,2.747,2.471,2.883,2.594a1.349,1.349,0,0,1,.444,1v6.522c0,.5,0,.874-.028,1.093a.173.173,0,0,1-.229.229c-.219.025-.588.028-1.093.028h-.675c-.5,0-.874,0-1.093-.028a1.081,1.081,0,0,1-.194-.036,1.06,1.06,0,0,1-.036-.194c-.025-.219-.028-.588-.028-1.093v-1.35a11.661,11.661,0,0,0-.037-1.243,1.42,1.42,0,0,0-1.418-1.42,21,21,0,0,0-2.489,0,1.42,1.42,0,0,0-1.418,1.42,11.651,11.651,0,0,0-.037,1.243v1.35c0,.5,0,.874-.028,1.093a1.079,1.079,0,0,1-.036.194,1.063,1.063,0,0,1-.194.036c-.219.025-.588.028-1.093.028h-.675c-.5,0-.874,0-1.093-.028a1.053,1.053,0,0,1-.194-.036,1.068,1.068,0,0,1-.036-.194c-.025-.219-.028-.588-.028-1.093v-6.522a1.349,1.349,0,0,1,.447-1l2.88-2.591,2.747-2.471Z" transform="translate(-5.527 -5.199)"/>
  </g>
</svg>
