<svg id="info" xmlns="http://www.w3.org/2000/svg" width="20" height="20" viewBox="0 0 20 20">
  <defs>
    <style>
      .cls-1 {
        fill: #0067b8;
      }
    </style>
  </defs>
  <g id="Group_1655" data-name="Group 1655">
    <g id="Group_1654" data-name="Group 1654">
      <path id="Path_1097" data-name="Path 1097" class="cls-1" d="M10,0A10,10,0,1,0,20,10,9.994,9.994,0,0,0,10,0Zm0,18.6A8.6,8.6,0,1,1,18.6,10,8.614,8.614,0,0,1,10,18.6Z"/>
    </g>
  </g>
  <g id="Group_1657" data-name="Group 1657" transform="translate(9.011 8.426)">
    <g id="Group_1656" data-name="Group 1656">
      <path id="Path_1098" data-name="Path 1098" class="cls-1" d="M231.049,213.4c-.578,0-.99.244-.99.6v4.9c0,.308.411.617.99.617.553,0,1-.308,1-.617V214C232.051,213.641,231.6,213.4,231.049,213.4Z" transform="translate(-230.059 -213.397)"/>
    </g>
  </g>
  <g id="Group_1659" data-name="Group 1659" transform="translate(8.946 5.255)">
    <g id="Group_1658" data-name="Group 1658">
      <path id="Path_1099" data-name="Path 1099" class="cls-1" d="M229.429,134.208a.926.926,0,1,0,1.041.912A1,1,0,0,0,229.429,134.208Z" transform="translate(-228.375 -134.208)"/>
    </g>
  </g>
</svg>
