<svg id="instagram" xmlns="http://www.w3.org/2000/svg" width="40" height="40" viewBox="0 0 40 40">
  <defs>
    <style>
      .cls-1 {
        fill: #6c757d;
      }
    </style>
  </defs>
  <path id="Path_984" data-name="Path 984" class="cls-1" d="M214.082,210.541A3.541,3.541,0,1,1,210.541,207,3.541,3.541,0,0,1,214.082,210.541Zm0,0" transform="translate(-190.541 -190.541)"/>
  <path id="Path_985" data-name="Path 985" class="cls-1" d="M152.475,137.932a3.518,3.518,0,0,0-2.016-2.016,5.878,5.878,0,0,0-1.972-.366c-1.12-.051-1.456-.062-4.293-.062s-3.173.011-4.293.062a5.881,5.881,0,0,0-1.972.366,3.519,3.519,0,0,0-2.016,2.016,5.88,5.88,0,0,0-.366,1.973c-.051,1.12-.062,1.456-.062,4.293s.011,3.172.062,4.293a5.877,5.877,0,0,0,.366,1.972,3.518,3.518,0,0,0,2.016,2.016,5.871,5.871,0,0,0,1.973.366c1.12.051,1.456.062,4.292.062s3.173-.011,4.293-.062a5.87,5.87,0,0,0,1.973-.366,3.518,3.518,0,0,0,2.016-2.016,5.883,5.883,0,0,0,.366-1.972c.051-1.12.062-1.456.062-4.293s-.011-3.173-.062-4.293A5.87,5.87,0,0,0,152.475,137.932Zm-8.281,11.72a5.455,5.455,0,1,1,5.455-5.455A5.455,5.455,0,0,1,144.194,149.652Zm5.671-9.851a1.275,1.275,0,1,1,1.275-1.275A1.275,1.275,0,0,1,149.864,139.8Zm0,0" transform="translate(-124.194 -124.197)"/>
  <path id="Path_986" data-name="Path 986" class="cls-1" d="M20,0A20,20,0,1,0,40,20,20,20,0,0,0,20,0ZM31.415,24.735a8.426,8.426,0,0,1-.534,2.788,5.872,5.872,0,0,1-3.359,3.359,8.432,8.432,0,0,1-2.787.534c-1.225.056-1.616.069-4.735.069s-3.51-.013-4.735-.069a8.432,8.432,0,0,1-2.787-.534,5.872,5.872,0,0,1-3.359-3.359,8.424,8.424,0,0,1-.534-2.787c-.056-1.225-.07-1.616-.07-4.735s.013-3.51.069-4.735a8.427,8.427,0,0,1,.533-2.788,5.876,5.876,0,0,1,3.359-3.359,8.434,8.434,0,0,1,2.788-.534c1.225-.056,1.616-.069,4.735-.069s3.51.013,4.735.07a8.435,8.435,0,0,1,2.788.533,5.874,5.874,0,0,1,3.359,3.359,8.425,8.425,0,0,1,.534,2.788c.056,1.225.069,1.616.069,4.735S31.471,23.51,31.415,24.735Zm0,0"/>
</svg>
