<svg xmlns="http://www.w3.org/2000/svg" width="7.972" height="16.006" viewBox="0 0 7.972 16.006">
  <defs>
    <style>
      .cls-1 {
        fill: #6c757d;
        stroke: #6c757d;
        fill-rule: evenodd;
      }
    </style>
  </defs>
  <path id="Path_3583" data-name="Path 3583" class="cls-1" d="M2017.168,299.052a.352.352,0,0,1-.352-.352V284.4a.352.352,0,1,1,.7,0v14.3a.352.352,0,0,1-.352.352Zm-3.134-11.979a.352.352,0,0,1-.352-.352v-1.3a.352.352,0,1,1,.7,0v1.3a.352.352,0,0,1-.352.352Zm0,3.654a.352.352,0,0,1-.352-.352v-1.3a.352.352,0,1,1,.7,0v1.3a.352.352,0,0,1-.352.352Zm0,3.654a.352.352,0,0,1-.352-.352v-1.3a.352.352,0,0,1,.7,0v1.3a.352.352,0,0,1-.352.352Zm0,3.654a.352.352,0,0,1-.352-.352v-1.305a.352.352,0,1,1,.7,0v1.305a.352.352,0,0,1-.352.352Zm-3.134,1.018a.352.352,0,0,1-.352-.352V284.4a.352.352,0,1,1,.7,0v14.3A.352.352,0,0,1,2010.9,299.052Z" transform="translate(-2010.048 -283.546)"/>
</svg>
