<svg xmlns="http://www.w3.org/2000/svg" width="27.5" height="25" viewBox="0 0 27.5 25">
  <defs>
    <style>
      .cls-1 {
        fill: #fff;
        fill-rule: evenodd;
      }
    </style>
  </defs>
  <path id="list" class="cls-1" d="M24.75,4.5h-20A1.25,1.25,0,0,0,3.5,5.75v17.5A1.25,1.25,0,0,0,4.75,24.5h20A1.25,1.25,0,0,0,26,23.25V5.75A1.25,1.25,0,0,0,24.75,4.5ZM4.75,2A3.75,3.75,0,0,0,1,5.75v17.5A3.75,3.75,0,0,0,4.75,27h20a3.75,3.75,0,0,0,3.75-3.75V5.75A3.75,3.75,0,0,0,24.75,2Zm2.5,6.25h2.5v2.5H7.25Zm6.25,0a1.25,1.25,0,0,0,0,2.5H21a1.25,1.25,0,1,0,0-2.5Zm-3.75,5H7.25v2.5h2.5Zm2.5,1.25a1.25,1.25,0,0,1,1.25-1.25H21a1.25,1.25,0,1,1,0,2.5H13.5A1.25,1.25,0,0,1,12.25,14.5Zm-2.5,3.75H7.25v2.5h2.5Zm2.5,1.25a1.25,1.25,0,0,1,1.25-1.25H21a1.25,1.25,0,1,1,0,2.5H13.5A1.25,1.25,0,0,1,12.25,19.5Z" transform="translate(-1 -2)"/>
</svg>
