<svg xmlns="http://www.w3.org/2000/svg" width="30" height="30" viewBox="0 0 30 30">
  <defs>
    <style>
      .cls-1 {
        fill: #f1f2f3;
      }

      .cls-2 {
        fill: none;
        stroke: #6c757d;
        stroke-linecap: round;
        stroke-width: 2px;
      }

      .cls-3, .cls-4 {
        stroke: none;
      }

      .cls-4 {
        fill: #6c757d;
      }
    </style>
  </defs>
  <g id="Group_3059" data-name="Group 3059" transform="translate(-20 -136)">
    <g id="form" class="cls-1" transform="translate(20 136)">
      <path class="cls-3" d="M 20 29 L 10 29 C 5.037380218505859 29 1 24.96261978149414 1 20 L 1 10 C 1 5.037380218505859 5.037380218505859 1 10 1 L 20 1 C 24.96261978149414 1 29 5.037380218505859 29 10 L 29 20 C 29 24.96261978149414 24.96261978149414 29 20 29 Z"/>
      <path class="cls-4" d="M 10 2 C 5.588790893554688 2 2 5.588790893554688 2 10 L 2 20 C 2 24.41120910644531 5.588790893554688 28 10 28 L 20 28 C 24.41120910644531 28 28 24.41120910644531 28 20 L 28 10 C 28 5.588790893554688 24.41120910644531 2 20 2 L 10 2 M 10 0 L 20 0 C 25.52285003662109 0 30 4.477149963378906 30 10 L 30 20 C 30 25.52285003662109 25.52285003662109 30 20 30 L 10 30 C 4.477149963378906 30 0 25.52285003662109 0 20 L 0 10 C 0 4.477149963378906 4.477149963378906 0 10 0 Z"/>
    </g>
    <g id="Group_2967" data-name="Group 2967" transform="translate(19746.5 -5584.5)">
      <line id="Line_1283" data-name="Line 1283" class="cls-2" x2="12.5" transform="translate(-19717.5 5730.5)"/>
      <line id="Line_1284" data-name="Line 1284" class="cls-2" x2="12.5" transform="translate(-19717.5 5735.5)"/>
      <line id="Line_1285" data-name="Line 1285" class="cls-2" x2="12.5" transform="translate(-19717.5 5740.5)"/>
    </g>
  </g>
</svg>
