<svg xmlns="http://www.w3.org/2000/svg" width="21.999" height="20.44" viewBox="0 0 21.999 20.44">
  <defs>
    <style>
      .cls-1 {
        fill: none;
        stroke: currentColor;
        stroke-width: 2px;
      }

      .cls-2 {
        fill: currentColor;
      }
    </style>
  </defs>
  <g id="Group_3101" data-name="Group 3101" transform="translate(-312 -291.004)">
    <path id="Union_114" data-name="Union 114" class="cls-1" d="M5.14,13.848H3a3,3,0,0,1-3-3V3A3,3,0,0,1,3,0H17a3,3,0,0,1,3,3v7.849a3,3,0,0,1-3,3H8.871L4.014,16.994Z" transform="translate(313 292.004)"/>
    <g id="Group_3100" data-name="Group 3100" transform="translate(316.977 297.219)">
      <circle id="Ellipse_258" data-name="Ellipse 258" class="cls-2" cx="1.642" cy="1.642" r="1.642" transform="translate(0 0)"/>
      <circle id="Ellipse_259" data-name="Ellipse 259" class="cls-2" cx="1.642" cy="1.642" r="1.642" transform="translate(4.379 0)"/>
      <circle id="Ellipse_260" data-name="Ellipse 260" class="cls-2" cx="1.642" cy="1.642" r="1.642" transform="translate(8.757 0)"/>
    </g>
  </g>
</svg>
