<svg xmlns="http://www.w3.org/2000/svg" width="87.029" height="75" viewBox="0 0 87.029 75">
  <defs>
    <style>
      .cls-1 {
        fill: #6c757d;
      }
    </style>
  </defs>
  <path id="Union_85" data-name="Union 85" class="cls-1" d="M20838.52,22722.473a17.916,17.916,0,0,1-17.836-17.953v-5.227h9.033v5.227a8.838,8.838,0,0,0,8.8,8.859h26.637a8.839,8.839,0,0,0,8.8-8.859v-39.09a8.843,8.843,0,0,0-8.8-8.867h-26.637a8.842,8.842,0,0,0-8.8,8.867v4.316h-9.033v-4.316a17.917,17.917,0,0,1,17.836-17.957h26.637a17.913,17.913,0,0,1,17.83,17.957v39.09a17.912,17.912,0,0,1-17.83,17.953Zm-42.562-37.8,20.977-17.656v10.094h26.783v14.414h-26.783v11.172Z" transform="translate(-20795.957 -22647.473)"/>
</svg>
