<svg xmlns="http://www.w3.org/2000/svg" width="14.688" height="18" viewBox="0 0 14.688 18">
  <defs>
    <style>
      .cls-1 {
        fill: currentColor;
      }
    </style>
  </defs>
  <path id="Union_113" data-name="Union 113" class="cls-1" d="M19642.459,24919a2.119,2.119,0,0,0,1.5-.584,1.8,1.8,0,0,0,.625-1.363h-4.289a1.779,1.779,0,0,0,.645,1.363A2.192,2.192,0,0,0,19642.459,24919Zm-7.363-4h14.688v-2.051h-1.516v-3.926a6.455,6.455,0,0,0-1.2-3.795,4.949,4.949,0,0,0-3.355-2.08v-1.027a1.025,1.025,0,0,0-.363-.8,1.264,1.264,0,0,0-.891-.324,1.34,1.34,0,0,0-.91.324,1,1,0,0,0-.379.8v1.027a5.042,5.042,0,0,0-3.359,2.014,6.056,6.056,0,0,0-1.2,3.652v4.135h-1.52Zm3.8-2.051v-4.338a3.183,3.183,0,0,1,1-2.373,3.535,3.535,0,0,1,2.563-.975,3.457,3.457,0,0,1,2.543.975,3.213,3.213,0,0,1,.988,2.373v4.338Zm3.566-2.971Z" transform="translate(-19635.096 -24901.002)"/>
</svg>
