<svg xmlns="http://www.w3.org/2000/svg" width="30" height="30" viewBox="0 0 30 30">
  <defs>
    <style>
      .cls-1 {
        fill: #fff;
      }
    </style>
  </defs>
  <g id="paper-plane" transform="translate(0)">
    <g id="Group_1451" data-name="Group 1451" transform="translate(0 0)">
      <path id="Path_1079" data-name="Path 1079" class="cls-1" d="M29.708.123A.68.68,0,0,0,28.98.09L.344,16.454a.682.682,0,0,0,.123,1.239l8.551,2.85,3.3,9.01a.682.682,0,0,0,.64.447.622.622,0,0,0,.079,0,.673.673,0,0,0,.449-.258l.007.005,4.851-6.093,6.673,2.224a.669.669,0,0,0,.216.035.682.682,0,0,0,.673-.57L29.991.794A.681.681,0,0,0,29.708.123ZM2.345,16.881,25.032,3.916,9.367,19.222ZM13.366,21.05a.683.683,0,0,0-.128.324l-.616,5.048L10.337,20.18,23.672,7.152Zm.558,5.957.566-4.64,2.472.824Zm10.763-2.678-9.664-3.221L28.18,3.362Z" transform="translate(0 0)"/>
    </g>
  </g>
</svg>
