<svg xmlns="http://www.w3.org/2000/svg" width="20" height="20" viewBox="0 0 20 20">
  <defs>
    <style>
      .cls-1 {
        fill: #f1f2f3;
      }
    </style>
  </defs>
  <path id="Path_1075" data-name="Path 1075" class="cls-1" d="M18.643,5.313H17.5c.007-.086,0,.236,0-3.955A1.359,1.359,0,0,0,16.143,0H3.857A1.359,1.359,0,0,0,2.5,1.357c0,4.183,0,3.869,0,3.955H1.357A1.359,1.359,0,0,0,0,6.67v7.286a1.359,1.359,0,0,0,1.357,1.357h3.33v3.33A1.359,1.359,0,0,0,6.045,20h7.911a1.359,1.359,0,0,0,1.357-1.357v-3.33h3.33A1.359,1.359,0,0,0,20,13.955V6.67a1.359,1.359,0,0,0-1.357-1.357ZM3.75,5.205V1.357a.107.107,0,0,1,.107-.107H16.143a.107.107,0,0,1,.107.107V5.205a.107.107,0,0,1-.107.107H3.857a.107.107,0,0,1-.107-.107ZM14.062,18.643a.107.107,0,0,1-.107.107H6.045a.107.107,0,0,1-.107-.107V12.295a.107.107,0,0,1,.107-.107h7.911a.107.107,0,0,1,.107.107Zm4.688-4.687a.107.107,0,0,1-.107.107h-3.33V12.295a1.359,1.359,0,0,0-1.357-1.357H6.045a1.359,1.359,0,0,0-1.357,1.357v1.768H1.357a.107.107,0,0,1-.107-.107V6.67a.107.107,0,0,1,.107-.107H18.643a.107.107,0,0,1,.107.107Z" transform="translate(0 0)"/>
</svg>
