<svg xmlns="http://www.w3.org/2000/svg" width="20" height="10" viewBox="0 0 20 10">
  <defs>
    <style>
      .cls-1 {
        fill: #6c757d;
      }
    </style>
  </defs>
  <g id="Group_3080" data-name="Group 3080" transform="translate(-660.012 -366.791)">
    <path id="Path_3578" data-name="Path 3578" class="cls-1" d="M670.012,366.791a10,10,0,0,0-10,10h2.649V376h-1.236a8.593,8.593,0,0,1,2.408-5.223l.7.7.559-.559-.683-.682a8.584,8.584,0,0,1,5.205-2.059v1h.791v-1a8.583,8.583,0,0,1,5.205,2.059l-.683.682.559.559.7-.7A8.592,8.592,0,0,1,678.6,376h-1.236v.791h2.65A10,10,0,0,0,670.012,366.791Z"/>
    <path id="Path_3579" data-name="Path 3579" class="cls-1" d="M703.111,405.409a1.9,1.9,0,0,0-.583.091l-4.336-3.5,3.381,4.19a1.894,1.894,0,0,0-.369,1.124h3.812A1.906,1.906,0,0,0,703.111,405.409Z" transform="translate(-33.099 -30.524)"/>
  </g>
</svg>
