<svg xmlns="http://www.w3.org/2000/svg" width="20" height="20" viewBox="0 0 20 20">
  <defs>
    <style>
      .cls-1 {
        fill: #0067b8;
      }
    </style>
  </defs>
  <path id="question" class="cls-1" d="M10.782,15.7H9.219V14.142h1.563Zm0-4.565A3.257,3.257,0,1,0,7.709,5.647a3.2,3.2,0,0,0-.99,2.323H8.282a1.649,1.649,0,0,1,.511-1.2,1.729,1.729,0,0,1,1.276-.481,1.687,1.687,0,0,1,.309,3.338,1.461,1.461,0,0,0-1.158,1.433v1.517h1.563Zm6.29,5.933A10,10,0,1,0,2.929,2.93,10,10,0,1,0,17.071,17.072ZM18.438,10A8.438,8.438,0,1,1,10,1.564,8.447,8.447,0,0,1,18.438,10Zm0,0" transform="translate(0 -0.001)"/>
</svg>
