<svg xmlns="http://www.w3.org/2000/svg" width="20.001" height="24.881" viewBox="0 0 20.001 24.881">
  <defs>
    <style>
      .cls-1 {
        fill: #6c757d;
      }
    </style>
  </defs>
  <path id="Path_1320" data-name="Path 1320" class="cls-1" d="M211.014,542.989h-.593v-2.682a7.213,7.213,0,1,0-14.425,0v2.682H195.4a2.2,2.2,0,0,0-2.2,2.213v10.5a2.205,2.205,0,0,0,2.2,2.214h15.611a2.2,2.2,0,0,0,2.195-2.214V545.2A2.2,2.2,0,0,0,211.014,542.989Zm-6.886,7.607v1.373a.37.37,0,0,1-.368.372h-1.1a.37.37,0,0,1-.368-.372V550.6a1.761,1.761,0,1,1,1.84,0Zm3.131-7.607h-8.1v-2.682a4.05,4.05,0,1,1,8.1,0Z" transform="translate(-193.208 -533.036)"/>
</svg>
