<svg xmlns="http://www.w3.org/2000/svg" width="30.556" height="25" viewBox="0 0 30.556 25">
  <defs>
    <style>
      .cls-1 {
        fill: #fff;
        fill-rule: evenodd;
      }
    </style>
  </defs>
  <path id="screen" class="cls-1" d="M14.889,22.444H5.167A4.167,4.167,0,0,1,1,18.278V7.167A4.167,4.167,0,0,1,5.167,3H27.389a4.167,4.167,0,0,1,4.167,4.167V18.278a4.167,4.167,0,0,1-4.167,4.167H17.667v2.778h4.167a1.389,1.389,0,0,1,0,2.778H10.722a1.389,1.389,0,0,1,0-2.778h4.167ZM5.167,5.778H27.389a1.389,1.389,0,0,1,1.389,1.389V18.278a1.389,1.389,0,0,1-1.389,1.389H5.167a1.389,1.389,0,0,1-1.389-1.389V7.167A1.389,1.389,0,0,1,5.167,5.778Z" transform="translate(-1 -3)"/>
</svg>
