<svg xmlns="http://www.w3.org/2000/svg" width="20" height="20" viewBox="0 0 20 20">
  <defs>
    <style>
      .cls-1 {
        fill: currentColor;
      }
    </style>
  </defs>
  <path id="settings_Kopie" data-name="settings Kopie" class="cls-1" d="M1131.567,2904.5a.583.583,0,0,0-.4-.571.538.538,0,0,0-.591.1l-.05.05a2.5,2.5,0,1,1-3.537-3.537l.043-.043a.544.544,0,0,0,.1-.6.538.538,0,0,0-.492-.328h-.142a2.5,2.5,0,0,1,0-5,.582.582,0,0,0,.571-.4.538.538,0,0,0-.1-.591l-.05-.049a2.5,2.5,0,0,1,3.537-3.537l.043.043a.541.541,0,0,0,.6.109.828.828,0,0,1,.166-.053.539.539,0,0,0,.238-.443v-.142a2.5,2.5,0,1,1,5,0v.072a.554.554,0,0,0,.928.4l.05-.05a2.5,2.5,0,1,1,3.537,3.537l-.043.044a.542.542,0,0,0-.108.6.845.845,0,0,1,.053.165.539.539,0,0,0,.443.237h.142a2.5,2.5,0,1,1,0,5h-.071a.553.553,0,0,0-.4.928l.049.049a2.5,2.5,0,1,1-3.536,3.538l-.044-.044a.553.553,0,0,0-.934.388v.142a2.5,2.5,0,0,1-5,0Zm.22-2.116a2.216,2.216,0,0,1,1.446,2.041v.075a.833.833,0,0,0,1.666,0v-.145a2.219,2.219,0,0,1,3.772-1.569l.05.049a.834.834,0,1,0,1.18-1.18l-.056-.056a2.219,2.219,0,0,1,1.579-3.766h.075a.833.833,0,0,0,0-1.667h-.145a2.209,2.209,0,0,1-2.021-1.339.814.814,0,0,1-.06-.22,2.212,2.212,0,0,1,.511-2.28l.051-.05a.834.834,0,1,0-1.181-1.179l-.056.056a2.22,2.22,0,0,1-3.766-1.579v-.075a.833.833,0,0,0-1.667,0v.146a2.208,2.208,0,0,1-1.339,2.021.853.853,0,0,1-.22.061,2.211,2.211,0,0,1-2.281-.512l-.05-.05a.834.834,0,1,0-1.18,1.18l.056.057a2.189,2.189,0,0,1,.462,2.387,2.215,2.215,0,0,1-2.041,1.446h-.075a.833.833,0,1,0,0,1.667h.145a2.22,2.22,0,0,1,1.57,3.773l-.05.05a.834.834,0,1,0,1.18,1.18l.057-.057a2.231,2.231,0,0,1,1.552-.635A2.056,2.056,0,0,1,1131.787,2902.383Zm7.613-3.212v0Zm-8.734-2.172a3.333,3.333,0,1,1,3.333,3.333A3.333,3.333,0,0,1,1130.667,2897Zm1.667,0a1.666,1.666,0,1,0,1.667-1.667A1.667,1.667,0,0,0,1132.333,2897Z" transform="translate(-1124 -2886.999)"/>
</svg>
