<svg id="Page-1" xmlns="http://www.w3.org/2000/svg" width="58" height="26" viewBox="0 0 58 26">
  <defs>
    <style>
      .cls-1 {
        fill: #bdc3c7;
      }

      .cls-1, .cls-2, .cls-5 {
        fill-rule: evenodd;
      }

      .cls-2 {
        fill: #e64c3c;
      }

      .cls-3 {
        fill: #ecf0f1;
      }

      .cls-4, .cls-5 {
        fill: #fff;
      }
    </style>
  </defs>
  <g id="_078---Off-Slider" data-name="078---Off-Slider">
    <path id="Path" class="cls-1" d="M29,26H45A13,13,0,0,0,45,0H13a13,13,0,0,0,0,26Z"/>
    <path id="Path-2" data-name="Path" class="cls-2" d="M13,4H45a9,9,0,0,1,0,18H13Z"/>
    <circle id="Oval" class="cls-3" cx="9" cy="9" r="9" transform="translate(4 4)"/>
    <g id="Group_926" data-name="Group 926" transform="translate(25 7)">
      <path id="Shape" class="cls-4" d="M29,7H28a3,3,0,0,0-3,3v6a3,3,0,0,0,3,3h1a3,3,0,0,0,3-3V10A3,3,0,0,0,29,7Zm1,9a1,1,0,0,1-1,1H28a1,1,0,0,1-1-1V10a1,1,0,0,1,1-1h1a1,1,0,0,1,1,1Z" transform="translate(-25 -7)"/>
      <path id="Path-3" data-name="Path" class="cls-5" d="M39,9a1,1,0,0,0,0-2H35a1,1,0,0,0-1,1V18a1,1,0,0,0,2,0V14h3a1,1,0,0,0,0-2H36V9Z" transform="translate(-25 -7)"/>
      <path id="Path-4" data-name="Path" class="cls-5" d="M47,12H44V9h3a1,1,0,0,0,0-2H43a1,1,0,0,0-1,1V18a1,1,0,0,0,2,0V14h3a1,1,0,0,0,0-2Z" transform="translate(-25 -7)"/>
    </g>
  </g>
</svg>
