<svg id="Page-1" xmlns="http://www.w3.org/2000/svg" width="58" height="26" viewBox="0 0 58 26">
  <defs>
    <style>
      .cls-1 {
        fill: #bdc3c7;
      }

      .cls-1, .cls-2, .cls-5 {
        fill-rule: evenodd;
      }

      .cls-2 {
        fill: #4fba6f;
      }

      .cls-3 {
        fill: #ecf0f1;
      }

      .cls-4, .cls-5 {
        fill: #fff;
      }
    </style>
  </defs>
  <g id="_079---On-Slider" data-name="079---On-Slider">
    <path id="Path" class="cls-1" d="M45,26A13,13,0,0,0,45,0H13a13,13,0,0,0,0,26Z"/>
    <path id="Path-2" data-name="Path" class="cls-2" d="M45,4H13a9,9,0,0,0,0,18H45Z"/>
    <circle id="Oval" class="cls-3" cx="9" cy="9" r="9" transform="translate(36 4)"/>
    <g id="Group_961" data-name="Group 961">
      <path id="Shape" class="cls-4" d="M17,7H16a3,3,0,0,0-3,3v6a3,3,0,0,0,3,3h1a3,3,0,0,0,3-3V10A3,3,0,0,0,17,7Zm1,9a1,1,0,0,1-1,1H16a1,1,0,0,1-1-1V10a1,1,0,0,1,1-1h1a1,1,0,0,1,1,1Z"/>
      <path id="Path-3" data-name="Path" class="cls-5" d="M28,7a1,1,0,0,0-1,1v5.764L23.9,7.553A1,1,0,0,0,22,8V18a1,1,0,0,0,2,0V12.236l3.1,6.211A1,1,0,0,0,28,19a1.051,1.051,0,0,0,.229-.026A1,1,0,0,0,29,18V8a1,1,0,0,0-1-1Z"/>
    </g>
  </g>
</svg>
