<svg xmlns="http://www.w3.org/2000/svg" width="80" height="40" viewBox="0 0 80 40">
  <defs>
    <style>
      .cls-1 {
        fill: #fff;
        stroke: rgba(112,112,112,0.5);
      }

      .cls-2 {
        fill: #ee7f00;
      }

      .cls-3 {
        fill: #383a41;
      }

      .cls-4 {
        stroke: none;
      }

      .cls-5 {
        fill: none;
      }
    </style>
  </defs>
  <g id="Group_2706" data-name="Group 2706" transform="translate(-959 -1444)">
    <g id="Rectangle_5740" data-name="Rectangle 5740" class="cls-1" transform="translate(959 1444)">
      <rect class="cls-4" width="80" height="40" rx="10"/>
      <rect class="cls-5" x="0.5" y="0.5" width="79" height="39" rx="9.5"/>
    </g>
    <g id="Group_2699" data-name="Group 2699" transform="translate(22977 2568)">
      <g id="layer1" transform="translate(-21928.211 -1402.231)">
        <path id="path66" class="cls-2" d="M-60.5,287.231a5.644,5.644,0,0,0-2.417.553,7.559,7.559,0,0,0-2.889,2.522,10.948,10.948,0,0,0-1.326,2.566c-.663,1.817-.656,3.291.022,4.262A3.183,3.183,0,0,0-64.3,298.34h.006c2.961,0,5.171-1.941,6.57-5.768.37-1.013.857-2.9-.034-4.178a3.123,3.123,0,0,0-2.742-1.163Zm17.864,0a5.641,5.641,0,0,0-2.416.553,7.554,7.554,0,0,0-2.889,2.522,10.925,10.925,0,0,0-1.326,2.566c-.664,1.817-.656,3.291.023,4.262a3.181,3.181,0,0,0,2.809,1.207h.005c2.961,0,5.172-1.941,6.57-5.768.371-1.013.857-2.9-.033-4.178A3.125,3.125,0,0,0-42.639,287.231Zm-27.372.154a5.97,5.97,0,0,0-2.769.43,4.758,4.758,0,0,0-2.172,3.014,3.41,3.41,0,0,0-.2.966,1.445,1.445,0,0,0,.145.719,2.089,2.089,0,0,0,.6.684,2.96,2.96,0,0,0,.917.464l.407.116c.215.062.467.136.626.184a1.269,1.269,0,0,1,.289.122.579.579,0,0,1,.229.232.513.513,0,0,1,.055.223.726.726,0,0,1-.043.258.7.7,0,0,1-.428.477,3.136,3.136,0,0,1-1.073.125h-6.359l-1.005,2.762h6.806a7.413,7.413,0,0,0,2.936-.478,4.509,4.509,0,0,0,2.662-3.345,2.274,2.274,0,0,0-.163-1.764,2.515,2.515,0,0,0-1.537-1.006l-.362-.1-.535-.154a.719.719,0,0,1-.424-.3.6.6,0,0,1-.063-.483.708.708,0,0,1,.353-.424,1.429,1.429,0,0,1,.689-.153h3.957c.028-.04.053-.084.081-.124a8.736,8.736,0,0,1,2.556-2.434h-6.179Zm17.783,0a3.7,3.7,0,0,0-3.69,2.558l-2.991,8.218h3.277l1.537-4.224,2.9,0,.824-2.263-2.886,0,.465-1.31a.691.691,0,0,1,.667-.422h3.414c.028-.041.054-.085.082-.125a9.213,9.213,0,0,1,2.7-2.434Zm15.2.006-3.924,10.777h3.333l1.426-3.793c.07.156.911,3.793.911,3.793h3.5a33.6,33.6,0,0,0-1.106-3.752,5.912,5.912,0,0,0-.414-.849,4.913,4.913,0,0,0,3.018-2.757,2.5,2.5,0,0,0-.062-2.362c-.491-.708-1.492-1.055-3.059-1.057h-3.628Zm6.836,0a2.693,2.693,0,0,1,.544.575,2.8,2.8,0,0,1,.448,1.984h1.985l-2.991,8.22h2.988l2.993-8.22h3.84l.932-2.559H-30.191Zm-4.64,2.225h.55c1.006,0,1.381.295,1.04,1.213a1.922,1.922,0,0,1-1.988,1.394h-.57l.967-2.606Zm-26.458.053h0c1.024,0,1.258.595.359,3.054h0c-.924,2.528-1.594,3.164-2.6,3.164h0c-.983,0-1.328-.623-.408-3.139.687-1.878,1.576-3.079,2.653-3.079Zm17.864,0h0c1.023,0,1.258.595.359,3.054-.923,2.528-1.594,3.164-2.6,3.164h0c-.984,0-1.327-.623-.407-3.139.686-1.878,1.576-3.079,2.652-3.079Z" transform="translate(-0.001)"/>
        <path id="path98" class="cls-3" d="M-77.549,446.122a.813.813,0,0,0-.472.113.852.852,0,0,0-.263.408c-.069.188-.079.318-.031.392s.177.112.389.112a.79.79,0,0,0,.474-.116.853.853,0,0,0,.261-.4c.069-.19.081-.321.034-.4S-77.334,446.122-77.549,446.122Zm1.807,0a.809.809,0,0,0-.474.113.856.856,0,0,0-.262.408c-.068.188-.079.318-.033.392s.175.112.388.112a.8.8,0,0,0,.476-.116.85.85,0,0,0,.263-.4c.069-.19.08-.321.032-.4S-75.53,446.122-75.742,446.122Zm33.732,1.4a2.893,2.893,0,0,0-.732.095,2.483,2.483,0,0,0-.675.287,2.384,2.384,0,0,0-.561.483,2.193,2.193,0,0,0-.388.676,1.5,1.5,0,0,0-.11.575.952.952,0,0,0,.107.415.971.971,0,0,0,.252.3,2.3,2.3,0,0,0,.335.225c.119.066.236.13.35.189a1.632,1.632,0,0,1,.292.19.572.572,0,0,1,.174.231.435.435,0,0,1-.014.312.979.979,0,0,1-.162.285.971.971,0,0,1-.245.215,1.191,1.191,0,0,1-.316.135,1.419,1.419,0,0,1-.373.048,1.6,1.6,0,0,1-.506-.069,1.665,1.665,0,0,1-.34-.151,1.707,1.707,0,0,1-.215-.151.238.238,0,0,0-.14-.068.157.157,0,0,0-.08.023.255.255,0,0,0-.077.076.889.889,0,0,0-.078.141c-.027.057-.056.13-.087.215a1.561,1.561,0,0,0-.084.292.227.227,0,0,0,.02.155.5.5,0,0,0,.13.124,1.2,1.2,0,0,0,.255.134,2.218,2.218,0,0,0,.38.109,2.5,2.5,0,0,0,.5.045,3.118,3.118,0,0,0,.808-.107,2.8,2.8,0,0,0,.745-.321,2.6,2.6,0,0,0,.619-.531,2.377,2.377,0,0,0,.427-.74,1.45,1.45,0,0,0,.1-.56.949.949,0,0,0-.11-.414.991.991,0,0,0-.258-.3,2.61,2.61,0,0,0-.34-.225c-.119-.066-.237-.129-.353-.188a1.757,1.757,0,0,1-.3-.191.548.548,0,0,1-.177-.231.439.439,0,0,1,.015-.308.847.847,0,0,1,.127-.227.782.782,0,0,1,.2-.184,1,1,0,0,1,.265-.12,1.156,1.156,0,0,1,.326-.043,1.262,1.262,0,0,1,.4.056,1.518,1.518,0,0,1,.289.124,1.868,1.868,0,0,1,.2.126.237.237,0,0,0,.124.058.138.138,0,0,0,.082-.025.27.27,0,0,0,.07-.078,1.2,1.2,0,0,0,.07-.137c.024-.054.051-.122.08-.2s.046-.132.061-.18a.834.834,0,0,0,.03-.12.308.308,0,0,0,0-.077.2.2,0,0,0-.03-.07.415.415,0,0,0-.132-.1,1.4,1.4,0,0,0-.253-.112,2.054,2.054,0,0,0-.326-.078,2.28,2.28,0,0,0-.37-.029Zm17.17,0a3.835,3.835,0,0,0-1.218.195,3.879,3.879,0,0,0-1.083.56,4.239,4.239,0,0,0-.886.889,4.64,4.64,0,0,0-.628,1.181,3.3,3.3,0,0,0-.227,1.139,1.559,1.559,0,0,0,.226.852,1.406,1.406,0,0,0,.664.533,2.8,2.8,0,0,0,1.08.184q.22,0,.444-.02t.452-.062c.153-.028.3-.061.448-.1s.271-.075.373-.111a.523.523,0,0,0,.232-.147.726.726,0,0,0,.122-.217l.775-2.129a.493.493,0,0,0,.032-.147.217.217,0,0,0-.02-.109.15.15,0,0,0-.066-.068.232.232,0,0,0-.11-.023h-1.807a.14.14,0,0,0-.074.023.3.3,0,0,0-.075.07.707.707,0,0,0-.077.126,1.86,1.86,0,0,0-.081.193.892.892,0,0,0-.074.317c.006.062.033.093.082.093h1.013l-.452,1.24a1.874,1.874,0,0,1-.376.124,1.805,1.805,0,0,1-.375.041,1.537,1.537,0,0,1-.637-.12.839.839,0,0,1-.4-.356,1.137,1.137,0,0,1-.129-.584,2.528,2.528,0,0,1,.172-.809,3.18,3.18,0,0,1,.4-.763,2.847,2.847,0,0,1,.558-.592,2.5,2.5,0,0,1,.676-.38,2.163,2.163,0,0,1,.752-.134,2.168,2.168,0,0,1,.612.074,2.481,2.481,0,0,1,.415.161,1.664,1.664,0,0,1,.259.161.271.271,0,0,0,.147.074.138.138,0,0,0,.071-.02.274.274,0,0,0,.072-.072.948.948,0,0,0,.078-.139,2.022,2.022,0,0,0,.086-.207,1.586,1.586,0,0,0,.088-.312.251.251,0,0,0-.02-.163.531.531,0,0,0-.146-.137,1.315,1.315,0,0,0-.3-.146,2.714,2.714,0,0,0-.456-.116,3.5,3.5,0,0,0-.615-.048Zm-33.8.066c-.141,0-.252,0-.333.011a.4.4,0,0,0-.19.056.231.231,0,0,0-.095.13,1.32,1.32,0,0,0-.044.234l-.483,4.667a.454.454,0,0,0,0,.159.14.14,0,0,0,.087.091.683.683,0,0,0,.21.041q.139.01.378.01c.152,0,.275,0,.37-.01a.9.9,0,0,0,.235-.044.393.393,0,0,0,.152-.093.784.784,0,0,0,.114-.155l2.044-3.39h.008l-.378,3.39a.4.4,0,0,0,0,.159.138.138,0,0,0,.087.091.682.682,0,0,0,.21.041q.139.01.375.01c.14,0,.258,0,.351-.01a1.061,1.061,0,0,0,.238-.041.429.429,0,0,0,.163-.091.712.712,0,0,0,.127-.159l2.922-4.655a2.292,2.292,0,0,0,.132-.242.147.147,0,0,0,.009-.135.162.162,0,0,0-.126-.056,2.658,2.658,0,0,0-.279-.011q-.195,0-.306.011a.662.662,0,0,0-.179.037.248.248,0,0,0-.105.074.821.821,0,0,0-.075.114l-2.425,4.085h-.008l.472-4.069a.387.387,0,0,0,0-.132.113.113,0,0,0-.065-.076.479.479,0,0,0-.169-.035c-.077-.006-.181-.009-.313-.009s-.225,0-.3.011a.751.751,0,0,0-.189.037.29.29,0,0,0-.119.076.79.79,0,0,0-.09.128l-2.456,4.069h0l.553-4.1a.387.387,0,0,0,.011-.122.081.081,0,0,0-.054-.066.476.476,0,0,0-.161-.029c-.075,0-.176-.007-.306-.007Zm12.9,0a2.438,2.438,0,0,0-.265.012,1.186,1.186,0,0,0-.179.033.293.293,0,0,0-.111.054.186.186,0,0,0-.054.074l-1.839,5.053a.1.1,0,0,0,0,.075.111.111,0,0,0,.069.053.676.676,0,0,0,.156.033,2.244,2.244,0,0,0,.258.012,2.5,2.5,0,0,0,.27-.012.986.986,0,0,0,.177-.033.306.306,0,0,0,.11-.053.18.18,0,0,0,.053-.075l1.839-5.053a.094.094,0,0,0,0-.074.115.115,0,0,0-.07-.054.718.718,0,0,0-.153-.033,2.246,2.246,0,0,0-.26-.012Zm-33.078,0a2.486,2.486,0,0,0-.269.012,1.189,1.189,0,0,0-.179.033.268.268,0,0,0-.108.054.184.184,0,0,0-.053.074l-1.184,3.254a2.533,2.533,0,0,0-.179.895,1.105,1.105,0,0,0,.192.639,1.085,1.085,0,0,0,.539.383,2.577,2.577,0,0,0,.859.126,3.456,3.456,0,0,0,1-.14,2.894,2.894,0,0,0,.843-.409,2.893,2.893,0,0,0,.665-.658,3.469,3.469,0,0,0,.465-.88l1.168-3.208a.1.1,0,0,0,0-.074.1.1,0,0,0-.067-.054.721.721,0,0,0-.151-.033,2.121,2.121,0,0,0-.254-.012,2.492,2.492,0,0,0-.267.012,1.145,1.145,0,0,0-.179.033.271.271,0,0,0-.106.054.183.183,0,0,0-.052.074l-1.172,3.221a2.14,2.14,0,0,1-.259.5,1.718,1.718,0,0,1-.353.371,1.48,1.48,0,0,1-.427.23,1.508,1.508,0,0,1-.487.079,1.075,1.075,0,0,1-.43-.077.565.565,0,0,1-.268-.229.708.708,0,0,1-.085-.387,1.808,1.808,0,0,1,.122-.552l1.15-3.158a.1.1,0,0,0,0-.074.113.113,0,0,0-.069-.054.734.734,0,0,0-.153-.033,2.183,2.183,0,0,0-.256-.012Zm40.114,0a2.491,2.491,0,0,0-.269.012,1.121,1.121,0,0,0-.179.033.293.293,0,0,0-.109.054.189.189,0,0,0-.052.075l-1.184,3.254a2.519,2.519,0,0,0-.179.9,1.1,1.1,0,0,0,.19.639,1.087,1.087,0,0,0,.54.383,2.576,2.576,0,0,0,.859.126,3.463,3.463,0,0,0,1-.14,2.9,2.9,0,0,0,.843-.409,2.917,2.917,0,0,0,.665-.658,3.5,3.5,0,0,0,.465-.88l1.168-3.208a.1.1,0,0,0,0-.075.107.107,0,0,0-.067-.054.689.689,0,0,0-.152-.033,2.13,2.13,0,0,0-.254-.012,2.5,2.5,0,0,0-.267.012,1.08,1.08,0,0,0-.179.033.284.284,0,0,0-.106.054.189.189,0,0,0-.052.075l-1.172,3.221a2.163,2.163,0,0,1-.259.5,1.734,1.734,0,0,1-.353.372,1.464,1.464,0,0,1-.427.229,1.5,1.5,0,0,1-.487.079,1.085,1.085,0,0,1-.429-.077.567.567,0,0,1-.268-.229.7.7,0,0,1-.084-.387,1.79,1.79,0,0,1,.122-.552l1.149-3.158a.1.1,0,0,0,0-.075.116.116,0,0,0-.069-.054.7.7,0,0,0-.153-.033,2.188,2.188,0,0,0-.256-.012Zm9.3.008c-.1,0-.182,0-.249.011a.685.685,0,0,0-.166.035.326.326,0,0,0-.1.058.182.182,0,0,0-.052.075l-.914,2.51q-.1.286-.211.6t-.2.6h0c-.01-.111-.02-.221-.033-.331s-.025-.223-.038-.337-.03-.229-.047-.343-.035-.231-.053-.35l-.33-1.955a1.53,1.53,0,0,0-.054-.271.425.425,0,0,0-.1-.171.36.36,0,0,0-.16-.09.989.989,0,0,0-.255-.027h-.583a.572.572,0,0,0-.315.1.563.563,0,0,0-.219.292l-1.75,4.808a.129.129,0,0,0-.007.075.1.1,0,0,0,.054.055.465.465,0,0,0,.137.036,1.849,1.849,0,0,0,.235.012,2.15,2.15,0,0,0,.249-.012.793.793,0,0,0,.163-.036.289.289,0,0,0,.1-.055.206.206,0,0,0,.049-.075l1.019-2.8c.076-.21.148-.413.213-.61s.13-.4.192-.594h.008c0,.163.015.33.032.5s.037.333.06.482l.421,2.5a2.96,2.96,0,0,0,.063.337.583.583,0,0,0,.1.206.312.312,0,0,0,.156.106.824.824,0,0,0,.241.029h.462a.623.623,0,0,0,.164-.023.534.534,0,0,0,.159-.072.644.644,0,0,0,.134-.124.585.585,0,0,0,.095-.17L-29,447.78a.123.123,0,0,0,.006-.075.1.1,0,0,0-.051-.058.353.353,0,0,0-.134-.035,2.132,2.132,0,0,0-.231-.011Zm-38.6.017a.465.465,0,0,0-.26.08.515.515,0,0,0-.188.263l-1.7,4.664c-.044.122-.045.209,0,.263a.24.24,0,0,0,.2.081h2.687a.153.153,0,0,0,.077-.024.273.273,0,0,0,.077-.072.769.769,0,0,0,.079-.13c.026-.054.054-.121.083-.2s.049-.147.063-.2a.494.494,0,0,0,.016-.131.108.108,0,0,0-.025-.072.084.084,0,0,0-.06-.022h-1.926l.549-1.509h1.617a.157.157,0,0,0,.076-.021.261.261,0,0,0,.076-.068.661.661,0,0,0,.077-.126,1.868,1.868,0,0,0,.083-.2,1.678,1.678,0,0,0,.061-.2.426.426,0,0,0,.015-.128.1.1,0,0,0-.026-.07.082.082,0,0,0-.06-.023h-1.616l.475-1.306h1.91a.139.139,0,0,0,.075-.023.3.3,0,0,0,.076-.072.745.745,0,0,0,.078-.13,1.92,1.92,0,0,0,.082-.2,1.851,1.851,0,0,0,.064-.2.531.531,0,0,0,.017-.132.1.1,0,0,0-.024-.072.08.08,0,0,0-.058-.021Zm4.487,0a.463.463,0,0,0-.259.08.511.511,0,0,0-.189.263l-1.768,4.859a.1.1,0,0,0,0,.074.1.1,0,0,0,.068.054.684.684,0,0,0,.155.033,2.222,2.222,0,0,0,.258.012,2.481,2.481,0,0,0,.269-.012,1.034,1.034,0,0,0,.177-.033.293.293,0,0,0,.109-.054.177.177,0,0,0,.054-.074l.742-2.039h.34a.658.658,0,0,1,.286.054.4.4,0,0,1,.176.159.746.746,0,0,1,.088.263c.017.1.03.224.039.36l.045,1.194a.247.247,0,0,0,.01.085.108.108,0,0,0,.064.058.482.482,0,0,0,.151.031c.067.006.158.009.275.009.138,0,.248,0,.33-.009a.937.937,0,0,0,.192-.029.216.216,0,0,0,.1-.052.231.231,0,0,0,.045-.077.45.45,0,0,0,.02-.114c0-.048,0-.125,0-.229l-.067-1.054a2.6,2.6,0,0,0-.037-.341,1.255,1.255,0,0,0-.078-.269.689.689,0,0,0-.125-.2.7.7,0,0,0-.174-.14,2.641,2.641,0,0,0,.518-.207,2.211,2.211,0,0,0,.436-.3,2.066,2.066,0,0,0,.344-.394,2.27,2.27,0,0,0,.247-.49,1.59,1.59,0,0,0,.111-.565.819.819,0,0,0-.12-.425.824.824,0,0,0-.333-.291,1.67,1.67,0,0,0-.524-.158c-.071-.008-.151-.015-.24-.02s-.2-.009-.344-.009h-1.385Zm13.063,0a.463.463,0,0,0-.259.08.511.511,0,0,0-.189.263l-1.7,4.664c-.044.122-.045.209,0,.263a.242.242,0,0,0,.2.081h2.687a.15.15,0,0,0,.077-.024.258.258,0,0,0,.077-.072.665.665,0,0,0,.079-.13,2.027,2.027,0,0,0,.083-.2h0a1.971,1.971,0,0,0,.063-.2.49.49,0,0,0,.016-.131.1.1,0,0,0-.025-.072.084.084,0,0,0-.06-.022h-1.926l.549-1.509h1.617a.155.155,0,0,0,.076-.021.255.255,0,0,0,.077-.068.694.694,0,0,0,.077-.126,2.01,2.01,0,0,0,.083-.2,1.781,1.781,0,0,0,.061-.2.43.43,0,0,0,.016-.128.107.107,0,0,0-.026-.07.083.083,0,0,0-.06-.023h-1.617l.475-1.306h1.91a.144.144,0,0,0,.075-.023.3.3,0,0,0,.075-.072.676.676,0,0,0,.078-.13,1.78,1.78,0,0,0,.083-.2,1.83,1.83,0,0,0,.064-.2.5.5,0,0,0,.017-.132.1.1,0,0,0-.023-.072.081.081,0,0,0-.059-.021h-2.671Zm-22.681,0a.463.463,0,0,0-.259.08.51.51,0,0,0-.189.263l-1.7,4.664c-.044.121-.045.208,0,.262a.24.24,0,0,0,.2.081h1.423a4.212,4.212,0,0,0,.6-.04,3.319,3.319,0,0,0,.538-.122,2.927,2.927,0,0,0,.5-.211,2.394,2.394,0,0,0,.442-.305,2.333,2.333,0,0,0,.366-.41,2.194,2.194,0,0,0,.267-.517,1.406,1.406,0,0,0,.1-.492.861.861,0,0,0-.087-.382.7.7,0,0,0-.238-.267.993.993,0,0,0-.367-.145,1.836,1.836,0,0,0,.38-.174,1.856,1.856,0,0,0,.324-.248,1.818,1.818,0,0,0,.258-.312,1.792,1.792,0,0,0,.183-.366,1.327,1.327,0,0,0,.1-.6.684.684,0,0,0-.2-.424,1.074,1.074,0,0,0-.484-.25,3.211,3.211,0,0,0-.8-.082h-1.344Zm.448.814h.55a1.265,1.265,0,0,1,.386.046.426.426,0,0,1,.2.13.338.338,0,0,1,.071.213.805.805,0,0,1-.055.289,1.155,1.155,0,0,1-.146.275,1.06,1.06,0,0,1-.222.227,1.032,1.032,0,0,1-.289.153,1.225,1.225,0,0,1-.4.056H-73.2Zm9.632.016h.488a2.552,2.552,0,0,1,.288.013,1.326,1.326,0,0,1,.176.032.4.4,0,0,1,.3.257.724.724,0,0,1-.043.446,1.156,1.156,0,0,1-.172.314,1.087,1.087,0,0,1-.262.242,1.261,1.261,0,0,1-.347.157,1.535,1.535,0,0,1-.425.056h-.554Zm-10.427,2.167h.645a1.577,1.577,0,0,1,.464.054.539.539,0,0,1,.251.153.411.411,0,0,1,.091.246.832.832,0,0,1-.059.333,1.059,1.059,0,0,1-.179.317,1.122,1.122,0,0,1-.263.231,1.192,1.192,0,0,1-.32.141,1.488,1.488,0,0,1-.4.047h-.786Z" transform="translate(0 -146.819)"/>
      </g>
    </g>
  </g>
</svg>
