<svg xmlns="http://www.w3.org/2000/svg" width="40" height="40" viewBox="0 0 40 40">
  <defs>
    <style>
      .cls-1 {
        fill: currentColor;
        stroke: #f1f2f3;
        stroke-linejoin: round;
        stroke-width: 2px;
      }

      .cls-2 {
        fill: #6c757d;
      }

      .cls-3 {
        stroke: none;
      }

      .cls-4 {
        fill: none;
      }
    </style>
  </defs>
  <g id="up" transform="translate(-441.5 -170.5)">
    <g id="form" class="cls-1" transform="translate(441.5 170.5)">
      <rect class="cls-3" width="40" height="40" rx="10"/>
      <rect class="cls-4" x="1" y="1" width="38" height="38" rx="9"/>
    </g>
    <path id="icon" class="cls-2" d="M4.234,11.957V2.272l-3.1,3.1A.665.665,0,0,1,.195,4.43L4.429.2h0L4.466.16h0L4.479.15h0l.012-.01h0L4.506.129h0L4.519.119h0A.665.665,0,0,1,5.179.062h0l.012.006,0,0,.01.005.006,0,.008,0,.008,0,.006,0L5.242.1l0,0L5.257.1l0,0,.011.007h0l.011.008h0L5.3.132h0L5.31.142h0A.672.672,0,0,1,5.37.2L9.6,4.43a.665.665,0,0,1-.941.941l-3.1-3.1v9.685a.665.665,0,1,1-1.33,0Z" transform="translate(457.003 183.271)"/>
  </g>
</svg>
