<svg id="youtube" xmlns="http://www.w3.org/2000/svg" width="40" height="40" viewBox="0 0 40 40">
  <defs>
    <style>
      .cls-1 {
        fill: #6c757d;
      }
    </style>
  </defs>
  <path id="Path_987" data-name="Path 987" class="cls-1" d="M224.113,214.971l6.018-3.466-6.018-3.466Zm0,0" transform="translate(-206.349 -191.505)"/>
  <path id="Path_988" data-name="Path 988" class="cls-1" d="M20,0A20,20,0,1,0,40,20,20,20,0,0,0,20,0ZM32.5,20.02a33.009,33.009,0,0,1-.515,6.012,3.132,3.132,0,0,1-2.2,2.2C27.823,28.75,20,28.75,20,28.75s-7.8,0-9.779-.535a3.132,3.132,0,0,1-2.2-2.2A32.864,32.864,0,0,1,7.5,20a32.988,32.988,0,0,1,.515-6.012,3.2,3.2,0,0,1,2.2-2.224C12.176,11.25,20,11.25,20,11.25s7.824,0,9.779.535a3.132,3.132,0,0,1,2.2,2.2A31.325,31.325,0,0,1,32.5,20.02Zm0,0"/>
</svg>
