<svg xmlns="http://www.w3.org/2000/svg" width="60" height="60" viewBox="0 0 60 60">
  <defs>
    <style>
      .cls-1 {
        fill: #c3c3c3;
      }
    </style>
  </defs>
  <path id="settings_FILL0_wght400_GRAD0_opsz48" class="cls-1" d="M27.1,64l-1.5-9.45a20.1,20.1,0,0,1-3-1.425,20.612,20.612,0,0,1-2.775-1.875l-8.85,4.05L4,43l8.1-5.925a8.917,8.917,0,0,1-.187-1.537q-.038-.862-.037-1.537t.037-1.537a8.917,8.917,0,0,1,.187-1.537L4,25l6.975-12.3,8.85,4.05A20.612,20.612,0,0,1,22.6,14.875a15.52,15.52,0,0,1,3-1.35L27.1,4H40.9l1.5,9.45a24.315,24.315,0,0,1,3.037,1.388,12.91,12.91,0,0,1,2.738,1.912l8.85-4.05L64,25l-8.1,5.775a10.569,10.569,0,0,1,.188,1.612q.037.863.037,1.613t-.037,1.575A10.443,10.443,0,0,1,55.9,37.15L64,43,57.025,55.3l-8.85-4.05a24.88,24.88,0,0,1-2.738,1.913A13.07,13.07,0,0,1,42.4,54.55L40.9,64ZM34,43.75A9.731,9.731,0,0,0,43.75,34,9.731,9.731,0,0,0,34,24.25,9.731,9.731,0,0,0,24.25,34,9.731,9.731,0,0,0,34,43.75Zm0-4.5a5.25,5.25,0,0,1-3.713-8.962,5.25,5.25,0,0,1,7.425,7.425A5.059,5.059,0,0,1,34,39.25ZM34,34ZM30.7,59.5h6.6l1.05-8.4a17.688,17.688,0,0,0,4.687-1.875A19.223,19.223,0,0,0,47.05,46.15L55,49.6l3-5.4-7.05-5.175q.3-1.275.487-2.513A16.748,16.748,0,0,0,51.625,34a20.862,20.862,0,0,0-.15-2.512,15.519,15.519,0,0,0-.525-2.513L58,23.8l-3-5.4-7.95,3.45a16.719,16.719,0,0,0-3.9-3.262,12.65,12.65,0,0,0-4.8-1.687L37.3,8.5H30.7l-1.05,8.4a15.891,15.891,0,0,0-4.763,1.8,16.542,16.542,0,0,0-3.937,3.15L13,18.4l-3,5.4,7.05,5.175q-.3,1.275-.488,2.513a16.927,16.927,0,0,0,0,5.025q.188,1.238.488,2.513L10,44.2l3,5.4,7.95-3.45a19.223,19.223,0,0,0,4.013,3.075A17.688,17.688,0,0,0,29.65,51.1Z" transform="translate(-4 -4)"/>
</svg>
