<svg xmlns="http://www.w3.org/2000/svg" width="89.036" height="30.457" viewBox="0 0 89.036 30.457">
  <defs>
    <style>
      .cls-1 {
        fill: currentColor;
      }
    </style>
  </defs>
  <path id="Union_57" data-name="Union 57" class="cls-1" d="M61.58,23.1a7.357,7.357,0,1,1,7.355,7.362A7.365,7.365,0,0,1,61.58,23.1Zm5.331,4.247a4.616,4.616,0,0,0,2.024.463,4.717,4.717,0,0,0,2.027-.463l-1.022-1.823.566,2.007c-.126.048-.222.077-.3.1l-.02.007L69.3,24.491a1.312,1.312,0,0,1-.7,0l-.027,0-.883,3.142c-.069-.02-.136-.044-.208-.066l-.023-.007c-.026-.011-.056-.02-.086-.03l-.007,0,.569-2.007Zm2.752-3.01,1.6,2.854a4.725,4.725,0,0,0,1.763-1.763l-2.848-1.6A1.358,1.358,0,0,1,69.663,24.332Zm-4.815,1.091a4.737,4.737,0,0,0,1.759,1.763v-.007l1.6-2.845a1.435,1.435,0,0,1-.509-.512ZM71.36,24.1l1.822,1.025c-.06.123-.109.215-.155.294l0,0A4.7,4.7,0,0,0,71.264,19l-1.6,2.85a1.476,1.476,0,0,1,.516.512l2.848-1.6c.063.116.109.211.155.3L71.36,22.089l2.011-.565.007.013c.033.1.069.2.1.314l-3.142.883a1.468,1.468,0,0,1,.05.357,1.5,1.5,0,0,1-.05.367l3.142.882a2.7,2.7,0,0,1-.1.319l-2.011-.566Zm-7.131-1.006a4.679,4.679,0,0,0,.48,2.074l-.017-.043,1.819-1.029-2.011.566a2.6,2.6,0,0,1-.1-.325l3.142-.876a1.391,1.391,0,0,1-.05-.367,1.567,1.567,0,0,1,.05-.357L64.4,21.85c.036-.138.07-.241.1-.326l2.011.565-1.819-1.018a.314.314,0,0,1,.02-.043L64.726,21l.01-.024c.007-.012.01-.025.017-.039A4.617,4.617,0,0,0,64.229,23.091Zm3.466-.725a1.463,1.463,0,0,1,.509-.512L66.607,19a4.743,4.743,0,0,0-1.766,1.777s0-.007.007-.011Zm1.6-.664.886-3.145.04.013.05.014.235.076-.566,2.011,1.022-1.823.007,0,.181.092a4.683,4.683,0,0,0-2.216-.555,4.736,4.736,0,0,0-2.024.457l-.02.01c-.073.036-.132.066-.185.1l.01,0,.036-.019c.046-.023.089-.046.139-.073l.02-.01,1.022,1.826-.569-2.011c.126-.043.228-.076.324-.1l.883,3.145a1.285,1.285,0,0,1,.364-.046A1.189,1.189,0,0,1,69.3,21.7ZM6.353,23.1a7.357,7.357,0,1,1,7.359,7.362A7.366,7.366,0,0,1,6.353,23.1Zm5.332,4.247a4.62,4.62,0,0,0,2.027.463,4.739,4.739,0,0,0,2.027-.463l-1.025-1.823.566,2.007a3.164,3.164,0,0,1-.3.1l-.02.007-.883-3.142a1.684,1.684,0,0,1-.36.049,1.662,1.662,0,0,1-.341-.046l-.023,0-.886,3.142c-.069-.02-.136-.044-.205-.066l-.027-.007c-.026-.011-.056-.02-.083-.03l-.007,0,.566-2.007Zm2.755-3.01,1.6,2.854a4.717,4.717,0,0,0,1.76-1.763l-2.848-1.6A1.374,1.374,0,0,1,14.44,24.332ZM9.621,25.423a4.722,4.722,0,0,0,1.763,1.763v-.007l1.6-2.845a1.433,1.433,0,0,1-.509-.512ZM16.137,24.1l1.822,1.025a3.044,3.044,0,0,1-.159.294l0,0a4.7,4.7,0,0,0-1.763-6.414l-1.6,2.848a1.467,1.467,0,0,1,.513.512l2.848-1.6c.063.116.112.211.159.3l-1.826,1.018,2.014-.565.007.013c.033.1.066.2.1.314l-3.145.883a1.337,1.337,0,0,1,.053.357,1.366,1.366,0,0,1-.053.367l3.145.882c-.026.1-.063.209-.1.319l-2.011-.566ZM9,23.091a4.636,4.636,0,0,0,.483,2.074l-.02-.043,1.819-1.029-2.008.566a3.336,3.336,0,0,1-.1-.325l3.142-.876a1.543,1.543,0,0,1-.05-.367,1.561,1.561,0,0,1,.05-.357L9.175,21.85c.04-.138.07-.241.1-.326l2.008.565L9.466,21.071a.288.288,0,0,1,.02-.043L9.5,21l.01-.024c.007-.012.013-.025.02-.039A4.617,4.617,0,0,0,9,23.091Zm.622-2.322,2.848,1.6a1.435,1.435,0,0,1,.509-.512L11.384,19A4.754,4.754,0,0,0,9.624,20.769Zm4.448.933.883-3.145.04.013.05.014c.093.029.169.053.235.076l-.566,2.011,1.025-1.823.007,0,.215.109a4.714,4.714,0,0,0-4.276-.116l1.022,1.826-.566-2.011c.122-.043.225-.076.321-.1l.886,3.145a1.286,1.286,0,0,1,.364-.046A1.217,1.217,0,0,1,14.073,21.7ZM11.48,18.95l.01,0,.04-.019c.033-.017.07-.037.109-.056C11.576,18.9,11.526,18.927,11.48,18.95Zm-7.8,6.06H1.8A1.8,1.8,0,0,1,0,23.21v-4.9a1.8,1.8,0,0,1,1.6-1.781,8.2,8.2,0,0,1,1.984-3.947,9.224,9.224,0,0,1,5.93-2.645L23.334,8.86a.011.011,0,0,0,.007,0l0,0,.013-.013a45.332,45.332,0,0,1,4.151-3.3A44.848,44.848,0,0,1,37.866,0s0,0,.007.006c.122.115,1.971,1.9-1.012,2.927A31.586,31.586,0,0,0,32.346,5.5a2.555,2.555,0,0,1,2.428.863,1.333,1.333,0,0,1,.258,1.452.959.959,0,0,1-.327.33L48.688,7.59l.949-1.836a3.46,3.46,0,0,1,1.045-1.12c.632-.464,2.494-1.3,2.679.006a2.04,2.04,0,0,1-.354,1.168c-.208.391-.39.777-.559,1.184-.063.151-.122.3-.182.456L65.5,6.919l.6-1.165a3.5,3.5,0,0,1,1.045-1.12c.635-.464,2.494-1.3,2.679.006a1.991,1.991,0,0,1-.354,1.168c-.172.324-.324.641-.47.972l7.885-.314,0,0v0l7.518.9A2.835,2.835,0,0,1,86.548,8.4a5.536,5.536,0,0,1,.814,1.922H84.97a1.8,1.8,0,0,0-1.8,1.8v.042a1.8,1.8,0,0,0,1.8,1.8h2.514c.017-.013.03-.072.04-.179a.444.444,0,0,1-.036.189.011.011,0,0,1-.01,0,1.871,1.871,0,0,1,1.435,1.508,4.047,4.047,0,0,1,.112,1.277v3.886c0,1.94-2.186,2.526-2.434,2.586l-9.314,1.733a8.185,8.185,0,0,0,.268-2.1,8.6,8.6,0,1,0-17.2,0,8.41,8.41,0,0,0,.278,2.133H22.166a8.288,8.288,0,0,0,.278-2.133,8.6,8.6,0,1,0-17.2,0A8.366,8.366,0,0,0,5.52,25.01v0Zm22.9-15.4c-.728,2.229-2.461,8.454-1.283,14.055l.013.063H47.494a4.425,4.425,0,0,0,2.884-1.375l-.228,0a3.2,3.2,0,0,0,.311-.34l.036-.07c.013-.023.023-.046.036-.069l.007-.014c0-.007.007-.014.01-.022l.06-.12L29.164,22.859l20.985-.506a4.266,4.266,0,0,1-2.659,1.214H25.434C24.273,17.942,26.009,11.8,26.74,9.6ZM50.722,21.85c-.043.091-.086.175-.126.248a.012.012,0,0,0,0,.007c-.089.109-.172.2-.215.245l4.442-.109a4.105,4.105,0,0,0,3.145-1.165,2.856,2.856,0,0,0,.671-2.024v-.006A3.826,3.826,0,0,1,55.8,21.44l-5,.269a40.545,40.545,0,0,0,3.691-9.648,9.359,9.359,0,0,0,.2-3.432l-.172,0c.218,1.3.2,5-3.9,13.087l.182-.01Zm9.694-7.124A7.94,7.94,0,0,0,58.8,17.647v0c3.066-5.081,7.379-5.478,8.629-5.478.1,0,.238,0,.377.014l14.586-.675H67.719A9.889,9.889,0,0,0,60.416,14.726ZM4.207,14.013a5.548,5.548,0,0,0-1.27,2.645A21.888,21.888,0,0,0,12.406,11.4c-.38-.026-.777-.04-1.184-.04C7.27,11.363,5.226,12.8,4.207,14.013Zm42.774-3.123a.742.742,0,0,0,.665.734.153.153,0,0,0,.036,0h3.784a.158.158,0,0,0,.016,0,.74.74,0,0,0-.069-1.476H47.719A.742.742,0,0,0,46.981,10.891ZM30.219,8.327,32.1,8.251A1.722,1.722,0,0,1,30.934,7.4,4.252,4.252,0,0,0,30.219,8.327ZM3.542,16.049a3.942,3.942,0,0,1,.969-1.881c.784-.856,2.345-1.883,5.345-1.883.232,0,.5.011.9.027l0,.01a17.126,17.126,0,0,1-7.213,3.731Z"/>
</svg>
