<svg xmlns="http://www.w3.org/2000/svg" width="88.282" height="37.762" viewBox="0 0 88.282 37.762">
  <defs>
    <style>
      .cls-1 {
        fill: currentColor;
      }
    </style>
  </defs>
  <g id="Group_2243" data-name="Group 2243" transform="translate(0 0)">
    <path id="Union_63" data-name="Union 63" class="cls-1" d="M65.219,31.867a5.892,5.892,0,1,1,5.893,5.9A5.9,5.9,0,0,1,65.219,31.867Zm4.268,3.4a3.745,3.745,0,0,0,3.247,0l-.82-1.459.452,1.608a2.239,2.239,0,0,1-.244.079l-.017.007L71.4,32.982a1.1,1.1,0,0,1-.287.041,1.334,1.334,0,0,1-.272-.036l-.019,0L70.113,35.5c-.057-.016-.111-.034-.168-.053l-.019-.007c-.021-.008-.045-.014-.066-.024l-.007,0,.455-1.608ZM71.7,32.857l1.281,2.287a3.786,3.786,0,0,0,1.409-1.412L72.1,32.45A1.1,1.1,0,0,1,71.7,32.857Zm-3.859.875a3.807,3.807,0,0,0,1.409,1.412v0l1.279-2.279a1.19,1.19,0,0,1-.407-.41Zm6.675-.241c-.047.1-.088.17-.125.237l0,0a3.771,3.771,0,0,0-4.9-5.267l.817,1.463-.455-1.611c.1-.034.182-.061.261-.08l.708,2.518a1.038,1.038,0,0,1,.291-.039.962.962,0,0,1,.287.039l.708-2.518.033.007.04.012c.073.024.133.04.187.061l-.452,1.611.82-1.46,0,0c.085.041.161.079.237.124L71.7,30.875a1.135,1.135,0,0,1,.41.409L74.386,30c.05.093.09.171.125.246l-1.459.812,1.611-.452,0,.014c.028.08.054.164.078.249l-2.518.709a1.067,1.067,0,0,1,.04.284,1.144,1.144,0,0,1-.04.3l2.518.706c-.021.082-.05.166-.083.256l-1.611-.452Zm-7.17-1.628a3.73,3.73,0,0,0,.384,1.663l-.014-.035,1.457-.822-1.608.452a2.4,2.4,0,0,1-.081-.261l2.516-.7a1.155,1.155,0,0,1-.04-.3,1.235,1.235,0,0,1,.04-.284l-2.516-.709c.031-.111.054-.192.081-.263l1.608.452-1.457-.812c0-.014.012-.023.017-.037l.01-.019.007-.016a.107.107,0,0,0,.017-.034A3.7,3.7,0,0,0,67.341,31.862Zm2.776-.579a1.129,1.129,0,0,1,.407-.409l-1.279-2.286a3.785,3.785,0,0,0-1.414,1.421s0,0,0,0Zm-.793-2.738.009,0,.028-.016a.862.862,0,0,0,.092-.048ZM10.81,31.867a5.893,5.893,0,1,1,5.893,5.9A5.9,5.9,0,0,1,10.81,31.867Zm4.271,3.4a3.74,3.74,0,0,0,3.245,0l-.817-1.459.45,1.608a2.4,2.4,0,0,1-.242.079L17.7,35.5l-.708-2.518a1.132,1.132,0,0,1-.289.041,1.359,1.359,0,0,1-.272-.036l-.019,0L15.7,35.5c-.057-.016-.109-.034-.166-.053l-.019-.007c-.024-.008-.045-.014-.069-.024l0,0,.452-1.608Zm2.205-2.412,1.281,2.287a3.809,3.809,0,0,0,1.412-1.412L17.7,32.45A1.126,1.126,0,0,1,17.286,32.857Zm-1.575-.407-2.283,1.282a3.8,3.8,0,0,0,1.412,1.412v0l1.279-2.279a1.15,1.15,0,0,1-.407-.41l0,0ZM20.1,33.49c-.047.1-.088.17-.126.237l0,0a3.771,3.771,0,0,0-4.9-5.267l.817,1.463-.452-1.611c.1-.034.18-.061.258-.08l.708,2.518a1.039,1.039,0,0,1,.291-.039.989.989,0,0,1,.289.039l.708-2.518.031.007.04.012c.076.024.135.04.187.061l-.45,1.611.817-1.46.007,0c.083.041.159.079.234.124l-1.281,2.284a1.124,1.124,0,0,1,.412.409L19.979,30c.05.093.088.171.126.246l-1.461.812,1.613-.452,0,.014c.026.08.055.164.076.249l-2.518.709a1.072,1.072,0,0,1,.04.284,1.149,1.149,0,0,1-.04.3l2.518.706a2.626,2.626,0,0,1-.08.256l-1.611-.452Zm-7.172-1.628a3.763,3.763,0,0,0,.384,1.663L13.3,33.49l1.457-.822-1.608.452c-.031-.085-.057-.171-.081-.261l2.518-.7a1.16,1.16,0,0,1-.04-.3,1.121,1.121,0,0,1,.04-.284L13.07,30.87c.031-.111.057-.192.081-.263l1.608.452L13.3,30.246a.254.254,0,0,0,.017-.037l.009-.019.009-.016a.222.222,0,0,0,.014-.034A3.725,3.725,0,0,0,12.933,31.862Zm.5-1.857,2.281,1.279a1.111,1.111,0,0,1,.407-.409l-1.279-2.286a3.771,3.771,0,0,0-1.411,1.416Zm0,0a.009.009,0,0,0,0,0Zm1.492-1.464.007,0,.031-.016c.03-.014.06-.031.092-.048C15,28.5,14.955,28.528,14.917,28.546ZM77.77,34.391a7.032,7.032,0,0,0,.493-2.584,7.1,7.1,0,1,0-13.712,2.584H23.411a7.076,7.076,0,0,0-1.859-7.854,9.167,9.167,0,0,0,1.116-.88l-.028-.029-.007,0,0,0s-.007,0-.012-.008l0,0-.007,0s0,0,0-.007a.049.049,0,0,0-.014-.011l0,0c.213-.192.419-.393.616-.6A9.09,9.09,0,0,0,17.547,23.1a6.871,6.871,0,0,0-.959.055,8.627,8.627,0,0,1,6,2.425,10.775,10.775,0,0,1-1.12.883,7.1,7.1,0,0,0-11.658,4.1H5.415V17.613a5.545,5.545,0,0,1,2.051-3.82L14.4,8.278c.182-.142.367-.3.564-.469l.069-.057.009-.007,0,0,0,0a9.814,9.814,0,0,1,1.968-1.4,2.2,2.2,0,0,1,.208-.088,3.8,3.8,0,0,1,1.324-.172l7.208,0V19.124a8.188,8.188,0,0,1-.585,2.757,9.474,9.474,0,0,1-1.968,3.1l.043.033.043.038a8.616,8.616,0,0,1-.62.609,8.62,8.62,0,0,1,2.572,6.151l1.326-.069a10.165,10.165,0,0,0-3.278-6.691,9.329,9.329,0,0,0,2.582-5.924V6.081h1v24.13a3.8,3.8,0,0,0,.353,1.474,2.753,2.753,0,0,0,2.456,1.594h20.01V25.031l-.121,0V23.906H31.453a.561.561,0,0,0,0,1.123H49.565v8.134l-19.884,0a2.642,2.642,0,0,1-2.354-1.5,3.548,3.548,0,0,1-.339-1.449V6.081H49.565V7.664h.121V6.081H81.65c.488,0,2.944.092,3.3,1.892v0l0,.011a27.922,27.922,0,0,1,.765,7.023,3.762,3.762,0,0,1-.37,1.583,3.27,3.27,0,0,1-2.866,1.8h-32.8V16.515l-.121,0V7.664H27.613l2.871,5.88a6.853,6.853,0,0,0,1.03,1.494,4.022,4.022,0,0,0,2.894,1.473H49.565v7.394h.121v1.123H64.6a.561.561,0,0,0,0-1.123H49.686V18.52H82.493a3.425,3.425,0,0,0,3.352-3.508,28.628,28.628,0,0,0-.772-7.056l0-.011c-.379-1.89-2.93-1.986-3.437-1.986H25.813l-4.913,0-2.352,0a3.9,3.9,0,0,0-1.362.179c-.076.034-.156.067-.22.093a10.275,10.275,0,0,0-1.985,1.411l0,0,0,0,0,0,0,0-.009.007-.012.012c-.116.1-.355.306-.618.512L7.392,13.705a6.232,6.232,0,0,0-1.831,2.629,4.211,4.211,0,0,0-.263,1.28V30.678H9.789a7.272,7.272,0,0,0-.09,1.129,7.032,7.032,0,0,0,.493,2.584H1.054A1.825,1.825,0,0,1,0,32.705V30.494a1.53,1.53,0,0,1,1.5-1.518V26H3.456a1.294,1.294,0,0,0,1.293-1.293V21.1a1.3,1.3,0,0,0-1.293-1.293H1.746c.054-.237.118-.486.213-.829a9.8,9.8,0,0,1,2.388-4.256l.007-.008a90.431,90.431,0,0,1,8.958-7.355c1.734-1.224,3.375-2.292,4.882-3.171H85.345A8.684,8.684,0,0,0,84.6,2.762H20.834c.147-.069.3-.142.474-.229.031-.014.062-.032.1-.046l.048-.024.024-.011.036-.016c.021-.011.045-.024.064-.033A.146.146,0,0,0,21.6,2.39l.019-.01c.04-.017.078-.038.121-.057l.019-.01.021-.011A21.143,21.143,0,0,1,30.47,0H80.577l.007,0a5.017,5.017,0,0,1,1.9.685,7.319,7.319,0,0,1,3.082,4.064l0,.008a29.14,29.14,0,0,1,1.63,6.2,50.678,50.678,0,0,1,.67,7.52,65.435,65.435,0,0,1-.642,10.258h.009a1.028,1.028,0,0,1,1.047,1.125v1.791a1.5,1.5,0,0,1-.436.727,3.816,3.816,0,0,1-2.409.959l-7.373,1.054ZM71.164,23.153a8.662,8.662,0,0,1,8.652,8.655l1.326-.069c-1.068-7.8-6.663-8.64-9.017-8.64a6.873,6.873,0,0,0-.959.055h0Zm14.541-2.906v5.2a1.3,1.3,0,0,0,1.3,1.3h.471a64.789,64.789,0,0,0,.4-7.791H87A1.3,1.3,0,0,0,85.705,20.247Zm-57.763-.172V23.2a.627.627,0,0,0,1.241.124l.007-.029v-.009s0-.008,0-.01v-.012a.039.039,0,0,1,0-.016V20.026a.03.03,0,0,1,0-.014V20a.02.02,0,0,1,0-.011v-.008a.628.628,0,0,0-1.248.093ZM19.8,18.3a.631.631,0,0,0,.282.521.56.56,0,0,0,.344.106h3.134a.6.6,0,0,0,.322-.092.1.1,0,0,0,.017-.012.611.611,0,0,0,.287-.523.627.627,0,0,0-.625-.627H20.429A.627.627,0,0,0,19.8,18.3Zm29.882-1.79H82.564a1.483,1.483,0,0,0,1.286-.526,1.318,1.318,0,0,0,.232-.756.5.5,0,0,0,0-.09,48.05,48.05,0,0,0-.547-6.535,1.012,1.012,0,0,0-1.009-.941H49.686Zm-37.753-.074c0,.026,0,.05,0,.074H22.2a2.113,2.113,0,0,0,1.594-.725,2.4,2.4,0,0,0,.443-1.682V7.664H18.792a.974.974,0,0,0-.251-.028A4.156,4.156,0,0,0,16.17,8.708L9.406,14.039l0,0,0,0a6.245,6.245,0,0,0-2.132,2.464h.9v-.074c0-.745.18-1.435,1.485-1.435C10.907,15,11.933,15.647,11.933,16.438ZM1.66,24.963a.7.7,0,0,1-.092,0l-.012,0H1.544a.026.026,0,0,0-.014,0H1.516l-.007,0-.012,0V21.455h.014a.013.013,0,0,1,.01,0l.014,0h.012l.014,0H1.57l.024,0H1.62v0l.009,0h.021l.009,0h.718a1.3,1.3,0,0,1,1.293,1.293v.938a1.3,1.3,0,0,1-1.293,1.293Z" transform="translate(0 0)"/>
  </g>
</svg>
