<svg xmlns="http://www.w3.org/2000/svg" width="88.282" height="27.398" viewBox="0 0 88.282 27.398">
  <defs>
    <style>
      .cls-1 {
        fill: currentColor;
      }

      .cls-2 {
        fill: currentColor;
      }
    </style>
  </defs>
  <g id="Group_2322" data-name="Group 2322" transform="translate(-3 4)">
    <path id="Union_65" data-name="Union 65" class="cls-1" d="M3.292,23.365H1.608A1.608,1.608,0,0,1,0,21.758V17.382a1.609,1.609,0,0,1,1.436-1.59A7.344,7.344,0,0,1,3.2,12.268a8.283,8.283,0,0,1,5.3-2.361L23.877,8.688c.629-.507,1.022-.816,1.4-1.109A44.626,44.626,0,0,1,32.826,2.9,30.223,30.223,0,0,1,39.9.477,29.032,29.032,0,0,1,45.585,0c.851,0,1.631.026,2.536.053l.35.01.067,0L48.8.073h.03l.2.007c.185.013,1.234.054,2.8.107l3.323.121L65.723.7l7.731.286c2.613.1,4.224.155,4.234.155a7.4,7.4,0,0,1,3.195,1.378,18.577,18.577,0,0,1,6.137,7.187,1.087,1.087,0,0,1-.074-.131c-.01-.017-.017-.034-.027-.048l-.081-.15-.01-.023-16.754.753h-.067c-.609,0-3.693.131-4.57,2.65l0,0A7.738,7.738,0,0,1,70.2,11.073H87.707l-.017-.03-.017-.026-.02-.051c-.024-.053-.047-.1-.067-.141l-.014-.027-.017-.033a.039.039,0,0,1-.01-.024,7.052,7.052,0,0,1,.652,1.715,3.344,3.344,0,0,1,.084.784c0-.064-.007-.127-.01-.185l0-.064H86.116a1.616,1.616,0,0,0-1.611,1.615v.043a1.613,1.613,0,0,0,1.611,1.61h2.166v3.213c0,1.711-1.954,2.256-2.172,2.313l-10.7,1.553a7.929,7.929,0,0,0,.239-1.876,7.69,7.69,0,1,0-15.137,1.9h-40.7a7.776,7.776,0,0,0,.249-1.9,7.69,7.69,0,1,0-15.13,1.9v0ZM40.036,1.192a29.427,29.427,0,0,0-6.9,2.365,44.742,44.742,0,0,0-7.422,4.607c-.471.363-.908.713-1.379,1.093l-.02.014,0,.026a35.56,35.56,0,0,0,0,12.867l.013.06H58.119l.01-.066a15.268,15.268,0,0,1,3.666-8.418,8.4,8.4,0,0,1,2.721-2.028l.007-.007.027-.007.01-.023a5.452,5.452,0,0,1,4.779-2.8.807.807,0,0,1,.091,0h.057l8.169-.282c2.428-.047,3.914-.521,4.426-1.416a1.483,1.483,0,0,0,0-1.416C79.622,1.912,76.431,1.866,76.3,1.866L49.032.81c-.266,0-.538,0-.824,0h-.235L47.8.8,47.425.8l-.131,0-.276,0-.289,0-.128,0h-.2c-.074,0-.141,0-.215,0h-.441c-.121,0-.242,0-.367,0A27.843,27.843,0,0,0,40.036,1.192ZM3.763,13.542a5.024,5.024,0,0,0-1.137,2.364A19.328,19.328,0,0,0,8.76,13.092a16.024,16.024,0,0,0,2.331-1.88c-.353-.023-.71-.037-1.059-.037C6.5,11.175,4.675,12.462,3.763,13.542Zm42,8.539-21.308,0a35.558,35.558,0,0,1,.007-12.725c.605-.488,1.022-.817,1.352-1.069a43.12,43.12,0,0,1,7.4-4.584,29.337,29.337,0,0,1,6.861-2.365,27.9,27.9,0,0,1,5.31-.406c.478,0,.935,0,1.4.01l.188,0,.286,0h.175c.478.01.985.014,1.608.017L76.3,2.017c.131,0,3.249.044,5.656,3.817a1.333,1.333,0,0,1-.007,1.271c-.33.581-1.345,1.281-4.3,1.338l-8.162.282h-.071a.285.285,0,0,0-.081-.007,5.594,5.594,0,0,0-4.893,2.859,8.481,8.481,0,0,0-2.751,2.055,15.439,15.439,0,0,0-3.7,8.444H45.911v-.044c0-.353-.007-.682,0-.985h-.155l0-.161v-.322l-20,.887,20-.4c0,.313,0,.64.007.982v.051Zm.151-1.033,7.7-.154a3.676,3.676,0,0,0,2.812-1.039,2.554,2.554,0,0,0,.6-1.812,3.42,3.42,0,0,1-2.539,2.136l-8.576.38A64.38,64.38,0,0,1,47.173,8.339c-.054,0-.1,0-.158,0A63.652,63.652,0,0,0,45.76,20.564l.151-.007Zm-5.445-10.3a.664.664,0,0,0,.3.552.618.618,0,0,0,.363.111h3.3a.644.644,0,0,0,.5-.239.623.623,0,0,0,.155-.424.659.659,0,0,0-.659-.658h-3.3A.659.659,0,0,0,40.467,10.747Zm19.145-.515a.665.665,0,0,0,.662.663h3.3a.661.661,0,1,0,0-1.322h-3.3A.663.663,0,0,0,59.612,10.232ZM26.252,8.86l.558-.013a3.4,3.4,0,0,1,.023-.421C26.638,8.568,26.443,8.713,26.252,8.86ZM40.208,2.054a28.614,28.614,0,0,0-6.686,2.3,41.128,41.128,0,0,0-4.745,2.715C30.23,7.1,31.4,7.818,31.5,8.723l13.449-.35,2.031-6.732c.578.013,1.17.033,1.8.054l1.046.037L48.3,8.288l9.558-.255,5.51-.145,1.693-5.6c.306.011.612.024.915.034l-1.5,5.54,4.72-.125c3.615-.091,6.393-.165,7.886-.2l.508-.014.589-.017c.081,0,.121,0,.124,0a4.06,4.06,0,0,0,1.614-.323.927.927,0,0,0,.592-.639c.124-.622-.484-1.389-1.026-1.984A5.115,5.115,0,0,0,76.182,2.7c-3.353-.151-12.584-.494-25.993-.969L49.076,1.69h-.1l-.138,0c-.952-.034-2.132-.078-3.259-.078A27.55,27.55,0,0,0,40.208,2.054ZM4.049,13.689C4.742,12.92,6.137,12,8.845,12c.266,0,.535.011.81.027l0,.007a15.326,15.326,0,0,1-6.474,3.35A3.465,3.465,0,0,1,4.049,13.689ZM87.528,10.71l0-.01.02.04A.134.134,0,0,1,87.528,10.71Zm-.007-.017,0-.007a.019.019,0,0,1,.007.014Z" transform="translate(3 -4)"/>
    <path id="Exclusion_28" data-name="Exclusion 28" class="cls-2" d="M6.03,12.063a6.032,6.032,0,1,1,6.03-6.033A6.038,6.038,0,0,1,6.03,12.063ZM5.207,8.017,4.369,9.511A3.8,3.8,0,0,0,6.03,9.89a3.842,3.842,0,0,0,1.661-.379L6.853,8.017l.462,1.646a2.376,2.376,0,0,1-.248.081l-.017.005L6.325,7.172a1.186,1.186,0,0,1-.3.042,1.326,1.326,0,0,1-.279-.038l-.02,0L5.007,9.749c-.057-.015-.112-.033-.17-.053l-.019-.006-.07-.023-.006,0,.465-1.646Zm1.84-1.39a1.146,1.146,0,0,1-.42.418L7.939,9.383A3.872,3.872,0,0,0,9.382,7.939L7.047,6.627Zm-2.034,0h0L2.678,7.939A3.876,3.876,0,0,0,4.121,9.383v0L5.43,7.047a1.2,1.2,0,0,1-.418-.421Zm3,.224h0l1.494.84c-.049.1-.09.176-.128.242l0,0A3.858,3.858,0,0,0,4.369,2.548l-.015.007c-.06.03-.11.055-.153.078l.008,0,.031-.015c.036-.018.073-.037.112-.058l.017-.008.838,1.5L4.742,2.395c.1-.035.186-.062.265-.084l.725,2.577a1.088,1.088,0,0,1,.3-.039,1.048,1.048,0,0,1,.3.039L7.05,2.311l.033.009.04.013c.077.023.138.041.192.062L6.853,4.043,7.691,2.55l.006,0c.086.041.164.079.242.125L6.626,5.014a1.167,1.167,0,0,1,.421.42L9.382,4.122c.05.094.091.173.128.251L8.016,5.2l1.649-.463.005.013c.027.084.056.168.078.256l-2.577.725a1.131,1.131,0,0,1,.042.292,1.17,1.17,0,0,1-.042.3l2.577.725a2.567,2.567,0,0,1-.084.26ZM2.6,4.264a3.788,3.788,0,0,0-.429,1.763,3.828,3.828,0,0,0,.394,1.7L2.55,7.691,4.041,6.85l-1.646.463a2.542,2.542,0,0,1-.083-.265l2.577-.719a1.171,1.171,0,0,1-.042-.3,1.208,1.208,0,0,1,.042-.292L2.311,5.011c.032-.114.058-.2.083-.269L4.041,5.2,2.55,4.372l.017-.038.01-.019L2.585,4.3C2.59,4.287,2.6,4.277,2.6,4.264Zm.078-.139h0L5.013,5.434a1.166,1.166,0,0,1,.418-.42L4.121,2.676A3.861,3.861,0,0,0,2.674,4.131l0-.006Z" transform="translate(9.082 11.334)"/>
    <path id="Exclusion_30" data-name="Exclusion 30" class="cls-2" d="M6.03,12.063a6.032,6.032,0,1,1,6.03-6.033A6.038,6.038,0,0,1,6.03,12.063ZM5.207,8.017,4.369,9.511A3.8,3.8,0,0,0,6.03,9.89a3.842,3.842,0,0,0,1.661-.379L6.853,8.017l.462,1.646a2.376,2.376,0,0,1-.248.081l-.017.005L6.325,7.172a1.186,1.186,0,0,1-.3.042,1.326,1.326,0,0,1-.279-.038l-.02,0L5.007,9.749c-.057-.015-.112-.033-.17-.053l-.019-.006-.07-.023-.006,0,.465-1.646Zm1.84-1.39a1.146,1.146,0,0,1-.42.418L7.939,9.383A3.872,3.872,0,0,0,9.382,7.939L7.047,6.627Zm-2.034,0h0L2.678,7.939A3.876,3.876,0,0,0,4.121,9.383v0L5.43,7.047a1.2,1.2,0,0,1-.418-.421Zm3,.224h0l1.494.84c-.049.1-.09.176-.128.242l0,0A3.858,3.858,0,0,0,4.369,2.548l-.015.007c-.06.03-.11.055-.153.078l.008,0,.031-.015c.036-.018.073-.037.112-.058l.017-.008.838,1.5L4.742,2.395c.1-.035.186-.062.265-.084l.725,2.577a1.088,1.088,0,0,1,.3-.039,1.048,1.048,0,0,1,.3.039L7.05,2.311l.033.009.04.013c.077.023.138.041.192.062L6.853,4.043,7.691,2.55l.006,0c.086.041.164.079.242.125L6.626,5.014a1.167,1.167,0,0,1,.421.42L9.382,4.122c.05.094.091.173.128.251L8.016,5.2l1.649-.463.005.013c.027.084.056.168.078.256l-2.577.725a1.131,1.131,0,0,1,.042.292,1.17,1.17,0,0,1-.042.3l2.577.725a2.567,2.567,0,0,1-.084.26ZM2.6,4.264a3.788,3.788,0,0,0-.429,1.763,3.828,3.828,0,0,0,.394,1.7L2.55,7.691,4.041,6.85l-1.646.463a2.542,2.542,0,0,1-.083-.265l2.577-.719a1.171,1.171,0,0,1-.042-.3,1.208,1.208,0,0,1,.042-.292L2.311,5.011c.032-.114.058-.2.083-.269L4.041,5.2,2.55,4.372l.017-.038.01-.019L2.585,4.3C2.59,4.287,2.6,4.277,2.6,4.264Zm.078-.139h0L5.013,5.434a1.166,1.166,0,0,1,.418-.42L4.121,2.676A3.861,3.861,0,0,0,2.674,4.131l0-.006Z" transform="translate(64.773 11.334)"/>
  </g>
</svg>
