<svg xmlns="http://www.w3.org/2000/svg" width="88.282" height="28.813" viewBox="0 0 88.282 28.813">
  <defs>
    <style>
      .cls-1 {
        fill: currentColor;
      }
    </style>
  </defs>
  <path id="Union_46" data-name="Union 46" class="cls-1" d="M63.108,22.383a6.426,6.426,0,1,1,6.426,6.43A6.434,6.434,0,0,1,63.108,22.383Zm4.653,3.711a4.078,4.078,0,0,0,3.542,0L70.411,24.5l.493,1.752a2.746,2.746,0,0,1-.284.091L69.849,23.6a1.255,1.255,0,0,1-.314.043,1.219,1.219,0,0,1-.318-.043l-.774,2.746a2.545,2.545,0,0,1-.278-.091l.489-1.752Zm2.408-2.626,1.4,2.487a4.1,4.1,0,0,0,1.538-1.537l-2.49-1.4A1.2,1.2,0,0,1,70.169,23.468Zm-4.207.95A4.128,4.128,0,0,0,67.5,25.955l1.4-2.487a1.259,1.259,0,0,1-.447-.446Zm5.689-1.151,1.591.886c-.033.072-.07.138-.1.2l-.016.03-.017.032A4.085,4.085,0,0,0,73.5,21.3l-2.744.773a1.255,1.255,0,0,1,.043.314,1.273,1.273,0,0,1-.043.319l2.745.773a2.494,2.494,0,0,1-.089.279l-1.756-.49Zm-6.231-.883a4.113,4.113,0,0,0,.42,1.81l-.017-.04,1.591-.889-1.756.49a2.788,2.788,0,0,1-.089-.282l2.748-.769a1.306,1.306,0,0,1-.046-.319,1.147,1.147,0,0,1,.046-.314L65.569,21.3c.033-.119.066-.207.089-.281l1.756.492-1.591-.888.02-.041,0-.01c.01-.017.02-.04.03-.058A4.039,4.039,0,0,0,65.42,22.383Zm4.749-1.077a1.22,1.22,0,0,1,.446.442l2.49-1.4a4.169,4.169,0,0,0-1.538-1.541Zm-4.21-.954,2.49,1.4A1.352,1.352,0,0,1,68.9,21.3l-1.4-2.488A4.185,4.185,0,0,0,65.959,20.352Zm7.283.266-1.591.888,1.756-.492a4.14,4.14,0,0,0-.188-.447C73.225,20.584,73.235,20.6,73.242,20.618Zm-3.393.551.771-2.746c.149.041.221.063.284.087l-.493,1.757.893-1.592.007,0,.023.014c.046.022.089.046.132.07l.03.012.06.03c-.07-.035-.145-.079-.251-.132a4.106,4.106,0,0,0-3.016-.2c.016,0,.033-.01.05-.013l.073-.02.033-.011.774,2.746a1.1,1.1,0,0,1,.318-.043A1.21,1.21,0,0,1,69.849,21.17Zm-2.087-2.494.893,1.594-.493-1.76s0,0,.007,0A4.279,4.279,0,0,0,67.762,18.676ZM6.5,22.383a6.426,6.426,0,1,1,6.426,6.43A6.434,6.434,0,0,1,6.5,22.383Zm4.657,3.711a4.078,4.078,0,0,0,3.542,0L13.808,24.5l.493,1.752a1.587,1.587,0,0,1-.251.083l-.013,0-.02.007L13.243,23.6a1.148,1.148,0,0,1-.314.046,1.129,1.129,0,0,1-.294-.043l-.023,0-.771,2.746c-.05-.014-.093-.027-.139-.044l-.043-.013-.02-.007-.013,0a.12.12,0,0,0-.017-.007.3.3,0,0,1-.046-.018l-.007,0,.5-1.752Zm2.408-2.63,1.4,2.491A4.085,4.085,0,0,0,16.5,24.418l-2.487-1.4A1.2,1.2,0,0,1,13.567,23.464Zm-4.21.954a4.134,4.134,0,0,0,1.538,1.537l1.4-2.487a1.228,1.228,0,0,1-.443-.45Zm5.689-1.158,1.594.893a2.459,2.459,0,0,1-.139.258l0,0a4.1,4.1,0,0,0-1.541-5.6l-1.4,2.494a1.212,1.212,0,0,1,.446.442l2.487-1.4c.06.105.1.2.139.269l-1.594.885,1.76-.493,0,.014c.03.086.06.179.086.271l-2.748.774a1.078,1.078,0,0,1,.046.311,1.134,1.134,0,0,1-.046.321l2.748.773q-.04.145-.089.275l-1.756-.493h0Zm-6.228-.88a4.085,4.085,0,0,0,.42,1.813l-.017-.04,1.588-.9-1.753.493a2.665,2.665,0,0,1-.089-.281l2.745-.767a1.312,1.312,0,0,1-.043-.321,1.268,1.268,0,0,1,.043-.311L8.966,21.3c.033-.115.06-.2.089-.284l1.753.493-1.588-.885.01-.02,0-.007a.064.064,0,0,1,.007-.014l.01-.019.007-.019.007-.011a.168.168,0,0,0,.01-.022A4.009,4.009,0,0,0,8.818,22.38Zm.539-2.028,2.49,1.4a1.219,1.219,0,0,1,.443-.446l-1.4-2.494A4.169,4.169,0,0,0,9.357,20.352Zm3.886.814.774-2.745.036.009.043.014c.089.027.149.046.205.066l-.493,1.757.893-1.592.007,0,.01,0c.046.023.1.05.146.073a4.118,4.118,0,0,0-3.7-.084l.893,1.6-.5-1.76c.093-.032.182-.059.284-.089l.771,2.745a1.2,1.2,0,0,1,.317-.04A1.156,1.156,0,0,1,13.243,21.167Zm1.718-2.355-.009-.006ZM3.44,24.371H1.68A1.679,1.679,0,0,1,0,22.695V18.124A1.678,1.678,0,0,1,1.5,16.46a7.62,7.62,0,0,1,1.852-3.685,8.638,8.638,0,0,1,5.537-2.47L24.941,9.038c.44-.356.877-.7,1.462-1.164a46.728,46.728,0,0,1,7.885-4.885A31.639,31.639,0,0,1,41.673.449,29.875,29.875,0,0,1,47.382,0c.132,0,.268,0,.436.006h.271c.093,0,.182,0,.271,0h.073a.168.168,0,0,1,.017,0h.456l.513.007h.007c.361.011,1.055.02,1.8.02l.327,0h.026c4.21.006,8.566.013,12.69,1.058A55.21,55.21,0,0,1,74.029,4.63a47.075,47.075,0,0,1,4.812,2.649l4.793-.143a2.886,2.886,0,0,1,1.921.979c1.078,1.191,1.5,3.2,1.27,5.961a1.752,1.752,0,0,1,1.35,1.411,4.07,4.07,0,0,1,.1,1.185v3.634c0,1.935-2.252,2.411-2.275,2.414l-8.7,1.621a8.135,8.135,0,0,0,.251-1.961,8.032,8.032,0,0,0-16.064,0,7.819,7.819,0,0,0,.255,1.991H20.7a8.19,8.19,0,0,0,.261-1.991,8.032,8.032,0,0,0-16.064,0,7.72,7.72,0,0,0,.258,1.991v.007ZM41.822,1.2a30.91,30.91,0,0,0-7.2,2.474,47.4,47.4,0,0,0-7.753,4.809c-.559.436-1.019.8-1.439,1.144l-.023.018,0,.026v.013a38.055,38.055,0,0,0,0,13.435l.013.062H59.523l.007-.068a19.32,19.32,0,0,1,1.548-5.345,13.48,13.48,0,0,1,2.186-3.327A9.228,9.228,0,0,1,66.2,12.2l.01,0,.04-.02.01-.043a7.945,7.945,0,0,1,2.986-4.309c1.1-1.035,1.568-1.991,1.376-2.835a2.736,2.736,0,0,0-1.809-1.692l-.007,0c-1.541-.54-3.132-1.03-4.726-1.452C60.089.815,55.792.81,51.635.8l-.417,0c-.447,0-1.005,0-1.677-.017H49.4l-.311,0h-.043l-.255,0h-.268C48.146.769,47.779.763,47.4.763A28.608,28.608,0,0,0,41.822,1.2ZM3.932,14.112a5.252,5.252,0,0,0-1.187,2.467,20.134,20.134,0,0,0,8.837-4.9c-.36-.03-.734-.046-1.108-.046C6.78,11.635,4.878,12.98,3.932,14.112Zm78.653-1.756V12.4a1.749,1.749,0,0,0,1.746,1.749h2.438a13.383,13.383,0,0,0-.122-3.543H84.332A1.752,1.752,0,0,0,82.585,12.356ZM25.543,23.029a37.747,37.747,0,0,1,.007-13.3l.033-.03.02-.017.043-.032c.529-.428.933-.748,1.313-1.046a46.787,46.787,0,0,1,7.726-4.791,30.183,30.183,0,0,1,7.167-2.461A28.853,28.853,0,0,1,47.4.919c.615,0,1.234.01,1.819.019H49.4l.139,0,.178,0c.281.007.642.01,1.134.01l.189,0h.542c4.164.007,8.464.014,12.456,1.031,1.7.457,3.284.943,4.72,1.448l0,0c.245.09,1.482.585,1.71,1.585.179.776-.265,1.676-1.316,2.672a8.067,8.067,0,0,0-3.036,4.363c-.556.238-5.474,2.55-6.73,10.964l-11.427,0A66.789,66.789,0,0,1,49.293,8.585l-.159.007A67.424,67.424,0,0,0,47.8,23.029v0ZM42.659,11.191a.692.692,0,0,0,.691.692H46.8a.476.476,0,0,0,.139-.016c.01,0,.013,0,.013,0h.017A.69.69,0,0,0,46.8,10.5H43.35A.69.69,0,0,0,42.659,11.191Zm17.668-.544a.692.692,0,0,0,.638.691h.043s0,0,.007,0h3.46a.011.011,0,0,1,.01,0h.046a.689.689,0,0,0-.066-1.375h-3.45A.686.686,0,0,0,60.327,10.646ZM27.422,9.216l.523-.016c0-.134.006-.264.019-.39Q27.692,9.011,27.422,9.216Zm5.6-.179,14.512-.468,2.127-6.86h-.116a1.21,1.21,0,0,1-.159-.007h-.208c-.069,0-.136,0-.2,0l-.043,0H48.7c-.413,0-.86-.01-1.3-.01A28.29,28.29,0,0,0,42,2.1a29.577,29.577,0,0,0-6.979,2.4A42.159,42.159,0,0,0,30.128,7.3C31.645,7.353,32.873,8.094,33.025,9.037ZM51.04,8.457l14.834-.483a3.305,3.305,0,0,0,2.815-1.4,1.885,1.885,0,0,0,.4-1.594,1.55,1.55,0,0,0-.8-.893c-1.406-.5-2.9-.953-4.435-1.353A48.033,48.033,0,0,0,52.214,1.726Zm-46.654,5.8c.751-.833,2.262-1.829,5.193-1.829.281,0,.579.011.883.027l0,.006a16.562,16.562,0,0,1-7.015,3.628A3.774,3.774,0,0,1,4.386,14.254Z" transform="translate(0 0)"/>
</svg>
