<svg xmlns="http://www.w3.org/2000/svg" width="20.027" height="20" viewBox="0 0 20.027 20">
  <defs>
    <style>
      .cls-1 {
        fill: currentColor;
      }
    </style>
  </defs>
  <path id="search_FILL0_wght500_GRAD0_opsz48" class="cls-1" d="M24.359,25.75l-7.25-7.223a5.781,5.781,0,0,1-1.888,1.067,6.989,6.989,0,0,1-2.326.383,6.967,6.967,0,0,1-5.1-2.079A6.834,6.834,0,0,1,5.7,12.864,6.834,6.834,0,0,1,7.793,7.829,6.9,6.9,0,0,1,12.841,5.75a6.857,6.857,0,0,1,5.034,2.079,6.857,6.857,0,0,1,2.079,5.034,6.825,6.825,0,0,1-.383,2.271,7.286,7.286,0,0,1-1.122,2.052l7.278,7.2ZM12.868,18.117a4.967,4.967,0,0,0,3.68-1.546,5.1,5.1,0,0,0,1.518-3.707,5.1,5.1,0,0,0-1.518-3.707,4.967,4.967,0,0,0-3.68-1.546,5.255,5.255,0,0,0-5.28,5.253,5.255,5.255,0,0,0,5.28,5.253Z" transform="translate(-5.7 -5.75)"/>
</svg>
