<svg xmlns="http://www.w3.org/2000/svg" width="88.383" height="35.576" viewBox="0 0 88.383 35.576">
  <defs>
    <style>
      .cls-1 {
        fill: currentColor;
      }
    </style>
  </defs>
  <path id="Union_77" data-name="Union 77" class="cls-1" d="M62.06,28.311a7.415,7.415,0,1,1,7.419,7.419A7.425,7.425,0,0,1,62.06,28.311Zm5.375,4.28a4.706,4.706,0,0,0,4.084,0l-1.032-1.839.57,2.023a2.671,2.671,0,0,1-.3.1l-.02.006-.89-3.168a1.293,1.293,0,0,1-.708.005l-.022-.005-.893,3.168c-.051-.012-.1-.027-.151-.044l-.058-.018-.023-.011-.008,0c-.027-.009-.051-.017-.077-.023l-.01-.007.572-2.023Zm2.775-3.033,1.614,2.874A4.781,4.781,0,0,0,73.6,30.66l-2.875-1.615A1.4,1.4,0,0,1,70.209,29.559Zm-4.855,1.1a4.766,4.766,0,0,0,1.773,1.772l1.614-2.87a1.507,1.507,0,0,1-.516-.517Zm-.622-2.352a4.694,4.694,0,0,0,.483,2.09l-.02-.046,1.835-1.031-2.024.564a3,3,0,0,1-.1-.323l3.169-.884a1.4,1.4,0,0,1-.053-.37,1.373,1.373,0,0,1,.053-.36L64.9,27.055c.039-.134.072-.237.1-.327l2.024.569L65.2,26.271a.136.136,0,0,1,.01-.02.122.122,0,0,0,.013-.024l.011-.022.013-.026a.164.164,0,0,0,.017-.036A4.646,4.646,0,0,0,64.732,28.309Zm7.187,1.013,1.838,1.031a4.7,4.7,0,0,0,.463-2.044,4.743,4.743,0,0,0-6.786-4.28l1.029,1.84-.572-2.027c.142-.046.24-.076.328-.1l.893,3.17a1.284,1.284,0,0,1,.367-.049,1.269,1.269,0,0,1,.364.049l.89-3.17.039.007.05.021c.094.025.168.049.235.073l-.57,2.027,1.032-1.836.01,0,.1.049a2.223,2.223,0,0,1,.2.108l-1.614,2.871a1.413,1.413,0,0,1,.516.519L73.6,25.967c.056.11.106.206.158.3L71.919,27.3l2.027-.569.007.016.017.054c.028.083.057.169.078.257l-3.168.894a1.385,1.385,0,0,1,.049.36,1.455,1.455,0,0,1-.049.37l3.168.891a2.649,2.649,0,0,1-.1.316l-2.024-.564h0Zm-6.565-3.354,2.87,1.614a1.427,1.427,0,0,1,.516-.519l-1.614-2.875a4.763,4.763,0,0,0-1.779,1.789s0,0,.005-.009h0ZM4.6,28.311a7.417,7.417,0,1,1,7.416,7.419A7.424,7.424,0,0,1,4.6,28.311Zm5.375,4.28a4.7,4.7,0,0,0,2.041.466,4.753,4.753,0,0,0,2.044-.466l-1.032-1.839.569,2.023a2.861,2.861,0,0,1-.3.1l-.02.006-.893-3.168a1.485,1.485,0,0,1-.364.052,1.52,1.52,0,0,1-.341-.047l-.023-.005-.893,3.168a1.352,1.352,0,0,1-.152-.044l-.056-.018-.023-.011c-.03-.01-.057-.019-.086-.026l-.006-.007L11,30.753Zm2.775-3.033,1.615,2.874A4.779,4.779,0,0,0,16.14,30.66l-2.874-1.615A1.405,1.405,0,0,1,12.749,29.559Zm-4.855,1.1A4.747,4.747,0,0,0,9.67,32.432l1.611-2.87a1.509,1.509,0,0,1-.517-.517Zm6.565-1.338L16.3,30.353c-.065.137-.118.231-.156.3l0,0a4.744,4.744,0,0,0-6.169-6.625L11,25.868l-.569-2.027c.113-.038.221-.072.324-.1l.893,3.17a1.274,1.274,0,0,1,.365-.049,1.242,1.242,0,0,1,.364.049l.893-3.17.036.007.053.021c.085.022.157.045.235.073l-.569,2.027,1.032-1.836.006,0,.078.04a2.408,2.408,0,0,1,.22.117l-1.615,2.871a1.369,1.369,0,0,1,.517.519l2.874-1.615c.047.087.085.162.121.234l.035.07L14.457,27.3l2.03-.569.006.016.005.017c.032.1.065.193.091.293l-3.169.894a1.35,1.35,0,0,1,.05.36,1.415,1.415,0,0,1-.05.37l3.169.891a2.908,2.908,0,0,1-.1.316l-2.027-.564ZM7.273,28.309a4.708,4.708,0,0,0,.482,2.09l-.02-.046,1.836-1.031-2.024.564a3,3,0,0,1-.1-.323l3.168-.884a1.431,1.431,0,0,1-.05-.37,1.375,1.375,0,0,1,.05-.36l-3.168-.894c.039-.134.072-.237.1-.327l2.024.569L7.736,26.271l0-.008a.169.169,0,0,0,.019-.036l.01-.022.013-.026a.133.133,0,0,0,.009-.02.128.128,0,0,1,.007-.016A4.68,4.68,0,0,0,7.273,28.309ZM7.9,25.967l2.867,1.615a1.429,1.429,0,0,1,.517-.519L9.67,24.188A4.746,4.746,0,0,0,7.9,25.967ZM3.055,28.223H2.524L2.51,28.21H.284a1.623,1.623,0,0,1-1.621-1.621V23.631A1.629,1.629,0,0,1-.3,22.124,16.01,16.01,0,0,1,.721,16.392a8.473,8.473,0,0,1,2.107-3.119,6.083,6.083,0,0,1,3.016-1.541L22.473,9.47l9.843-5.848C34.753,2.349,38.74,1.413,44.167.837A150.767,150.767,0,0,1,59.573.154c7.866,0,15.174.446,16.559.535l.04,0h.022a6.9,6.9,0,0,1,4.118,2.652l0,.011,4.263,6.383c1.157,2.588.932,3.576.93,3.586v.854H82.635a1.86,1.86,0,0,0-1.858,1.859v.049a1.86,1.86,0,0,0,1.858,1.858h2.873v.975c1.375.616,1.59,2.172,1.528,3.369a10.853,10.853,0,0,1-.457,2.465l-.006.014a3.028,3.028,0,0,1-1.481,2.278,2.935,2.935,0,0,1-1.184.381l-5.557.366a8.89,8.89,0,0,0-17.773.345v.02a.071.071,0,0,1,0,.021v.048H20.843l0-.049v-.041a8.9,8.9,0,0,0-17.794,0v.016a.048.048,0,0,1,0,.024v.049h0ZM22.708,10.19l-.026.014-.01.028-.007.019a33.077,33.077,0,0,0-.915,5.314A30.294,30.294,0,0,0,22.672,26.9l.02.054H59.3l.01-.067a11.964,11.964,0,0,1,1.621-4.53,9.187,9.187,0,0,1,3-3.071,9.986,9.986,0,0,1,5.332-1.392h.109a10.673,10.673,0,0,1,6.211,2.3l.053.049,3.053-3.057c.342-.421,2.051-2.6,2.051-4.007v-4.4c-.315-3.663-1.539-5.465-2.511-6.331a3.753,3.753,0,0,0-2.08-1.023c-.047-.005-7.4-.535-16.58-.535-13.385,0-22.68,1.161-26.879,3.358L27.163,7.539q.129.009.254.024l5.349-3.181c4.145-2.185,13.413-3.341,26.8-3.341,7.473,0,14.019.373,16.487.533.049,0,.079,0,.083,0a3.6,3.6,0,0,1,2,.968c.948.849,2.144,2.62,2.454,6.241v4.393c0,1.42-1.991,3.89-2.011,3.9l-2.947,2.948a10.985,10.985,0,0,0-6.271-2.289h-.1a12.281,12.281,0,0,0-1.806.132c.02-1.171.1-2.411.242-3.687l-.152.01c0-.051.006-.094.013-.136l0-.013,0-.034-23.38.814c.258-1.7.54-3.082.742-3.985l-.158,0c-.208.926-.482,2.289-.735,3.987l.152-.005a.162.162,0,0,1-.006.042v.017l0,.007a.107.107,0,0,0,0,.029v.02l0,.024a.48.48,0,0,0-.01.054l0,.021-.016.113-.01.059,0,.013c-.008.07-.019.138-.027.189L67.547,14.2c-.138,1.25-.219,2.494-.238,3.7-6.872,1.119-8.033,8.114-8.143,8.907H43.736A48.763,48.763,0,0,1,44.1,15.42l-.152.006.007-.033c.005-.06.017-.132.029-.2l0-.019L44,15.043c0-.01,0-.022,0-.033s0-.023.005-.033,0-.029.006-.042a.386.386,0,0,1,.006-.043l.007-.054-16.666.576h-.083a4.351,4.351,0,0,0-2.047.549,3.832,3.832,0,0,0-1.777,3.347,4.608,4.608,0,0,1,.718-1.5,3.6,3.6,0,0,1,3.036-1.516h.152l16.58-.863a48.9,48.9,0,0,0-.36,11.378v0h0L22.8,26.8a29.689,29.689,0,0,1-.918-11.081,32.275,32.275,0,0,1,.928-5.42L24.733,9.16c.005-.064.012-.126.021-.188Zm-11.45,8a12.557,12.557,0,0,1,4.806.87A8.337,8.337,0,0,1,18.9,20.973a7.036,7.036,0,0,1,1.682,2.778l.755,0c-1.671-4.972-5.915-5.715-8.3-5.715A9.315,9.315,0,0,0,11.258,18.191Zm67.2,5.3.011.017h1.075a4.556,4.556,0,0,0-3.426-2.887A10.8,10.8,0,0,1,78.457,23.489ZM2.589,16.247A6.453,6.453,0,0,0,1.445,19v.007a19.713,19.713,0,0,0,8.533-5.486c-.422-.031-.774-.047-1.075-.047C5.347,13.478,3.506,14.984,2.589,16.247Zm65.124-2.219c-.006.052-.013.107-.014.162l10.229-.533-10.213.357c.172-1.524.393-2.808.559-3.659l-.152,0c-.171.887-.386,2.155-.555,3.659l.148,0Zm-30.006-1.66a.666.666,0,0,0,.632.664h.006s0,0,.01,0H41.72a.011.011,0,0,1,.01,0A.665.665,0,0,0,41.7,11.7H38.372A.666.666,0,0,0,37.707,12.367Zm23.386-.732a.68.68,0,0,0,.632.67h3.36a.678.678,0,0,0,.149-.021.042.042,0,0,1,.016,0h.014a.675.675,0,0,0,.486-.646.666.666,0,0,0-.665-.664H61.759A.665.665,0,0,0,61.094,11.635ZM23.843,10.19l.922-.019a3.532,3.532,0,0,1-.044-.5Zm6.169-.651a1.322,1.322,0,0,1-.11.525l13.3-.276,2.041-6.44c.817-.073,1.64-.131,2.519-.188L46.586,9.715l20.3-.423,1.966-6.224c.634.024,1.222.075,1.782.1L69.31,9.244l9.375-.2a1.354,1.354,0,0,0,.959-.786c.352-.84-.083-2.184-1.256-3.886C78.375,4.352,77,2.5,75.461,2.309c-1.328-.089-8.366-.533-16.481-.533-13.223,0-22.373,1.127-26.463,3.258L28.056,7.686C29.206,7.992,30.011,8.706,30.011,9.539ZM1.987,18.383v0a4.368,4.368,0,0,1,.874-1.968c.7-.9,2.1-1.969,4.818-1.969.264,0,.538.01.817.03l0,.007a14.94,14.94,0,0,1-6.5,3.9Z" transform="translate(1.336 -0.154)"/>
</svg>
