<svg xmlns="http://www.w3.org/2000/svg" width="10.4" height="13" viewBox="0 0 10.4 13">
  <defs>
    <style>
      .cls-1 {
        fill: #0067b8;
      }
    </style>
  </defs>
  <path id="home_pin_FILL0_wght400_GRAD0_opsz48" class="cls-1" d="M11.413,10.987V7.981L13.2,6.8l1.787,1.186v3.006h-.975V9.038H12.388v1.95ZM13.2,15.716a19.032,19.032,0,0,0,3.193-3.567A5.411,5.411,0,0,0,17.425,9.33,4.23,4.23,0,0,0,16.2,6.194a4.092,4.092,0,0,0-3-1.219,4.092,4.092,0,0,0-3,1.219A4.23,4.23,0,0,0,8.975,9.33a5.333,5.333,0,0,0,1.056,2.819A20.667,20.667,0,0,0,13.2,15.716ZM13.2,17a21.608,21.608,0,0,1-3.908-4.136A6.431,6.431,0,0,1,8,9.33,5.027,5.027,0,0,1,9.568,5.446a5.283,5.283,0,0,1,7.264,0A5.027,5.027,0,0,1,18.4,9.33a6.431,6.431,0,0,1-1.292,3.534A21.608,21.608,0,0,1,13.2,17Z" transform="translate(-8 -4)"/>
</svg>
