<svg xmlns="http://www.w3.org/2000/svg" width="27.037" height="30" viewBox="0 0 27.037 30">
  <defs>
    <style>
      .cls-1 {
        fill: #fff;
      }
    </style>
  </defs>
  <path id="share_FILL0_wght400_GRAD0_opsz48" class="cls-1" d="M28.762,34a4.289,4.289,0,0,1-4.275-4.275,4.041,4.041,0,0,1,.056-.619,3.358,3.358,0,0,1,.169-.656L13.35,21.85a4.285,4.285,0,0,1-1.387,1.031,3.878,3.878,0,0,1-1.687.394A4.289,4.289,0,0,1,6,19a4.1,4.1,0,0,1,1.256-3.037,4.268,4.268,0,0,1,4.669-.9,4.527,4.527,0,0,1,1.425.975L24.712,9.513a2.613,2.613,0,0,1-.169-.6,3.886,3.886,0,0,1-.056-.637,4.1,4.1,0,0,1,1.256-3.038,4.266,4.266,0,0,1,7.294,3.038A4.148,4.148,0,0,1,31.8,11.294a4.1,4.1,0,0,1-3.038,1.256,5.03,5.03,0,0,1-1.669-.281,3.2,3.2,0,0,1-1.369-.919l-11.362,6.3a6.93,6.93,0,0,1,.131.694A4.793,4.793,0,0,1,14.55,19a3.061,3.061,0,0,1-.056.563q-.056.3-.131.6l11.362,6.45a4.462,4.462,0,0,1,1.313-.844,4.377,4.377,0,0,1,1.725-.319A4.282,4.282,0,0,1,31.8,32.744,4.1,4.1,0,0,1,28.762,34Zm0-23.7a1.986,1.986,0,0,0,2.025-2.025,2.025,2.025,0,1,0-4.05,0A1.986,1.986,0,0,0,28.762,10.3ZM10.275,21.025a2.025,2.025,0,1,0-1.444-3.469,2.025,2.025,0,0,0,1.444,3.469ZM28.762,31.75a1.986,1.986,0,1,0-1.444-.581A1.96,1.96,0,0,0,28.762,31.75Zm0-23.475ZM10.275,19ZM28.762,29.725Z" transform="translate(-6 -4)"/>
</svg>
