<svg id="printer" xmlns="http://www.w3.org/2000/svg" width="30" height="30" viewBox="0 0 30 30">
  <defs>
    <style>
      .cls-1 {
        fill: #fff;
      }
    </style>
  </defs>
  <path id="Path_1075" data-name="Path 1075" class="cls-1" d="M27.964,7.969H26.243c.01-.129.007.354.007-5.933A2.038,2.038,0,0,0,24.214,0H5.786A2.038,2.038,0,0,0,3.75,2.036c0,6.274,0,5.8.007,5.933H2.036A2.038,2.038,0,0,0,0,10V20.933a2.038,2.038,0,0,0,2.036,2.036h5v5A2.038,2.038,0,0,0,9.067,30H20.933a2.038,2.038,0,0,0,2.036-2.036v-5h5A2.038,2.038,0,0,0,30,20.933V10a2.038,2.038,0,0,0-2.036-2.036ZM5.625,7.808V2.036a.161.161,0,0,1,.161-.161H24.214a.161.161,0,0,1,.161.161V7.808a.161.161,0,0,1-.161.161H5.786a.161.161,0,0,1-.161-.161ZM21.094,27.964a.161.161,0,0,1-.161.161H9.067a.161.161,0,0,1-.161-.161V18.442a.161.161,0,0,1,.161-.161H20.933a.161.161,0,0,1,.161.161Zm7.031-7.031a.161.161,0,0,1-.161.161h-5V18.442a2.038,2.038,0,0,0-2.036-2.036H9.067a2.038,2.038,0,0,0-2.036,2.036v2.652h-5a.161.161,0,0,1-.161-.161V10a.161.161,0,0,1,.161-.161H27.964a.161.161,0,0,1,.161.161Z" transform="translate(0 0)"/>
  <path id="Path_1076" data-name="Path 1076" class="cls-1" d="M394.183,193.747h-1.31a.873.873,0,0,1,0-1.747h1.31a.873.873,0,0,1,0,1.747Z" transform="translate(-368.549 -180.699)"/>
  <path id="Path_1077" data-name="Path 1077" class="cls-1" d="M198.113,345.747h-5.24a.873.873,0,1,1,0-1.747h5.24a.873.873,0,1,1,0,1.747Z" transform="translate(-180.493 -323.751)"/>
  <path id="Path_1078" data-name="Path 1078" class="cls-1" d="M198.113,417.746h-5.24a.873.873,0,1,1,0-1.747h5.24a.873.873,0,1,1,0,1.747Z" transform="translate(-180.493 -391.239)"/>
</svg>
