<svg xmlns="http://www.w3.org/2000/svg" xmlns:xlink="http://www.w3.org/1999/xlink" width="33.025" height="35" viewBox="0 0 33.025 35">
  <defs>
    <filter id="share_FILL0_wght400_GRAD0_opsz48" x="0" y="0" width="33.025" height="35" filterUnits="userSpaceOnUse">
      <feOffset dy="5" input="SourceAlpha"/>
      <feGaussianBlur stdDeviation="2.5" result="blur"/>
      <feFlood flood-opacity="0.251"/>
      <feComposite operator="in" in2="blur"/>
      <feComposite in="SourceGraphic"/>
    </filter>
  </defs>
  <g transform="matrix(1, 0, 0, 1, 0, 0)" filter="url(#share_FILL0_wght400_GRAD0_opsz48)">
    <path id="share_FILL0_wght400_GRAD0_opsz48-2" data-name="share_FILL0_wght400_GRAD0_opsz48" d="M21.175,24a2.859,2.859,0,0,1-2.85-2.85,2.694,2.694,0,0,1,.037-.413,2.238,2.238,0,0,1,.113-.437L10.9,15.9a2.857,2.857,0,0,1-.925.688,2.586,2.586,0,0,1-1.125.262A2.859,2.859,0,0,1,6,14a2.732,2.732,0,0,1,.837-2.025,2.845,2.845,0,0,1,3.112-.6,3.018,3.018,0,0,1,.95.65l7.575-4.35a1.742,1.742,0,0,1-.113-.4,2.59,2.59,0,0,1-.037-.425,2.732,2.732,0,0,1,.838-2.025A2.844,2.844,0,0,1,24.025,6.85,2.765,2.765,0,0,1,23.2,8.862a2.732,2.732,0,0,1-2.025.837,3.354,3.354,0,0,1-1.113-.187A2.135,2.135,0,0,1,19.15,8.9l-7.575,4.2a4.618,4.618,0,0,1,.088.463A3.2,3.2,0,0,1,11.7,14a2.04,2.04,0,0,1-.037.375q-.037.2-.088.4l7.575,4.3a2.974,2.974,0,0,1,.875-.562,2.918,2.918,0,0,1,1.15-.212A2.855,2.855,0,0,1,23.2,23.163,2.732,2.732,0,0,1,21.175,24Zm0-15.8a1.324,1.324,0,0,0,1.35-1.35,1.35,1.35,0,1,0-2.313.963A1.307,1.307,0,0,0,21.175,8.2ZM8.85,15.35a1.324,1.324,0,1,0-.963-.388A1.307,1.307,0,0,0,8.85,15.35ZM21.175,22.5a1.324,1.324,0,1,0-.963-.388A1.307,1.307,0,0,0,21.175,22.5Zm0-15.65ZM8.85,14Zm12.325,7.15Z" transform="translate(1.5 -1.5)" fill="#f1f2f3"/>
  </g>
</svg>
