<svg xmlns="http://www.w3.org/2000/svg" xmlns:xlink="http://www.w3.org/1999/xlink" width="35" height="33.325" viewBox="0 0 35 33.325">
  <defs>
    <filter id="favorite_FILL0_wght400_GRAD0_opsz48" x="0" y="0" width="35" height="33.325" filterUnits="userSpaceOnUse">
      <feOffset dy="3" input="SourceAlpha"/>
      <feGaussianBlur stdDeviation="2.5" result="blur"/>
      <feFlood flood-opacity="0.251"/>
      <feComposite operator="in" in2="blur"/>
      <feComposite in="SourceGraphic"/>
    </filter>
  </defs>
  <g transform="matrix(1, 0, 0, 1, 0, 0)" filter="url(#favorite_FILL0_wght400_GRAD0_opsz48)">
    <path id="favorite_FILL0_wght400_GRAD0_opsz48-2" data-name="favorite_FILL0_wght400_GRAD0_opsz48" d="M14,23.625,12.975,22.7A88.7,88.7,0,0,1,6.45,16.2,8.511,8.511,0,0,1,4,10.575,5.167,5.167,0,0,1,9.25,5.3a5.687,5.687,0,0,1,2.525.613A5.935,5.935,0,0,1,14,7.925a7.251,7.251,0,0,1,2.275-2.012A5.282,5.282,0,0,1,18.75,5.3,5.167,5.167,0,0,1,24,10.575,8.511,8.511,0,0,1,21.55,16.2a88.7,88.7,0,0,1-6.525,6.5Zm0-9.4Zm0,7.425q3.8-3.5,6.15-6.075a7.583,7.583,0,0,0,2.35-5A3.636,3.636,0,0,0,18.75,6.8a4.006,4.006,0,0,0-2.35.775A5.648,5.648,0,0,0,14.6,9.8H13.375a5.418,5.418,0,0,0-1.787-2.225A4.026,4.026,0,0,0,9.25,6.8a3.632,3.632,0,0,0-2.7,1.062A3.7,3.7,0,0,0,5.5,10.575a7.583,7.583,0,0,0,2.35,5Q10.2,18.15,14,21.65Z" transform="translate(3.5 -0.8)" fill="#fbb900"/>
  </g>
</svg>
