<?xml version="1.0" encoding="utf-8"?>
<!-- Generator: Adobe Illustrator 15.1.0, SVG Export Plug-In . SVG Version: 6.00 Build 0)  -->
<svg version="1.2" baseProfile="tiny" xmlns="http://www.w3.org/2000/svg" xmlns:xlink="http://www.w3.org/1999/xlink" x="0px"
	 y="0px" width="283.46px" height="283.46px" viewBox="0 0 283.46 283.46" xml:space="preserve">
<g id="Ebene_1">
</g>
<g id="icons">
	<path fill="#808080" d="M283.469,0H0v283.466h283.465v-0.002h0.004V0z M14.177,14.176h255.12v255.118H14.177V14.176z"/>
</g>
<g id="Layer_1">
	<g>
		<path fill="none" d="M164.637,122.572c-0.602-0.535-1.229-1.104-1.954-1.582c-0.736-0.494-1.433-0.957-2.387-1.334
			c-0.488-0.211-0.874-0.283-1.279-0.387c-0.55-0.133-0.828-0.156-1.252-0.248c-0.774-0.178-1.554-0.32-2.298-0.516
			c-1.502-0.387-2.906-0.75-4.106-1.058c-2.411-0.653-4.071-1.038-4.071-1.038s1.386,1,3.668,2.111
			c1.139,0.564,2.498,1.157,4.011,1.68c0.759,0.254,1.546,0.517,2.374,0.712c0.377,0.095,0.923,0.188,1.179,0.267
			c0.398,0.111,0.834,0.219,1.104,0.371c0.607,0.219,1.349,0.645,1.981,1.051c0.645,0.432,1.298,0.859,1.894,1.33
			c1.209,0.922,2.306,1.859,3.254,2.668c1.896,1.652,3.157,2.758,3.157,2.758s-0.748-1.543-2.319-3.551
			C166.812,124.794,165.832,123.667,164.637,122.572z"/>
		<path fill="none" d="M131.171,114.816c-1.291,0.057-2.799,0.178-4.401,0.441c-1.604,0.23-3.292,0.639-4.959,1.129
			c-0.837,0.24-1.643,0.584-2.451,0.865c-0.798,0.313-1.552,0.711-2.294,1.051c-0.718,0.402-1.405,0.801-2.034,1.205
			c-0.617,0.444-1.183,0.877-1.697,1.277c-0.482,0.449-0.904,0.881-1.272,1.26c-0.39,0.357-0.625,0.777-0.865,1.066
			c-0.45,0.61-0.683,0.965-0.683,0.965s0.346-0.268,0.91-0.75c0.296-0.23,0.584-0.57,1.038-0.832
			c0.433-0.287,0.915-0.602,1.419-0.963c0.552-0.303,1.15-0.627,1.763-0.988c0.645-0.305,1.325-0.629,2.03-0.963
			c1.452-0.58,3.002-1.191,4.607-1.654c0.802-0.244,1.599-0.502,2.404-0.691c0.799-0.209,1.586-0.42,2.357-0.59
			c1.536-0.367,2.988-0.654,4.234-0.912c1.252-0.23,2.297-0.468,3.035-0.577c0.74-0.134,1.161-0.212,1.161-0.212
			s-0.427-0.063-1.181-0.1C133.543,114.816,132.463,114.765,131.171,114.816z"/>
		<path fill="none" d="M148.67,62.033c2.359,1.413,3.646,1.194,4.307,0c0.66-1.193,0.774-4.809-0.722-5.215
			c-2.671-0.723-3.739,1.979-5.187,2.166c-1.444,0.189-2.01-2.229-2.924-1.253C143.234,58.704,146.315,60.619,148.67,62.033z"/>
		<path fill="none" d="M113.354,64.055c0.642-1.026,1.263-1.953,1.844-2.773c1.131-1.665,2.105-2.909,2.754-3.771
			c0.663-0.85,1.018-1.302,1.018-1.302s-0.366,0.443-1.052,1.275c-0.669,0.844-1.679,2.064-2.854,3.7
			c-0.607,0.807-1.252,1.718-1.924,2.729c-0.697,0.999-1.404,2.104-2.133,3.306c-1.491,2.383-3.014,5.171-4.504,8.293
			c-0.781,1.547-1.422,3.232-2.184,4.939c-0.699,1.729-1.329,3.555-2.029,5.412c-0.578,1.896-1.207,3.838-1.777,5.843
			c-0.481,2.028-1.041,4.085-1.461,6.208c-0.359,2.135-0.836,4.289-1.113,6.502c-0.243,2.215-0.602,4.445-0.752,6.713
			c-0.121,2.271-0.32,4.555-0.378,6.854c-0.007,2.3-0.009,4.61-0.015,6.918c0.293,4.601,0.584,9.198,0.873,13.723
			c0.199,2.262,0.182,4.495,0.232,6.708c0.016,1.102,0.056,2.199,0.049,3.289c-0.034,1.094-0.069,2.176-0.103,3.25
			c-0.032,1.074-0.064,2.141-0.097,3.195c-0.082,1.055-0.162,2.096-0.241,3.127c-0.077,1.033-0.155,2.053-0.231,3.061
			c-0.125,1.006-0.246,1.994-0.365,2.973c-0.125,0.98-0.248,1.943-0.366,2.893c-0.169,0.943-0.331,1.873-0.493,2.785
			c-0.169,0.908-0.311,1.813-0.491,2.688c-0.2,0.873-0.397,1.729-0.591,2.568c-0.765,3.354-1.694,6.373-2.59,9.023
			c-0.447,1.322-0.958,2.531-1.379,3.666c-0.492,1.105-0.918,2.137-1.359,3.039c-0.878,1.809-1.635,3.197-2.215,4.107
			c-0.56,0.922-0.906,1.379-0.906,1.379s0.359-0.449,0.945-1.355c0.6-0.896,1.396-2.268,2.328-4.055
			c0.463-0.896,0.921-1.916,1.441-3.014c0.458-1.125,1-2.324,1.487-3.645c0.973-2.635,1.993-5.646,2.798-9.014
			c0.204-0.84,0.416-1.699,0.632-2.574c0.196-0.877,0.353-1.781,0.535-2.695c0.176-0.918,0.356-1.85,0.538-2.797
			c0.136-0.953,0.271-1.918,0.412-2.9c0.135-0.984,0.273-1.979,0.412-2.986c0.092-1.014,0.187-2.041,0.279-3.078
			c0.09-1.037,0.182-2.086,0.273-3.146c0.037-1.061,0.077-2.133,0.114-3.215c0.04-1.08,0.08-2.17,0.12-3.268
			c0.013-1.1-0.021-2.207-0.033-3.322c-0.037-2.227-0.015-4.492-0.201-6.748c-0.266-4.514-0.535-9.102-0.807-13.691
			c-0.006-2.291-0.012-4.582-0.018-6.864c0.044-2.28,0.233-4.548,0.34-6.804c0.139-2.25,0.484-4.463,0.713-6.664
			c0.266-2.195,0.729-4.334,1.076-6.453c0.402-2.107,0.957-4.149,1.398-6.17c0.536-1.996,1.131-3.933,1.679-5.823
			c0.667-1.853,1.263-3.677,1.935-5.403c0.729-1.703,1.344-3.391,2.096-4.939c1.445-3.119,2.882-5.933,4.303-8.346
			C112.013,66.189,112.684,65.068,113.354,64.055z"/>
		<path fill="none" d="M192.065,180.056c1.953,0.406,4.044,0.803,6.138,1.18c2.101,0.334,4.212,0.621,6.193,0.873
			c1.98,0.238,3.846,0.344,5.437,0.449c3.197,0.146,5.324,0.004,5.324,0.004s-0.527-0.057-1.454-0.148
			c-0.925-0.057-2.24-0.26-3.818-0.422c-1.579-0.184-3.409-0.477-5.377-0.75c-1.964-0.289-4.053-0.621-6.141-0.994
			c-2.092-0.332-4.182-0.684-6.134-1.047c-1.961-0.344-3.789-0.662-5.356-0.938c-3.133-0.553-5.234-0.898-5.234-0.898
			s2.028,0.658,5.117,1.447C188.31,179.185,190.11,179.661,192.065,180.056z"/>
		<path fill="none" d="M192.216,76.363c0.762-0.184,1.065-1.646,0.674-3.266c-0.395-1.621-1.33-2.782-2.095-2.598
			c-0.764,0.187-1.066,1.648-0.676,3.266C190.513,75.385,191.447,76.548,192.216,76.363z"/>
		<path fill="none" d="M47.085,250.19c0.938-1.545,2.101-3.412,3.516-5.496c1.396-2.098,3.042-4.418,4.863-6.922
			c1.825-2.5,3.896-5.145,6.152-7.873c2.265-2.729,4.769-5.502,7.38-8.35c1.345-1.383,2.714-2.793,4.1-4.217
			c1.438-1.361,2.889-2.74,4.355-4.131c1.534-1.336,3.078-2.684,4.63-4.033c0.783-0.705,1.583-1.393,2.353-2.117
			c0.735-0.754,1.5-1.49,2.215-2.266c5.672-6.295,9.67-13.838,12.469-21.146c2.809-7.334,4.336-14.512,5.342-20.666
			c0.996-6.166,1.281-11.365,1.432-14.992c0.117-3.631,0.007-5.703,0.007-5.703s-0.067,2.072-0.396,5.68
			c-0.313,3.607-0.984,8.74-2.152,14.818c-1.162,6.078-3.029,13.07-5.856,20.23c-2.82,7.139-6.81,14.438-12.329,20.428
			c-0.688,0.748-1.406,1.463-2.107,2.199l-2.235,2.051c-1.543,1.377-3.083,2.75-4.61,4.109c-1.477,1.432-2.945,2.854-4.392,4.26
			c-1.389,1.457-2.757,2.895-4.103,4.311c-1.286,1.469-2.604,2.871-3.796,4.324c-1.175,1.467-2.366,2.865-3.448,4.291
			c-2.186,2.828-4.182,5.563-5.932,8.141c-3.533,5.143-6.072,9.686-7.799,12.877c-1.383,2.602-2.166,4.328-2.418,4.898h0.024
			C44.65,254.339,45.565,252.685,47.085,250.19z"/>
		<path fill="none" d="M187.593,136.92c-0.645,1.468-1.24,3.071-1.771,4.702c-0.261,0.816-0.476,1.646-0.698,2.463
			c-0.246,0.809-0.359,1.645-0.537,2.428c-0.3,1.588-0.456,3.098-0.491,4.396c-0.038,0.646,0.018,1.248,0.035,1.773
			c0.002,0.521,0.084,0.982,0.148,1.354c0.125,0.748,0.214,1.162,0.214,1.162s0.067-0.42,0.186-1.162
			c0.046-0.367,0.105-0.807,0.222-1.309c0.111-0.504,0.195-1.066,0.342-1.68c0.147-0.605,0.307-1.266,0.475-1.961
			c0.188-0.688,0.387-1.418,0.596-2.172c0.444-1.496,0.895-3.1,1.428-4.684c0.474-1.602,1.029-3.183,1.504-4.685
			c0.485-1.504,0.938-2.906,1.324-4.109c0.771-2.416,1.215-4.08,1.215-4.08s-1.048,1.375-2.269,3.627
			C188.894,134.107,188.226,135.449,187.593,136.92z"/>
		<path fill="none" d="M111.4,84.339c0,0,7.764-10.715,8.471-16.627C119.995,66.654,112.16,72.765,111.4,84.339z"/>
		<path fill="#808080" d="M65.912,160.173c0,0,7.559-1.689,13.525,0C79.438,160.173,76.559,155.731,65.912,160.173z"/>
		<path fill="#808080" d="M79.938,101.19c0.598,4.278-7.462,9.251-7.462,9.251C86.999,104.771,79.938,101.19,79.938,101.19z"/>
		<path fill="#808080" d="M67.006,171.415c11.081-0.02,12.432-6.564,12.432-6.564C77.449,167.933,67.006,171.415,67.006,171.415z"/>
		<path fill="#808080" d="M91.275,83.185c-1.393,3.582-9.948,6.166-9.948,6.166C94.862,89.638,91.275,83.185,91.275,83.185z"/>
		<path fill="#808080" d="M64.023,143.862c0,0,5.07,2.387,11.438-2.09c5.834-4.101,7.363-17.812,7.581-20.087
			c-0.167,0.778-1.003,3.381-4.895,12.032C72.777,145.651,64.023,143.862,64.023,143.862z"/>
		<path fill="#808080" d="M103.907,65.482c4.774,0,4.927-4.826,4.927-4.826c-6.566,2.936-15.867,4.475-15.867,4.475
			C101.225,63.888,99.136,65.482,103.907,65.482z"/>
		<path fill="#808080" d="M236.799,146.546c5.521,3.758,11.042,8.652,11.042,8.652C245.552,147.394,236.799,146.546,236.799,146.546
			z"/>
		<path fill="#808080" d="M215.251,231.78c5.385,6.402,5.202,17.93,5.202,17.93C224.366,239.151,215.251,231.78,215.251,231.78z"/>
		<path fill="#808080" d="M249.057,154.55c0.402-2.535-0.907-4.605-2.106-6.678c-1.197-2.068-3.104-7.006-3.365-11.101
			c-0.264-4.092-1.73-4.361-9.064-8.598c-7.336-4.234-17.169-12.328-20.726-18.059c-3.134-5.047-8.704-4.623-14.176-0.744
			c-5.497,3.898-12.68,5.371-14.369,9.646c-1.694,4.278-6.617,8.407-9.204,10.795c-2.586,2.387-1.79-1.393-9.947-7.959
			c-8.156-6.565-9.946-4.077-15.116-6.565c-5.174-2.485-8.06-7.46-8.854-13.427c-0.796-5.969,4.368-9.346,7.61-8.605
			c5.867,1.344,11.688-0.049,20.988-1.891c9.237-1.826,9.226-1.914,14.297,0.923c5.071,2.835,10.818-4.104,13.95-6.94
			c3.133-2.834-0.82-8.986-3.059-10.629c-2.237-1.643-1.717-6.826-10.072-9.362c-8.353-2.537-26.557-9.251-36.555-16.563
			c-3.479-2.546-7.515-4.456-11.947-5.255c0.287-1.385,0.645-4.528-1.212-7.026c-2.458-3.309-2.896-3.394-2.879-5.751
			c0.012-2.355-1.582-3.512-2.768-1.011c-1.104,2.329-3.585,9.91-2.16,13.757c-1.814,0.311-3.67,0.818-5.563,1.546
			c-2.467-1.663-10.132-6.407-14.75-4.382c-5.562,2.437,2.455,2.419,1.635,6.008c-0.313,1.372,0.943,3.056,2.607,4.612
			c-0.979,0.794-1.963,1.647-2.949,2.573c-1.373,1.291-2.621,2.902-3.753,4.791c-5.389,1.789-13.396,5.076-18.222,5.277
			c-8.029,0.328-9.348,2.419-11.77,3.74c0,0,6.436-2.311,9.68-1.321c3.243,0.99,6.492,2.534,11.167,1.431
			c0,0,0.003,1.31-3.089,2.355c-3.41,1.148-9.405,2.529-8.968,7.367c0.44,4.84,4.621,2.86,1.434,6.324
			c-3.192,3.465-13.97,5.061-18.755,5.283c-4.785,0.215-11.715,4.506-11.273,8.631c0,0,0.895-5.335,8.637-6.203
			c3.369-0.379,11.854,1.768,17.829,0.354c-1.975,1.343-4.213,2.371-6.407,2.309c-6.096-0.177-20.561,1.533-15.516,13.523
			c0,0-0.697-6.859,4.078-8.652c2.914-1.092,7.648,0.629,11.807,0.986c0.424,2.215,0.366,3.657-1.344,5.467
			c-2.889,3.053-11.729,9.18-14.367,16.027c0,0,4.076-4.84,8.581-6.117c4.595-1.307,6.507-2.166,8.261-4.656
			c-0.438,2.4-0.828,3.92-2.146,6.295c-2.061,3.711-8.99,12.95-13.529,15.59c0,0,9.402,1.521,18.203-9.902
			c-4.281,8.24-6.613,15.701-13.573,17.39c-12.423,3.018-16.563,1.201-20.192-1.659c0,0,10.777,10.452,19.908,9.79
			c0,0-5.83,1.6-15.178,0.029c-9.349-1.57-17.27,6.131-17.27,6.131s10.449-4.73,15.727-2.422c3.137,1.369,9.211,4.098,15.035,4.961
			c-2.691,0.938-5.191,1.969-7.113,3.07c-8.086,4.617-13.364,3.795-13.364,3.795s10.889,1.764,16.499,0.057
			c3.406-1.037,10.187-2.172,16.246-2.02c-1.727,1.859-4.764,4.154-9.922,5.646c-9.898,2.861-13.053,4.738-18.629,9.303
			c-4.923,4.027-7.797,8.131-9.748,14.566c0,0,2.909-4.961,7.864-6.848c9.491-3.619,7.899-6.252,14.197-7.85
			c2.769-0.701,6.138-0.605,11.93-1.117c-0.59,0.568-0.736,0.738-1.216,1.293c-6.269,7.26-3.408,11.219-11.054,18.643
			c0,0,8.819-5.012,13.354-10.486c2.348-2.834,9.008-4.17,14.854-5.904c-11.117,27.607-39.999,50.539-51.106,75.563
			c-0.03,0.068-0.054,0.133-0.083,0.201h7.318c0.252-0.57,1.035-2.297,2.418-4.898c1.727-3.191,4.266-7.734,7.799-12.877
			c1.75-2.578,3.746-5.313,5.932-8.141c1.082-1.426,2.273-2.824,3.448-4.291c1.191-1.453,2.51-2.855,3.796-4.324
			c1.346-1.416,2.714-2.854,4.103-4.311c1.446-1.406,2.915-2.828,4.392-4.26c1.527-1.359,3.067-2.732,4.61-4.109l2.235-2.051
			c0.701-0.736,1.42-1.451,2.107-2.199c5.52-5.99,9.509-13.289,12.329-20.428c2.827-7.16,4.694-14.152,5.856-20.23
			c1.168-6.078,1.84-11.211,2.152-14.818c0.328-3.607,0.396-5.68,0.396-5.68s0.11,2.072-0.007,5.703
			c-0.15,3.627-0.436,8.826-1.432,14.992c-1.006,6.154-2.533,13.332-5.342,20.666c-2.799,7.309-6.797,14.852-12.469,21.146
			c-0.715,0.775-1.479,1.512-2.215,2.266c-0.77,0.725-1.569,1.412-2.353,2.117c-1.552,1.35-3.096,2.697-4.63,4.033
			c-1.467,1.391-2.918,2.77-4.355,4.131c-1.386,1.424-2.755,2.834-4.1,4.217c-2.611,2.848-5.115,5.621-7.38,8.35
			c-2.257,2.729-4.327,5.373-6.152,7.873c-1.821,2.504-3.467,4.824-4.863,6.922c-1.415,2.084-2.577,3.951-3.516,5.496
			c-1.52,2.494-2.435,4.148-2.736,4.705h86.202c1.658-1.182,3.396-2.447,5.21-3.834c14.822-11.338,30.639-43.068,33.721-51.322
			c2.229-5.971,20.826-6.854,33.753-7.67c8.854-0.559,7.252-0.822,9.447,0.047c6.593,2.621,4.699,13.367,4.428,18.799
			c-0.272,5.43-1.752,9.387-0.382,14.012c1.008,3.396-1.079,4.85-3.133,6.391c-2.409,1.813-4.374,6.008-2.656,13.059
			c1.162,4.779,4.101,7.291,7.679,7.598c3.282,0.281,3.781-0.117,6.439-4.844c2.733-4.861-0.54-16.271,1.187-20.43
			c1.724-4.16,1.795-9.195,0.538-12.854c0,0-2.859-14.318-1.666-19.889c1.194-5.57,2.984-4.975,0.695-7.561
			c-5.188-5.863-11.438-6.664-17.305-7.26c-5.872-0.598-19.3-2.486-23.974-3.48c-4.678-0.996-2.816-1.682-2.619-6.756
			c0.199-5.072,11.938-5.473,11.74-12.83c-0.199-7.361-1.427-25.539,7.782-33.944c9.126-8.331,20.763,7.294,25.341,12.856
			c3.727,4.527,3.768,7.064,5.076,8.912c1.312,1.848,4.111,1.783,4.111,1.783c-4.563,3.889-3.478,7.182,1.03,14.217
			c4.503,7.035,10.341,5.963,12.187,3.336C251.12,160.474,248.651,157.085,249.057,154.55z M190.795,70.5
			c0.765-0.185,1.7,0.977,2.095,2.598c0.392,1.619,0.088,3.082-0.674,3.266c-0.769,0.186-1.703-0.978-2.097-2.598
			C189.729,72.148,190.031,70.686,190.795,70.5z M144.145,57.731c0.914-0.976,1.479,1.442,2.924,1.253
			c1.447-0.188,2.516-2.889,5.187-2.166c1.496,0.406,1.382,4.021,0.722,5.215c-0.66,1.194-1.947,1.413-4.307,0
			C146.315,60.619,143.234,58.704,144.145,57.731z M119.871,67.712c-0.707,5.912-8.471,16.627-8.471,16.627
			C112.16,72.765,119.995,66.654,119.871,67.712z M92.967,65.13c0,0,9.301-1.539,15.867-4.475c0,0-0.152,4.826-4.927,4.826
			C99.136,65.482,101.225,63.888,92.967,65.13z M72.476,110.441c0,0,8.06-4.973,7.462-9.251
			C79.938,101.19,86.999,104.771,72.476,110.441z M67.006,171.415c0,0,10.443-3.482,12.432-6.564
			C79.438,164.851,78.087,171.396,67.006,171.415z M65.912,160.173c10.646-4.441,13.525,0,13.525,0
			C73.471,158.483,65.912,160.173,65.912,160.173z M75.461,141.772c-6.367,4.477-11.438,2.09-11.438,2.09s8.754,1.789,14.124-10.145
			c3.892-8.651,4.728-11.254,4.895-12.032C82.824,123.96,81.295,137.671,75.461,141.772z M81.327,89.351
			c0,0,8.556-2.584,9.948-6.166C91.275,83.185,94.862,89.638,81.327,89.351z M104.918,80.689c-0.672,1.727-1.268,3.551-1.935,5.403
			c-0.548,1.891-1.143,3.827-1.679,5.823c-0.441,2.021-0.996,4.063-1.398,6.17c-0.347,2.119-0.811,4.258-1.076,6.453
			c-0.229,2.201-0.574,4.414-0.713,6.664c-0.106,2.256-0.296,4.523-0.34,6.804c0.006,2.282,0.012,4.573,0.018,6.864
			c0.271,4.59,0.541,9.178,0.807,13.691c0.187,2.255,0.164,4.521,0.201,6.748c0.012,1.115,0.046,2.223,0.033,3.322
			c-0.04,1.098-0.08,2.188-0.12,3.268c-0.037,1.082-0.077,2.154-0.114,3.215c-0.092,1.061-0.184,2.109-0.273,3.146
			c-0.093,1.037-0.188,2.064-0.279,3.078c-0.139,1.008-0.277,2.002-0.412,2.986c-0.141,0.982-0.276,1.947-0.412,2.9
			c-0.182,0.947-0.362,1.879-0.538,2.797c-0.183,0.914-0.339,1.818-0.535,2.695c-0.216,0.875-0.428,1.734-0.632,2.574
			c-0.805,3.367-1.825,6.379-2.798,9.014c-0.487,1.32-1.029,2.52-1.487,3.645c-0.521,1.098-0.979,2.117-1.441,3.014
			c-0.932,1.787-1.729,3.158-2.328,4.055c-0.586,0.906-0.945,1.355-0.945,1.355s0.347-0.457,0.906-1.379
			c0.58-0.91,1.337-2.299,2.215-4.107c0.441-0.902,0.867-1.934,1.359-3.039c0.421-1.135,0.932-2.344,1.379-3.666
			c0.896-2.65,1.825-5.67,2.59-9.023c0.193-0.84,0.391-1.695,0.591-2.568c0.181-0.875,0.322-1.779,0.491-2.688
			c0.162-0.912,0.324-1.842,0.493-2.785c0.118-0.949,0.241-1.912,0.366-2.893c0.119-0.979,0.24-1.967,0.365-2.973
			c0.076-1.008,0.154-2.027,0.231-3.061c0.079-1.031,0.159-2.072,0.241-3.127c0.032-1.055,0.064-2.121,0.097-3.195
			c0.033-1.074,0.068-2.156,0.103-3.25c0.007-1.09-0.033-2.188-0.049-3.289c-0.051-2.213-0.033-4.445-0.232-6.708
			c-0.289-4.524-0.58-9.122-0.873-13.723c0.006-2.308,0.008-4.618,0.015-6.918c0.058-2.3,0.257-4.583,0.378-6.854
			c0.15-2.268,0.509-4.498,0.752-6.713c0.277-2.213,0.754-4.367,1.113-6.502c0.42-2.123,0.979-4.18,1.461-6.208
			c0.57-2.005,1.199-3.946,1.777-5.843c0.7-1.857,1.33-3.684,2.029-5.412c0.762-1.707,1.402-3.393,2.184-4.939
			c1.49-3.122,3.013-5.91,4.504-8.293c0.729-1.201,1.436-2.307,2.133-3.306c0.672-1.011,1.316-1.922,1.924-2.729
			c1.176-1.636,2.186-2.856,2.854-3.7c0.686-0.832,1.052-1.275,1.052-1.275s-0.354,0.452-1.018,1.302
			c-0.648,0.862-1.623,2.106-2.754,3.771c-0.581,0.82-1.202,1.747-1.844,2.773c-0.67,1.013-1.341,2.134-2.037,3.349
			c-1.421,2.413-2.857,5.227-4.303,8.346C106.262,77.298,105.647,78.986,104.918,80.689z M134.313,115.155
			c-0.738,0.109-1.783,0.347-3.035,0.577c-1.246,0.258-2.698,0.545-4.234,0.912c-0.771,0.17-1.559,0.381-2.357,0.59
			c-0.806,0.189-1.603,0.447-2.404,0.691c-1.605,0.463-3.155,1.074-4.607,1.654c-0.705,0.334-1.386,0.658-2.03,0.963
			c-0.612,0.361-1.211,0.686-1.763,0.988c-0.504,0.361-0.986,0.676-1.419,0.963c-0.454,0.262-0.742,0.602-1.038,0.832
			c-0.564,0.482-0.91,0.75-0.91,0.75s0.232-0.354,0.683-0.965c0.24-0.289,0.476-0.709,0.865-1.066
			c0.368-0.379,0.79-0.811,1.272-1.26c0.515-0.4,1.08-0.833,1.697-1.277c0.629-0.404,1.316-0.803,2.034-1.205
			c0.742-0.34,1.496-0.738,2.294-1.051c0.809-0.281,1.614-0.625,2.451-0.865c1.667-0.49,3.355-0.898,4.959-1.129
			c1.603-0.264,3.11-0.385,4.401-0.441c1.292-0.051,2.372,0,3.122,0.027c0.754,0.037,1.181,0.1,1.181,0.1
			S135.053,115.021,134.313,115.155z M166.753,126.599c-0.948-0.809-2.045-1.746-3.254-2.668c-0.596-0.471-1.249-0.898-1.894-1.33
			c-0.633-0.406-1.374-0.832-1.981-1.051c-0.27-0.152-0.705-0.26-1.104-0.371c-0.256-0.078-0.802-0.172-1.179-0.267
			c-0.828-0.195-1.615-0.458-2.374-0.712c-1.513-0.522-2.872-1.115-4.011-1.68c-2.282-1.111-3.668-2.111-3.668-2.111
			s1.66,0.385,4.071,1.038c1.2,0.308,2.604,0.671,4.106,1.058c0.744,0.195,1.523,0.338,2.298,0.516
			c0.424,0.092,0.702,0.115,1.252,0.248c0.405,0.104,0.791,0.176,1.279,0.387c0.954,0.377,1.65,0.84,2.387,1.334
			c0.725,0.479,1.353,1.047,1.954,1.582c1.195,1.096,2.175,2.223,2.954,3.234c1.571,2.008,2.319,3.551,2.319,3.551
			S168.649,128.251,166.753,126.599z M220.453,249.71c0,0,0.183-11.527-5.202-17.93C215.251,231.78,224.366,239.151,220.453,249.71z
			 M186.877,178.263c1.567,0.275,3.396,0.594,5.356,0.938c1.952,0.363,4.042,0.715,6.134,1.047c2.088,0.373,4.177,0.705,6.141,0.994
			c1.968,0.273,3.798,0.566,5.377,0.75c1.578,0.162,2.894,0.365,3.818,0.422c0.927,0.092,1.454,0.148,1.454,0.148
			s-2.127,0.143-5.324-0.004c-1.591-0.105-3.456-0.211-5.437-0.449c-1.981-0.252-4.093-0.539-6.193-0.873
			c-2.094-0.377-4.185-0.773-6.138-1.18c-1.955-0.395-3.756-0.871-5.306-1.244c-3.089-0.789-5.117-1.447-5.117-1.447
			S183.744,177.71,186.877,178.263z M190.567,133.437c-0.387,1.203-0.839,2.605-1.324,4.109c-0.475,1.502-1.03,3.083-1.504,4.685
			c-0.533,1.584-0.983,3.188-1.428,4.684c-0.209,0.754-0.408,1.484-0.596,2.172c-0.168,0.695-0.327,1.355-0.475,1.961
			c-0.146,0.613-0.23,1.176-0.342,1.68c-0.116,0.502-0.176,0.941-0.222,1.309c-0.118,0.742-0.186,1.162-0.186,1.162
			s-0.089-0.414-0.214-1.162c-0.064-0.371-0.146-0.832-0.148-1.354c-0.018-0.525-0.073-1.127-0.035-1.773
			c0.035-1.299,0.191-2.809,0.491-4.396c0.178-0.783,0.291-1.619,0.537-2.428c0.223-0.816,0.438-1.646,0.698-2.463
			c0.531-1.631,1.127-3.234,1.771-4.702c0.633-1.472,1.301-2.813,1.921-3.937c1.221-2.252,2.269-3.627,2.269-3.627
			S191.338,131.021,190.567,133.437z M236.799,146.546c0,0,8.753,0.848,11.042,8.652
			C247.841,155.198,242.319,150.304,236.799,146.546z"/>
		<path fill="#808080" d="M44.349,254.896h-0.024c-0.059,0.133-0.097,0.223-0.097,0.223S44.274,255.03,44.349,254.896z"/>
	</g>
</g>
</svg>
