<?xml version="1.0" encoding="utf-8"?>
<!-- Generator: Adobe Illustrator 15.1.0, SVG Export Plug-In . SVG Version: 6.00 Build 0)  -->
<svg version="1.2" baseProfile="tiny" xmlns="http://www.w3.org/2000/svg" xmlns:xlink="http://www.w3.org/1999/xlink" x="0px"
	 y="0px" width="283.46px" height="283.46px" viewBox="0 0 283.46 283.46" xml:space="preserve">
<g id="Ebene_1">
</g>
<g id="icons">
	<g>
		<path fill="#9D9D9C" d="M227.725,116.176V84.377h-14.26v-4.897v-2.933l-7.088-7.088l-10.363-10.363l-7.086-7.086h-2.934v0h-7.086
			v0H62.599v32.367H48.34v31.799H36.302v70.865h26.297v44.416h150.866v-44.416h33.701v-70.865H227.725z M185.994,59.096
			l20.383,20.384h-20.383V59.096z M69.685,84.377V59.096h109.223v20.384v7.086h7.086h20.383v29.226H69.685V84.377z M206.377,179.955
			v7.086v37.33H69.685v-37.33v-7.086v-12.279h136.692V179.955z M240.08,179.955h-26.615v-19.367H62.599v19.367H43.388v-56.693h4.953
			h21.345h136.696h21.344h12.355V179.955z"/>
		<path fill="#9D9D9C" d="M283.469,0H0v283.465h283.465v-0.002h0.004V0z M14.177,14.176h255.12v255.117H14.177V14.176z"/>
	</g>
</g>
</svg>
