<?xml version="1.0" encoding="utf-8"?>
<!-- Generator: Adobe Illustrator 15.1.0, SVG Export Plug-In . SVG Version: 6.00 Build 0)  -->
<svg version="1.2" baseProfile="tiny" xmlns="http://www.w3.org/2000/svg" xmlns:xlink="http://www.w3.org/1999/xlink" x="0px"
	 y="0px" width="283.46px" height="283.46px" viewBox="0 0 283.46 283.46" xml:space="preserve">
<g id="Ebene_1">
</g>
<g id="icons">
	<path fill="#808080" d="M283.465-0.002H-0.004v283.465h283.465v-0.002h0.004V-0.002z M14.173,14.173h255.12v255.118H14.173V14.173z
		"/>
	<g>
		<g>
			<g>
				<rect x="76.872" y="177.143" fill="#808080" width="38.146" height="38.143"/>
				<rect x="122.656" y="177.143" fill="#808080" width="38.147" height="38.143"/>
				<rect x="168.444" y="177.143" fill="#808080" width="38.146" height="38.143"/>
				<rect x="76.872" y="131.262" fill="#808080" width="38.146" height="38.142"/>
				<rect x="122.656" y="131.262" fill="#808080" width="38.145" height="38.142"/>
				<rect x="168.441" y="131.262" fill="#808080" width="38.146" height="38.142"/>
				<rect x="122.656" y="85.382" fill="#808080" width="38.145" height="38.144"/>
				<rect x="168.441" y="85.382" fill="#808080" width="38.146" height="38.144"/>
			</g>
			<path fill="#808080" d="M197.7,59.723V42.518h-20.371v17.205h-71.198V42.518H85.759v17.205H51.12v181.22h181.218v-0.002h0.002
				V59.723H197.7z M223.28,231.881H60.184V68.786H223.28V231.881z"/>
		</g>
		<g>
			<path fill="#9D9D9C" d="M96.908,123.242H76.763c0.23-3.067,0.931-5.955,2.102-8.659c1.17-2.704,3.366-5.895,6.586-9.574
				c1.968-2.255,3.226-3.967,3.775-5.137s0.824-2.28,0.824-3.332c0-1.135-0.271-2.105-0.815-2.911
				c-0.544-0.805-1.229-1.208-2.053-1.208c-0.857,0-1.559,0.416-2.103,1.246c-0.544,0.831-0.909,2.297-1.096,4.399l-6.727-0.839
				c0.264-2.916,0.747-5.192,1.451-6.828c0.702-1.636,1.694-2.891,2.976-3.765c1.28-0.872,3.052-1.31,5.316-1.31
				c2.363,0,4.201,0.416,5.515,1.246c1.313,0.831,2.347,2.107,3.1,3.828s1.129,3.649,1.129,5.784c0,2.273-0.432,4.443-1.294,6.511
				c-0.863,2.068-2.432,4.34-4.707,6.816c-1.352,1.44-2.256,2.449-2.711,3.025c-0.457,0.577-0.992,1.331-1.608,2.264h10.485V123.242
				z"/>
			<path fill="#9D9D9C" d="M114.993,85.325v37.917h-6.792V98.397c-1.099,1.288-2.162,2.331-3.19,3.127
				c-1.027,0.797-2.316,1.561-3.866,2.289V95.32c2.286-1.137,4.062-2.501,5.326-4.095c1.264-1.594,2.253-3.561,2.967-5.9H114.993z"
				/>
		</g>
	</g>
</g>
<g id="Layer_1">
</g>
</svg>
