<?xml version="1.0" encoding="utf-8"?>
<!-- Generator: Adobe Illustrator 15.1.0, SVG Export Plug-In . SVG Version: 6.00 Build 0)  -->
<svg version="1.2" baseProfile="tiny" xmlns="http://www.w3.org/2000/svg" xmlns:xlink="http://www.w3.org/1999/xlink" x="0px"
	 y="0px" width="283.46px" height="283.46px" viewBox="0 0 283.46 283.46" xml:space="preserve">
<g id="Ebene_1">
	<g>
		<path fill="#9D9D9C" d="M250.533,108.799V32.933h-75.867v34.566L108.8,111.611v-7.813H32.935v75.865H108.8v-7.533l65.866,44.112
			v34.288h75.867v-75.867h-75.867v27.449L108.8,158v-32.259l65.866-44.113v27.171H250.533z M186.752,96.713V45.019h51.693v51.694
			H186.752z M238.445,186.75v51.695h-51.693V186.75H238.445z"/>
	</g>
</g>
<g id="icons">
	<g>
		<polygon fill="#9D9D9C" points="0,0 0,283.465 283.465,283.465 283.465,269.293 14.177,269.293 14.177,14.176 269.297,14.176 
			269.297,283.463 283.469,283.463 283.469,0 		"/>
	</g>
</g>
</svg>
