<?xml version="1.0" encoding="utf-8"?>
<!-- Generator: Adobe Illustrator 15.1.0, SVG Export Plug-In . SVG Version: 6.00 Build 0)  -->
<svg version="1.2" baseProfile="tiny" xmlns="http://www.w3.org/2000/svg" xmlns:xlink="http://www.w3.org/1999/xlink" x="0px"
	 y="0px" width="283.46px" height="283.46px" viewBox="0 0 283.46 283.46" xml:space="preserve">
<g id="Ebene_1">
</g>
<g id="icons">
	<g>
		<polygon fill="#fbb900" points="-0.003,-0.002 -0.003,283.463 272.5,283.463 272.5,269.291 14.173,269.291 14.173,14.173 
			269.291,14.173 269.291,283.46 283.463,283.46 283.463,-0.002 		"/>
	</g>
	<path fill="#fbb900" d="M236.354,236.612c0.213-10.602,0.249-35.015-3.706-41.195c-5.69-8.876-24.822-14.409-43.743-22.291
		c-18.928-7.875-23.388-10.627-23.388-10.627l-0.194-18.145c0,0,7.094-5.434,9.298-22.528c4.428,1.271,9.087-6.616,9.339-10.792
		c0.236-3.992-0.603-15.136-6.019-13.991c1.097-8.382,1.903-15.914,1.519-19.891c-1.413-14.599-15.77-29.971-37.863-29.971
		c-15.106,0-26.576,7.185-32.794,16.397c-2.849,4.257-4.613,8.965-5.064,13.574c-0.355,3.977,0.433,11.509,1.533,19.891
		c-0.503-0.114-0.94-0.019-1.371,0.081c-2.454,0.536-3.708,3.935-4.28,7.475c-0.395,2.459-0.451,4.951-0.371,6.436
		c0.242,4.176,4.884,12.064,9.354,10.792c2.169,17.095,9.274,22.528,9.274,22.528l-0.171,18.145c0,0-4.504,2.752-23.426,10.627
		c-18.918,7.882-38.038,13.415-43.729,22.291c-3.977,6.181-3.929,30.594-3.709,41.195H236.354z"/>
</g>
</svg>
