<svg xmlns="http://www.w3.org/2000/svg" width="40.602" height="40.602" viewBox="0 0 40.602 40.602">
  <defs>
    <style>
      .cls-1 {
        fill: currentColor;
      }
    </style>
  </defs>
  <path id="account_circle_FILL0_wght500_GRAD0_opsz48" class="cls-1" d="M11.15,35.1a30.259,30.259,0,0,1,6.225-3.325A18.4,18.4,0,0,1,24,30.6a18.809,18.809,0,0,1,6.675,1.175A28.648,28.648,0,0,1,36.9,35.1,17.289,17.289,0,0,0,40,29.7a17.906,17.906,0,0,0,.9-5.7A16.57,16.57,0,0,0,24,7.1,16.57,16.57,0,0,0,7.1,24a17.465,17.465,0,0,0,.925,5.7A17.729,17.729,0,0,0,11.15,35.1ZM24,25.6a6.641,6.641,0,0,1-4.925-2A6.767,6.767,0,0,1,17.1,18.65a6.83,6.83,0,0,1,6.9-6.9,6.641,6.641,0,0,1,4.925,2A6.767,6.767,0,0,1,30.9,18.7,6.83,6.83,0,0,1,24,25.6Zm0,18.7a19.566,19.566,0,0,1-7.85-1.6A20.631,20.631,0,0,1,5.3,31.875,19.511,19.511,0,0,1,3.7,24a19.511,19.511,0,0,1,1.6-7.875A20.7,20.7,0,0,1,16.125,5.3,19.511,19.511,0,0,1,24,3.7a19.511,19.511,0,0,1,7.875,1.6A20.7,20.7,0,0,1,42.7,16.125a20.118,20.118,0,0,1,0,15.725A20.631,20.631,0,0,1,31.875,42.7,19.511,19.511,0,0,1,24,44.3Zm0-3.4a18.2,18.2,0,0,0,5.275-.775A16.154,16.154,0,0,0,34.4,37.4a21.552,21.552,0,0,0-5.125-2.725A15.492,15.492,0,0,0,24,33.75a15.282,15.282,0,0,0-5.25.925A22.691,22.691,0,0,0,13.6,37.4a16.154,16.154,0,0,0,5.125,2.725A18.2,18.2,0,0,0,24,40.9Zm0-18.45a3.74,3.74,0,0,0,2.725-1.05A3.672,3.672,0,0,0,27.8,18.65a3.61,3.61,0,0,0-1.075-2.7A3.74,3.74,0,0,0,24,14.9a3.74,3.74,0,0,0-2.725,1.05,3.61,3.61,0,0,0-1.075,2.7,3.672,3.672,0,0,0,1.075,2.75A3.74,3.74,0,0,0,24,22.45Zm0-3.8Zm0,18.7Z" transform="translate(-3.699 -3.699)"/>
</svg>
