<svg xmlns="http://www.w3.org/2000/svg" width="21.342" height="21.342" viewBox="0 0 21.342 21.342">
  <defs>
    <style>
      .cls-1 {
        fill: #fff;
      }
    </style>
  </defs>
  <path id="call_FILL0_wght400_GRAD0_opsz48" class="cls-1" d="M26.008,27.342a15.989,15.989,0,0,1-7.188-1.778A24.405,24.405,0,0,1,12.4,20.939a24.405,24.405,0,0,1-4.624-6.417A15.989,15.989,0,0,1,6,7.334,1.316,1.316,0,0,1,7.334,6h4.15a1.048,1.048,0,0,1,.726.282,1.31,1.31,0,0,1,.4.756l.8,3.735a2.132,2.132,0,0,1-.015.756,1.142,1.142,0,0,1-.311.578L10.12,15.1a24.609,24.609,0,0,0,3.72,4.8,20.559,20.559,0,0,0,4.668,3.468l2.816-2.9a1.639,1.639,0,0,1,.682-.459,1.37,1.37,0,0,1,.771-.044l3.527.771a1.3,1.3,0,0,1,1.037,1.275v4a1.316,1.316,0,0,1-1.334,1.334ZM9.231,13.47l2.4-2.431h0L10.95,7.778H7.778a10.2,10.2,0,0,0,.356,2.534A23.893,23.893,0,0,0,9.231,13.47ZM25.563,25.563h0V22.392h0l-3.053-.622h0l-2.342,2.46a14.794,14.794,0,0,0,2.638.919A13.911,13.911,0,0,0,25.563,25.563Zm-5.395-1.334ZM9.231,13.47Z" transform="translate(-6 -6)"/>
</svg>
