<svg xmlns="http://www.w3.org/2000/svg" width="21.342" height="17.073" viewBox="0 0 21.342 17.073">
  <defs>
    <style>
      .cls-1 {
        fill: #fff;
      }
    </style>
  </defs>
  <path id="mail_FILL0_wght400_GRAD0_opsz48" class="cls-1" d="M5.6,25.073a1.536,1.536,0,0,1-1.12-.48A1.536,1.536,0,0,1,4,23.473V9.6a1.536,1.536,0,0,1,.48-1.12A1.536,1.536,0,0,1,5.6,8h18.14a1.641,1.641,0,0,1,1.6,1.6V23.473a1.641,1.641,0,0,1-1.6,1.6Zm9.07-8.056L5.6,11.068v12.4h18.14v-12.4Zm0-1.6L23.634,9.6H5.734ZM5.6,11.068v0Z" transform="translate(-4 -8)"/>
</svg>
