<svg xmlns="http://www.w3.org/2000/svg" width="33.75" height="30" viewBox="0 0 33.75 30">
  <defs>
    <style>
      .cls-1 {
        fill: currentColor;
      }
    </style>
  </defs>
  <g id="shop-business-svgrepo-com" transform="translate(1 -23)">
    <g id="Group_2179" data-name="Group 2179" transform="translate(-1 23)">
      <g id="Group_2178" data-name="Group 2178" transform="translate(0 0)">
        <path id="Path_1146" data-name="Path 1146" class="cls-1" d="M33.75,33.591v-.068l-1.193-9.75A2.058,2.058,0,0,0,30.511,22H3.273a2.084,2.084,0,0,0-2.045,1.773L0,33.489v.1a3.4,3.4,0,0,0,2.727,3.341v9.614H2.693A2.01,2.01,0,0,0,.818,47.807L.239,49.17a2.011,2.011,0,0,0,.17,1.909,2.031,2.031,0,0,0,1.7.92H31.636a2.084,2.084,0,0,0,1.7-.886,2.055,2.055,0,0,0,.2-1.943L33,47.841a2.087,2.087,0,0,0-1.636-1.261V36.83A3.407,3.407,0,0,0,33.75,33.591ZM31.7,48.386l.58,1.33a.58.58,0,0,1-.068.614.67.67,0,0,1-.58.307H2.114a.67.67,0,0,1-.58-.307.663.663,0,0,1-.068-.614l.58-1.364a.712.712,0,0,1,.614-.409h28.4A.7.7,0,0,1,31.7,48.386ZM7.227,42.455h3.682v4.091H4.091V37h.341a3.405,3.405,0,0,0,2.727-1.364A3.405,3.405,0,0,0,9.886,37h1.023v4.091H7.227a.682.682,0,0,0,0,1.364Zm14.591,0v4.091H12.273V42.455Zm-9.545-1.364v-4.4a3.219,3.219,0,0,0,1.364-1.057A3.405,3.405,0,0,0,16.364,37h1.023a3.405,3.405,0,0,0,2.727-1.364,3.2,3.2,0,0,0,1.7,1.193v4.261Zm14.659,0h-3.75V37h.682a3.405,3.405,0,0,0,2.727-1.364A3.405,3.405,0,0,0,29.318,37H30v9.545H23.182V42.455h3.75a.682.682,0,1,0,0-1.364Zm3.409-5.455H29.318a2.051,2.051,0,0,1-2.045-2.045.682.682,0,0,0-1.364,0,2.051,2.051,0,0,1-2.045,2.045H22.841A2.051,2.051,0,0,1,20.8,33.591a.682.682,0,0,0-1.364,0,2.051,2.051,0,0,1-2.045,2.045H16.364a2.051,2.051,0,0,1-2.045-2.045.682.682,0,0,0-1.364,0,2.051,2.051,0,0,1-2.045,2.045H9.886a2.051,2.051,0,0,1-2.045-2.045.682.682,0,0,0-1.364,0,2.051,2.051,0,0,1-2.045,2.045H3.409a2.044,2.044,0,0,1-2.045-2.011l1.227-9.648a.725.725,0,0,1,.682-.614H30.511a.7.7,0,0,1,.682.58l1.193,9.682A2.044,2.044,0,0,1,30.341,35.636Z" transform="translate(0 -22)"/>
      </g>
    </g>
  </g>
</svg>
