<svg xmlns="http://www.w3.org/2000/svg" width="167" height="20" viewBox="0 0 167 20">
  <defs>
    <style>
      .cls-1 {
        fill: #fff;
        fill-rule: evenodd;
      }
    </style>
  </defs>
  <path id="in_größen_DIN_A4" data-name="in größen DIN A4" class="cls-1" d="M557.457,66.059a0.477,0.477,0,0,0,.367-0.147,0.509,0.509,0,0,0,.136-0.357V55.643a0.51,0.51,0,0,0-.136-0.357,0.479,0.479,0,0,0-.367-0.147h-1.741a0.5,0.5,0,0,0-.5.5v9.912a0.5,0.5,0,0,0,.5.5h1.741Zm0.084-12.726a0.51,0.51,0,0,0,.377-0.147,0.485,0.485,0,0,0,.147-0.357V51.317a0.487,0.487,0,0,0-.147-0.357,0.512,0.512,0,0,0-.377-0.147h-1.909a0.5,0.5,0,0,0-.5.5v1.512a0.5,0.5,0,0,0,.5.5h1.909Zm5.977,12.726a0.5,0.5,0,0,0,.5-0.5V59.78a2.685,2.685,0,0,1,.65-1.911,2.273,2.273,0,0,1,1.741-.693,2.159,2.159,0,0,1,1.73.693,2.829,2.829,0,0,1,.6,1.911v5.775a0.5,0.5,0,0,0,.5.5h1.845a0.5,0.5,0,0,0,.5-0.5v-5.9a5.694,5.694,0,0,0-.514-2.52,3.842,3.842,0,0,0-1.458-1.627,4.175,4.175,0,0,0-2.223-.578,4.265,4.265,0,0,0-3.5,1.575V55.643a0.5,0.5,0,0,0-.5-0.5h-1.72a0.5,0.5,0,0,0-.5.5v9.912a0.5,0.5,0,0,0,.5.5h1.846Zm23.4,4.022a3.917,3.917,0,0,0,1.709-1.69,5.6,5.6,0,0,0,.566-2.6l-0.021-10.122a0.512,0.512,0,0,0-.147-0.378,0.485,0.485,0,0,0-.356-0.147h-1.7a0.487,0.487,0,0,0-.357.147,0.512,0.512,0,0,0-.146.378V56.5a4.334,4.334,0,0,0-1.343-1.123,4.117,4.117,0,0,0-2.013-.452,4.634,4.634,0,0,0-1.94.378,3.682,3.682,0,0,0-1.374,1.061,4.8,4.8,0,0,0-.828,1.585,7.5,7.5,0,0,0-.326,1.953q-0.021.567,0,1.134a7.621,7.621,0,0,0,.326,1.995,4.562,4.562,0,0,0,.828,1.564,3.674,3.674,0,0,0,1.374,1.029,4.746,4.746,0,0,0,1.94.367,4.458,4.458,0,0,0,1.94-.378,3.756,3.756,0,0,0,1.29-.987v1.428a3.339,3.339,0,0,1-.283,1.512,1.629,1.629,0,0,1-.829.777,3.448,3.448,0,0,1-1.342.231,2.629,2.629,0,0,1-1.185-.221,1.647,1.647,0,0,1-.64-0.535,4.284,4.284,0,0,1-.335-0.588,0.7,0.7,0,0,0-.21-0.347,0.547,0.547,0,0,0-.336-0.094h-1.824a0.5,0.5,0,0,0-.368.157,0.44,0.44,0,0,0-.136.368,2.866,2.866,0,0,0,.262.871,3.726,3.726,0,0,0,.808,1.123,4.6,4.6,0,0,0,1.552.966,6.777,6.777,0,0,0,2.517.4A6.291,6.291,0,0,0,586.914,70.081ZM582.5,63.392a2.035,2.035,0,0,1-.745-1.018A5.1,5.1,0,0,1,581.492,61a6.312,6.312,0,0,1,0-1.029,5.024,5.024,0,0,1,.262-1.386,2.1,2.1,0,0,1,.745-1.019,2.659,2.659,0,0,1,2.768,0,2.341,2.341,0,0,1,.776.987,3.835,3.835,0,0,1,.294,1.249q0.021,0.252.021,0.672t-0.021.693a3.9,3.9,0,0,1-.294,1.239,2.255,2.255,0,0,1-.776.987A2.723,2.723,0,0,1,582.5,63.392Zm11.808,2.667a0.509,0.509,0,0,0,.377-0.147,0.485,0.485,0,0,0,.147-0.357V59.78a1.933,1.933,0,0,1,2.119-2.121h1.635a0.479,0.479,0,0,0,.368-0.147,0.509,0.509,0,0,0,.136-0.357V55.643a0.51,0.51,0,0,0-.136-0.357,0.481,0.481,0,0,0-.368-0.147h-0.859a4.157,4.157,0,0,0-1.773.357,3.154,3.154,0,0,0-1.248,1.029V55.664a0.494,0.494,0,0,0-.157-0.378,0.522,0.522,0,0,0-.367-0.147h-1.7a0.483,0.483,0,0,0-.356.147,0.512,0.512,0,0,0-.147.378v9.891a0.5,0.5,0,0,0,.5.5h1.825Zm13.916-.378a4.075,4.075,0,0,0,1.741-1.659,5.76,5.76,0,0,0,.681-2.5q0.021-.378.021-0.924t-0.021-.924a5.553,5.553,0,0,0-.7-2.51,4.233,4.233,0,0,0-1.762-1.648,6.861,6.861,0,0,0-5.558,0,4.227,4.227,0,0,0-1.762,1.648,5.541,5.541,0,0,0-.7,2.51c-0.015.252-.021,0.56-0.021,0.924s0.006,0.672.021,0.924a5.746,5.746,0,0,0,.681,2.5,4.075,4.075,0,0,0,1.741,1.659A7.061,7.061,0,0,0,608.223,65.681Zm-4.541-2.194a3.323,3.323,0,0,1-.671-2.068Q602.99,61.1,602.99,60.6t0.021-.819a3.325,3.325,0,0,1,.671-2.068,2.454,2.454,0,0,1,3.44,0,3.331,3.331,0,0,1,.671,2.069q0.021,0.315.021,0.819t-0.021.819a3.329,3.329,0,0,1-.671,2.069A2.454,2.454,0,0,1,603.682,63.487Zm4.447-10.321a0.491,0.491,0,0,0,.346-0.126,0.438,0.438,0,0,0,.136-0.336V51.17a0.466,0.466,0,0,0-.482-0.483H606.6a0.436,0.436,0,0,0-.336.136,0.492,0.492,0,0,0-.126.346V52.7a0.434,0.434,0,0,0,.462.462h1.531Zm-3.943,0a0.491,0.491,0,0,0,.346-0.126,0.438,0.438,0,0,0,.136-0.336V51.17a0.466,0.466,0,0,0-.482-0.483h-1.532a0.435,0.435,0,0,0-.335.136,0.492,0.492,0,0,0-.126.346V52.7a0.434,0.434,0,0,0,.461.462h1.532Zm11.053,12.894a0.477,0.477,0,0,0,.367-0.147,0.509,0.509,0,0,0,.136-0.357V55.937a2.739,2.739,0,0,1,.629-1.985,2.248,2.248,0,0,1,1.678-.64,2.411,2.411,0,0,1,1.678.567,1.839,1.839,0,0,1,.629,1.428,1.782,1.782,0,0,1-.608,1.439,2.738,2.738,0,0,1-1.762.535h-0.713a0.514,0.514,0,0,0-.409.136,0.551,0.551,0,0,0-.115.367v1.008a0.486,0.486,0,0,0,.524.5h0.839a2.7,2.7,0,0,1,1.972.661,2.223,2.223,0,0,1,.671,1.649,2.2,2.2,0,0,1-.671,1.627,2.667,2.667,0,0,1-1.951.661h-0.818a0.565,0.565,0,0,0-.419.147,0.487,0.487,0,0,0-.147.357v1.155a0.485,0.485,0,0,0,.147.357,0.563,0.563,0,0,0,.419.147h1.217a6.233,6.233,0,0,0,2.328-.389,4.323,4.323,0,0,0,1.573-1.039,4.208,4.208,0,0,0,.891-1.418,4.364,4.364,0,0,0,.283-1.523,5.118,5.118,0,0,0-.21-1.491,3.041,3.041,0,0,0-.7-1.218,3.3,3.3,0,0,0-1.311-.819,3.779,3.779,0,0,0,.8-0.651,2.9,2.9,0,0,0,.6-0.976A3.724,3.724,0,0,0,623,55.2a4,4,0,0,0-.493-1.922,3.887,3.887,0,0,0-1.583-1.523,5.886,5.886,0,0,0-2.874-.609,5.552,5.552,0,0,0-2.884.662,4.094,4.094,0,0,0-1.625,1.743,5.386,5.386,0,0,0-.525,2.383v9.618a0.5,0.5,0,0,0,.5.5h1.72Zm17.418-.094a5.228,5.228,0,0,0,1.521-.767,4.089,4.089,0,0,0,.933-0.945,1.761,1.761,0,0,0,.346-0.819,0.353,0.353,0,0,0-.115-0.315A0.49,0.49,0,0,0,635,62.993h-1.8a0.879,0.879,0,0,0-.346.053,1,1,0,0,0-.3.3,2.666,2.666,0,0,1-.357.378,2.325,2.325,0,0,1-1.635.588,2.011,2.011,0,0,1-1.227-.378,2.334,2.334,0,0,1-.776-1,3.71,3.71,0,0,1-.284-1.355V61.418h6.964a0.51,0.51,0,0,0,.377-0.147,0.485,0.485,0,0,0,.147-0.357V60.473a6.726,6.726,0,0,0-.587-2.888,4.459,4.459,0,0,0-1.741-1.953,5.39,5.39,0,0,0-2.853-.7,5.469,5.469,0,0,0-2.663.62,4.432,4.432,0,0,0-1.772,1.764,6.216,6.216,0,0,0-.724,2.74,4.913,4.913,0,0,0-.021.514q0,0.326.021,0.535a5.47,5.47,0,0,0,1.468,3.822,5.027,5.027,0,0,0,3.691,1.344A6.588,6.588,0,0,0,632.657,65.965Zm-4.394-6.374a3.664,3.664,0,0,1,.263-1.438,2.1,2.1,0,0,1,.786-0.966,2.459,2.459,0,0,1,2.517,0,2.184,2.184,0,0,1,.8.966,3.557,3.557,0,0,1,.273,1.438v0.063h-4.636V59.591Zm12.06,6.468a0.5,0.5,0,0,0,.5-0.5V59.78a2.68,2.68,0,0,1,.65-1.911,2.272,2.272,0,0,1,1.741-.693,2.16,2.16,0,0,1,1.73.693,2.834,2.834,0,0,1,.6,1.911v5.775a0.5,0.5,0,0,0,.5.5H647.9a0.5,0.5,0,0,0,.5-0.5v-5.9a5.68,5.68,0,0,0-.514-2.52,3.84,3.84,0,0,0-1.457-1.627,4.182,4.182,0,0,0-2.224-.578,4.265,4.265,0,0,0-3.5,1.575V55.643a0.5,0.5,0,0,0-.5-0.5h-1.719a0.5,0.5,0,0,0-.5.5v9.912a0.5,0.5,0,0,0,.5.5h1.845Zm21.519,0a8.313,8.313,0,0,0,3.45-.62,4.191,4.191,0,0,0,2.024-1.89,7.21,7.21,0,0,0,.713-3.224q0.042-.9.042-1.617t-0.042-1.638a6.594,6.594,0,0,0-.723-3.129,4.5,4.5,0,0,0-2.077-1.932,8.169,8.169,0,0,0-3.492-.651h-5.118a0.487,0.487,0,0,0-.356.147,0.512,0.512,0,0,0-.147.378V65.555a0.5,0.5,0,0,0,.5.5h5.223Zm-2.811-12.285h2.6a3.555,3.555,0,0,1,2.6.819,3.6,3.6,0,0,1,.86,2.541q0.021,0.609.031,1.082t0,0.945q-0.011.472-.031,1.1a4.9,4.9,0,0,1-.367,1.963,2.142,2.142,0,0,1-1.08,1.082,4.62,4.62,0,0,1-1.909.336h-2.706v-9.87Zm14.3,12.285a0.475,0.475,0,0,0,.367-0.147,0.505,0.505,0,0,0,.137-0.357V51.863a0.507,0.507,0,0,0-.137-0.357,0.477,0.477,0,0,0-.367-0.147h-1.971a0.5,0.5,0,0,0-.5.5V65.555a0.5,0.5,0,0,0,.5.5h1.971Zm6.062,0a0.51,0.51,0,0,0,.377-0.147,0.485,0.485,0,0,0,.147-0.357v-9.03l6.02,9.2a1.223,1.223,0,0,1,.188.189,0.526,0.526,0,0,0,.42.147h1.636a0.485,0.485,0,0,0,.356-0.147,0.511,0.511,0,0,0,.147-0.378V51.884a0.5,0.5,0,0,0-.524-0.525H686.4a0.477,0.477,0,0,0-.367.147,0.534,0.534,0,0,0-.136.378V61.1L679.858,51.7a1.6,1.6,0,0,0-.178-0.2,0.588,0.588,0,0,0-.43-0.137h-1.615a0.487,0.487,0,0,0-.357.147,0.512,0.512,0,0,0-.146.378V65.555a0.5,0.5,0,0,0,.5.5H679.4Zm17.743,0a0.586,0.586,0,0,0,.43-0.136,0.713,0.713,0,0,0,.179-0.263l0.985-2.562h6.23l0.985,2.562a0.689,0.689,0,0,0,.179.263,0.584,0.584,0,0,0,.43.136h1.824a0.4,0.4,0,0,0,.294-0.126,0.427,0.427,0,0,0,.126-0.315,0.978,0.978,0,0,0-.021-0.189l-5.055-13.545a1.018,1.018,0,0,0-.252-0.367,0.678,0.678,0,0,0-.482-0.157h-2.286a0.719,0.719,0,0,0-.493.157,0.787,0.787,0,0,0-.241.367l-5.055,13.545a0.518,0.518,0,0,0-.042.189,0.41,0.41,0,0,0,.136.315,0.44,0.44,0,0,0,.305.126h1.824Zm4.7-11.865,2.391,6.489h-4.761Zm17.388,11.865a0.5,0.5,0,0,0,.5-0.5V62.867h1.888a0.5,0.5,0,0,0,.5-0.5v-1.47a0.5,0.5,0,0,0-.136-0.367,0.527,0.527,0,0,0-.388-0.136h-1.867V51.863a0.5,0.5,0,0,0-.5-0.5h-2.287a0.92,0.92,0,0,0-.776.357l-6.187,8.589a0.878,0.878,0,0,0-.178.325,1.114,1.114,0,0,0-.053.3v1.428a0.505,0.505,0,0,0,.137.357,0.475,0.475,0,0,0,.367.147H716.9v2.688a0.5,0.5,0,0,0,.5.5h1.825ZM716.96,54.4v6.069h-4.3Z" transform="translate(-555.125 -50.688)"/>
</svg>
