<svg xmlns="http://www.w3.org/2000/svg" width="116.468" height="15.125" viewBox="0 0 116.468 15.125">
  <defs>
    <style>
      .cls-1 {
        fill: #fff;
        fill-rule: evenodd;
      }
    </style>
  </defs>
  <path id="oder_DIN_A3" data-name="oder DIN A3" class="cls-1" d="M588.173,57.681a4.073,4.073,0,0,0,1.74-1.659,5.747,5.747,0,0,0,.682-2.5q0.021-.378.021-0.924t-0.021-.924a5.541,5.541,0,0,0-.7-2.51,4.225,4.225,0,0,0-1.761-1.648,6.861,6.861,0,0,0-5.558,0,4.221,4.221,0,0,0-1.762,1.648,5.541,5.541,0,0,0-.7,2.51q-0.021.378-.021,0.924t0.021,0.924a5.747,5.747,0,0,0,.682,2.5,4.064,4.064,0,0,0,1.741,1.659A7.061,7.061,0,0,0,588.173,57.681Zm-4.541-2.194a3.323,3.323,0,0,1-.671-2.068c-0.015-.21-0.021-0.483-0.021-0.819s0.006-.609.021-0.819a3.325,3.325,0,0,1,.671-2.068,2.453,2.453,0,0,1,3.439,0,3.325,3.325,0,0,1,.672,2.069c0.013,0.21.021,0.483,0.021,0.819s-0.008.609-.021,0.819a3.323,3.323,0,0,1-.672,2.069A2.453,2.453,0,0,1,583.632,55.487Zm15.384,2.362a4.132,4.132,0,0,0,1.332-1.071v0.777a0.5,0.5,0,0,0,.136.357,0.475,0.475,0,0,0,.367.147h1.657a0.5,0.5,0,0,0,.5-0.5v-13.9a0.5,0.5,0,0,0-.5-0.5h-1.783a0.477,0.477,0,0,0-.367.147,0.506,0.506,0,0,0-.136.357v4.662a4.115,4.115,0,0,0-1.311-1,4.3,4.3,0,0,0-1.919-.389,4.58,4.58,0,0,0-1.919.378,3.774,3.774,0,0,0-1.384,1.061,4.7,4.7,0,0,0-.839,1.585,7.459,7.459,0,0,0-.325,1.953c-0.015.252-.021,0.48-0.021,0.682s0.006,0.431.021,0.682a7.423,7.423,0,0,0,.335,2.006,4.829,4.829,0,0,0,.839,1.585,3.623,3.623,0,0,0,1.374,1.04,4.7,4.7,0,0,0,1.919.367A4.362,4.362,0,0,0,599.016,57.849Zm-2.643-2.215a2.18,2.18,0,0,1-.744-1.019,4.778,4.778,0,0,1-.273-1.386q-0.021-.63,0-1.26a4.778,4.778,0,0,1,.273-1.386,2.183,2.183,0,0,1,.744-1.019,2.673,2.673,0,0,1,2.758-.011,2.451,2.451,0,0,1,.8.956,3.035,3.035,0,0,1,.294,1.208q0.021,0.378.021,0.808t-0.021.809a3.659,3.659,0,0,1-.273,1.27,2.378,2.378,0,0,1-.776,1.019A2.686,2.686,0,0,1,596.373,55.634Zm16.213,2.331a5.221,5.221,0,0,0,1.52-.767,4.075,4.075,0,0,0,.934-0.945,1.772,1.772,0,0,0,.346-0.819,0.353,0.353,0,0,0-.116-0.315,0.49,0.49,0,0,0-.346-0.126h-1.8a0.875,0.875,0,0,0-.346.053,1,1,0,0,0-.3.3,2.646,2.646,0,0,1-.356.378,2.325,2.325,0,0,1-1.636.588,2.011,2.011,0,0,1-1.227-.378,2.342,2.342,0,0,1-.776-1,3.71,3.71,0,0,1-.283-1.355V53.418h6.963a0.511,0.511,0,0,0,.378-0.147,0.488,0.488,0,0,0,.146-0.357V52.473a6.726,6.726,0,0,0-.587-2.888,4.453,4.453,0,0,0-1.741-1.953,5.388,5.388,0,0,0-2.852-.7,5.471,5.471,0,0,0-2.664.62,4.432,4.432,0,0,0-1.772,1.764,6.216,6.216,0,0,0-.724,2.74,4.913,4.913,0,0,0-.021.514q0,0.326.021,0.535a5.466,5.466,0,0,0,1.469,3.822,5.026,5.026,0,0,0,3.691,1.344A6.588,6.588,0,0,0,612.586,57.965Zm-4.394-6.373a3.664,3.664,0,0,1,.262-1.438,2.117,2.117,0,0,1,.786-0.966,2.459,2.459,0,0,1,2.517,0,2.177,2.177,0,0,1,.8.966,3.54,3.54,0,0,1,.273,1.438v0.063h-4.635V51.591Zm12.039,6.468a0.51,0.51,0,0,0,.377-0.147,0.485,0.485,0,0,0,.147-0.357V51.78a1.933,1.933,0,0,1,2.118-2.121h1.636a0.475,0.475,0,0,0,.367-0.147,0.505,0.505,0,0,0,.137-0.357V47.643a0.507,0.507,0,0,0-.137-0.357,0.477,0.477,0,0,0-.367-0.147h-0.86a4.153,4.153,0,0,0-1.772.357,3.154,3.154,0,0,0-1.248,1.029V47.664a0.494,0.494,0,0,0-.157-0.378,0.524,0.524,0,0,0-.367-0.147h-1.7a0.487,0.487,0,0,0-.357.147,0.512,0.512,0,0,0-.146.378v9.891a0.5,0.5,0,0,0,.5.5h1.825Zm16.757,0a8.318,8.318,0,0,0,3.451-.62,4.2,4.2,0,0,0,2.024-1.89,7.21,7.21,0,0,0,.713-3.224q0.042-.9.042-1.617t-0.042-1.638a6.594,6.594,0,0,0-.724-3.129,4.5,4.5,0,0,0-2.076-1.932,8.169,8.169,0,0,0-3.492-.651h-5.118a0.487,0.487,0,0,0-.357.147,0.512,0.512,0,0,0-.146.378V57.555a0.5,0.5,0,0,0,.5.5h5.222Zm-2.81-12.285h2.6a3.554,3.554,0,0,1,2.6.819,3.6,3.6,0,0,1,.86,2.541q0.021,0.609.032,1.082t0,0.945q-0.01.472-.032,1.1a4.9,4.9,0,0,1-.367,1.963,2.139,2.139,0,0,1-1.08,1.082,4.615,4.615,0,0,1-1.908.336h-2.706v-9.87Zm14.3,12.285a0.475,0.475,0,0,0,.367-0.147,0.5,0.5,0,0,0,.136-0.357V43.863a0.506,0.506,0,0,0-.136-0.357,0.477,0.477,0,0,0-.367-0.147H646.51a0.5,0.5,0,0,0-.5.5V57.555a0.5,0.5,0,0,0,.5.5h1.972Zm6.061,0a0.511,0.511,0,0,0,.378-0.147,0.489,0.489,0,0,0,.147-0.357v-9.03l6.019,9.2a1.173,1.173,0,0,1,.189.189,0.524,0.524,0,0,0,.419.147h1.636a0.485,0.485,0,0,0,.357-0.147,0.515,0.515,0,0,0,.147-0.378V43.884a0.5,0.5,0,0,0-.525-0.525h-1.762a0.477,0.477,0,0,0-.367.147,0.534,0.534,0,0,0-.136.378V53.1l-6.04-9.408a1.727,1.727,0,0,0-.179-0.2,0.588,0.588,0,0,0-.43-0.137h-1.615a0.483,0.483,0,0,0-.356.147,0.512,0.512,0,0,0-.147.378V57.555a0.5,0.5,0,0,0,.5.5h1.762Zm17.744,0a0.587,0.587,0,0,0,.43-0.136,0.7,0.7,0,0,0,.178-0.263l0.986-2.562h6.229L681.1,57.66a0.7,0.7,0,0,0,.178.263,0.586,0.586,0,0,0,.43.136h1.825a0.4,0.4,0,0,0,.293-0.126,0.427,0.427,0,0,0,.126-0.315,0.978,0.978,0,0,0-.021-0.189l-5.054-13.545a1.031,1.031,0,0,0-.252-0.367,0.68,0.68,0,0,0-.483-0.157h-2.286a0.721,0.721,0,0,0-.493.157,0.787,0.787,0,0,0-.241.367l-5.054,13.545a0.5,0.5,0,0,0-.042.189,0.41,0.41,0,0,0,.136.315,0.437,0.437,0,0,0,.3.126h1.825Zm4.7-11.865,2.391,6.489h-4.761Zm16.779,11.529a4.734,4.734,0,0,0,2.045-1.565,4.033,4.033,0,0,0,.744-2.447A4.264,4.264,0,0,0,696,51.444a3.585,3.585,0,0,0-1.553-1.375,6.517,6.517,0,0,0-2.275-.578l-0.252-.021,3.629-3.738a1.206,1.206,0,0,0,.188-0.252,0.664,0.664,0,0,0,.084-0.336v-1.26a0.5,0.5,0,0,0-.524-0.525h-9a0.477,0.477,0,0,0-.367.147,0.534,0.534,0,0,0-.136.378V45.27a0.5,0.5,0,0,0,.136.357,0.475,0.475,0,0,0,.367.147h6l-3.755,3.675a1.364,1.364,0,0,0-.2.262,0.7,0.7,0,0,0-.094.367v0.882a0.477,0.477,0,0,0,.147.367,0.528,0.528,0,0,0,.377.136h2.16a3.282,3.282,0,0,1,1.93.493,1.838,1.838,0,0,1,.692,1.607,2.067,2.067,0,0,1-.745,1.712,3.1,3.1,0,0,1-2,.6,5.073,5.073,0,0,1-1.2-.137,2.562,2.562,0,0,1-1-.472,1.856,1.856,0,0,1-.619-0.9,0.663,0.663,0,0,0-.252-0.336,0.711,0.711,0,0,0-.356-0.084H685.5a0.488,0.488,0,0,0-.325.115,0.379,0.379,0,0,0-.136.3,3.1,3.1,0,0,0,.377,1.354,4.113,4.113,0,0,0,1.059,1.26,5.511,5.511,0,0,0,1.773.934,8.047,8.047,0,0,0,2.538.357A7.639,7.639,0,0,0,693.764,57.723Z" transform="translate(-580.094 -43.156)"/>
</svg>
