<svg xmlns="http://www.w3.org/2000/svg" width="206.969" height="15.469" viewBox="0 0 206.969 15.469">
  <defs>
    <style>
      .cls-1 {
        fill: #fff;
        fill-rule: evenodd;
      }
    </style>
  </defs>
  <path id="Aluminium-Kassette" class="cls-1" d="M536.819,58.059a0.587,0.587,0,0,0,.43-0.136,0.709,0.709,0,0,0,.178-0.263l0.986-2.562h6.229l0.986,2.562a0.7,0.7,0,0,0,.178.263,0.586,0.586,0,0,0,.43.136h1.825a0.4,0.4,0,0,0,.293-0.126,0.427,0.427,0,0,0,.126-0.315,0.978,0.978,0,0,0-.021-0.189l-5.054-13.545a1.031,1.031,0,0,0-.252-0.367,0.68,0.68,0,0,0-.483-0.157h-2.286a0.721,0.721,0,0,0-.493.157,0.787,0.787,0,0,0-.241.367L534.6,57.429a0.5,0.5,0,0,0-.042.189,0.41,0.41,0,0,0,.136.315,0.437,0.437,0,0,0,.3.126h1.825Zm4.7-11.865,2.391,6.489h-4.761Zm10.927,11.865a0.5,0.5,0,0,0,.5-0.5v-13.9a0.5,0.5,0,0,0-.5-0.5H550.7a0.5,0.5,0,0,0-.5.5v13.9a0.5,0.5,0,0,0,.5.5h1.741Zm9.438-.21a4.028,4.028,0,0,0,1.406-1.155v0.861a0.5,0.5,0,0,0,.136.357,0.475,0.475,0,0,0,.367.147h1.7a0.5,0.5,0,0,0,.5-0.5V47.643a0.5,0.5,0,0,0-.5-0.5h-1.846a0.5,0.5,0,0,0-.5.5v5.775a2.711,2.711,0,0,1-.64,1.911,2.24,2.24,0,0,1-1.73.693q-2.287,0-2.286-2.6V47.643a0.507,0.507,0,0,0-.137-0.357,0.477,0.477,0,0,0-.367-0.147h-1.846a0.5,0.5,0,0,0-.5.5v5.9a5.809,5.809,0,0,0,.5,2.51,3.78,3.78,0,0,0,1.437,1.638,4.122,4.122,0,0,0,2.213.578A4.663,4.663,0,0,0,561.882,57.849Zm9.145,0.21a0.5,0.5,0,0,0,.5-0.5V51.7a3.168,3.168,0,0,1,.294-1.491,1.827,1.827,0,0,1,.755-0.788,2.014,2.014,0,0,1,.943-0.242,2.172,2.172,0,0,1,.986.231,1.759,1.759,0,0,1,.755.788,3.234,3.234,0,0,1,.294,1.5v5.859a0.5,0.5,0,0,0,.5.5h1.72a0.5,0.5,0,0,0,.5-0.5V51.7a3.235,3.235,0,0,1,.293-1.5,1.764,1.764,0,0,1,.755-0.788,2.049,2.049,0,0,1,.923-0.231,2.267,2.267,0,0,1,1.028.231,1.657,1.657,0,0,1,.734.788,3.462,3.462,0,0,1,.273,1.5v5.859a0.5,0.5,0,0,0,.5.5h1.72a0.5,0.5,0,0,0,.5-0.5V51.528a5.688,5.688,0,0,0-.514-2.573,3.507,3.507,0,0,0-1.4-1.522,3.956,3.956,0,0,0-1.982-.5,4.05,4.05,0,0,0-2.024.515A3.62,3.62,0,0,0,577.7,48.8a3.329,3.329,0,0,0-3.335-1.869,3.79,3.79,0,0,0-1.772.431,3.657,3.657,0,0,0-1.185,1V47.643a0.5,0.5,0,0,0-.5-0.5h-1.636a0.5,0.5,0,0,0-.5.5v9.912a0.5,0.5,0,0,0,.5.5h1.762Zm18.9,0a0.475,0.475,0,0,0,.367-0.147,0.5,0.5,0,0,0,.136-0.357V47.643a0.506,0.506,0,0,0-.136-0.357,0.477,0.477,0,0,0-.367-0.147h-1.741a0.5,0.5,0,0,0-.5.5v9.912a0.5,0.5,0,0,0,.5.5h1.741Zm0.084-12.726a0.51,0.51,0,0,0,.377-0.147,0.485,0.485,0,0,0,.147-0.357V43.317a0.487,0.487,0,0,0-.147-0.357,0.512,0.512,0,0,0-.377-0.147H588.1a0.5,0.5,0,0,0-.5.5v1.512a0.5,0.5,0,0,0,.5.5h1.909Zm5.977,12.726a0.5,0.5,0,0,0,.5-0.5V51.78a2.685,2.685,0,0,1,.65-1.911,2.275,2.275,0,0,1,1.741-.693,2.163,2.163,0,0,1,1.731.693,2.834,2.834,0,0,1,.6,1.911v5.775a0.5,0.5,0,0,0,.5.5h1.845a0.5,0.5,0,0,0,.5-0.5v-5.9a5.694,5.694,0,0,0-.514-2.52,3.842,3.842,0,0,0-1.458-1.627,4.175,4.175,0,0,0-2.223-.578,4.265,4.265,0,0,0-3.5,1.575V47.643a0.5,0.5,0,0,0-.5-0.5h-1.72a0.5,0.5,0,0,0-.5.5v9.912a0.5,0.5,0,0,0,.5.5h1.846Zm12.983,0a0.478,0.478,0,0,0,.367-0.147,0.509,0.509,0,0,0,.136-0.357V47.643a0.51,0.51,0,0,0-.136-0.357,0.48,0.48,0,0,0-.367-0.147h-1.741a0.5,0.5,0,0,0-.5.5v9.912a0.5,0.5,0,0,0,.5.5h1.741Zm0.083-12.726a0.511,0.511,0,0,0,.378-0.147,0.485,0.485,0,0,0,.147-0.357V43.317a0.487,0.487,0,0,0-.147-0.357,0.513,0.513,0,0,0-.378-0.147h-1.908a0.5,0.5,0,0,0-.5.5v1.512a0.5,0.5,0,0,0,.5.5h1.908Zm9.355,12.516a4.025,4.025,0,0,0,1.405-1.155v0.861a0.5,0.5,0,0,0,.136.357,0.475,0.475,0,0,0,.367.147h1.7a0.5,0.5,0,0,0,.5-0.5V47.643a0.5,0.5,0,0,0-.5-0.5h-1.846a0.5,0.5,0,0,0-.5.5v5.775a2.707,2.707,0,0,1-.64,1.911,2.239,2.239,0,0,1-1.73.693q-2.286,0-2.286-2.6V47.643a0.507,0.507,0,0,0-.137-0.357,0.477,0.477,0,0,0-.367-0.147h-1.845a0.5,0.5,0,0,0-.5.5v5.9a5.794,5.794,0,0,0,.5,2.51,3.772,3.772,0,0,0,1.436,1.638,4.122,4.122,0,0,0,2.213.578A4.67,4.67,0,0,0,618.406,57.849Zm9.144,0.21a0.5,0.5,0,0,0,.5-0.5V51.7a3.168,3.168,0,0,1,.294-1.491,1.832,1.832,0,0,1,.755-0.788,2.015,2.015,0,0,1,.944-0.242,2.178,2.178,0,0,1,.986.231,1.764,1.764,0,0,1,.755.788,3.247,3.247,0,0,1,.293,1.5v5.859a0.5,0.5,0,0,0,.5.5H634.3a0.5,0.5,0,0,0,.5-0.5V51.7a3.235,3.235,0,0,1,.293-1.5,1.761,1.761,0,0,1,.756-0.788,2.045,2.045,0,0,1,.922-0.231,2.267,2.267,0,0,1,1.028.231,1.657,1.657,0,0,1,.734.788,3.447,3.447,0,0,1,.273,1.5v5.859a0.5,0.5,0,0,0,.5.5h1.72a0.5,0.5,0,0,0,.5-0.5V51.528a5.7,5.7,0,0,0-.513-2.573,3.509,3.509,0,0,0-1.406-1.522,3.956,3.956,0,0,0-1.982-.5,4.053,4.053,0,0,0-2.024.515A3.61,3.61,0,0,0,634.22,48.8a3.33,3.33,0,0,0-3.335-1.869,3.794,3.794,0,0,0-1.773.431,3.657,3.657,0,0,0-1.185,1V47.643a0.5,0.5,0,0,0-.5-0.5h-1.636a0.5,0.5,0,0,0-.5.5v9.912a0.5,0.5,0,0,0,.5.5h1.762Zm23.532-5.1a0.5,0.5,0,0,0,.5-0.5V51.066a0.5,0.5,0,0,0-.5-0.5h-6.439a0.477,0.477,0,0,0-.367.147,0.506,0.506,0,0,0-.136.357v1.386a0.5,0.5,0,0,0,.136.357,0.475,0.475,0,0,0,.367.147h6.439Zm5.705,5.1a0.511,0.511,0,0,0,.378-0.147,0.489,0.489,0,0,0,.147-0.357V52.116l5.075,5.565c0.042,0.042.129,0.115,0.262,0.221a0.876,0.876,0,0,0,.556.157h2.16a0.44,0.44,0,0,0,.3-0.126,0.414,0.414,0,0,0,.136-0.315,0.419,0.419,0,0,0-.105-0.273l-6.166-6.951,5.768-6.342a0.4,0.4,0,0,0,.083-0.252,0.41,0.41,0,0,0-.136-0.315,0.437,0.437,0,0,0-.3-0.126H662.87a0.934,0.934,0,0,0-.535.137,1.323,1.323,0,0,0-.283.241l-4.74,5.061V43.884a0.5,0.5,0,0,0-.525-0.525h-1.845a0.487,0.487,0,0,0-.357.147,0.512,0.512,0,0,0-.147.378V57.555a0.5,0.5,0,0,0,.5.5h1.845Zm15.238-.011a3.768,3.768,0,0,0,1.122-.578,3.659,3.659,0,0,0,.734-0.735v0.819a0.5,0.5,0,0,0,.136.357,0.475,0.475,0,0,0,.367.147h1.7a0.5,0.5,0,0,0,.5-0.5V50.961a4.759,4.759,0,0,0-.252-1.554,3.316,3.316,0,0,0-.8-1.281,3.867,3.867,0,0,0-1.458-.871,6.7,6.7,0,0,0-2.234-.326,6.054,6.054,0,0,0-2.076.315,4.613,4.613,0,0,0-1.395.766,3.345,3.345,0,0,0-.8.934,2.076,2.076,0,0,0-.283.819,0.477,0.477,0,0,0,.115.336,0.447,0.447,0,0,0,.347.126h1.656a0.535,0.535,0,0,0,.483-0.273,1.877,1.877,0,0,1,.7-0.809,2.233,2.233,0,0,1,1.227-.3,1.652,1.652,0,0,1,1.951,1.848v0.441l-2.873.42a7.05,7.05,0,0,0-3.126,1.165,2.869,2.869,0,0,0-.681,3.969,3.6,3.6,0,0,0,1.395,1.155,4.43,4.43,0,0,0,1.971.431A4.957,4.957,0,0,0,672.025,58.049Zm-1.773-1.932a1.7,1.7,0,0,1-.723-0.483,1.157,1.157,0,0,1-.283-0.788,1.226,1.226,0,0,1,.608-1.029,4.5,4.5,0,0,1,1.846-.609l2.1-.336v0.441a3.578,3.578,0,0,1-.346,1.669,2.237,2.237,0,0,1-.944.977,2.81,2.81,0,0,1-1.332.315A2.721,2.721,0,0,1,670.252,56.117Zm15.825,1.722a3.635,3.635,0,0,0,1.636-1.187,2.8,2.8,0,0,0,.556-1.7,2.932,2.932,0,0,0-.346-1.417,3.071,3.071,0,0,0-1.175-1.134,6.727,6.727,0,0,0-2.233-.745,12.686,12.686,0,0,1-1.846-.483,1.835,1.835,0,0,1-.808-0.494,0.993,0.993,0,0,1-.2-0.619,1.084,1.084,0,0,1,.42-0.872,1.865,1.865,0,0,1,1.216-.346,2.593,2.593,0,0,1,1.017.168,2.479,2.479,0,0,1,.661.41c0.182,0.161.349,0.312,0.5,0.452a1.088,1.088,0,0,0,.168.1,0.413,0.413,0,0,0,.189.042h1.552a0.479,0.479,0,0,0,.336-0.136,0.423,0.423,0,0,0,.125-0.368,1.593,1.593,0,0,0-.314-0.745,3.76,3.76,0,0,0-.85-0.85,4.9,4.9,0,0,0-1.394-.7,6.175,6.175,0,0,0-1.972-.284,5.432,5.432,0,0,0-2.422.483,3.646,3.646,0,0,0-1.469,1.228,2.878,2.878,0,0,0-.115,3.035,2.916,2.916,0,0,0,1.154,1.05,7.83,7.83,0,0,0,1.95.693,17.044,17.044,0,0,1,1.846.472,2.108,2.108,0,0,1,.891.493,1.038,1.038,0,0,1,.241.714,1.027,1.027,0,0,1-.555.934,3.108,3.108,0,0,1-2.423.147,2.881,2.881,0,0,1-.723-0.431c-0.2-.168-0.4-0.329-0.577-0.483a0.516,0.516,0,0,0-.168-0.126,0.474,0.474,0,0,0-.147-0.021h-1.657a0.517,0.517,0,0,0-.346.136,0.409,0.409,0,0,0-.136.367,1.732,1.732,0,0,0,.294.735,3.475,3.475,0,0,0,.838.882,4.818,4.818,0,0,0,1.458.735,6.911,6.911,0,0,0,2.15.294A7.261,7.261,0,0,0,686.077,57.839Zm11.158,0a3.635,3.635,0,0,0,1.636-1.187,2.8,2.8,0,0,0,.556-1.7,2.932,2.932,0,0,0-.346-1.417,3.064,3.064,0,0,0-1.175-1.134,6.727,6.727,0,0,0-2.233-.745,12.686,12.686,0,0,1-1.846-.483,1.835,1.835,0,0,1-.808-0.494,0.993,0.993,0,0,1-.2-0.619,1.084,1.084,0,0,1,.42-0.872,1.865,1.865,0,0,1,1.216-.346,2.593,2.593,0,0,1,1.017.168,2.479,2.479,0,0,1,.661.41c0.182,0.161.349,0.312,0.5,0.452a1.088,1.088,0,0,0,.168.1,0.413,0.413,0,0,0,.189.042h1.552a0.479,0.479,0,0,0,.336-0.136,0.423,0.423,0,0,0,.125-0.368,1.593,1.593,0,0,0-.314-0.745,3.76,3.76,0,0,0-.85-0.85,4.9,4.9,0,0,0-1.394-.7,6.175,6.175,0,0,0-1.972-.284,5.432,5.432,0,0,0-2.422.483,3.646,3.646,0,0,0-1.469,1.228,2.878,2.878,0,0,0-.115,3.035,2.916,2.916,0,0,0,1.154,1.05,7.83,7.83,0,0,0,1.95.693,17.044,17.044,0,0,1,1.846.472,2.108,2.108,0,0,1,.891.493,1.038,1.038,0,0,1,.242.714,1.028,1.028,0,0,1-.556.934,3.108,3.108,0,0,1-2.423.147,2.881,2.881,0,0,1-.723-0.431c-0.2-.168-0.4-0.329-0.577-0.483a0.516,0.516,0,0,0-.168-0.126,0.474,0.474,0,0,0-.147-0.021H690.3a0.517,0.517,0,0,0-.346.136,0.409,0.409,0,0,0-.136.367,1.732,1.732,0,0,0,.294.735,3.475,3.475,0,0,0,.838.882,4.818,4.818,0,0,0,1.458.735,6.911,6.911,0,0,0,2.15.294A7.261,7.261,0,0,0,697.235,57.839Zm11.137,0.126a5.241,5.241,0,0,0,1.521-.767,4.089,4.089,0,0,0,.933-0.945,1.761,1.761,0,0,0,.346-0.819,0.353,0.353,0,0,0-.115-0.315,0.491,0.491,0,0,0-.346-0.126h-1.8a0.879,0.879,0,0,0-.346.053,1,1,0,0,0-.3.3,2.666,2.666,0,0,1-.357.378,2.325,2.325,0,0,1-1.636.588,2.015,2.015,0,0,1-1.227-.378,2.35,2.35,0,0,1-.776-1,3.71,3.71,0,0,1-.283-1.355V53.418h6.963a0.511,0.511,0,0,0,.378-0.147,0.485,0.485,0,0,0,.147-0.357V52.473a6.726,6.726,0,0,0-.587-2.888,4.459,4.459,0,0,0-1.741-1.953,5.39,5.39,0,0,0-2.853-.7,5.467,5.467,0,0,0-2.663.62,4.441,4.441,0,0,0-1.773,1.764,6.216,6.216,0,0,0-.723,2.74,4.913,4.913,0,0,0-.021.514q0,0.326.021,0.535a5.47,5.47,0,0,0,1.468,3.822,5.027,5.027,0,0,0,3.691,1.344A6.588,6.588,0,0,0,708.372,57.965Zm-4.394-6.373a3.664,3.664,0,0,1,.262-1.438,2.113,2.113,0,0,1,.787-0.966,2.459,2.459,0,0,1,2.517,0,2.184,2.184,0,0,1,.8.966,3.557,3.557,0,0,1,.272,1.438v0.063h-4.635V51.591Zm16.3,6.468a0.5,0.5,0,0,0,.5-0.5v-1.3a0.5,0.5,0,0,0-.5-0.5h-1.447a1.153,1.153,0,0,1-1.06-.483,2.523,2.523,0,0,1-.3-1.344V49.365h2.622a0.485,0.485,0,0,0,.357-0.147,0.514,0.514,0,0,0,.146-0.378v-1.2a0.5,0.5,0,0,0-.5-0.5h-2.622V43.653a0.5,0.5,0,0,0-.5-0.5h-1.7a0.477,0.477,0,0,0-.367.147,0.506,0.506,0,0,0-.136.357v3.486H713.1a0.5,0.5,0,0,0-.5.5v1.2a0.511,0.511,0,0,0,.147.378,0.485,0.485,0,0,0,.357.147h1.657v4.767a4.991,4.991,0,0,0,.419,2.173,2.8,2.8,0,0,0,1.28,1.313,4.6,4.6,0,0,0,2.118.441h1.7Zm9,0a0.5,0.5,0,0,0,.5-0.5v-1.3a0.5,0.5,0,0,0-.5-0.5h-1.447a1.151,1.151,0,0,1-1.059-.483,2.513,2.513,0,0,1-.3-1.344V49.365h2.621a0.485,0.485,0,0,0,.357-0.147,0.511,0.511,0,0,0,.147-0.378v-1.2a0.5,0.5,0,0,0-.5-0.5h-2.621V43.653a0.5,0.5,0,0,0-.5-0.5h-1.7a0.477,0.477,0,0,0-.367.147,0.506,0.506,0,0,0-.136.357v3.486H722.1a0.5,0.5,0,0,0-.5.5v1.2a0.511,0.511,0,0,0,.147.378,0.481,0.481,0,0,0,.356.147h1.657v4.767a4.99,4.99,0,0,0,.42,2.173,2.8,2.8,0,0,0,1.279,1.313,4.6,4.6,0,0,0,2.118.441h1.7Zm9.155-.095a5.241,5.241,0,0,0,1.521-.767,4.089,4.089,0,0,0,.933-0.945,1.761,1.761,0,0,0,.346-0.819,0.355,0.355,0,0,0-.115-0.315,0.491,0.491,0,0,0-.346-0.126h-1.8a0.875,0.875,0,0,0-.346.053,0.992,0.992,0,0,0-.3.3,2.666,2.666,0,0,1-.357.378,2.325,2.325,0,0,1-1.636.588,2.015,2.015,0,0,1-1.227-.378,2.342,2.342,0,0,1-.776-1,3.71,3.71,0,0,1-.283-1.355V53.418H741a0.511,0.511,0,0,0,.378-0.147,0.489,0.489,0,0,0,.147-0.357V52.473a6.711,6.711,0,0,0-.588-2.888,4.457,4.457,0,0,0-1.74-1.953,5.392,5.392,0,0,0-2.853-.7,5.471,5.471,0,0,0-2.664.62,4.439,4.439,0,0,0-1.772,1.764,6.2,6.2,0,0,0-.723,2.74,4.651,4.651,0,0,0-.021.514,5.252,5.252,0,0,0,.021.535,5.465,5.465,0,0,0,1.468,3.822,5.026,5.026,0,0,0,3.691,1.344A6.588,6.588,0,0,0,738.427,57.965Zm-4.394-6.373a3.664,3.664,0,0,1,.262-1.438,2.113,2.113,0,0,1,.787-0.966,2.459,2.459,0,0,1,2.517,0,2.184,2.184,0,0,1,.8.966,3.557,3.557,0,0,1,.272,1.438v0.063h-4.635V51.591Z" transform="translate(-534.562 -42.813)"/>
</svg>
