<svg xmlns="http://www.w3.org/2000/svg" width="166.531" height="39.25" viewBox="0 0 166.531 39.25">
  <defs>
    <style>
      .cls-1 {
        fill: #fff;
        fill-rule: evenodd;
      }
    </style>
  </defs>
  <path id="mit_verchromten_Seitenkappen" data-name="mit verchromten Seitenkappen" class="cls-1" d="M557.351,58.059a0.5,0.5,0,0,0,.5-0.5V51.7a3.169,3.169,0,0,1,.293-1.491,1.834,1.834,0,0,1,.756-0.788,2.014,2.014,0,0,1,.943-0.242,2.175,2.175,0,0,1,.986.231,1.764,1.764,0,0,1,.755.788,3.234,3.234,0,0,1,.294,1.5v5.859a0.5,0.5,0,0,0,.5.5h1.72a0.5,0.5,0,0,0,.5-0.5V51.7a3.234,3.234,0,0,1,.294-1.5,1.759,1.759,0,0,1,.755-0.788,2.046,2.046,0,0,1,.923-0.231,2.27,2.27,0,0,1,1.028.231,1.657,1.657,0,0,1,.734.788,3.463,3.463,0,0,1,.272,1.5v5.859a0.5,0.5,0,0,0,.5.5h1.72a0.5,0.5,0,0,0,.5-0.5V51.528a5.688,5.688,0,0,0-.514-2.573,3.507,3.507,0,0,0-1.4-1.522,3.958,3.958,0,0,0-1.982-.5,4.05,4.05,0,0,0-2.024.515,3.62,3.62,0,0,0-1.4,1.354,3.329,3.329,0,0,0-3.335-1.869,3.79,3.79,0,0,0-1.772.431,3.657,3.657,0,0,0-1.185,1V47.643a0.5,0.5,0,0,0-.5-0.5H555.59a0.5,0.5,0,0,0-.5.5v9.912a0.5,0.5,0,0,0,.5.5h1.761Zm18.9,0a0.477,0.477,0,0,0,.367-0.147,0.5,0.5,0,0,0,.136-0.357V47.643a0.506,0.506,0,0,0-.136-0.357,0.479,0.479,0,0,0-.367-0.147h-1.741a0.5,0.5,0,0,0-.5.5v9.912a0.5,0.5,0,0,0,.5.5h1.741Zm0.084-12.726a0.51,0.51,0,0,0,.377-0.147,0.485,0.485,0,0,0,.147-0.357V43.317a0.487,0.487,0,0,0-.147-0.357,0.512,0.512,0,0,0-.377-0.147h-1.909a0.5,0.5,0,0,0-.5.5v1.512a0.5,0.5,0,0,0,.5.5h1.909Zm9.836,12.726a0.5,0.5,0,0,0,.5-0.5v-1.3a0.5,0.5,0,0,0-.5-0.5h-1.447a1.151,1.151,0,0,1-1.059-.483,2.513,2.513,0,0,1-.3-1.344V49.365h2.621a0.485,0.485,0,0,0,.357-0.147,0.511,0.511,0,0,0,.147-0.378v-1.2a0.5,0.5,0,0,0-.5-0.5h-2.621V43.653a0.5,0.5,0,0,0-.5-0.5h-1.7a0.477,0.477,0,0,0-.367.147,0.506,0.506,0,0,0-.136.357v3.486H579a0.5,0.5,0,0,0-.5.5v1.2a0.511,0.511,0,0,0,.147.378,0.481,0.481,0,0,0,.356.147h1.657v4.767a4.99,4.99,0,0,0,.42,2.173,2.8,2.8,0,0,0,1.279,1.313,4.6,4.6,0,0,0,2.118.441h1.7Zm12.039,0a0.712,0.712,0,0,0,.5-0.157,1.014,1.014,0,0,0,.252-0.367l3.943-9.744a0.97,0.97,0,0,0,.021-0.189,0.448,0.448,0,0,0-.136-0.326,0.423,0.423,0,0,0-.3-0.136h-1.72a0.49,0.49,0,0,0-.378.136,0.751,0.751,0,0,0-.168.263l-2.789,7.371-2.79-7.371a0.762,0.762,0,0,0-.167-0.263,0.49,0.49,0,0,0-.378-0.136h-1.7a0.465,0.465,0,0,0-.461.462,0.5,0.5,0,0,0,.042.189l3.922,9.744a1.4,1.4,0,0,0,.262.367,0.672,0.672,0,0,0,.493.157h1.552Zm13.014-.095a5.241,5.241,0,0,0,1.521-.767,4.089,4.089,0,0,0,.933-0.945,1.761,1.761,0,0,0,.346-0.819,0.355,0.355,0,0,0-.115-0.315,0.491,0.491,0,0,0-.346-0.126h-1.8a0.875,0.875,0,0,0-.346.053,0.992,0.992,0,0,0-.3.3,2.726,2.726,0,0,1-.357.378,2.325,2.325,0,0,1-1.636.588,2.015,2.015,0,0,1-1.227-.378,2.342,2.342,0,0,1-.776-1,3.71,3.71,0,0,1-.283-1.355V53.418h6.963a0.511,0.511,0,0,0,.378-0.147,0.489,0.489,0,0,0,.147-0.357V52.473a6.711,6.711,0,0,0-.588-2.888,4.457,4.457,0,0,0-1.74-1.953,5.392,5.392,0,0,0-2.853-.7,5.471,5.471,0,0,0-2.664.62,4.432,4.432,0,0,0-1.772,1.764,6.2,6.2,0,0,0-.723,2.74,4.651,4.651,0,0,0-.021.514,5.252,5.252,0,0,0,.021.535,5.465,5.465,0,0,0,1.468,3.822,5.026,5.026,0,0,0,3.691,1.344A6.588,6.588,0,0,0,611.222,57.965Zm-4.394-6.373a3.664,3.664,0,0,1,.262-1.438,2.113,2.113,0,0,1,.787-0.966,2.459,2.459,0,0,1,2.517,0,2.184,2.184,0,0,1,.8.966,3.557,3.557,0,0,1,.272,1.438v0.063h-4.635V51.591Zm12.039,6.468a0.509,0.509,0,0,0,.377-0.147,0.485,0.485,0,0,0,.147-0.357V51.78a1.933,1.933,0,0,1,2.119-2.121h1.636a0.478,0.478,0,0,0,.367-0.147,0.509,0.509,0,0,0,.136-0.357V47.643a0.51,0.51,0,0,0-.136-0.357,0.48,0.48,0,0,0-.367-0.147h-0.86a4.157,4.157,0,0,0-1.773.357,3.154,3.154,0,0,0-1.248,1.029V47.664a0.494,0.494,0,0,0-.157-0.378,0.522,0.522,0,0,0-.367-0.147h-1.7a0.483,0.483,0,0,0-.356.147,0.512,0.512,0,0,0-.147.378v9.891a0.5,0.5,0,0,0,.5.5h1.825Zm12.909-.042a5.006,5.006,0,0,0,1.416-.661,4.516,4.516,0,0,0,.975-0.9,3.685,3.685,0,0,0,.567-0.966,2.927,2.927,0,0,0,.2-0.851,0.411,0.411,0,0,0-.136-0.367,0.546,0.546,0,0,0-.368-0.136h-1.845a0.465,0.465,0,0,0-.325.1,1.08,1.08,0,0,0-.221.315,2.411,2.411,0,0,1-.817,1.186,2.291,2.291,0,0,1-1.322.346,2.189,2.189,0,0,1-1.667-.651,3.113,3.113,0,0,1-.661-2.1,12.849,12.849,0,0,1,0-1.47,3.123,3.123,0,0,1,.661-2.09,2.172,2.172,0,0,1,1.667-.661,2.3,2.3,0,0,1,1.311.346,2.381,2.381,0,0,1,.828,1.186,1.066,1.066,0,0,0,.221.315,0.462,0.462,0,0,0,.325.1h1.845a0.544,0.544,0,0,0,.368-0.136,0.41,0.41,0,0,0,.136-0.367,2.876,2.876,0,0,0-.325-1.123,4.266,4.266,0,0,0-.913-1.2,4.692,4.692,0,0,0-1.552-.945,6.317,6.317,0,0,0-2.286-.367,5.9,5.9,0,0,0-2.653.567,4.192,4.192,0,0,0-1.783,1.648,5.513,5.513,0,0,0-.7,2.614q-0.021.336-.021,0.851t0.021,0.83a5.51,5.51,0,0,0,.7,2.614A4.189,4.189,0,0,0,627.2,57.7a5.9,5.9,0,0,0,2.653.567A6.607,6.607,0,0,0,631.776,58.017Zm7.729,0.042a0.475,0.475,0,0,0,.367-0.147,0.505,0.505,0,0,0,.137-0.357V51.78a2.658,2.658,0,0,1,.66-1.911,2.308,2.308,0,0,1,1.752-.693,2.16,2.16,0,0,1,1.73.693,2.834,2.834,0,0,1,.6,1.911v5.775a0.5,0.5,0,0,0,.5.5h1.888a0.5,0.5,0,0,0,.5-0.5v-5.9a5.6,5.6,0,0,0-.524-2.52,3.888,3.888,0,0,0-1.479-1.627,4.232,4.232,0,0,0-2.234-.578,4.373,4.373,0,0,0-2.013.42,4.43,4.43,0,0,0-1.384,1.092V43.653a0.507,0.507,0,0,0-.137-0.357,0.477,0.477,0,0,0-.367-0.147h-1.867a0.5,0.5,0,0,0-.5.5v13.9a0.5,0.5,0,0,0,.5.5h1.867Zm13.13,0a0.51,0.51,0,0,0,.377-0.147,0.485,0.485,0,0,0,.147-0.357V51.78a1.933,1.933,0,0,1,2.118-2.121h1.636a0.475,0.475,0,0,0,.367-0.147,0.505,0.505,0,0,0,.137-0.357V47.643a0.507,0.507,0,0,0-.137-0.357,0.477,0.477,0,0,0-.367-0.147h-0.86a4.153,4.153,0,0,0-1.772.357,3.154,3.154,0,0,0-1.248,1.029V47.664a0.494,0.494,0,0,0-.157-0.378,0.524,0.524,0,0,0-.367-0.147h-1.7a0.487,0.487,0,0,0-.357.147,0.512,0.512,0,0,0-.146.378v9.891a0.5,0.5,0,0,0,.5.5h1.825Zm13.916-.378a4.075,4.075,0,0,0,1.741-1.659,5.76,5.76,0,0,0,.681-2.5q0.021-.378.021-0.924t-0.021-.924a5.553,5.553,0,0,0-.7-2.51,4.233,4.233,0,0,0-1.762-1.648,6.861,6.861,0,0,0-5.558,0,4.227,4.227,0,0,0-1.762,1.648,5.554,5.554,0,0,0-.7,2.51c-0.014.252-.02,0.56-0.02,0.924s0.006,0.672.02,0.924a5.761,5.761,0,0,0,.682,2.5,4.075,4.075,0,0,0,1.741,1.659A7.061,7.061,0,0,0,666.551,57.681Zm-4.541-2.194a3.323,3.323,0,0,1-.671-2.068q-0.021-.315-0.021-0.819t0.021-.819a3.325,3.325,0,0,1,.671-2.068,2.454,2.454,0,0,1,3.44,0,3.331,3.331,0,0,1,.671,2.069q0.021,0.315.021,0.819t-0.021.819a3.329,3.329,0,0,1-.671,2.069A2.454,2.454,0,0,1,662.01,55.487Zm11.578,2.572a0.5,0.5,0,0,0,.5-0.5V51.7a3.168,3.168,0,0,1,.294-1.491,1.827,1.827,0,0,1,.755-0.788,2.014,2.014,0,0,1,.943-0.242,2.175,2.175,0,0,1,.986.231,1.759,1.759,0,0,1,.755.788,3.234,3.234,0,0,1,.294,1.5v5.859a0.5,0.5,0,0,0,.5.5h1.72a0.5,0.5,0,0,0,.5-0.5V51.7a3.234,3.234,0,0,1,.294-1.5,1.759,1.759,0,0,1,.755-0.788,2.049,2.049,0,0,1,.923-0.231,2.267,2.267,0,0,1,1.028.231,1.657,1.657,0,0,1,.734.788,3.463,3.463,0,0,1,.272,1.5v5.859a0.5,0.5,0,0,0,.5.5h1.72a0.5,0.5,0,0,0,.5-0.5V51.528a5.688,5.688,0,0,0-.514-2.573,3.507,3.507,0,0,0-1.4-1.522,3.958,3.958,0,0,0-1.982-.5,4.05,4.05,0,0,0-2.024.515,3.62,3.62,0,0,0-1.4,1.354,3.329,3.329,0,0,0-3.335-1.869,3.79,3.79,0,0,0-1.772.431,3.657,3.657,0,0,0-1.185,1V47.643a0.5,0.5,0,0,0-.5-0.5h-1.636a0.5,0.5,0,0,0-.5.5v9.912a0.5,0.5,0,0,0,.5.5h1.762Zm23.155,0a0.5,0.5,0,0,0,.5-0.5v-1.3a0.5,0.5,0,0,0-.5-0.5H695.3a1.152,1.152,0,0,1-1.059-.483,2.513,2.513,0,0,1-.3-1.344V49.365h2.622a0.485,0.485,0,0,0,.356-0.147,0.511,0.511,0,0,0,.147-0.378v-1.2a0.5,0.5,0,0,0-.5-0.5h-2.622V43.653a0.5,0.5,0,0,0-.5-0.5h-1.7a0.477,0.477,0,0,0-.367.147,0.507,0.507,0,0,0-.137.357v3.486H689.57a0.5,0.5,0,0,0-.5.5v1.2a0.511,0.511,0,0,0,.147.378,0.485,0.485,0,0,0,.357.147h1.656v4.767a4.99,4.99,0,0,0,.42,2.173,2.8,2.8,0,0,0,1.279,1.313,4.608,4.608,0,0,0,2.119.441h1.7Zm9.154-.095a5.228,5.228,0,0,0,1.521-.767,4.089,4.089,0,0,0,.933-0.945,1.761,1.761,0,0,0,.346-0.819,0.353,0.353,0,0,0-.115-0.315,0.49,0.49,0,0,0-.346-0.126h-1.8a0.879,0.879,0,0,0-.346.053,1,1,0,0,0-.3.3,2.666,2.666,0,0,1-.357.378,2.38,2.38,0,0,1-.65.41,2.407,2.407,0,0,1-.986.178,2.015,2.015,0,0,1-1.227-.378,2.35,2.35,0,0,1-.776-1,3.71,3.71,0,0,1-.283-1.355V53.418h6.964a0.51,0.51,0,0,0,.377-0.147,0.485,0.485,0,0,0,.147-0.357V52.473a6.726,6.726,0,0,0-.587-2.888,4.459,4.459,0,0,0-1.741-1.953,5.39,5.39,0,0,0-2.853-.7,5.469,5.469,0,0,0-2.663.62,4.441,4.441,0,0,0-1.773,1.764,6.23,6.23,0,0,0-.723,2.74,4.913,4.913,0,0,0-.021.514q0,0.326.021,0.535a5.47,5.47,0,0,0,1.468,3.822,5.027,5.027,0,0,0,3.691,1.344A6.588,6.588,0,0,0,705.9,57.965ZM701.5,51.591a3.664,3.664,0,0,1,.262-1.438,2.113,2.113,0,0,1,.787-0.966,2.459,2.459,0,0,1,2.517,0,2.184,2.184,0,0,1,.8.966,3.557,3.557,0,0,1,.273,1.438v0.063H701.5V51.591Zm12.06,6.468a0.5,0.5,0,0,0,.5-0.5V51.78a2.68,2.68,0,0,1,.65-1.911,2.272,2.272,0,0,1,1.741-.693,2.16,2.16,0,0,1,1.73.693,2.834,2.834,0,0,1,.6,1.911v5.775a0.5,0.5,0,0,0,.5.5h1.846a0.5,0.5,0,0,0,.5-0.5v-5.9a5.68,5.68,0,0,0-.514-2.52,3.84,3.84,0,0,0-1.457-1.627,4.182,4.182,0,0,0-2.224-.578,4.261,4.261,0,0,0-3.5,1.575V47.643a0.5,0.5,0,0,0-.5-0.5h-1.72a0.5,0.5,0,0,0-.5.5v9.912a0.5,0.5,0,0,0,.5.5h1.846ZM578.4,77.744a4.7,4.7,0,0,0,2.086-1.5,3.779,3.779,0,0,0,.745-2.362,3.7,3.7,0,0,0-.524-2.047,3.82,3.82,0,0,0-1.657-1.334,14.7,14.7,0,0,0-2.916-.924,20.744,20.744,0,0,1-2.024-.63A2.825,2.825,0,0,1,573,68.263a1.563,1.563,0,0,1,.346-2.279,3.488,3.488,0,0,1,1.825-.42,3.153,3.153,0,0,1,1.782.462,1.742,1.742,0,0,1,.818,1.113,0.615,0.615,0,0,0,.273.315,0.741,0.741,0,0,0,.336.084h1.95a0.4,0.4,0,0,0,.325-0.136,0.46,0.46,0,0,0,.116-0.3,3.04,3.04,0,0,0-.388-1.334,4.576,4.576,0,0,0-1.06-1.281,5.313,5.313,0,0,0-1.74-.966,7.294,7.294,0,0,0-2.412-.367,7.159,7.159,0,0,0-2.926.546,4.439,4.439,0,0,0-1.888,1.491,3.686,3.686,0,0,0-.661,2.163,3.737,3.737,0,0,0,.535,2.079,4,4,0,0,0,1.594,1.355,12.209,12.209,0,0,0,2.632.913,21.571,21.571,0,0,1,2.192.641,3.728,3.728,0,0,1,1.227.672,1.264,1.264,0,0,1,.4.977,1.57,1.57,0,0,1-.745,1.365,4.059,4.059,0,0,1-2.255.5,4.169,4.169,0,0,1-1.562-.252,2.645,2.645,0,0,1-.975-0.64,2.124,2.124,0,0,1-.483-0.788,1.2,1.2,0,0,0-.241-0.283,0.621,0.621,0,0,0-.409-0.116h-1.867a0.431,0.431,0,0,0-.44.441,3.537,3.537,0,0,0,.723,1.963,4.777,4.777,0,0,0,1.993,1.512,8.1,8.1,0,0,0,3.261.578A8.556,8.556,0,0,0,578.4,77.744Zm11.776,0.221A5.23,5.23,0,0,0,591.7,77.2a4.089,4.089,0,0,0,.933-0.945,1.762,1.762,0,0,0,.346-0.819,0.353,0.353,0,0,0-.115-0.315,0.491,0.491,0,0,0-.346-0.126h-1.8a0.879,0.879,0,0,0-.346.052,1,1,0,0,0-.3.3,2.676,2.676,0,0,1-.357.378,2.38,2.38,0,0,1-.65.41,2.409,2.409,0,0,1-.986.178,2.015,2.015,0,0,1-1.227-.378,2.35,2.35,0,0,1-.776-1,3.71,3.71,0,0,1-.283-1.355V73.418h6.964a0.511,0.511,0,0,0,.377-0.147,0.485,0.485,0,0,0,.147-0.357V72.473a6.726,6.726,0,0,0-.587-2.888,4.459,4.459,0,0,0-1.741-1.953,5.389,5.389,0,0,0-2.853-.7,5.469,5.469,0,0,0-2.663.619,4.44,4.44,0,0,0-1.773,1.764,6.23,6.23,0,0,0-.723,2.74,4.912,4.912,0,0,0-.021.514q0,0.326.021,0.535a5.47,5.47,0,0,0,1.468,3.822,5.028,5.028,0,0,0,3.691,1.344A6.588,6.588,0,0,0,590.175,77.965Zm-4.394-6.374a3.664,3.664,0,0,1,.262-1.438,2.113,2.113,0,0,1,.787-0.966,2.459,2.459,0,0,1,2.517,0,2.184,2.184,0,0,1,.8.966,3.557,3.557,0,0,1,.272,1.438v0.063h-4.635V71.591Zm11.955,6.468a0.476,0.476,0,0,0,.367-0.147,0.505,0.505,0,0,0,.137-0.357V67.643a0.507,0.507,0,0,0-.137-0.357,0.477,0.477,0,0,0-.367-0.147H596a0.5,0.5,0,0,0-.5.5v9.912a0.5,0.5,0,0,0,.5.5h1.741Zm0.084-12.726a0.511,0.511,0,0,0,.378-0.147,0.489,0.489,0,0,0,.147-0.357V63.317a0.491,0.491,0,0,0-.147-0.357,0.513,0.513,0,0,0-.378-0.147h-1.908a0.5,0.5,0,0,0-.5.5v1.512a0.5,0.5,0,0,0,.5.5h1.908Zm9.837,12.726a0.5,0.5,0,0,0,.5-0.5v-1.3a0.5,0.5,0,0,0-.5-0.5H606.21a1.153,1.153,0,0,1-1.06-.483,2.514,2.514,0,0,1-.3-1.344V69.365h2.622a0.486,0.486,0,0,0,.357-0.147,0.514,0.514,0,0,0,.146-0.378v-1.2a0.5,0.5,0,0,0-.5-0.5h-2.622V63.653a0.5,0.5,0,0,0-.5-0.5h-1.7a0.477,0.477,0,0,0-.367.147,0.506,0.506,0,0,0-.136.357v3.486h-1.657a0.5,0.5,0,0,0-.5.5v1.2a0.511,0.511,0,0,0,.147.378,0.486,0.486,0,0,0,.357.147h1.657v4.767a4.991,4.991,0,0,0,.419,2.174,2.806,2.806,0,0,0,1.279,1.313,4.611,4.611,0,0,0,2.119.441h1.7Zm9.154-.094a5.23,5.23,0,0,0,1.521-.767,4.089,4.089,0,0,0,.933-0.945,1.762,1.762,0,0,0,.346-0.819,0.353,0.353,0,0,0-.115-0.315,0.49,0.49,0,0,0-.346-0.126h-1.8a0.879,0.879,0,0,0-.346.052,1,1,0,0,0-.3.3,2.717,2.717,0,0,1-.356.378,2.33,2.33,0,0,1-1.636.588,2.011,2.011,0,0,1-1.227-.378,2.335,2.335,0,0,1-.776-1,3.71,3.71,0,0,1-.284-1.355V73.418h6.964a0.511,0.511,0,0,0,.377-0.147,0.485,0.485,0,0,0,.147-0.357V72.473a6.726,6.726,0,0,0-.587-2.888,4.459,4.459,0,0,0-1.741-1.953,5.387,5.387,0,0,0-2.852-.7,5.471,5.471,0,0,0-2.664.619,4.431,4.431,0,0,0-1.772,1.764,6.216,6.216,0,0,0-.724,2.74,4.912,4.912,0,0,0-.021.514q0,0.326.021,0.535a5.47,5.47,0,0,0,1.468,3.822,5.03,5.03,0,0,0,3.692,1.344A6.586,6.586,0,0,0,616.811,77.965Zm-4.394-6.374a3.663,3.663,0,0,1,.263-1.438,2.1,2.1,0,0,1,.786-0.966,2.459,2.459,0,0,1,2.517,0,2.184,2.184,0,0,1,.8.966,3.54,3.54,0,0,1,.273,1.438v0.063h-4.636V71.591Zm12.06,6.468a0.5,0.5,0,0,0,.5-0.5V71.78a2.68,2.68,0,0,1,.65-1.911,2.272,2.272,0,0,1,1.741-.693,2.159,2.159,0,0,1,1.73.693,2.829,2.829,0,0,1,.6,1.911v5.775a0.5,0.5,0,0,0,.5.5h1.846a0.5,0.5,0,0,0,.5-0.5v-5.9a5.68,5.68,0,0,0-.514-2.52,3.833,3.833,0,0,0-1.457-1.627,4.181,4.181,0,0,0-2.224-.578,4.265,4.265,0,0,0-3.5,1.575V67.643a0.5,0.5,0,0,0-.5-0.5h-1.719a0.5,0.5,0,0,0-.5.5v9.912a0.5,0.5,0,0,0,.5.5h1.845Zm12.962,0a0.476,0.476,0,0,0,.367-0.147,0.5,0.5,0,0,0,.136-0.357V73.481l4.006,4.221a3.52,3.52,0,0,0,.325.263,0.818,0.818,0,0,0,.451.094h1.993a0.462,0.462,0,0,0,.325-0.126,0.435,0.435,0,0,0,.136-0.336,0.577,0.577,0,0,0-.209-0.357l-4.845-5.208,4.32-4.053a0.421,0.421,0,0,0,.168-0.189,0.515,0.515,0,0,0,.042-0.189,0.434,0.434,0,0,0-.461-0.462h-1.951a0.767,0.767,0,0,0-.43.094q-0.136.095-.346,0.263l-3.524,3.339V63.653a0.506,0.506,0,0,0-.136-0.357,0.477,0.477,0,0,0-.367-0.147h-1.7a0.5,0.5,0,0,0-.5.5v13.9a0.5,0.5,0,0,0,.5.5h1.7Zm13.832-.011a3.756,3.756,0,0,0,1.122-.577,3.635,3.635,0,0,0,.734-0.735v0.819a0.5,0.5,0,0,0,.137.357,0.474,0.474,0,0,0,.367.147h1.7a0.5,0.5,0,0,0,.5-0.5V70.961a4.759,4.759,0,0,0-.252-1.554,3.3,3.3,0,0,0-.8-1.281,3.861,3.861,0,0,0-1.457-.871,6.7,6.7,0,0,0-2.234-.325,6.064,6.064,0,0,0-2.077.315,4.593,4.593,0,0,0-1.394.766,3.311,3.311,0,0,0-.8.934,2.08,2.08,0,0,0-.284.819,0.478,0.478,0,0,0,.116.336,0.446,0.446,0,0,0,.346.126h1.657a0.533,0.533,0,0,0,.482-0.273,1.873,1.873,0,0,1,.7-0.809,2.229,2.229,0,0,1,1.227-.3,1.975,1.975,0,0,1,1.51.483,1.952,1.952,0,0,1,.44,1.365v0.441l-2.873.42a7.041,7.041,0,0,0-3.125,1.166,2.869,2.869,0,0,0-.682,3.969,3.619,3.619,0,0,0,1.395,1.155,4.432,4.432,0,0,0,1.972.43A4.946,4.946,0,0,0,651.271,78.049ZM649.5,76.117a1.692,1.692,0,0,1-.724-0.483,1.157,1.157,0,0,1-.283-0.787,1.228,1.228,0,0,1,.608-1.029,4.511,4.511,0,0,1,1.846-.609l2.1-.336v0.441a3.578,3.578,0,0,1-.346,1.669,2.231,2.231,0,0,1-.944.977,2.809,2.809,0,0,1-1.331.315A2.717,2.717,0,0,1,649.5,76.117Zm11.326,5.932a0.478,0.478,0,0,0,.367-0.147,0.51,0.51,0,0,0,.136-0.357V76.778a3.721,3.721,0,0,0,1.3,1.082,4.185,4.185,0,0,0,1.93.409,4.567,4.567,0,0,0,1.93-.378,3.9,3.9,0,0,0,1.373-1.039,4.636,4.636,0,0,0,.85-1.554,6.633,6.633,0,0,0,.314-1.943q0.021-.378.021-0.756t-0.021-.735a7.379,7.379,0,0,0-.335-1.995,4.747,4.747,0,0,0-.839-1.565,3.615,3.615,0,0,0-1.363-1.018,4.8,4.8,0,0,0-1.93-.357,4.245,4.245,0,0,0-2.034.441,3.98,3.98,0,0,0-1.322,1.113v-0.84a0.506,0.506,0,0,0-.136-0.357,0.479,0.479,0,0,0-.367-0.147h-1.657a0.5,0.5,0,0,0-.5.5v13.9a0.5,0.5,0,0,0,.5.5h1.783Zm1.594-6.405a2.439,2.439,0,0,1-.8-0.956,3.033,3.033,0,0,1-.294-1.207q-0.021-.4-0.021-0.819t0.021-.8a4.23,4.23,0,0,1,.283-1.27,2.167,2.167,0,0,1,2.171-1.417,2.251,2.251,0,0,1,1.4.388,2.219,2.219,0,0,1,.734,1.019,4.778,4.778,0,0,1,.273,1.386q0.021,0.63,0,1.26a4.778,4.778,0,0,1-.273,1.386,2.217,2.217,0,0,1-.734,1.019,2.249,2.249,0,0,1-1.4.388A2.276,2.276,0,0,1,662.419,75.644ZM673.7,82.049a0.48,0.48,0,0,0,.367-0.147,0.51,0.51,0,0,0,.136-0.357V76.778a3.712,3.712,0,0,0,1.3,1.082,4.185,4.185,0,0,0,1.93.409,4.56,4.56,0,0,0,1.929-.378,3.9,3.9,0,0,0,1.374-1.039,4.636,4.636,0,0,0,.85-1.554,6.633,6.633,0,0,0,.314-1.943q0.021-.378.021-0.756t-0.021-.735a7.379,7.379,0,0,0-.335-1.995,4.747,4.747,0,0,0-.839-1.565,3.611,3.611,0,0,0-1.364-1.018,4.794,4.794,0,0,0-1.929-.357,4.252,4.252,0,0,0-2.035.441,3.986,3.986,0,0,0-1.321,1.113v-0.84a0.506,0.506,0,0,0-.136-0.357,0.479,0.479,0,0,0-.367-0.147H671.92a0.5,0.5,0,0,0-.5.5v13.9a0.5,0.5,0,0,0,.5.5H673.7Zm1.594-6.405a2.439,2.439,0,0,1-.8-0.956,3.033,3.033,0,0,1-.294-1.207q-0.021-.4-0.021-0.819t0.021-.8a4.23,4.23,0,0,1,.283-1.27,2.167,2.167,0,0,1,2.171-1.417,2.253,2.253,0,0,1,1.405.388,2.219,2.219,0,0,1,.734,1.019,4.778,4.778,0,0,1,.273,1.386q0.021,0.63,0,1.26a4.778,4.778,0,0,1-.273,1.386,2.217,2.217,0,0,1-.734,1.019,2.251,2.251,0,0,1-1.405.388A2.274,2.274,0,0,1,675.3,75.644Zm15.761,2.321a5.23,5.23,0,0,0,1.521-.767,4.089,4.089,0,0,0,.933-0.945,1.762,1.762,0,0,0,.346-0.819,0.353,0.353,0,0,0-.115-0.315,0.49,0.49,0,0,0-.346-0.126h-1.8a0.879,0.879,0,0,0-.346.052,1,1,0,0,0-.3.3,2.676,2.676,0,0,1-.357.378,2.38,2.38,0,0,1-.65.41,2.409,2.409,0,0,1-.986.178,2.015,2.015,0,0,1-1.227-.378,2.35,2.35,0,0,1-.776-1,3.71,3.71,0,0,1-.283-1.355V73.418h6.964a0.511,0.511,0,0,0,.377-0.147,0.485,0.485,0,0,0,.147-0.357V72.473a6.726,6.726,0,0,0-.587-2.888,4.459,4.459,0,0,0-1.741-1.953,5.389,5.389,0,0,0-2.853-.7,5.469,5.469,0,0,0-2.663.619,4.44,4.44,0,0,0-1.773,1.764,6.23,6.23,0,0,0-.723,2.74,4.912,4.912,0,0,0-.021.514q0,0.326.021,0.535a5.47,5.47,0,0,0,1.468,3.822,5.028,5.028,0,0,0,3.691,1.344A6.588,6.588,0,0,0,691.058,77.965Zm-4.394-6.374a3.664,3.664,0,0,1,.262-1.438,2.113,2.113,0,0,1,.787-0.966,2.459,2.459,0,0,1,2.517,0,2.184,2.184,0,0,1,.8.966,3.557,3.557,0,0,1,.273,1.438v0.063h-4.636V71.591Zm12.06,6.468a0.5,0.5,0,0,0,.5-0.5V71.78a2.68,2.68,0,0,1,.65-1.911,2.272,2.272,0,0,1,1.741-.693,2.16,2.16,0,0,1,1.73.693,2.834,2.834,0,0,1,.6,1.911v5.775a0.5,0.5,0,0,0,.5.5H706.3a0.5,0.5,0,0,0,.5-0.5v-5.9a5.68,5.68,0,0,0-.514-2.52,3.839,3.839,0,0,0-1.457-1.627,4.181,4.181,0,0,0-2.224-.578,4.261,4.261,0,0,0-3.5,1.575V67.643a0.5,0.5,0,0,0-.5-0.5h-1.72a0.5,0.5,0,0,0-.5.5v9.912a0.5,0.5,0,0,0,.5.5h1.846Z" transform="translate(-555.094 -42.813)"/>
</svg>
