<svg xmlns="http://www.w3.org/2000/svg" width="220.937" height="15.469" viewBox="0 0 220.937 15.469">
  <defs>
    <style>
      .cls-1 {
        fill: #fff;
        fill-rule: evenodd;
      }
    </style>
  </defs>
  <path id="inkl._4C_UV-LED_Druck" data-name="inkl. 4C UV-LED Druck" class="cls-1" d="M530.8,58.059a0.478,0.478,0,0,0,.367-0.147,0.509,0.509,0,0,0,.136-0.357V47.643a0.51,0.51,0,0,0-.136-0.357,0.48,0.48,0,0,0-.367-0.147h-1.741a0.5,0.5,0,0,0-.5.5v9.912a0.5,0.5,0,0,0,.5.5H530.8Zm0.083-12.726a0.511,0.511,0,0,0,.378-0.147,0.485,0.485,0,0,0,.147-0.357V43.317a0.487,0.487,0,0,0-.147-0.357,0.513,0.513,0,0,0-.378-0.147h-1.908a0.5,0.5,0,0,0-.5.5v1.512a0.5,0.5,0,0,0,.5.5h1.908Zm5.978,12.726a0.5,0.5,0,0,0,.5-0.5V51.78a2.685,2.685,0,0,1,.65-1.911,2.273,2.273,0,0,1,1.741-.693,2.159,2.159,0,0,1,1.73.693,2.829,2.829,0,0,1,.6,1.911v5.775a0.5,0.5,0,0,0,.5.5h1.846a0.5,0.5,0,0,0,.5-0.5v-5.9a5.694,5.694,0,0,0-.513-2.52,3.842,3.842,0,0,0-1.458-1.627,4.178,4.178,0,0,0-2.223-.578,4.265,4.265,0,0,0-3.5,1.575V47.643a0.5,0.5,0,0,0-.5-0.5h-1.72a0.5,0.5,0,0,0-.5.5v9.912a0.5,0.5,0,0,0,.5.5h1.846Zm12.961,0a0.475,0.475,0,0,0,.367-0.147,0.505,0.505,0,0,0,.137-0.357V53.481l4.006,4.221a3.391,3.391,0,0,0,.325.262,0.814,0.814,0,0,0,.451.095H557.1a0.462,0.462,0,0,0,.325-0.126,0.435,0.435,0,0,0,.137-0.336,0.58,0.58,0,0,0-.21-0.357l-4.845-5.208,4.32-4.053A0.421,0.421,0,0,0,557,47.79a0.514,0.514,0,0,0,.042-0.189,0.434,0.434,0,0,0-.461-0.462h-1.951a0.767,0.767,0,0,0-.43.095q-0.136.094-.346,0.262l-3.523,3.339V43.653a0.507,0.507,0,0,0-.137-0.357,0.477,0.477,0,0,0-.367-0.147h-1.7a0.5,0.5,0,0,0-.5.5v13.9a0.5,0.5,0,0,0,.5.5h1.7Zm11.577,0a0.5,0.5,0,0,0,.5-0.5v-13.9a0.5,0.5,0,0,0-.5-0.5h-1.74a0.5,0.5,0,0,0-.5.5v13.9a0.5,0.5,0,0,0,.5.5h1.74Zm5.768,0a0.5,0.5,0,0,0,.5-0.5V55.476a0.516,0.516,0,0,0-.147-0.378,0.487,0.487,0,0,0-.357-0.147h-2.1a0.487,0.487,0,0,0-.357.147,0.512,0.512,0,0,0-.146.378v2.079a0.5,0.5,0,0,0,.5.5h2.1Zm16.674,0a0.5,0.5,0,0,0,.5-0.5V54.867h1.888a0.5,0.5,0,0,0,.5-0.5v-1.47a0.5,0.5,0,0,0-.136-0.367,0.525,0.525,0,0,0-.388-0.136h-1.867V43.863a0.5,0.5,0,0,0-.5-0.5h-2.286a0.918,0.918,0,0,0-.776.357l-6.187,8.589a0.881,0.881,0,0,0-.179.325,1.108,1.108,0,0,0-.052.3v1.428a0.5,0.5,0,0,0,.136.357,0.475,0.475,0,0,0,.367.147h6.649v2.688a0.5,0.5,0,0,0,.5.5h1.825ZM581.576,46.4v6.069h-4.3Zm15.688,11.487a5.929,5.929,0,0,0,1.93-1.04,4.749,4.749,0,0,0,1.237-1.543,4.433,4.433,0,0,0,.462-1.911,0.356,0.356,0,0,0-.116-0.315,0.462,0.462,0,0,0-.325-0.126H598.46a0.532,0.532,0,0,0-.588.5,2.826,2.826,0,0,1-1.143,1.88,3.8,3.8,0,0,1-2.045.515,3.145,3.145,0,0,1-2.244-.788,3.612,3.612,0,0,1-.9-2.593q-0.063-1.806,0-3.528a3.613,3.613,0,0,1,.9-2.593,3.145,3.145,0,0,1,2.244-.787,3.817,3.817,0,0,1,2.035.5,2.887,2.887,0,0,1,1.153,1.89,0.665,0.665,0,0,0,.21.389,0.592,0.592,0,0,0,.378.115h1.992a0.462,0.462,0,0,0,.325-0.126,0.356,0.356,0,0,0,.116-0.315,4.435,4.435,0,0,0-.462-1.911,4.749,4.749,0,0,0-1.237-1.544,5.929,5.929,0,0,0-1.93-1.04,8.061,8.061,0,0,0-2.559-.378,7.227,7.227,0,0,0-3.282.683,4.824,4.824,0,0,0-2.077,1.963,6.77,6.77,0,0,0-.807,3.045q-0.021.9-.021,1.89t0.021,1.848a6.814,6.814,0,0,0,.8,3.056,4.764,4.764,0,0,0,2.066,1.953,7.272,7.272,0,0,0,3.3.683A8.061,8.061,0,0,0,597.264,57.891Zm19.956-.242a4.461,4.461,0,0,0,2.056-1.911A6.721,6.721,0,0,0,620,52.431V43.884a0.534,0.534,0,0,0-.136-0.378,0.477,0.477,0,0,0-.367-0.147h-1.888a0.5,0.5,0,0,0-.524.525v8.547a3.531,3.531,0,0,1-.808,2.551,2.971,2.971,0,0,1-2.233.83,3.006,3.006,0,0,1-2.244-.83,3.5,3.5,0,0,1-.818-2.551V43.884a0.534,0.534,0,0,0-.137-0.378,0.477,0.477,0,0,0-.367-0.147h-1.908a0.487,0.487,0,0,0-.357.147,0.512,0.512,0,0,0-.147.378v8.547a6.641,6.641,0,0,0,.734,3.307,4.509,4.509,0,0,0,2.077,1.911A8.43,8.43,0,0,0,617.22,57.65Zm12.511,0.41a0.757,0.757,0,0,0,.524-0.168,0.953,0.953,0,0,0,.273-0.42l4.488-13.482a0.514,0.514,0,0,0,.042-0.189,0.41,0.41,0,0,0-.136-0.315,0.437,0.437,0,0,0-.3-0.126h-1.846a0.61,0.61,0,0,0-.451.157,0.734,0.734,0,0,0-.2.3l-3.545,10.815-3.544-10.815a0.734,0.734,0,0,0-.2-0.3,0.611,0.611,0,0,0-.451-0.157h-1.846a0.429,0.429,0,0,0-.44.441,0.5,0.5,0,0,0,.042.189l4.488,13.482a0.953,0.953,0,0,0,.273.42,0.757,0.757,0,0,0,.524.168h2.307Zm13.361-5.1a0.5,0.5,0,0,0,.5-0.5V51.066a0.5,0.5,0,0,0-.5-0.5h-6.439a0.476,0.476,0,0,0-.367.147,0.5,0.5,0,0,0-.137.357v1.386a0.5,0.5,0,0,0,.137.357,0.474,0.474,0,0,0,.367.147h6.439Zm12.961,5.1a0.511,0.511,0,0,0,.378-0.147,0.485,0.485,0,0,0,.147-0.357v-1.47a0.5,0.5,0,0,0-.525-0.525h-6.648v-11.7a0.5,0.5,0,0,0-.5-0.5h-1.95a0.5,0.5,0,0,0-.5.5V57.555a0.5,0.5,0,0,0,.5.5h9.1Zm12.459,0a0.51,0.51,0,0,0,.377-0.147,0.485,0.485,0,0,0,.147-0.357V56.169a0.5,0.5,0,0,0-.524-0.525h-7.069V51.8h6.439a0.532,0.532,0,0,0,.378-0.136,0.477,0.477,0,0,0,.147-0.367V50a0.478,0.478,0,0,0-.147-0.367,0.534,0.534,0,0,0-.378-0.136h-6.439V45.774h6.9a0.51,0.51,0,0,0,.377-0.147,0.485,0.485,0,0,0,.147-0.357V43.884a0.5,0.5,0,0,0-.524-0.525h-9.229a0.483,0.483,0,0,0-.356.147,0.512,0.512,0,0,0-.147.378V57.555a0.5,0.5,0,0,0,.5.5h9.4Zm8.871,0a8.318,8.318,0,0,0,3.451-.62,4.2,4.2,0,0,0,2.024-1.89,7.223,7.223,0,0,0,.713-3.224c0.027-.6.042-1.141,0.042-1.617s-0.015-1.022-.042-1.638a6.594,6.594,0,0,0-.724-3.129,4.5,4.5,0,0,0-2.076-1.932,8.171,8.171,0,0,0-3.493-.651h-5.117a0.487,0.487,0,0,0-.357.147,0.512,0.512,0,0,0-.147.378V57.555a0.5,0.5,0,0,0,.5.5h5.222Zm-2.81-12.285h2.6a3.554,3.554,0,0,1,2.6.819,3.6,3.6,0,0,1,.86,2.541q0.021,0.609.032,1.082t0,0.945q-0.011.472-.032,1.1a4.9,4.9,0,0,1-.367,1.963,2.139,2.139,0,0,1-1.08,1.082,4.62,4.62,0,0,1-1.909.336h-2.705v-9.87ZM696.93,58.059a8.318,8.318,0,0,0,3.451-.62,4.2,4.2,0,0,0,2.024-1.89,7.21,7.21,0,0,0,.713-3.224q0.042-.9.042-1.617t-0.042-1.638a6.594,6.594,0,0,0-.724-3.129,4.5,4.5,0,0,0-2.076-1.932,8.169,8.169,0,0,0-3.492-.651h-5.118a0.487,0.487,0,0,0-.357.147,0.512,0.512,0,0,0-.146.378V57.555a0.5,0.5,0,0,0,.5.5h5.222Zm-2.81-12.285h2.6a3.554,3.554,0,0,1,2.6.819,3.6,3.6,0,0,1,.86,2.541q0.021,0.609.032,1.082t0,0.945q-0.01.472-.032,1.1a4.9,4.9,0,0,1-.367,1.963,2.139,2.139,0,0,1-1.08,1.082,4.615,4.615,0,0,1-1.908.336H694.12v-9.87Zm13.9,12.285a0.511,0.511,0,0,0,.378-0.147,0.489,0.489,0,0,0,.147-0.357V51.78a1.932,1.932,0,0,1,2.118-2.121H712.3a0.475,0.475,0,0,0,.367-0.147,0.5,0.5,0,0,0,.136-0.357V47.643a0.506,0.506,0,0,0-.136-0.357,0.477,0.477,0,0,0-.367-0.147h-0.86a4.153,4.153,0,0,0-1.772.357,3.14,3.14,0,0,0-1.248,1.029V47.664a0.5,0.5,0,0,0-.157-0.378,0.524,0.524,0,0,0-.368-0.147h-1.7a0.487,0.487,0,0,0-.357.147,0.512,0.512,0,0,0-.147.378v9.891a0.5,0.5,0,0,0,.5.5h1.824Zm12.563-.21a4.019,4.019,0,0,0,1.406-1.155v0.861a0.5,0.5,0,0,0,.136.357,0.475,0.475,0,0,0,.367.147h1.7a0.5,0.5,0,0,0,.5-0.5V47.643a0.5,0.5,0,0,0-.5-0.5H722.35a0.5,0.5,0,0,0-.5.5v5.775a2.707,2.707,0,0,1-.64,1.911,2.239,2.239,0,0,1-1.73.693q-2.286,0-2.286-2.6V47.643a0.507,0.507,0,0,0-.137-0.357,0.477,0.477,0,0,0-.367-0.147h-1.845a0.5,0.5,0,0,0-.5.5v5.9a5.794,5.794,0,0,0,.5,2.51,3.772,3.772,0,0,0,1.436,1.638,4.122,4.122,0,0,0,2.213.578A4.663,4.663,0,0,0,720.588,57.849Zm13.518,0.168a5.019,5.019,0,0,0,1.416-.661,4.516,4.516,0,0,0,.975-0.9,3.708,3.708,0,0,0,.566-0.966,2.9,2.9,0,0,0,.2-0.851,0.409,0.409,0,0,0-.136-0.367,0.543,0.543,0,0,0-.367-0.136h-1.846a0.466,0.466,0,0,0-.325.1,1.079,1.079,0,0,0-.22.315,2.412,2.412,0,0,1-.818,1.186,2.287,2.287,0,0,1-1.321.346,2.192,2.192,0,0,1-1.668-.651,3.113,3.113,0,0,1-.66-2.1,12.407,12.407,0,0,1,0-1.47,3.123,3.123,0,0,1,.66-2.09,2.174,2.174,0,0,1,1.668-.661,2.3,2.3,0,0,1,1.311.346,2.387,2.387,0,0,1,.828,1.186,1.066,1.066,0,0,0,.22.315,0.464,0.464,0,0,0,.325.1h1.846a0.541,0.541,0,0,0,.367-0.136,0.408,0.408,0,0,0,.136-0.367,2.86,2.86,0,0,0-.325-1.123,4.281,4.281,0,0,0-.912-1.2,4.712,4.712,0,0,0-1.552-.945,6.321,6.321,0,0,0-2.286-.367,5.894,5.894,0,0,0-2.653.567,4.181,4.181,0,0,0-1.783,1.648,5.5,5.5,0,0,0-.7,2.614q-0.021.336-.021,0.851t0.021,0.83a5.5,5.5,0,0,0,.7,2.614,4.178,4.178,0,0,0,1.783,1.648,5.894,5.894,0,0,0,2.653.567A6.612,6.612,0,0,0,734.106,58.017Zm7.561,0.042a0.475,0.475,0,0,0,.367-0.147,0.5,0.5,0,0,0,.136-0.357V53.481l4.006,4.221a3.52,3.52,0,0,0,.325.262,0.818,0.818,0,0,0,.451.095h1.993a0.462,0.462,0,0,0,.325-0.126,0.435,0.435,0,0,0,.136-0.336,0.575,0.575,0,0,0-.21-0.357l-4.845-5.208,4.321-4.053a0.421,0.421,0,0,0,.168-0.189,0.514,0.514,0,0,0,.042-0.189,0.434,0.434,0,0,0-.462-0.462h-1.95a0.767,0.767,0,0,0-.43.095c-0.091.063-.207,0.151-0.346,0.262l-3.524,3.339V43.653a0.506,0.506,0,0,0-.136-0.357,0.477,0.477,0,0,0-.367-0.147h-1.7a0.5,0.5,0,0,0-.5.5v13.9a0.5,0.5,0,0,0,.5.5h1.7Z" transform="translate(-528.469 -42.813)"/>
</svg>
