<svg xmlns="http://www.w3.org/2000/svg" width="192.093" height="23.563" viewBox="0 0 192.093 23.563">
  <defs>
    <style>
      .cls-1 {
        fill: #fff;
      }

      .cls-1, .cls-2 {
        fill-rule: evenodd;
      }

      .cls-2 {
        fill: #fbb900;
      }
    </style>
  </defs>
  <path id="ab_49_90_exkl." data-name="ab € 49,90 exkl." class="cls-1" d="M547.4,58.049a3.744,3.744,0,0,0,1.122-.578,3.607,3.607,0,0,0,.734-0.735v0.819a0.505,0.505,0,0,0,.137.357,0.475,0.475,0,0,0,.367.147h1.7a0.5,0.5,0,0,0,.5-0.5V50.961a4.759,4.759,0,0,0-.252-1.554,3.292,3.292,0,0,0-.8-1.281,3.854,3.854,0,0,0-1.457-.871,6.7,6.7,0,0,0-2.234-.326,6.054,6.054,0,0,0-2.076.315,4.589,4.589,0,0,0-1.395.766,3.329,3.329,0,0,0-.8.934,2.06,2.06,0,0,0-.283.819,0.477,0.477,0,0,0,.115.336,0.446,0.446,0,0,0,.346.126h1.657a0.533,0.533,0,0,0,.482-0.273,1.873,1.873,0,0,1,.7-0.809,2.233,2.233,0,0,1,1.227-.3,1.974,1.974,0,0,1,1.51.483,1.953,1.953,0,0,1,.441,1.365v0.441l-2.874.42a7.046,7.046,0,0,0-3.125,1.165,2.871,2.871,0,0,0-.682,3.969,3.619,3.619,0,0,0,1.395,1.155,4.435,4.435,0,0,0,1.972.431A4.946,4.946,0,0,0,547.4,58.049Zm-1.772-1.932a1.692,1.692,0,0,1-.724-0.483,1.162,1.162,0,0,1-.283-0.788,1.228,1.228,0,0,1,.608-1.029,4.513,4.513,0,0,1,1.846-.609l2.1-.336v0.441a3.591,3.591,0,0,1-.346,1.669,2.242,2.242,0,0,1-.944.977,2.816,2.816,0,0,1-1.332.315A2.721,2.721,0,0,1,545.627,56.117ZM562.616,57.9a3.656,3.656,0,0,0,1.363-1.04,4.829,4.829,0,0,0,.839-1.585,7.5,7.5,0,0,0,.336-2.006c0.013-.252.021-0.479,0.021-0.682s-0.008-.431-0.021-0.682a6.714,6.714,0,0,0-.315-1.953,4.885,4.885,0,0,0-.849-1.585,3.814,3.814,0,0,0-1.374-1.061,4.567,4.567,0,0,0-1.93-.378,4.3,4.3,0,0,0-1.919.389,4.115,4.115,0,0,0-1.311,1V43.653a0.506,0.506,0,0,0-.136-0.357,0.477,0.477,0,0,0-.367-0.147H555.17a0.5,0.5,0,0,0-.5.5v13.9a0.5,0.5,0,0,0,.5.5h1.657a0.475,0.475,0,0,0,.367-0.147,0.5,0.5,0,0,0,.136-0.357V56.778a4.132,4.132,0,0,0,1.332,1.071,4.36,4.36,0,0,0,2.024.42A4.684,4.684,0,0,0,562.616,57.9Zm-4.1-2.279a2.281,2.281,0,0,1-.776-1.019,4.224,4.224,0,0,1-.283-1.27q-0.021-.378-0.021-0.809t0.021-.808a3.035,3.035,0,0,1,.294-1.208,2.442,2.442,0,0,1,.8-0.956,2.276,2.276,0,0,1,1.363-.378,2.252,2.252,0,0,1,1.405.389,2.219,2.219,0,0,1,.734,1.019,4.778,4.778,0,0,1,.273,1.386q0.021,0.63,0,1.26a4.778,4.778,0,0,1-.273,1.386,2.217,2.217,0,0,1-.734,1.019,2.249,2.249,0,0,1-1.405.389A2.274,2.274,0,0,1,558.515,55.623Zm138.637,2.341a5.234,5.234,0,0,0,1.52-.767,4.049,4.049,0,0,0,.933-0.945,1.776,1.776,0,0,0,.347-0.819,0.356,0.356,0,0,0-.116-0.315,0.49,0.49,0,0,0-.346-0.126h-1.8a0.879,0.879,0,0,0-.346.053,1,1,0,0,0-.3.3,2.706,2.706,0,0,1-.356.378,2.33,2.33,0,0,1-1.636.588,2.011,2.011,0,0,1-1.227-.378,2.334,2.334,0,0,1-.776-1,3.69,3.69,0,0,1-.283-1.355V53.418h6.963a0.509,0.509,0,0,0,.377-0.147,0.485,0.485,0,0,0,.147-0.357V52.473a6.726,6.726,0,0,0-.587-2.888,4.459,4.459,0,0,0-1.741-1.953,5.388,5.388,0,0,0-2.852-.7,5.471,5.471,0,0,0-2.664.62,4.432,4.432,0,0,0-1.772,1.764,6.216,6.216,0,0,0-.724,2.74,4.913,4.913,0,0,0-.021.514q0,0.326.021,0.535a5.47,5.47,0,0,0,1.468,3.822,5.03,5.03,0,0,0,3.692,1.344A6.592,6.592,0,0,0,697.152,57.965Zm-4.394-6.373a3.664,3.664,0,0,1,.262-1.438,2.111,2.111,0,0,1,.786-0.966,2.459,2.459,0,0,1,2.517,0,2.184,2.184,0,0,1,.8.966,3.54,3.54,0,0,1,.273,1.438v0.063h-4.635V51.591Zm10.8,6.468a0.5,0.5,0,0,0,.367-0.115,2.6,2.6,0,0,0,.2-0.221l2.559-3.339,2.517,3.339a1.945,1.945,0,0,0,.21.221,0.506,0.506,0,0,0,.356.115h1.909a0.465,0.465,0,0,0,.461-0.462,0.427,0.427,0,0,0-.031-0.147,1.161,1.161,0,0,0-.115-0.21L708.4,52.494l3.356-4.536a1.161,1.161,0,0,0,.094-0.189,0.533,0.533,0,0,0,.032-0.189,0.423,0.423,0,0,0-.137-0.3,0.444,0.444,0,0,0-.325-0.136h-1.741a0.477,0.477,0,0,0-.367.126c-0.077.084-.143,0.161-0.2,0.231l-2.37,3.15-2.37-3.15a1.256,1.256,0,0,0-.189-0.231,0.511,0.511,0,0,0-.377-0.126h-1.825a0.465,0.465,0,0,0-.461.462,0.473,0.473,0,0,0,.031.168,1.174,1.174,0,0,0,.095.189l3.313,4.494L701.4,57.24a1.116,1.116,0,0,0-.116.21,0.452,0.452,0,0,0-.031.147,0.465,0.465,0,0,0,.461.462h1.846Zm12.668,0a0.475,0.475,0,0,0,.367-0.147,0.505,0.505,0,0,0,.137-0.357V53.481l4.006,4.221a3.391,3.391,0,0,0,.325.262,0.814,0.814,0,0,0,.451.095h1.992a0.462,0.462,0,0,0,.325-0.126,0.435,0.435,0,0,0,.137-0.336,0.58,0.58,0,0,0-.21-0.357l-4.845-5.208,4.32-4.053a0.421,0.421,0,0,0,.168-0.189,0.514,0.514,0,0,0,.042-0.189,0.434,0.434,0,0,0-.461-0.462H721.03a0.767,0.767,0,0,0-.43.095q-0.136.094-.346,0.262l-3.523,3.339V43.653a0.507,0.507,0,0,0-.137-0.357,0.477,0.477,0,0,0-.367-0.147h-1.7a0.5,0.5,0,0,0-.5.5v13.9a0.5,0.5,0,0,0,.5.5h1.7Zm11.577,0a0.5,0.5,0,0,0,.5-0.5v-13.9a0.5,0.5,0,0,0-.5-0.5h-1.74a0.5,0.5,0,0,0-.5.5v13.9a0.5,0.5,0,0,0,.5.5h1.74Zm5.768,0a0.5,0.5,0,0,0,.5-0.5V55.476a0.516,0.516,0,0,0-.147-0.378,0.487,0.487,0,0,0-.357-0.147h-2.1a0.487,0.487,0,0,0-.357.147,0.512,0.512,0,0,0-.146.378v2.079a0.5,0.5,0,0,0,.5.5h2.1Z" transform="translate(-541.969 -36.75)"/>
  <path id="ab_49_90_exkl._copy_2" data-name="ab € 49,90 exkl. copy 2" class="cls-2" d="M583.865,53.529a5.183,5.183,0,0,1-2.622-.66,4.859,4.859,0,0,1-1.843-1.89h5.064v-2.67h-5.843a8,8,0,0,1-.03-0.81q0-.6.03-0.87h5.843v-2.7h-5a4.792,4.792,0,0,1,1.828-1.8,5.232,5.232,0,0,1,2.577-.63,5.019,5.019,0,0,1,2.607.675,4.711,4.711,0,0,1,1.8,1.965H593.9a9.511,9.511,0,0,0-3.565-5.4,10.456,10.456,0,0,0-6.412-1.98,10.588,10.588,0,0,0-6.367,1.935,9.689,9.689,0,0,0-3.671,5.235H571.52v2.7h1.888q-0.03.3-.03,0.87a8,8,0,0,0,.03.81H571.52v2.67h2.337a9.763,9.763,0,0,0,3.671,5.28,11.456,11.456,0,0,0,12.809-.015,9.441,9.441,0,0,0,3.565-5.385h-5.633a4.809,4.809,0,0,1-1.8,1.98,4.931,4.931,0,0,1-2.607.69h0Zm32.419,4.53a0.693,0.693,0,0,0,.509-0.21,0.73,0.73,0,0,0,.21-0.54v-3.6h2.7a0.693,0.693,0,0,0,.509-0.21,0.734,0.734,0,0,0,.21-0.54v-2.52a0.7,0.7,0,0,0-.749-0.72H617V37.809a0.732,0.732,0,0,0-.21-0.54,0.7,0.7,0,0,0-.509-0.21h-3.8a1.312,1.312,0,0,0-1.109.51l-8.779,12.06a1.956,1.956,0,0,0-.24.45,1.289,1.289,0,0,0-.09.45v2.43a0.73,0.73,0,0,0,.21.54,0.693,0.693,0,0,0,.509.21h9.439v3.6a0.729,0.729,0,0,0,.209.54,0.694,0.694,0,0,0,.51.21h3.146Zm-3.775-16.08v7.89h-5.6Zm17.468,16.08a0.971,0.971,0,0,0,.689-0.225,3.763,3.763,0,0,0,.359-0.375l5.034-6.96q0.659-.929,1.319-1.92a11.3,11.3,0,0,0,1.108-2.13,6.637,6.637,0,0,0,.45-2.46,7.187,7.187,0,0,0-.54-2.775,6.553,6.553,0,0,0-1.618-2.31,7.671,7.671,0,0,0-2.651-1.575,10.679,10.679,0,0,0-3.641-.57,9.622,9.622,0,0,0-3.625.63,7.716,7.716,0,0,0-2.607,1.68,6.959,6.959,0,0,0-1.573,2.37,7.248,7.248,0,0,0-.524,2.7,6.691,6.691,0,0,0,.569,2.79,6.623,6.623,0,0,0,1.588,2.19,7.693,7.693,0,0,0,2.307,1.455,8.051,8.051,0,0,0,2.727.585,3.917,3.917,0,0,0,1.078-.09l-4.344,5.94-0.075.15a0.541,0.541,0,0,0-.045.24,0.662,0.662,0,0,0,.18.465,0.582,0.582,0,0,0,.449.2h3.386ZM628.748,47.2a3.127,3.127,0,0,1-1.273-1.2,3.566,3.566,0,0,1-.465-1.86,3.63,3.63,0,0,1,.465-1.89,3.135,3.135,0,0,1,1.273-1.2,3.785,3.785,0,0,1,1.768-.42,3.846,3.846,0,0,1,1.8.42,3.142,3.142,0,0,1,1.273,1.2,3.63,3.63,0,0,1,.465,1.89,3.566,3.566,0,0,1-.465,1.86,3.134,3.134,0,0,1-1.273,1.2,3.838,3.838,0,0,1-1.8.42A3.777,3.777,0,0,1,628.748,47.2ZM641.9,60.309a0.893,0.893,0,0,0,.7-0.255,1.91,1.91,0,0,0,.345-0.555l2.1-5.37a1.133,1.133,0,0,0,.06-0.36,0.563,0.563,0,0,0-.569-0.57h-3.116a0.864,0.864,0,0,0-.719.3,1.427,1.427,0,0,0-.3.69l-0.839,5.46a0.589,0.589,0,0,0,.135.465,0.508,0.508,0,0,0,.4.2h1.8Zm12.165-2.25a0.969,0.969,0,0,0,.689-0.225,3.794,3.794,0,0,0,.36-0.375l5.034-6.96q0.659-.929,1.318-1.92a11.361,11.361,0,0,0,1.109-2.13,6.657,6.657,0,0,0,.449-2.46,7.2,7.2,0,0,0-.539-2.775,6.565,6.565,0,0,0-1.618-2.31,7.666,7.666,0,0,0-2.652-1.575,10.673,10.673,0,0,0-3.64-.57,9.623,9.623,0,0,0-3.626.63,7.716,7.716,0,0,0-2.607,1.68,6.988,6.988,0,0,0-1.573,2.37,7.268,7.268,0,0,0-.524,2.7,6.707,6.707,0,0,0,.569,2.79,6.623,6.623,0,0,0,1.588,2.19,7.693,7.693,0,0,0,2.307,1.455,8.051,8.051,0,0,0,2.727.585,3.924,3.924,0,0,0,1.079-.09l-4.345,5.94-0.075.15a0.541,0.541,0,0,0-.045.24,0.662,0.662,0,0,0,.18.465,0.585,0.585,0,0,0,.449.2h3.386ZM652.839,47.2a3.13,3.13,0,0,1-1.274-1.2,3.566,3.566,0,0,1-.464-1.86,3.63,3.63,0,0,1,.464-1.89,3.138,3.138,0,0,1,1.274-1.2,3.779,3.779,0,0,1,1.768-.42,3.841,3.841,0,0,1,1.8.42,3.138,3.138,0,0,1,1.274,1.2,3.639,3.639,0,0,1,.464,1.89,3.575,3.575,0,0,1-.464,1.86,3.13,3.13,0,0,1-1.274,1.2,3.834,3.834,0,0,1-1.8.42A3.772,3.772,0,0,1,652.839,47.2Zm25,10.545a6.8,6.8,0,0,0,2.547-1.71,7.3,7.3,0,0,0,1.513-2.55,11.178,11.178,0,0,0,.6-3.1q0.029-.81.045-1.815t0-2.025q-0.017-1.019-.045-1.86a10.671,10.671,0,0,0-.615-3.09,7.231,7.231,0,0,0-1.543-2.52,7.07,7.07,0,0,0-2.547-1.7,9.692,9.692,0,0,0-3.625-.615,9.811,9.811,0,0,0-3.64.615,7.046,7.046,0,0,0-2.562,1.7,7.216,7.216,0,0,0-1.543,2.52,10.032,10.032,0,0,0-.585,3.09q-0.03.84-.045,1.86t0,2.025q0.015,1.006.045,1.815a11.546,11.546,0,0,0,.585,3.1,7.088,7.088,0,0,0,1.5,2.55,6.8,6.8,0,0,0,2.547,1.71A11.347,11.347,0,0,0,677.842,57.744Zm-6.217-4.425a5.555,5.555,0,0,1-.869-3.09q-0.03-.87-0.045-1.8t0-1.86q0.015-.929.045-1.74a5.631,5.631,0,0,1,.854-3.03,3.319,3.319,0,0,1,5.109,0,5.556,5.556,0,0,1,.869,3.03q0.029,0.81.045,1.74t0,1.86q-0.017.93-.045,1.8a5.563,5.563,0,0,1-.869,3.09A3.415,3.415,0,0,1,671.625,53.319Z" transform="translate(-541.969 -36.75)"/>
</svg>
