<svg id="elements" xmlns="http://www.w3.org/2000/svg" width="980" height="120" viewBox="0 0 980 120">
  <defs>
    <style>
      .cls-1 {
        fill: #dff2f1;
      }

      .cls-1, .cls-2, .cls-3, .cls-4, .cls-5, .cls-6 {
        fill-rule: evenodd;
      }

      .cls-2 {
        fill: #a3a2a2;
        opacity: 0.05;
      }

      .cls-3 {
        fill: #dfdab8;
      }

      .cls-4 {
        fill: #ff8830;
      }

      .cls-5 {
        fill: #f3af35;
      }

      .cls-6 {
        fill: #fff;
        opacity: 0.35;
      }
    </style>
  </defs>
  <path id="Compound_Shape" data-name="Compound Shape" class="cls-1" d="M16.07,13.77a0.672,0.672,0,1,0,.673.672A0.672,0.672,0,0,0,16.07,13.77Zm0,4.886a0.672,0.672,0,1,0,.673.672A0.672,0.672,0,0,0,16.07,18.656Zm0-9.772a0.672,0.672,0,1,0,.673.672A0.672,0.672,0,0,0,16.07,8.884ZM16.07,4a0.672,0.672,0,1,0,.673.672A0.672,0.672,0,0,0,16.07,4Zm5.262,4.886a0.672,0.672,0,1,0,.673.672A0.672,0.672,0,0,0,21.332,8.884Zm0,4.886a0.672,0.672,0,1,0,.673.672A0.672,0.672,0,0,0,21.332,13.77Zm0,4.886a0.672,0.672,0,1,0,.673.672A0.672,0.672,0,0,0,21.332,18.656ZM10.808,4a0.672,0.672,0,1,0,.673.672A0.673,0.673,0,0,0,10.808,4ZM5.668,18.656a0.672,0.672,0,1,0,.673.672A0.673,0.673,0,0,0,5.668,18.656ZM21.332,5.341a0.672,0.672,0,1,0-.673-0.672A0.672,0.672,0,0,0,21.332,5.341ZM10.808,8.884a0.672,0.672,0,1,0,.673.672A0.673,0.673,0,0,0,10.808,8.884Zm-5.14,0a0.672,0.672,0,1,0,.673.672A0.673,0.673,0,0,0,5.668,8.884Zm0,4.886a0.672,0.672,0,1,0,.673.672A0.673,0.673,0,0,0,5.668,13.77ZM5.668,4a0.672,0.672,0,1,0,.673.672A0.673,0.673,0,0,0,5.668,4Zm5.14,9.772a0.672,0.672,0,1,0,.673.672A0.673,0.673,0,0,0,10.808,13.77Zm0,4.886a0.672,0.672,0,1,0,.673.672A0.673,0.673,0,0,0,10.808,18.656Z"/>
  <path id="Shape" class="cls-2" d="M728.133,994.758C1234.12,1077.38,1713.12,732.937,1795.76,226.865s-261.9-984.992-767.89-1067.619S42.881-578.932-39.757-72.87,222.144,912.132,728.133,994.758ZM386.068-674.235L863.025,51.352,453.357-714.385c23.146-12.409,46.655-23.954,70.77-34.351L867.772,49.072,597.283-776.765c24.969-8.187,50.128-15.643,75.85-21.7L872.861,47.624,750.267-813.27c25.747-3.746,51.945-5.9,78.33-7.372L878.1,47.1,907-821.112c26.009,0.828,52.1,3.07,78.329,6.252L883.368,47.484,1062.88-802.043c25.86,5.429,51.28,11.691,76.09,19.263L888.485,48.8,1213.02-757.116c24.53,9.836,48.57,20.3,71.77,32.131L893.285,50.959,1353.12-686.467c22.36,13.959,43.72,29.063,64.59,44.787L897.649,53.951,1477.92-591.727c19.56,17.579,38.17,36.054,56.05,55.264L901.481,57.632,1584.6-477.107q24.36,30.977,45.78,63.936L904.558,61.908,1670.19-345.975c12.32,23.03,23.77,46.565,34.1,70.681L906.838,66.655,1732.08-202.174c8.21,24.819,15.58,49.964,21.55,75.571L908.283,71.744,1768.34-49.882c3.75,25.748,5.81,51.931,7.25,78.22L908.805,76.983l867.205,29.409c-0.82,25.961-3.06,51.987-6.23,78.223L908.367,82.242l849,179.545q-8.28,38.685-19.44,75.963L907.1,87.4,1712.04,411.31c-9.91,24.373-20.63,48.17-32.46,71.375L904.943,92.2,1641.23,550.587c-13.89,22.271-28.58,43.855-44.35,64.717L901.959,96.534,1547.42,675.5c-17.47,19.524-35.62,38.38-54.73,56.225L898.283,100.339,1433.63,782.428c-20.55,16.2-42.18,31.068-64.03,45.459L894.005,103.414,1302.71,867.392c-23.05,12.423-46.61,23.663-70.64,34.125L889.2,105.685,1159.35,929.359c-24.69,8.285-49.72,15.669-75.25,21.756L884.113,107.13,1007.6,966.375c-25.673,3.85-51.683,6.749-77.985,8.283L878.874,107.652,851.5,975.175c-25.816-.745-51.894-3.047-78.044-6.1L873.61,107.243,696.228,956.761c-25.88-5.339-51.217-11.484-76.048-18.958L868.489,105.956,546.27,912.563c-24.453-9.729-48.612-20.058-71.839-31.749L863.688,103.8l-457.4,738.592c-22.376-13.807-43.854-28.827-64.838-44.477l517.873-697.1L281.171,748.348c-19.581-17.429-38.3-35.778-56.2-54.838L855.549,97.134,173.979,634.4q-24.363-30.9-46.02-63.678L852.475,92.859,87.716,503.761c-12.434-23.047-23.987-46.508-34.523-70.646L850.2,88.082,25.085,360.138C16.774,335.3,9.21,310.177,3.139,284.553L848.747,83.023-11.64,207.575c-3.825-25.823-6.091-51.989-7.626-78.282L848.225,77.784-20.067,51.024C-19.346,25.047-17.188-1.1-14.1-27.4l862.71,99.881L-1.652-104.81c5.335-25.924,11.605-51.4,19-76.385L849.926,67.368,42.714-255.243c9.745-24.554,20.233-48.74,31.981-72.061L852.087,62.567,113.2-395.581C127.121-418,142.1-439.54,157.887-460.492L855.079,58.2l-647.374-579.3q26.365-29.322,55.127-56.162L858.75,54.427,322.25-628.287Q353.078-652.678,386.068-674.235Z"/>
  <g id="Shape-2" data-name="Shape">
    <path class="cls-3" d="M784.188,12.376h-2.825a0.773,0.773,0,0,1-.772-0.773V8.776A0.773,0.773,0,0,0,779.818,8h0a0.773,0.773,0,0,0-.773.773V11.6a0.773,0.773,0,0,1-.773.773h-2.824a0.773,0.773,0,0,0-.773.773h0a0.773,0.773,0,0,0,.773.773h2.824a0.773,0.773,0,0,1,.773.773v2.827a0.773,0.773,0,0,0,.773.773h0a0.773,0.773,0,0,0,.773-0.773V14.7a0.773,0.773,0,0,1,.772-0.773h2.825a0.773,0.773,0,0,0,.773-0.773h0A0.773,0.773,0,0,0,784.188,12.376Z"/>
    <path class="cls-3" d="M970.022,104.525H966.45a0.976,0.976,0,0,1-.977-0.976V99.983a0.977,0.977,0,0,0-.978-0.976h0a0.976,0.976,0,0,0-.977.976v3.566a0.977,0.977,0,0,1-.978.976h-3.572a0.975,0.975,0,0,0-.977.975h0a0.976,0.976,0,0,0,.977.976h3.572a0.977,0.977,0,0,1,.978.976v3.566a0.975,0.975,0,0,0,.977.975h0a0.976,0.976,0,0,0,.978-0.975v-3.566a0.976,0.976,0,0,1,.977-0.976h3.572A0.977,0.977,0,0,0,971,105.5h0A0.976,0.976,0,0,0,970.022,104.525Z"/>
    <path class="cls-4" d="M752.5,220.8h-4.881a1.334,1.334,0,0,1-1.335-1.333v-4.873a1.335,1.335,0,0,0-1.335-1.334h0a1.335,1.335,0,0,0-1.336,1.334v4.873a1.334,1.334,0,0,1-1.335,1.333h-4.881a1.334,1.334,0,0,0-1.335,1.333h0a1.334,1.334,0,0,0,1.335,1.333h4.881a1.334,1.334,0,0,1,1.335,1.334v4.873A1.335,1.335,0,0,0,744.946,231h0a1.334,1.334,0,0,0,1.335-1.333V224.8a1.335,1.335,0,0,1,1.335-1.334H752.5a1.334,1.334,0,0,0,1.335-1.333h0A1.334,1.334,0,0,0,752.5,220.8Z"/>
    <path class="cls-5" d="M474.248,18.659h-3.6a0.984,0.984,0,0,1-.984-0.985v-3.6a0.985,0.985,0,0,0-.984-0.985h0a0.985,0.985,0,0,0-.985.985v3.6a0.984,0.984,0,0,1-.984.985h-3.6a0.985,0.985,0,0,0-.985.985h0a0.985,0.985,0,0,0,.985.985h3.6a0.984,0.984,0,0,1,.984.985v3.6a0.985,0.985,0,0,0,.985.985h0a0.985,0.985,0,0,0,.984-0.985v-3.6a0.984,0.984,0,0,1,.984-0.985h3.6a0.985,0.985,0,0,0,.984-0.985h0A0.985,0.985,0,0,0,474.248,18.659Z"/>
    <path class="cls-6" d="M82.117,5.788h-3.6A0.985,0.985,0,0,1,77.535,4.8V1.2A0.985,0.985,0,0,0,76.551.217h0a0.985,0.985,0,0,0-.984.985V4.8a0.985,0.985,0,0,1-.984.985h-3.6A0.985,0.985,0,0,0,70,6.773h0a0.985,0.985,0,0,0,.984.985h3.6a0.985,0.985,0,0,1,.984.985v3.6a0.985,0.985,0,0,0,.984.985h0a0.985,0.985,0,0,0,.984-0.985v-3.6a0.985,0.985,0,0,1,.984-0.985h3.6A0.985,0.985,0,0,0,83.1,6.773h0A0.985,0.985,0,0,0,82.117,5.788Z"/>
  </g>
</svg>
