<svg xmlns="http://www.w3.org/2000/svg" width="284.938" height="76.594" viewBox="0 0 284.938 76.594">
  <defs>
    <style>
      .cls-1 {
        fill: #fff;
        fill-rule: evenodd;
      }
    </style>
  </defs>
  <path id="ROLL_BANNER_-_MINI" data-name="ROLL BANNER - MINI" class="cls-1" d="M302.6,54.67l4.328-.023c0.33,0,.5-0.122.493-0.362a0.684,0.684,0,0,0-.092-0.269L300.884,40.97a0.188,0.188,0,0,1,0-.18,0.143,0.143,0,0,1,.135-0.09,8.257,8.257,0,0,0,4.419-3.057A8.667,8.667,0,0,0,307,32.353a9.625,9.625,0,0,0-1.2-4.781,8.154,8.154,0,0,0-3.313-3.219,10.081,10.081,0,0,0-4.876-1.121l-12.4.064a0.537,0.537,0,0,0-.537.542l0.206,30.383a0.538,0.538,0,0,0,.544.537l4.148-.022a0.537,0.537,0,0,0,.537-0.542l-0.086-12.765a0.2,0.2,0,0,1,.223-0.226l5.41-.028a0.292,0.292,0,0,1,.272.178l6.038,12.914a0.639,0.639,0,0,0,.634.4h0Zm-12.445-26.9,6.762-.035a4.786,4.786,0,0,1,3.5,1.285,4.581,4.581,0,0,1,1.353,3.409,4.493,4.493,0,0,1-1.307,3.4,4.817,4.817,0,0,1-3.485,1.3l-6.762.035a0.2,0.2,0,0,1-.227-0.224l-0.061-8.944a0.2,0.2,0,0,1,.224-0.226h0ZM323.16,55.013a12.675,12.675,0,0,0,6.009-1.4,9.856,9.856,0,0,0,4.008-3.909,11.44,11.44,0,0,0,1.4-5.806l-0.069-10.248a11.255,11.255,0,0,0-1.482-5.723,9.945,9.945,0,0,0-4.061-3.844,13.8,13.8,0,0,0-11.991.062,9.9,9.9,0,0,0-4.009,3.886,11.227,11.227,0,0,0-1.4,5.738l0.069,10.248a11.611,11.611,0,0,0,1.46,5.791,9.709,9.709,0,0,0,4.061,3.867,12.728,12.728,0,0,0,6.005,1.34h0Zm-0.031-4.495a6.029,6.029,0,0,1-4.52-1.729,6.348,6.348,0,0,1-1.744-4.62L316.794,33.7a6.392,6.392,0,0,1,1.681-4.683,6.01,6.01,0,0,1,4.5-1.776,6.085,6.085,0,0,1,4.565,1.729,6.409,6.409,0,0,1,1.745,4.665L329.352,44.1a6.334,6.334,0,0,1-1.681,4.638,6.07,6.07,0,0,1-4.542,1.777h0Zm17.835,3.952,20.015-.1a0.538,0.538,0,0,0,.538-0.542l-0.024-3.416a0.538,0.538,0,0,0-.544-0.537l-15.1.079a0.2,0.2,0,0,1-.227-0.224l-0.178-26.2a0.538,0.538,0,0,0-.545-0.537l-4.147.022a0.537,0.537,0,0,0-.537.542l0.206,30.383a0.538,0.538,0,0,0,.545.537h0Zm25.695-.134,20.016-.1a0.521,0.521,0,0,0,.382-0.159,0.515,0.515,0,0,0,.155-0.383l-0.023-3.416a0.538,0.538,0,0,0-.544-0.537l-15.1.079a0.2,0.2,0,0,1-.227-0.224l-0.178-26.2a0.538,0.538,0,0,0-.545-0.537l-4.147.022a0.537,0.537,0,0,0-.537.542L366.115,53.8a0.538,0.538,0,0,0,.544.537h0ZM210.531,82.843a6.594,6.594,0,0,0,4.1-6.584q-0.028-4.269-2.7-6.368t-7.588-2.073l-11,.057a0.537,0.537,0,0,0-.537.542L193.012,98.8a0.54,0.54,0,0,0,.545.537l11.36-.059a11.8,11.8,0,0,0,7.446-2.264,7.713,7.713,0,0,0,2.818-6.51,7.574,7.574,0,0,0-4.648-7.392q-0.271-.133,0-0.27h0Zm-12.243-10.5,6.085-.032a5.57,5.57,0,0,1,3.773,1.171,4.1,4.1,0,0,1,1.4,3.251,3.9,3.9,0,0,1-1.354,3.176,5.694,5.694,0,0,1-3.756,1.166l-6.086.032a0.2,0.2,0,0,1-.227-0.224l-0.056-8.315a0.2,0.2,0,0,1,.224-0.226h0Zm6.6,22.394-6.446.034a0.2,0.2,0,0,1-.227-0.224l-0.061-8.9a0.2,0.2,0,0,1,.224-0.226l6.357-.033a5.523,5.523,0,0,1,3.795,1.216,4.929,4.929,0,0,1,.069,6.854,5.289,5.289,0,0,1-3.711,1.278h0Zm34.2,4.362,4.508-.023a0.4,0.4,0,0,0,.493-0.407,0.5,0.5,0,0,0-.046-0.224L234.009,68.113a0.567,0.567,0,0,0-.589-0.446l-5.635.029a0.565,0.565,0,0,0-.583.453l-9.576,30.435a0.487,0.487,0,0,0,.048.472,0.5,0.5,0,0,0,.407.155l4.508-.023a0.564,0.564,0,0,0,.583-0.453l1.455-4.817a0.264,0.264,0,0,1,.224-0.181l11.9-.062a0.267,0.267,0,0,1,.227.179l1.52,4.8a0.566,0.566,0,0,0,.589.446h0Zm-13.095-9.73,4.5-15.081a0.141,0.141,0,1,1,.271,0l4.745,15.033q0.091,0.269-.178.271l-9.151.048q-0.226,0-.183-0.269h0Zm40.835-21.338,0.187,20.945a0.178,0.178,0,0,1-.088.2,0.181,0.181,0,0,1-.182-0.111L253.663,67.921a0.647,0.647,0,0,0-.633-0.356l-4.012.021a0.538,0.538,0,0,0-.538.542l0.207,30.384a0.538,0.538,0,0,0,.544.537l4.148-.022a0.537,0.537,0,0,0,.537-0.542l-0.232-20.944a0.178,0.178,0,0,1,.088-0.2,0.181,0.181,0,0,1,.181.111L267.081,98.6a0.645,0.645,0,0,0,.633.356l4.012-.021a0.538,0.538,0,0,0,.538-0.542L272.057,68a0.538,0.538,0,0,0-.544-0.537l-4.148.022a0.524,0.524,0,0,0-.382.159,0.518,0.518,0,0,0-.155.383h0Zm29.708-.155,0.187,20.945a0.143,0.143,0,1,1-.269.091L283.371,67.766a0.647,0.647,0,0,0-.633-0.356l-4.012.021a0.538,0.538,0,0,0-.538.542L278.4,98.356a0.538,0.538,0,0,0,.544.537l4.148-.022a0.537,0.537,0,0,0,.537-0.542l-0.232-20.944a0.178,0.178,0,0,1,.088-0.2,0.181,0.181,0,0,1,.181.111L296.789,98.44a0.645,0.645,0,0,0,.633.356l4.012-.021a0.537,0.537,0,0,0,.538-0.542L301.765,67.85a0.538,0.538,0,0,0-.544-0.537l-4.148.022a0.524,0.524,0,0,0-.382.159,0.518,0.518,0,0,0-.155.383h0Zm32.752,3.245-0.023-3.416a0.54,0.54,0,0,0-.545-0.537l-20.286.106a0.538,0.538,0,0,0-.538.542L308.1,98.2a0.538,0.538,0,0,0,.544.537l20.286-.106a0.537,0.537,0,0,0,.538-0.542l-0.023-3.416a0.54,0.54,0,0,0-.545-0.537l-15.372.08a0.2,0.2,0,0,1-.227-0.224l-0.059-8.674a0.2,0.2,0,0,1,.224-0.226l10.323-.054a0.537,0.537,0,0,0,.537-0.542l-0.023-3.416a0.538,0.538,0,0,0-.544-0.537l-10.324.054a0.2,0.2,0,0,1-.227-0.224l-0.057-8.4a0.2,0.2,0,0,1,.224-0.226l15.372-.08a0.537,0.537,0,0,0,.538-0.542h0ZM352.465,98.51l4.328-.023c0.331,0,.5-0.122.494-0.362a0.719,0.719,0,0,0-.092-0.269L350.75,84.81a0.188,0.188,0,0,1,0-.18,0.144,0.144,0,0,1,.135-0.091,8.263,8.263,0,0,0,4.42-3.057,8.673,8.673,0,0,0,1.564-5.29,9.635,9.635,0,0,0-1.2-4.781,8.167,8.167,0,0,0-3.313-3.219,10.085,10.085,0,0,0-4.877-1.121l-12.4.065a0.537,0.537,0,0,0-.537.542l0.206,30.383a0.54,0.54,0,0,0,.545.537l4.147-.022a0.538,0.538,0,0,0,.538-0.542l-0.087-12.765a0.2,0.2,0,0,1,.224-0.226l5.409-.028a0.291,0.291,0,0,1,.272.178l6.039,12.914a0.638,0.638,0,0,0,.633.4h0Zm-12.444-26.9,6.762-.035a4.786,4.786,0,0,1,3.5,1.285,4.577,4.577,0,0,1,1.353,3.409,4.485,4.485,0,0,1-1.307,3.4,4.817,4.817,0,0,1-3.485,1.3L340.084,81a0.2,0.2,0,0,1-.227-0.224l-0.06-8.944a0.2,0.2,0,0,1,.224-0.226h0Zm29.9,15.531,14.2-.074a0.537,0.537,0,0,0,.537-0.542l-0.023-3.416a0.54,0.54,0,0,0-.545-0.536l-14.2.074a0.538,0.538,0,0,0-.538.542l0.024,3.416a0.538,0.538,0,0,0,.544.537h0Zm48.643-20.075L411.3,78.2a0.144,0.144,0,0,1-.135.091,0.26,0.26,0,0,1-.181-0.089L403.556,67.14a0.709,0.709,0,0,0-.634-0.356l-4.147.022a0.537,0.537,0,0,0-.537.542l0.206,30.383a0.538,0.538,0,0,0,.545.537l4.147-.022a0.537,0.537,0,0,0,.537-0.542L403.528,76.31a0.174,0.174,0,0,1,.111-0.18,0.111,0.111,0,0,1,.159.089l5.738,8.555a0.707,0.707,0,0,0,.634.356l2.074-.011a0.7,0.7,0,0,0,.628-0.363l5.577-8.659a0.11,0.11,0,0,1,.157-0.091,0.176,0.176,0,0,1,.114.179l0.145,21.439a0.54,0.54,0,0,0,.545.537l4.147-.022A0.538,0.538,0,0,0,424.1,97.6l-0.207-30.383a0.538,0.538,0,0,0-.544-0.537L419.2,66.7a0.7,0.7,0,0,0-.628.363h0ZM431.176,98.1l4.147-.022a0.538,0.538,0,0,0,.538-0.542l-0.207-30.383a0.538,0.538,0,0,0-.544-0.537l-4.148.022a0.524,0.524,0,0,0-.382.159,0.518,0.518,0,0,0-.155.383l0.206,30.383a0.54,0.54,0,0,0,.545.537h0Zm29.363-31.077,0.187,20.945a0.177,0.177,0,0,1-.089.2,0.18,0.18,0,0,1-.181-0.111L447.374,66.912a0.648,0.648,0,0,0-.633-0.356l-4.013.021a0.537,0.537,0,0,0-.537.542L442.4,97.5a0.54,0.54,0,0,0,.545.537l4.147-.022a0.538,0.538,0,0,0,.538-0.542l-0.233-20.944a0.178,0.178,0,0,1,.089-0.2,0.181,0.181,0,0,1,.181.111l13.127,21.147a0.647,0.647,0,0,0,.634.356l4.012-.021a0.537,0.537,0,0,0,.537-0.542L465.768,67a0.538,0.538,0,0,0-.544-0.536l-4.148.022a0.537,0.537,0,0,0-.537.542h0Zm12.517,30.859,4.147-.022a0.537,0.537,0,0,0,.537-0.542l-0.206-30.383a0.538,0.538,0,0,0-.544-0.537l-4.148.022a0.537,0.537,0,0,0-.537.542l0.206,30.383a0.538,0.538,0,0,0,.545.537h0Z" transform="translate(-192.812 -22.75)"/>
</svg>
