<svg xmlns="http://www.w3.org/2000/svg" width="20" height="20" viewBox="0 0 20 20">
  <defs>
    <style>
      .cls-1 {
        fill: #6c757d;
      }
    </style>
  </defs>
  <path id="account_circle_FILL0_wght500_GRAD0_opsz48" class="cls-1" d="M7.37,19.168a14.906,14.906,0,0,1,3.067-1.638,9.066,9.066,0,0,1,3.264-.579,9.266,9.266,0,0,1,3.288.579,14.112,14.112,0,0,1,3.067,1.638,8.517,8.517,0,0,0,1.527-2.66,8.821,8.821,0,0,0,.443-2.808A8.163,8.163,0,0,0,13.7,5.375,8.163,8.163,0,0,0,5.375,13.7a8.6,8.6,0,0,0,.456,2.808A8.734,8.734,0,0,0,7.37,19.168Zm6.33-4.68a3.271,3.271,0,0,1-2.426-.985,3.334,3.334,0,0,1-.973-2.438,3.364,3.364,0,0,1,3.4-3.4,3.271,3.271,0,0,1,2.426.985,3.334,3.334,0,0,1,.973,2.438,3.364,3.364,0,0,1-3.4,3.4Zm0,9.212a9.638,9.638,0,0,1-3.867-.788,10.163,10.163,0,0,1-5.345-5.333,9.941,9.941,0,0,1,0-7.759A10.2,10.2,0,0,1,9.821,4.488a9.941,9.941,0,0,1,7.759,0,10.2,10.2,0,0,1,5.333,5.333,9.911,9.911,0,0,1,0,7.746,10.163,10.163,0,0,1-5.333,5.345A9.612,9.612,0,0,1,13.7,23.7Zm0-1.675a8.968,8.968,0,0,0,2.6-.382A7.958,7.958,0,0,0,18.823,20.3,10.617,10.617,0,0,0,16.3,18.959a7.632,7.632,0,0,0-2.6-.456,7.528,7.528,0,0,0-2.586.456A11.178,11.178,0,0,0,8.577,20.3,7.958,7.958,0,0,0,11.1,21.643,8.968,8.968,0,0,0,13.7,22.025Zm0-9.089a1.842,1.842,0,0,0,1.342-.517,1.809,1.809,0,0,0,.53-1.355,1.778,1.778,0,0,0-.53-1.33,2,2,0,0,0-2.685,0,1.778,1.778,0,0,0-.53,1.33,1.809,1.809,0,0,0,.53,1.355A1.842,1.842,0,0,0,13.7,12.936Zm0-1.872Zm0,9.212Z" transform="translate(-3.7 -3.7)"/>
</svg>
