<svg xmlns="http://www.w3.org/2000/svg" width="20" height="20" viewBox="0 0 20 20">
  <defs>
    <style>
      .cls-1 {
        fill: #6c757d;
      }
    </style>
  </defs>
  <path id="map_FILL0_wght500_GRAD0_opsz48" class="cls-1" d="M19.307,25.7l-7.186-2.541L7.285,25.1a1.021,1.021,0,0,1-1.066-.055,1.062,1.062,0,0,1-.519-.956V8.842a1.186,1.186,0,0,1,.232-.724,1.464,1.464,0,0,1,.615-.478L12.121,5.7l7.186,2.514,4.809-1.94a1.087,1.087,0,0,1,1.066.068,1.031,1.031,0,0,1,.519.943V22.722a.891.891,0,0,1-.232.615,1.491,1.491,0,0,1-.587.4Zm-.929-2.3V9.744l-5.355-1.8V21.6Zm1.639,0,3.825-1.257V8.3L20.017,9.744ZM7.558,23.077,11.383,21.6V7.94L7.558,9.225ZM20.017,9.744v0Zm-8.634-1.8v0Z" transform="translate(-5.7 -5.7)"/>
</svg>
